<svg width="12" height="21" viewBox="0 0 12 21" fill="none" xmlns="http://www.w3.org/2000/svg">
<path d="M9.66683 5.72923L9.66683 15.4276C9.66683 17.3434 8.26433 19.0484 6.35766 19.2317C4.176 19.4426 2.3335 17.7284 2.3335 15.5834L2.3335 4.25339C2.3335 3.05256 3.19516 1.96173 4.38683 1.84256C5.76183 1.70506 6.91683 2.77756 6.91683 4.12506L6.91683 13.7501C6.91683 14.2542 6.50433 14.6667 6.00016 14.6667C5.496 14.6667 5.0835 14.2542 5.0835 13.7501L5.0835 5.72923C5.0835 5.35339 4.77183 5.04173 4.396 5.04173C4.02016 5.04173 3.7085 5.35339 3.7085 5.72923L3.7085 13.6217C3.7085 14.8226 4.57016 15.9134 5.76183 16.0326C7.13683 16.1701 8.29183 15.0976 8.29183 13.7501V4.28089C8.29183 2.36506 6.88933 0.660061 4.98266 0.476727C2.79183 0.265894 0.958496 1.98006 0.958496 4.12506L0.958496 15.3726C0.958496 18.0034 2.8835 20.3592 5.50516 20.6067C8.521 20.8817 11.0418 18.5351 11.0418 15.5834L11.0418 5.72923C11.0418 5.35339 10.7302 5.04173 10.3543 5.04173C9.9785 5.04173 9.66683 5.35339 9.66683 5.72923Z" fill="#142C52"/>
</svg>
