<svg width="25" height="25" viewBox="0 0 25 25" fill="none" xmlns="http://www.w3.org/2000/svg">
<path d="M12.3044 7.48511C9.76941 7.48511 7.70703 9.54739 7.70703 12.0823C7.70703 14.6172 9.76941 16.6795 12.3044 16.6795C14.8393 16.6795 16.9017 14.6172 16.9017 12.0823C16.9017 9.54739 14.8393 7.48511 12.3044 7.48511Z" fill="#264279"/>
<path d="M17.9878 0.00732422H6.62027C3.09611 0.00732422 0.229004 2.87443 0.229004 6.39859V17.7661C0.229004 21.2902 3.09611 24.1573 6.62027 24.1573H17.9878C21.5119 24.1573 24.379 21.2902 24.379 17.7661V6.39859C24.379 2.87443 21.5119 0.00732422 17.9878 0.00732422ZM12.3042 18.0946C8.989 18.0946 6.29184 15.3975 6.29184 12.0823C6.29184 8.76718 8.989 6.07011 12.3042 6.07011C15.6194 6.07011 18.3166 8.76718 18.3166 12.0823C18.3166 15.3975 15.6194 18.0946 12.3042 18.0946ZM19.5306 5.85677C19.399 5.98837 19.2165 6.06389 19.0302 6.06389C18.8444 6.06389 18.6618 5.98837 18.5297 5.85677C18.3981 5.7247 18.3231 5.54216 18.3231 5.35636C18.3231 5.17005 18.3981 4.98794 18.5297 4.85591C18.6618 4.72431 18.8439 4.64884 19.0302 4.64884C19.2165 4.64884 19.399 4.72431 19.5306 4.85591C19.6622 4.98798 19.7377 5.17005 19.7377 5.35636C19.7377 5.54263 19.6622 5.7247 19.5306 5.85677Z" fill="#264279"/>
</svg>
