<svg width="25" height="25" viewBox="0 0 25 25" fill="none" xmlns="http://www.w3.org/2000/svg">
<path d="M12.1107 0.00732422H12.1047C5.44685 0.00732422 0.0327148 5.42297 0.0327148 12.0823C0.0327148 14.7237 0.884003 17.1719 2.33149 19.1598L0.826647 23.6457L5.46798 22.1619C7.37734 23.4268 9.65499 24.1573 12.1107 24.1573C18.7686 24.1573 24.1827 18.7402 24.1827 12.0823C24.1827 5.42448 18.7686 0.00732422 12.1107 0.00732422ZM19.1369 17.0587C18.8456 17.8814 17.6894 18.5636 16.7672 18.7628C16.1362 18.8972 15.3121 19.0043 12.5379 17.8542C8.98935 16.3841 6.70416 12.7782 6.52605 12.5442C6.35549 12.3102 5.09214 10.6348 5.09214 8.90208C5.09214 7.16931 5.97211 6.32557 6.32681 5.96332C6.61812 5.66598 7.09961 5.53013 7.56148 5.53013C7.71091 5.53013 7.84525 5.53768 7.966 5.54372C8.3207 5.55881 8.49881 5.57994 8.73276 6.13992C9.02407 6.84178 9.73347 8.57454 9.818 8.75265C9.90403 8.93076 9.99007 9.17226 9.86932 9.40621C9.75612 9.64771 9.6565 9.75488 9.47839 9.96015C9.30028 10.1654 9.13123 10.3224 8.95313 10.5428C8.79012 10.7345 8.60597 10.9397 8.81125 11.2944C9.01652 11.6416 9.72593 12.7993 10.7704 13.7291C12.1183 14.929 13.2111 15.3124 13.602 15.4754C13.8933 15.5962 14.2405 15.5675 14.4533 15.3411C14.7235 15.0498 15.057 14.5668 15.3967 14.0913C15.6382 13.7502 15.943 13.7079 16.263 13.8287C16.5891 13.9419 18.3143 14.7947 18.669 14.9713C19.0237 15.1494 19.2576 15.2339 19.3437 15.3833C19.4282 15.5328 19.4282 16.2346 19.1369 17.0587Z" fill="#264279"/>
</svg>
