<svg width="26" height="26" viewBox="0 0 26 26" fill="none" xmlns="http://www.w3.org/2000/svg">
<g id="iconoir:calculator" clip-path="url(#clip0_622_6641)">
<g id="Group">
<path id="Vector" d="M1.08398 22.7497V3.24967C1.08398 2.67504 1.31226 2.12394 1.71859 1.71761C2.12492 1.31128 2.67602 1.08301 3.25065 1.08301H22.7507C23.3253 1.08301 23.8764 1.31128 24.2827 1.71761C24.689 2.12394 24.9173 2.67504 24.9173 3.24967V22.7497C24.9173 23.3243 24.689 23.8754 24.2827 24.2817C23.8764 24.6881 23.3253 24.9163 22.7507 24.9163H3.25065C2.67602 24.9163 2.12492 24.6881 1.71859 24.2817C1.31226 23.8754 1.08398 23.3243 1.08398 22.7497Z" stroke="#0D336D" stroke-width="1.5"/>
<path id="Vector_2" d="M16.2513 7.58268H20.5846M16.2513 16.791H20.5846M16.2513 20.041H20.5846M5.41797 7.58268H7.58464M7.58464 7.58268H9.7513M7.58464 7.58268V5.41602M7.58464 7.58268V9.74935M6.0528 19.9478L7.58464 18.416M7.58464 18.416L9.11755 16.8842M7.58464 18.416L6.0528 16.8842M7.58464 18.416L9.11755 19.9478" stroke="#0D336D" stroke-width="1.5" stroke-linecap="round" stroke-linejoin="round"/>
</g>
</g>
<defs>
<clipPath id="clip0_622_6641">
<rect width="26" height="26" fill="white"/>
</clipPath>
</defs>
</svg>
