<svg width="26" height="26" viewBox="0 0 26 26" fill="none" xmlns="http://www.w3.org/2000/svg">
<g id="mdi:sale-box-outline" clip-path="url(#clip0_622_6490)">
<path id="Vector" d="M23.1111 0H2.88889C1.28556 0 0 1.28556 0 2.88889V23.1111C0 23.8773 0.304364 24.6121 0.846136 25.1539C1.38791 25.6956 2.12271 26 2.88889 26H23.1111C24.7144 26 26 24.7144 26 23.1111V2.88889C26 2.12271 25.6956 1.38791 25.1539 0.846136C24.6121 0.304364 23.8773 0 23.1111 0ZM23.1111 23.1111H2.88889V2.88889H23.1111V23.1111ZM20.2222 17.6511C20.2222 19.0667 19.0667 20.2222 17.6511 20.2222C16.2356 20.2222 15.0944 19.0667 15.0944 17.6511C15.0944 16.2356 16.2356 15.0944 17.6511 15.0944C19.0667 15.0944 20.2222 16.2356 20.2222 17.6511ZM7.94444 20.2656L5.77778 18.0989L18.0989 5.77778L20.2656 7.94444L7.94444 20.2656ZM5.85 8.42111C5.85 6.99111 6.99111 5.85 8.42111 5.85C9.83667 5.85 10.9778 6.99111 10.9778 8.42111C10.9778 9.83667 9.83667 10.9778 8.42111 10.9778C6.99111 10.9778 5.85 9.83667 5.85 8.42111Z" fill="#0D336D"/>
</g>
<defs>
<clipPath id="clip0_622_6490">
<rect width="26" height="26" fill="white"/>
</clipPath>
</defs>
</svg>
