<svg width="26" height="26" viewBox="0 0 26 26" fill="none" xmlns="http://www.w3.org/2000/svg">
<g id="trident-svgrepo-com" clip-path="url(#clip0_622_6721)">
<path id="Vector" d="M23.4296 2.54335L17.0555 5.27417L18.271 6.48967L11.3884 13.3724L8.93217 10.9162L13.734 6.11429L14.9195 7.29973L17.6503 0.925668L11.2762 3.65648L12.521 4.90123L6.53448 10.8877L9.75036 14.1036L0.833984 23.02L0.833984 25.1309L2.94486 25.1309L11.8742 16.2275L15.0885 19.4417L21.075 13.4552L22.3181 14.6984L25.0489 8.32429L18.6749 11.0551L19.8619 12.2422L15.06 17.044L12.6039 14.5879L19.4865 7.70517L20.7004 8.91904L23.4296 2.54335Z" fill="#0D336D"/>
</g>
<defs>
<clipPath id="clip0_622_6721">
<rect width="26" height="26" fill="white" transform="translate(0 26) rotate(-90)"/>
</clipPath>
</defs>
</svg>
