<svg width="25" height="25" viewBox="0 0 25 25" fill="none" xmlns="http://www.w3.org/2000/svg">
<path d="M20.0986 4.84204H4.09863C2.99863 4.84204 2.10863 5.74204 2.10863 6.84204L2.09863 18.842C2.09863 19.942 2.99863 20.842 4.09863 20.842H20.0986C21.1986 20.842 22.0986 19.942 22.0986 18.842V6.84204C22.0986 5.74204 21.1986 4.84204 20.0986 4.84204ZM19.6986 9.09204L12.6286 13.512C12.3086 13.712 11.8886 13.712 11.5686 13.512L4.49863 9.09204C4.24863 8.93204 4.09863 8.66204 4.09863 8.37204C4.09863 7.70204 4.82863 7.30204 5.39863 7.65204L12.0986 11.842L18.7986 7.65204C19.3686 7.30204 20.0986 7.70204 20.0986 8.37204C20.0986 8.66204 19.9486 8.93204 19.6986 9.09204Z" fill="currentColor" />
</svg>
