<svg  viewBox="0 0 1920 374" fill="none" xmlns="http://www.w3.org/2000/svg">
<g clip-path="url(#clip0_150_4260)">
<g opacity="0.5">
<path d="M18.2217 122.18L63.1117 -309.446H2549.7L2483.35 213.391L2158.15 68.0343C1551.7 -122.59 1314.74 224.813 927.97 335.805C580.227 435.598 18.2217 331.305 18.2217 122.18Z" fill="url(#paint0_linear_150_4260)"/>
<path d="M18.2217 122.18L63.1117 -309.446H2549.7L2483.35 213.391L2158.15 68.0343C1551.7 -122.59 1314.74 224.813 927.97 335.805C580.227 435.598 18.2217 331.305 18.2217 122.18Z" fill="#96B5F2"/>
<path d="M18.2217 108.257L63.1117 -323.369H2549.7L2483.35 199.468L2158.15 54.1113C1551.7 -136.513 1314.74 210.89 927.97 321.882C580.227 421.675 18.2217 317.382 18.2217 108.257Z" fill="url(#paint1_linear_150_4260)"/>
<path d="M18.2217 108.257L63.1117 -323.369H2549.7L2483.35 199.468L2158.15 54.1113C1551.7 -136.513 1314.74 210.89 927.97 321.882C580.227 421.675 18.2217 317.382 18.2217 108.257Z" fill="#AEC9FF"/>
<path d="M-16.8643 94.3336L28.0257 -337.292H2514.61L2448.27 185.545L2123.06 40.1883C1516.62 -150.436 1279.65 196.967 892.885 307.959C545.141 407.752 -16.8643 303.459 -16.8643 94.3336Z" fill="url(#paint2_linear_150_4260)"/>
<path d="M-16.8643 94.3336L28.0257 -337.292H2514.61L2448.27 185.545L2123.06 40.1883C1516.62 -150.436 1279.65 196.967 892.885 307.959C545.141 407.752 -16.8643 303.459 -16.8643 94.3336Z" fill="#DEE9FF"/>
</g>
<g opacity="0.5">
<path d="M2514.61 94.4714L2469.72 -337.154H-16.8645L49.4814 185.683L374.685 40.3261C981.131 -150.298 1218.1 197.105 1604.86 308.097C1952.61 407.89 2514.61 303.597 2514.61 94.4714Z" fill="url(#paint3_linear_150_4260)"/>
<path d="M2514.61 94.4714L2469.72 -337.154H-16.8645L49.4814 185.683L374.685 40.3261C981.131 -150.298 1218.1 197.105 1604.86 308.097C1952.61 407.89 2514.61 303.597 2514.61 94.4714Z" fill="#96B5F2"/>
<path d="M2514.61 80.5484L2469.72 -351.077H-16.8645L49.4814 171.76L374.685 26.4032C981.131 -164.221 1218.1 183.182 1604.86 294.174C1952.61 393.967 2514.61 289.674 2514.61 80.5484Z" fill="url(#paint4_linear_150_4260)"/>
<path d="M2514.61 80.5484L2469.72 -351.077H-16.8645L49.4814 171.76L374.685 26.4032C981.131 -164.221 1218.1 183.182 1604.86 294.174C1952.61 393.967 2514.61 289.674 2514.61 80.5484Z" fill="#AEC9FF"/>
<path d="M2549.7 66.6254L2504.81 -365H18.2214L84.5674 157.837L409.771 12.4802C1016.22 -178.144 1253.18 169.259 1639.95 280.251C1987.69 380.044 2549.7 275.751 2549.7 66.6254Z" fill="url(#paint5_linear_150_4260)"/>
<path d="M2549.7 66.6254L2504.81 -365H18.2214L84.5674 157.837L409.771 12.4802C1016.22 -178.144 1253.18 169.259 1639.95 280.251C1987.69 380.044 2549.7 275.751 2549.7 66.6254Z" fill="#DEE9FF"/>
</g>
<path d="M-86 110.625L-41.11 -321H2445.48L2379.13 201.837L2053.93 56.4802C1447.48 -134.144 1210.52 213.259 823.749 324.251C476.005 424.044 -86 319.751 -86 110.625Z" fill="url(#paint6_linear_150_4260)"/>
</g>
<defs>
<linearGradient id="paint0_linear_150_4260" x1="1168.25" y1="-366.469" x2="1168.55" y2="156.719" gradientUnits="userSpaceOnUse">
<stop stop-color="#B1DEFF"/>
<stop offset="0.354167" stop-color="#6299C0"/>
<stop offset="0.601721" stop-color="#3B6B8E"/>
<stop offset="1" stop-color="#09213D"/>
</linearGradient>
<linearGradient id="paint1_linear_150_4260" x1="1168.25" y1="-380.392" x2="1168.55" y2="142.796" gradientUnits="userSpaceOnUse">
<stop stop-color="#B1DEFF"/>
<stop offset="0.354167" stop-color="#6299C0"/>
<stop offset="0.601721" stop-color="#3B6B8E"/>
<stop offset="1" stop-color="#09213D"/>
</linearGradient>
<linearGradient id="paint2_linear_150_4260" x1="1133.17" y1="-394.315" x2="1133.46" y2="128.873" gradientUnits="userSpaceOnUse">
<stop stop-color="#B1DEFF"/>
<stop offset="0.354167" stop-color="#6299C0"/>
<stop offset="0.601721" stop-color="#3B6B8E"/>
<stop offset="1" stop-color="#09213D"/>
</linearGradient>
<linearGradient id="paint3_linear_150_4260" x1="1364.58" y1="-394.177" x2="1364.29" y2="129.011" gradientUnits="userSpaceOnUse">
<stop stop-color="#B1DEFF"/>
<stop offset="0.354167" stop-color="#6299C0"/>
<stop offset="0.601721" stop-color="#3B6B8E"/>
<stop offset="1" stop-color="#09213D"/>
</linearGradient>
<linearGradient id="paint4_linear_150_4260" x1="1364.58" y1="-408.1" x2="1364.29" y2="115.088" gradientUnits="userSpaceOnUse">
<stop stop-color="#B1DEFF"/>
<stop offset="0.354167" stop-color="#6299C0"/>
<stop offset="0.601721" stop-color="#3B6B8E"/>
<stop offset="1" stop-color="#09213D"/>
</linearGradient>
<linearGradient id="paint5_linear_150_4260" x1="1399.67" y1="-422.023" x2="1399.37" y2="101.165" gradientUnits="userSpaceOnUse">
<stop stop-color="#B1DEFF"/>
<stop offset="0.354167" stop-color="#6299C0"/>
<stop offset="0.601721" stop-color="#3B6B8E"/>
<stop offset="1" stop-color="#09213D"/>
</linearGradient>
<linearGradient id="paint6_linear_150_4260" x1="-772.5" y1="-396.5" x2="1976.98" y2="-127.766" gradientUnits="userSpaceOnUse">
<stop offset="0.106947" stop-color="#F1FAFC"/>
<stop offset="0.210416" stop-color="#39AFDD"/>
<stop offset="0.417878" stop-color="#1664AB"/>
<stop offset="0.63123" stop-color="#08367A"/>
<stop offset="1" stop-color="#142C52"/>
</linearGradient>
<clipPath id="clip0_150_4260">
<rect width="1920" height="4657" fill="white" transform="translate(0 -215)"/>
</clipPath>
</defs>
</svg>
