<svg width="211" height="87" viewBox="0 0 211 87" fill="none" xmlns="http://www.w3.org/2000/svg">
<g filter="url(#filter0_d_29_87)">
<circle cx="138.5" cy="42.5" r="2.5" fill="url(#paint0_linear_29_87)"/>
<circle cx="135.5" cy="50.5" r="2.5" fill="url(#paint1_linear_29_87)"/>
<circle cx="129.5" cy="18.5" r="2.5" fill="url(#paint2_linear_29_87)"/>
<circle cx="135.5" cy="32.5" r="2.5" fill="url(#paint3_linear_29_87)"/>
<circle cx="132.5" cy="39.5" r="2.5" fill="url(#paint4_linear_29_87)"/>
<circle cx="129.5" cy="46.5" r="2.5" fill="url(#paint5_linear_29_87)"/>
<circle cx="126.5" cy="53.5" r="2.5" fill="url(#paint6_linear_29_87)"/>
<circle cx="99.5" cy="15.5" r="2.5" fill="url(#paint7_linear_29_87)"/>
<circle cx="96.5" cy="22.5" r="2.5" fill="url(#paint8_linear_29_87)"/>
<circle cx="93.5" cy="29.5" r="2.5" fill="url(#paint9_linear_29_87)"/>
<circle cx="90.5" cy="36.5" r="2.5" fill="url(#paint10_linear_29_87)"/>
<circle cx="97.5" cy="61.5" r="2.5" fill="url(#paint11_linear_29_87)"/>
<circle cx="117.5" cy="18.5" r="2.5" fill="url(#paint12_linear_29_87)"/>
<circle cx="93.5" cy="51.5" r="2.5" fill="url(#paint13_linear_29_87)"/>
<circle cx="87.5" cy="44.5" r="2.5" fill="url(#paint14_linear_29_87)"/>
<circle cx="126.5" cy="35.5" r="2.5" fill="url(#paint15_linear_29_87)"/>
<circle cx="123.5" cy="42.5" r="2.5" fill="url(#paint16_linear_29_87)"/>
<circle cx="120.5" cy="49.5" r="2.5" fill="url(#paint17_linear_29_87)"/>
<circle cx="117.5" cy="56.5" r="2.5" fill="url(#paint18_linear_29_87)"/>
<circle cx="114.5" cy="64.5" r="2.5" fill="url(#paint19_linear_29_87)"/>
<circle cx="135.5" cy="24.5" r="2.5" fill="url(#paint20_linear_29_87)"/>
<circle cx="117.5" cy="37.5" r="2.5" fill="url(#paint21_linear_29_87)"/>
<path d="M123 31C123 32.3807 121.881 33.5 120.5 33.5C119.119 33.5 118 32.3807 118 31C118 29.6193 119.119 28.5 120.5 28.5C121.881 28.5 123 29.6193 123 31Z" fill="url(#paint22_linear_29_87)"/>
<path d="M125.5 15C125.5 16.3807 124.381 17.5 123 17.5C121.619 17.5 120.5 16.3807 120.5 15C120.5 13.6193 121.619 12.5 123 12.5C124.381 12.5 125.5 13.6193 125.5 15Z" fill="url(#paint23_linear_29_87)"/>
<circle cx="114.5" cy="44.5" r="2.5" fill="url(#paint24_linear_29_87)"/>
<circle cx="111.5" cy="51.5" r="2.5" fill="url(#paint25_linear_29_87)"/>
<circle cx="108.5" cy="59.5" r="2.5" fill="url(#paint26_linear_29_87)"/>
<circle cx="103.5" cy="65.5" r="2.5" fill="url(#paint27_linear_29_87)"/>
<circle cx="123.5" cy="23.5" r="2.5" fill="url(#paint28_linear_29_87)"/>
<circle cx="129.5" cy="28.5" r="2.5" fill="url(#paint29_linear_29_87)"/>
<circle cx="123.5" cy="60.5" r="2.5" fill="url(#paint30_linear_29_87)"/>
<circle cx="114.5" cy="25.5" r="2.5" fill="url(#paint31_linear_29_87)"/>
<circle cx="111.5" cy="32.5" r="2.5" fill="url(#paint32_linear_29_87)"/>
<circle cx="108.5" cy="39.5" r="2.5" fill="url(#paint33_linear_29_87)"/>
<circle cx="105.5" cy="46.5" r="2.5" fill="url(#paint34_linear_29_87)"/>
<circle cx="102.5" cy="54.5" r="2.5" fill="url(#paint35_linear_29_87)"/>
<circle cx="108.5" cy="16.5" r="2.5" fill="url(#paint36_linear_29_87)"/>
<circle cx="105.5" cy="23.5" r="2.5" fill="url(#paint37_linear_29_87)"/>
<circle cx="102.5" cy="30.5" r="2.5" fill="url(#paint38_linear_29_87)"/>
<circle cx="99.5" cy="37.5" r="2.5" fill="url(#paint39_linear_29_87)"/>
<circle cx="96.5" cy="45.5" r="2.5" fill="url(#paint40_linear_29_87)"/>
<path fill-rule="evenodd" clip-rule="evenodd" d="M67.4364 0.327118C66.0542 0.489028 62.177 0.784488 58.8204 0.983733C49.4717 1.53839 44.6341 2.00221 44.1671 2.38814C43.9334 2.58128 42.6115 2.81176 41.2294 2.90043C39.8472 2.9891 37.6663 3.33374 36.3829 3.66618C35.0994 3.99825 32.4339 4.68718 30.4594 5.19696C27.0173 6.08512 19.6416 9.29206 14.5693 12.1055C9.31715 15.0188 5.21342 18.9991 4.401 21.9673C4.15868 22.8533 4.05745 27.4327 4.12314 34.5323C4.18022 40.6766 4.17591 48.208 4.11345 51.2689L4 56.8345L5.70705 59.1529C11.6991 67.2925 21.0087 72.8326 34.0795 76.0366C36.6299 76.662 39.7664 77.557 41.0499 78.0259C42.4453 78.5356 44.3214 78.9076 45.7169 78.9506C48.5016 79.0372 52.9213 77.9498 55.1905 76.62C57.8733 75.0476 61.2289 71.1291 67.18 62.619C71.9145 55.8486 73.4507 54.5548 76.4114 54.846C77.8725 54.9899 78.7976 56.077 83.5167 63.1956C87.4093 69.0674 88.9448 71.0519 91.4585 73.4608C95.9697 77.7835 96.9968 78.186 103.516 78.1863C109.38 78.1867 111.552 77.753 120.494 74.7959C131.666 71.1011 140.959 64.9357 145.374 58.288L146.775 56.1782L146.882 39.9133C146.95 29.5975 146.854 23.1516 146.621 22.2904C145.944 19.7867 141.081 15.1025 136.005 12.0636C132.103 9.72718 127.012 7.51502 122.5 6.19498C120.055 5.47949 116.844 4.5224 115.363 4.06754C109.48 2.26034 104.87 1.6669 91.6689 1.01675C88.016 0.836895 83.5734 0.521699 81.7964 0.31671C78.099 -0.109782 71.1272 -0.104759 67.4364 0.327118ZM92.5351 10.5238C94.4924 10.8189 97.0262 11.0601 98.1661 11.0601C99.3055 11.0601 100.671 11.2246 101.199 11.4256C101.728 11.6266 103.314 11.9311 104.723 12.102C109.995 12.7413 117.277 14.3705 120.03 15.5265C121.116 15.9824 122.928 16.6246 124.056 16.9535C126.969 17.8018 134.838 21.6761 135.862 22.7661L136.723 23.6819L136.968 37.0263C137.121 45.335 137.081 50.9702 136.863 51.9592C136.253 54.7257 132.852 58.628 128.843 61.1615C123.631 64.4553 116.414 67.2749 110.049 68.5041C104.905 69.4975 103.011 69.4425 100.618 68.2309C98.6658 67.2419 95.9959 64.3767 94.7164 61.8971C94.1589 60.8165 93.5023 59.816 91.41 56.8585C90.8611 56.0831 90.17 55.0003 89.8739 54.4532C89.5777 53.9057 88.0659 52.0781 86.5144 50.3918C84.3485 48.0382 83.1405 47.0542 81.3142 46.1556C79.0856 45.0596 78.6971 44.9857 75.152 44.9857C71.5979 44.9857 71.2227 45.0575 68.9657 46.1689C64.9424 48.1502 61.6173 51.9851 56.2944 60.7817C53.9649 64.6316 52.2909 66.7385 50.5634 67.9947C49.1801 69.0002 48.9884 69.0369 45.3579 68.988C40.9806 68.9295 35.5256 67.6544 29.3917 65.2562C24.5215 63.3521 21.7418 61.5108 16.9412 57.0086L12.9689 53.2829L13.194 48.4163C13.3178 45.7396 13.539 38.9663 13.6855 33.3641L13.9515 23.1786L15.4754 21.8262C16.3137 21.0824 18.0085 20.0585 19.2417 19.5505C24.1905 17.5125 29.568 15.6546 32.9724 14.8063C34.9469 14.3145 37.4509 13.5979 38.5369 13.2141C40.7979 12.415 44.9378 11.8528 51.6404 11.4349C54.2072 11.2752 56.5763 11.0325 56.9051 10.8961C58.3379 10.3012 63.2648 10.0747 75.6934 10.0323C85.8401 9.99786 89.8164 10.1142 92.5351 10.5238Z" fill="url(#paint41_linear_29_87)"/>
<path d="M166.449 24.2852V20.9219C166.449 20.4609 166.359 20.0273 166.18 19.6211C166.008 19.207 165.77 18.8477 165.465 18.543C165.16 18.2383 164.801 18 164.387 17.8281C163.98 17.6484 163.547 17.5586 163.086 17.5586C162.625 17.5586 162.188 17.6484 161.773 17.8281C161.367 18 161.012 18.2383 160.707 18.543C160.402 18.8477 160.16 19.207 159.98 19.6211C159.809 20.0273 159.723 20.4609 159.723 20.9219V24.2852H166.449ZM169.812 31H166.449V27.6367H159.723V31H156.371V20.9219C156.371 19.9922 156.547 19.1211 156.898 18.3086C157.25 17.4883 157.727 16.7734 158.328 16.1641C158.938 15.5547 159.648 15.0742 160.461 14.7227C161.281 14.3711 162.156 14.1953 163.086 14.1953C164.016 14.1953 164.887 14.3711 165.699 14.7227C166.52 15.0742 167.234 15.5547 167.844 16.1641C168.453 16.7734 168.934 17.4883 169.285 18.3086C169.637 19.1211 169.812 19.9922 169.812 20.9219V31ZM186.172 31H182.574L176.094 19.9375V31H172.73V14.1953H176.328L182.809 25.2695V14.1953H186.172V31ZM196.355 31H193.004V17.5586H187.953V14.1953H201.395V17.5586H196.355V31ZM206.539 31H203.176V14.1953H206.539V31ZM159.922 61H156.559V44.1953H168.324V47.5586H159.922V50.9219H164.961V54.2852H159.922V61ZM186.148 52.668C186.148 53.4648 186.043 54.2344 185.832 54.9766C185.629 55.7109 185.34 56.4023 184.965 57.0508C184.59 57.6914 184.137 58.2773 183.605 58.8086C183.074 59.3398 182.488 59.7969 181.848 60.1797C181.207 60.5547 180.516 60.8438 179.773 61.0469C179.031 61.2578 178.262 61.3633 177.465 61.3633C176.668 61.3633 175.898 61.2578 175.156 61.0469C174.422 60.8438 173.73 60.5547 173.082 60.1797C172.441 59.7969 171.855 59.3398 171.324 58.8086C170.793 58.2773 170.336 57.6914 169.953 57.0508C169.578 56.4023 169.285 55.7109 169.074 54.9766C168.871 54.2344 168.77 53.4648 168.77 52.668C168.77 51.8711 168.871 51.1016 169.074 50.3594C169.285 49.6172 169.578 48.9258 169.953 48.2852C170.336 47.6445 170.793 47.0586 171.324 46.5273C171.855 45.9961 172.441 45.543 173.082 45.168C173.73 44.793 174.422 44.5039 175.156 44.3008C175.898 44.0898 176.668 43.9844 177.465 43.9844C178.262 43.9844 179.031 44.0898 179.773 44.3008C180.516 44.5039 181.207 44.793 181.848 45.168C182.488 45.543 183.074 45.9961 183.605 46.5273C184.137 47.0586 184.59 47.6445 184.965 48.2852C185.34 48.9258 185.629 49.6172 185.832 50.3594C186.043 51.1016 186.148 51.8711 186.148 52.668ZM182.809 52.668C182.809 51.9336 182.668 51.2422 182.387 50.5938C182.105 49.9375 181.723 49.3711 181.238 48.8945C180.762 48.4102 180.195 48.0273 179.539 47.7461C178.891 47.4648 178.199 47.3242 177.465 47.3242C176.723 47.3242 176.027 47.4648 175.379 47.7461C174.73 48.0273 174.164 48.4102 173.68 48.8945C173.195 49.3711 172.812 49.9375 172.531 50.5938C172.25 51.2422 172.109 51.9336 172.109 52.668C172.109 53.4023 172.25 54.0938 172.531 54.7422C172.812 55.3828 173.195 55.9453 173.68 56.4297C174.164 56.9141 174.73 57.2969 175.379 57.5781C176.027 57.8594 176.723 58 177.465 58C178.199 58 178.891 57.8594 179.539 57.5781C180.195 57.2969 180.762 56.9141 181.238 56.4297C181.723 55.9453 182.105 55.3828 182.387 54.7422C182.668 54.0938 182.809 53.4023 182.809 52.668ZM201.734 59.3008C200.953 59.9648 200.082 60.4766 199.121 60.8359C198.16 61.1875 197.16 61.3633 196.121 61.3633C195.324 61.3633 194.555 61.2578 193.812 61.0469C193.078 60.8438 192.391 60.5547 191.75 60.1797C191.109 59.7969 190.523 59.3438 189.992 58.8203C189.461 58.2891 189.008 57.7031 188.633 57.0625C188.258 56.4141 187.965 55.7188 187.754 54.9766C187.551 54.2344 187.449 53.4648 187.449 52.668C187.449 51.8711 187.551 51.1055 187.754 50.3711C187.965 49.6367 188.258 48.9492 188.633 48.3086C189.008 47.6602 189.461 47.0742 189.992 46.5508C190.523 46.0195 191.109 45.5664 191.75 45.1914C192.391 44.8164 193.078 44.5273 193.812 44.3242C194.555 44.1133 195.324 44.0078 196.121 44.0078C197.16 44.0078 198.16 44.1875 199.121 44.5469C200.082 44.8984 200.953 45.4062 201.734 46.0703L199.977 49C199.469 48.4844 198.883 48.082 198.219 47.793C197.555 47.4961 196.855 47.3477 196.121 47.3477C195.387 47.3477 194.695 47.4883 194.047 47.7695C193.406 48.0508 192.844 48.4336 192.359 48.918C191.875 49.3945 191.492 49.957 191.211 50.6055C190.93 51.2461 190.789 51.9336 190.789 52.668C190.789 53.4102 190.93 54.1055 191.211 54.7539C191.492 55.4023 191.875 55.9688 192.359 56.4531C192.844 56.9375 193.406 57.3203 194.047 57.6016C194.695 57.8828 195.387 58.0234 196.121 58.0234C196.543 58.0234 196.953 57.9727 197.352 57.8711C197.75 57.7695 198.129 57.6289 198.488 57.4492V52.668H201.734V59.3008Z" fill="url(#paint42_linear_29_87)"/>
</g>
<defs>
<filter id="filter0_d_29_87" x="0" y="0" width="210.539" height="86.9555" filterUnits="userSpaceOnUse" color-interpolation-filters="sRGB">
<feFlood flood-opacity="0" result="BackgroundImageFix"/>
<feColorMatrix in="SourceAlpha" type="matrix" values="0 0 0 0 0 0 0 0 0 0 0 0 0 0 0 0 0 0 127 0" result="hardAlpha"/>
<feOffset dy="4"/>
<feGaussianBlur stdDeviation="2"/>
<feComposite in2="hardAlpha" operator="out"/>
<feColorMatrix type="matrix" values="0 0 0 0 0 0 0 0 0 0 0 0 0 0 0 0 0 0 0.25 0"/>
<feBlend mode="normal" in2="BackgroundImageFix" result="effect1_dropShadow_29_87"/>
<feBlend mode="normal" in="SourceGraphic" in2="effect1_dropShadow_29_87" result="shape"/>
</filter>
<linearGradient id="paint0_linear_29_87" x1="138.5" y1="40" x2="138.5" y2="45" gradientUnits="userSpaceOnUse">
<stop stop-color="#035896"/>
<stop offset="1" stop-color="#09D0F1"/>
</linearGradient>
<linearGradient id="paint1_linear_29_87" x1="135.5" y1="48" x2="135.5" y2="53" gradientUnits="userSpaceOnUse">
<stop stop-color="#035896"/>
<stop offset="1" stop-color="#09D0F1"/>
</linearGradient>
<linearGradient id="paint2_linear_29_87" x1="129.5" y1="16" x2="129.5" y2="21" gradientUnits="userSpaceOnUse">
<stop stop-color="#035896"/>
<stop offset="1" stop-color="#09D0F1"/>
</linearGradient>
<linearGradient id="paint3_linear_29_87" x1="135.5" y1="30" x2="135.5" y2="35" gradientUnits="userSpaceOnUse">
<stop stop-color="#035896"/>
<stop offset="1" stop-color="#09D0F1"/>
</linearGradient>
<linearGradient id="paint4_linear_29_87" x1="132.5" y1="37" x2="132.5" y2="42" gradientUnits="userSpaceOnUse">
<stop stop-color="#035896"/>
<stop offset="1" stop-color="#09D0F1"/>
</linearGradient>
<linearGradient id="paint5_linear_29_87" x1="129.5" y1="44" x2="129.5" y2="49" gradientUnits="userSpaceOnUse">
<stop stop-color="#035896"/>
<stop offset="1" stop-color="#09D0F1"/>
</linearGradient>
<linearGradient id="paint6_linear_29_87" x1="126.5" y1="51" x2="126.5" y2="56" gradientUnits="userSpaceOnUse">
<stop stop-color="#035896"/>
<stop offset="1" stop-color="#09D0F1"/>
</linearGradient>
<linearGradient id="paint7_linear_29_87" x1="99.5" y1="13" x2="99.5" y2="18" gradientUnits="userSpaceOnUse">
<stop stop-color="#035896"/>
<stop offset="1" stop-color="#09D0F1"/>
</linearGradient>
<linearGradient id="paint8_linear_29_87" x1="96.5" y1="20" x2="96.5" y2="25" gradientUnits="userSpaceOnUse">
<stop stop-color="#035896"/>
<stop offset="1" stop-color="#09D0F1"/>
</linearGradient>
<linearGradient id="paint9_linear_29_87" x1="93.5" y1="27" x2="93.5" y2="32" gradientUnits="userSpaceOnUse">
<stop stop-color="#035896"/>
<stop offset="1" stop-color="#09D0F1"/>
</linearGradient>
<linearGradient id="paint10_linear_29_87" x1="90.5" y1="34" x2="90.5" y2="39" gradientUnits="userSpaceOnUse">
<stop stop-color="#035896"/>
<stop offset="1" stop-color="#09D0F1"/>
</linearGradient>
<linearGradient id="paint11_linear_29_87" x1="97.5" y1="59" x2="97.5" y2="64" gradientUnits="userSpaceOnUse">
<stop stop-color="#035896"/>
<stop offset="1" stop-color="#09D0F1"/>
</linearGradient>
<linearGradient id="paint12_linear_29_87" x1="117.5" y1="16" x2="117.5" y2="21" gradientUnits="userSpaceOnUse">
<stop stop-color="#035896"/>
<stop offset="1" stop-color="#09D0F1"/>
</linearGradient>
<linearGradient id="paint13_linear_29_87" x1="93.5" y1="49" x2="93.5" y2="54" gradientUnits="userSpaceOnUse">
<stop stop-color="#035896"/>
<stop offset="1" stop-color="#09D0F1"/>
</linearGradient>
<linearGradient id="paint14_linear_29_87" x1="87.5" y1="42" x2="87.5" y2="47" gradientUnits="userSpaceOnUse">
<stop stop-color="#035896"/>
<stop offset="1" stop-color="#09D0F1"/>
</linearGradient>
<linearGradient id="paint15_linear_29_87" x1="126.5" y1="33" x2="126.5" y2="38" gradientUnits="userSpaceOnUse">
<stop stop-color="#035896"/>
<stop offset="1" stop-color="#09D0F1"/>
</linearGradient>
<linearGradient id="paint16_linear_29_87" x1="123.5" y1="40" x2="123.5" y2="45" gradientUnits="userSpaceOnUse">
<stop stop-color="#035896"/>
<stop offset="1" stop-color="#09D0F1"/>
</linearGradient>
<linearGradient id="paint17_linear_29_87" x1="120.5" y1="47" x2="120.5" y2="52" gradientUnits="userSpaceOnUse">
<stop stop-color="#035896"/>
<stop offset="1" stop-color="#09D0F1"/>
</linearGradient>
<linearGradient id="paint18_linear_29_87" x1="117.5" y1="54" x2="117.5" y2="59" gradientUnits="userSpaceOnUse">
<stop stop-color="#035896"/>
<stop offset="1" stop-color="#09D0F1"/>
</linearGradient>
<linearGradient id="paint19_linear_29_87" x1="114.5" y1="62" x2="114.5" y2="67" gradientUnits="userSpaceOnUse">
<stop stop-color="#035896"/>
<stop offset="1" stop-color="#09D0F1"/>
</linearGradient>
<linearGradient id="paint20_linear_29_87" x1="135.5" y1="22" x2="135.5" y2="27" gradientUnits="userSpaceOnUse">
<stop stop-color="#035896"/>
<stop offset="1" stop-color="#09D0F1"/>
</linearGradient>
<linearGradient id="paint21_linear_29_87" x1="117.5" y1="35" x2="117.5" y2="40" gradientUnits="userSpaceOnUse">
<stop stop-color="#035896"/>
<stop offset="1" stop-color="#09D0F1"/>
</linearGradient>
<linearGradient id="paint22_linear_29_87" x1="121.5" y1="31" x2="121.5" y2="36" gradientUnits="userSpaceOnUse">
<stop stop-color="#03609C"/>
<stop offset="1" stop-color="#09CCEF"/>
</linearGradient>
<linearGradient id="paint23_linear_29_87" x1="124.5" y1="-3" x2="124.5" y2="2" gradientUnits="userSpaceOnUse">
<stop stop-color="#035C99"/>
<stop offset="1" stop-color="#09D0F2"/>
</linearGradient>
<linearGradient id="paint24_linear_29_87" x1="114.5" y1="42" x2="114.5" y2="47" gradientUnits="userSpaceOnUse">
<stop stop-color="#035896"/>
<stop offset="1" stop-color="#09D0F1"/>
</linearGradient>
<linearGradient id="paint25_linear_29_87" x1="111.5" y1="49" x2="111.5" y2="54" gradientUnits="userSpaceOnUse">
<stop stop-color="#035896"/>
<stop offset="1" stop-color="#09D0F1"/>
</linearGradient>
<linearGradient id="paint26_linear_29_87" x1="108.5" y1="57" x2="108.5" y2="62" gradientUnits="userSpaceOnUse">
<stop stop-color="#035896"/>
<stop offset="1" stop-color="#09D0F1"/>
</linearGradient>
<linearGradient id="paint27_linear_29_87" x1="103.5" y1="63" x2="103.5" y2="68" gradientUnits="userSpaceOnUse">
<stop stop-color="#035896"/>
<stop offset="1" stop-color="#09D0F1"/>
</linearGradient>
<linearGradient id="paint28_linear_29_87" x1="123.5" y1="21" x2="123.5" y2="26" gradientUnits="userSpaceOnUse">
<stop stop-color="#035896"/>
<stop offset="1" stop-color="#09D0F1"/>
</linearGradient>
<linearGradient id="paint29_linear_29_87" x1="129.5" y1="26" x2="129.5" y2="31" gradientUnits="userSpaceOnUse">
<stop stop-color="#035896"/>
<stop offset="1" stop-color="#09D0F1"/>
</linearGradient>
<linearGradient id="paint30_linear_29_87" x1="123.5" y1="58" x2="123.5" y2="63" gradientUnits="userSpaceOnUse">
<stop stop-color="#035896"/>
<stop offset="1" stop-color="#09D0F1"/>
</linearGradient>
<linearGradient id="paint31_linear_29_87" x1="114.5" y1="23" x2="114.5" y2="28" gradientUnits="userSpaceOnUse">
<stop stop-color="#035896"/>
<stop offset="1" stop-color="#09D0F1"/>
</linearGradient>
<linearGradient id="paint32_linear_29_87" x1="111.5" y1="30" x2="111.5" y2="35" gradientUnits="userSpaceOnUse">
<stop stop-color="#035896"/>
<stop offset="1" stop-color="#09D0F1"/>
</linearGradient>
<linearGradient id="paint33_linear_29_87" x1="108.5" y1="37" x2="108.5" y2="42" gradientUnits="userSpaceOnUse">
<stop stop-color="#035896"/>
<stop offset="1" stop-color="#09D0F1"/>
</linearGradient>
<linearGradient id="paint34_linear_29_87" x1="105.5" y1="44" x2="105.5" y2="49" gradientUnits="userSpaceOnUse">
<stop stop-color="#035896"/>
<stop offset="1" stop-color="#09D0F1"/>
</linearGradient>
<linearGradient id="paint35_linear_29_87" x1="102.5" y1="52" x2="102.5" y2="57" gradientUnits="userSpaceOnUse">
<stop stop-color="#035896"/>
<stop offset="1" stop-color="#09D0F1"/>
</linearGradient>
<linearGradient id="paint36_linear_29_87" x1="108.5" y1="14" x2="108.5" y2="19" gradientUnits="userSpaceOnUse">
<stop stop-color="#035896"/>
<stop offset="1" stop-color="#09D0F1"/>
</linearGradient>
<linearGradient id="paint37_linear_29_87" x1="105.5" y1="21" x2="105.5" y2="26" gradientUnits="userSpaceOnUse">
<stop stop-color="#035896"/>
<stop offset="1" stop-color="#09D0F1"/>
</linearGradient>
<linearGradient id="paint38_linear_29_87" x1="102.5" y1="28" x2="102.5" y2="33" gradientUnits="userSpaceOnUse">
<stop stop-color="#035896"/>
<stop offset="1" stop-color="#09D0F1"/>
</linearGradient>
<linearGradient id="paint39_linear_29_87" x1="99.5" y1="35" x2="99.5" y2="40" gradientUnits="userSpaceOnUse">
<stop stop-color="#035896"/>
<stop offset="1" stop-color="#09D0F1"/>
</linearGradient>
<linearGradient id="paint40_linear_29_87" x1="96.5" y1="43" x2="96.5" y2="48" gradientUnits="userSpaceOnUse">
<stop stop-color="#035896"/>
<stop offset="1" stop-color="#09D0F1"/>
</linearGradient>
<linearGradient id="paint41_linear_29_87" x1="75.4517" y1="0" x2="75.4517" y2="78.9555" gradientUnits="userSpaceOnUse">
<stop/>
<stop offset="0.0001" stop-color="#025392"/>
<stop offset="1" stop-color="#09D2F3"/>
</linearGradient>
<linearGradient id="paint42_linear_29_87" x1="182" y1="7" x2="182" y2="67" gradientUnits="userSpaceOnUse">
<stop stop-color="#035695"/>
<stop offset="1" stop-color="#09CFF0"/>
</linearGradient>
</defs>
</svg>
