<svg  viewBox="0 0 1920 291" fill="none" xmlns="http://www.w3.org/2000/svg">
<g clip-path="url(#clip0_76_1331)">
<g opacity="0.5">
<path d="M2295.48 180.867L2250.59 490.877H-235.999L-169.653 115.356L155.55 219.756C761.996 356.67 998.961 107.152 1385.73 27.4331C1733.47 -44.2421 2295.48 30.6653 2295.48 180.867Z" fill="url(#paint0_linear_76_1331)"/>
<path d="M2295.48 180.867L2250.59 490.877H-235.999L-169.653 115.356L155.55 219.756C761.996 356.67 998.961 107.152 1385.73 27.4331C1733.47 -44.2421 2295.48 30.6653 2295.48 180.867Z" fill="#96B5F2"/>
<path d="M2295.48 190.867L2250.59 500.877H-235.999L-169.653 125.356L155.55 229.756C761.996 366.67 998.961 117.152 1385.73 37.4331C1733.47 -34.2421 2295.48 40.6653 2295.48 190.867Z" fill="url(#paint1_linear_76_1331)"/>
<path d="M2295.48 190.867L2250.59 500.877H-235.999L-169.653 125.356L155.55 229.756C761.996 366.67 998.961 117.152 1385.73 37.4331C1733.47 -34.2421 2295.48 40.6653 2295.48 190.867Z" fill="#AEC9FF"/>
<path d="M2330.56 200.867L2285.67 510.877H-200.913L-134.567 135.356L190.636 239.756C797.082 376.67 1034.05 127.152 1420.82 47.4331C1768.56 -24.2421 2330.56 50.6653 2330.56 200.867Z" fill="url(#paint2_linear_76_1331)"/>
<path d="M2330.56 200.867L2285.67 510.877H-200.913L-134.567 135.356L190.636 239.756C797.082 376.67 1034.05 127.152 1420.82 47.4331C1768.56 -24.2421 2330.56 50.6653 2330.56 200.867Z" fill="#DEE9FF"/>
</g>
<g opacity="0.5">
<path d="M-340.914 231.867L-296.024 541.877H2190.56L2124.22 166.356L1799.01 270.756C1192.57 407.67 955.603 158.152 568.835 78.4331C221.091 6.75793 -340.914 81.6653 -340.914 231.867Z" fill="url(#paint3_linear_76_1331)"/>
<path d="M-340.914 231.867L-296.024 541.877H2190.56L2124.22 166.356L1799.01 270.756C1192.57 407.67 955.603 158.152 568.835 78.4331C221.091 6.75793 -340.914 81.6653 -340.914 231.867Z" fill="#96B5F2"/>
<path d="M-340.914 241.867L-296.024 551.877H2190.56L2124.22 176.356L1799.01 280.756C1192.57 417.67 955.603 168.152 568.835 88.4331C221.091 16.7579 -340.914 91.6653 -340.914 241.867Z" fill="url(#paint4_linear_76_1331)"/>
<path d="M-340.914 241.867L-296.024 551.877H2190.56L2124.22 176.356L1799.01 280.756C1192.57 417.67 955.603 168.152 568.835 88.4331C221.091 16.7579 -340.914 91.6653 -340.914 241.867Z" fill="#AEC9FF"/>
<path d="M-376 251.867L-331.11 561.877H2155.48L2089.13 186.356L1763.93 290.756C1157.48 427.67 920.517 178.152 533.749 98.4331C186.005 26.7579 -376 101.665 -376 251.867Z" fill="url(#paint5_linear_76_1331)"/>
<path d="M-376 251.867L-331.11 561.877H2155.48L2089.13 186.356L1763.93 290.756C1157.48 427.67 920.517 178.152 533.749 98.4331C186.005 26.7579 -376 101.665 -376 251.867Z" fill="#DEE9FF"/>
</g>
<path d="M2311.07 197V473.5H-137.926V125.5L260.635 249.85C867.081 386.764 1104.05 137.246 1490.81 57.5268C1838.56 -14.1483 2311.07 46.7982 2311.07 197Z" fill="url(#paint6_linear_76_1331)"/>
</g>
<defs>
<linearGradient id="paint0_linear_76_1331" x1="1145.45" y1="531.833" x2="1145.3" y2="156.06" gradientUnits="userSpaceOnUse">
<stop stop-color="#B1DEFF"/>
<stop offset="0.354167" stop-color="#6299C0"/>
<stop offset="0.601721" stop-color="#3B6B8E"/>
<stop offset="1" stop-color="#09213D"/>
</linearGradient>
<linearGradient id="paint1_linear_76_1331" x1="1145.45" y1="541.833" x2="1145.3" y2="166.06" gradientUnits="userSpaceOnUse">
<stop stop-color="#B1DEFF"/>
<stop offset="0.354167" stop-color="#6299C0"/>
<stop offset="0.601721" stop-color="#3B6B8E"/>
<stop offset="1" stop-color="#09213D"/>
</linearGradient>
<linearGradient id="paint2_linear_76_1331" x1="1180.53" y1="551.833" x2="1180.38" y2="176.06" gradientUnits="userSpaceOnUse">
<stop stop-color="#B1DEFF"/>
<stop offset="0.354167" stop-color="#6299C0"/>
<stop offset="0.601721" stop-color="#3B6B8E"/>
<stop offset="1" stop-color="#09213D"/>
</linearGradient>
<linearGradient id="paint3_linear_76_1331" x1="809.119" y1="582.833" x2="809.269" y2="207.06" gradientUnits="userSpaceOnUse">
<stop stop-color="#B1DEFF"/>
<stop offset="0.354167" stop-color="#6299C0"/>
<stop offset="0.601721" stop-color="#3B6B8E"/>
<stop offset="1" stop-color="#09213D"/>
</linearGradient>
<linearGradient id="paint4_linear_76_1331" x1="809.119" y1="592.833" x2="809.269" y2="217.06" gradientUnits="userSpaceOnUse">
<stop stop-color="#B1DEFF"/>
<stop offset="0.354167" stop-color="#6299C0"/>
<stop offset="0.601721" stop-color="#3B6B8E"/>
<stop offset="1" stop-color="#09213D"/>
</linearGradient>
<linearGradient id="paint5_linear_76_1331" x1="774.033" y1="602.833" x2="774.183" y2="227.06" gradientUnits="userSpaceOnUse">
<stop stop-color="#B1DEFF"/>
<stop offset="0.354167" stop-color="#6299C0"/>
<stop offset="0.601721" stop-color="#3B6B8E"/>
<stop offset="1" stop-color="#09213D"/>
</linearGradient>
<linearGradient id="paint6_linear_76_1331" x1="3188.71" y1="551.225" x2="355.19" y2="270.258" gradientUnits="userSpaceOnUse">
<stop offset="0.121239" stop-color="#F1FAFC"/>
<stop offset="0.213361" stop-color="#39AFDD"/>
<stop offset="0.387489" stop-color="#1664AB"/>
<stop offset="0.70869" stop-color="#08367A"/>
<stop offset="1" stop-color="#142C52"/>
</linearGradient>
<clipPath id="clip0_76_1331">
<rect width="1920" height="1776" fill="white" transform="translate(0 -1303)"/>
</clipPath>
</defs>
</svg>
