<svg width="25" height="25" viewBox="0 0 25 25" fill="none" xmlns="http://www.w3.org/2000/svg">
<path d="M19.3287 15.6353L16.7887 15.3453C16.1787 15.2753 15.5787 15.4853 15.1487 15.9153L13.3087 17.7553C10.4787 16.3153 8.15867 14.0053 6.71867 11.1653L8.56867 9.31525C8.99867 8.88525 9.20867 8.28525 9.13867 7.67525L8.84867 5.15525C8.72867 4.14525 7.87867 3.38525 6.85867 3.38525H5.12867C3.99867 3.38525 3.05867 4.32525 3.12867 5.45525C3.65867 13.9953 10.4887 20.8153 19.0187 21.3453C20.1487 21.4153 21.0887 20.4753 21.0887 19.3453V17.6153C21.0987 16.6053 20.3387 15.7553 19.3287 15.6353Z" fill="currentColor" fill-opacity="0.85"/>
</svg>
