<svg  viewBox="0 0 730 129" fill="none" xmlns="http://www.w3.org/2000/svg">
<linearGradient id="paint0_linear_159_18694" x1="349.158" y1="-115.929" x2="349.26" y2="57.1289" gradientUnits="userSpaceOnUse">
<stop stop-color="#B1DEFF"/>
<stop offset="0.354167" stop-color="#6299C0"/>
<stop offset="0.601721" stop-color="#3B6B8E"/>
<stop offset="1" stop-color="#09213D"/>
</linearGradient>
<linearGradient id="paint1_linear_159_18694" x1="349.158" y1="-120.534" x2="349.26" y2="52.5234" gradientUnits="userSpaceOnUse">
<stop stop-color="#B1DEFF"/>
<stop offset="0.354167" stop-color="#6299C0"/>
<stop offset="0.601721" stop-color="#3B6B8E"/>
<stop offset="1" stop-color="#09213D"/>
</linearGradient>
<linearGradient id="paint2_linear_159_18694" x1="-235.508" y1="-213.588" x2="627.65" y2="-153.613" gradientUnits="userSpaceOnUse">
<stop offset="0.106947" stop-color="#F1FAFC"/>
<stop offset="0.210416" stop-color="#39AFDD"/>
<stop offset="0.417878" stop-color="#1664AB"/>
<stop offset="0.63123" stop-color="#08367A"/>
<stop offset="1" stop-color="#142C52"/>
</linearGradient>
<clipPath id="clip0_159_18694">
<rect y="-182" width="730" height="355" rx="10" fill="white"/>
</clipPath>
<rect y="-182" width="730" height="355" rx="10" fill="white"/>
<g opacity="0.5">
<path d="M-10.0415 45.7041L3.97936 -97.0669H780.636L759.914 75.8746L658.34 27.7943C468.924 -35.2595 394.911 79.6527 274.108 116.366C165.494 149.375 -10.0415 114.878 -10.0415 45.7041Z" fill="url(#paint0_linear_159_18694)"/>
<path d="M-10.0415 45.7041L3.97936 -97.0669H780.636L759.914 75.8746L658.34 27.7943C468.924 -35.2595 394.911 79.6527 274.108 116.366C165.494 149.375 -10.0415 114.878 -10.0415 45.7041Z" fill="#96B5F2"/>
<path d="M-10.0415 41.0987L3.97936 -101.672H780.636L759.914 71.2691L658.34 23.1888C468.924 -39.865 394.911 75.0473 274.108 111.761C165.494 144.77 -10.0415 110.272 -10.0415 41.0987Z" fill="url(#paint1_linear_159_18694)"/>
<path d="M-10.0415 41.0987L3.97936 -101.672H780.636L759.914 71.2691L658.34 23.1888C468.924 -39.865 394.911 75.0473 274.108 111.761C165.494 144.77 -10.0415 110.272 -10.0415 41.0987Z" fill="#AEC9FF"/>
</g>
<path d="M-21 36.6475L-6.97342 -191H770L749.269 66.8384L647.654 18.7255C458.161 -44.371 384.117 70.6191 263.265 107.357C154.607 140.389 -21 105.868 -21 36.6475Z" fill="url(#paint2_linear_159_18694)"/>
<defs>
</defs>
</svg>
