<svg width="34" height="20" viewBox="0 0 34 20" fill="none" xmlns="http://www.w3.org/2000/svg">
<path d="M32.7587 17.4564C32.6701 17.308 32.1218 16.1166 29.4836 13.668C26.7216 11.1039 27.0926 11.5203 30.4193 7.08673C32.4454 4.38663 33.2555 2.7377 33.002 2.03279C32.7608 1.36085 31.2706 1.53811 31.2706 1.53811L26.3156 1.56697C26.3156 1.56697 25.9487 1.5175 25.6746 1.68033C25.4087 1.8411 25.2376 2.21211 25.2376 2.21211C25.2376 2.21211 24.4523 4.30212 23.4052 6.07883C21.1977 9.82807 20.3135 10.0259 19.9528 9.79303C19.1139 9.25094 19.3242 7.61233 19.3242 6.44984C19.3242 2.81603 19.8745 1.30108 18.2503 0.909462C17.7103 0.77961 17.3145 0.693041 15.9356 0.678613C14.1672 0.660063 12.6687 0.684797 11.8216 1.09909C11.2568 1.37528 10.8219 1.99157 11.0878 2.02661C11.4155 2.06989 12.1575 2.22654 12.5512 2.76244C13.0603 3.45292 13.0418 5.00703 13.0418 5.00703C13.0418 5.00703 13.3344 9.28392 12.3595 9.8157C11.6896 10.1805 10.7724 9.43645 8.80404 6.03349C7.79613 4.29181 7.03351 2.36464 7.03351 2.36464C7.03351 2.36464 6.88717 2.006 6.6254 1.81431C6.30798 1.5814 5.86277 1.5072 5.86277 1.5072L1.15098 1.53605C1.15098 1.53605 0.444005 1.55666 0.1843 1.86378C-0.0465488 2.13791 0.16575 2.70266 0.16575 2.70266C0.16575 2.70266 3.85521 11.3327 8.03111 15.6838C11.8628 19.6721 16.2118 19.4104 16.2118 19.4104H18.1823C18.1823 19.4104 18.778 19.3444 19.0809 19.0167C19.3613 18.7158 19.351 18.151 19.351 18.151C19.351 18.151 19.3118 15.5065 20.5402 15.117C21.7501 14.7336 23.3042 17.6728 24.9511 18.8044C26.196 19.6598 27.1421 19.4722 27.1421 19.4722L31.5468 19.4104C31.5468 19.4104 33.8512 19.2681 32.7587 17.4564Z" fill="currentColor"/>
</svg>
