<svg viewBox="0 0 768 143" fill="none" xmlns="http://www.w3.org/2000/svg">
<g clip-path="url(#clip0_124_1467)">
<g opacity="0.5">
<path d="M1804.54 52.5032L1765.45 296.756H-400L-342.222 0.887543L-59.0186 83.1435C469.106 191.016 675.467 -5.57614 1012.28 -68.3857C1315.12 -124.858 1804.54 -65.8391 1804.54 52.5032Z" fill="url(#paint0_linear_124_1467)"/>
<path d="M1804.54 52.5032L1765.45 296.756H-400L-342.222 0.887543L-59.0186 83.1435C469.106 191.016 675.467 -5.57614 1012.28 -68.3857C1315.12 -124.858 1804.54 -65.8391 1804.54 52.5032Z" fill="#96B5F2"/>
<path d="M1804.54 60.382L1765.45 304.635H-400L-342.222 8.76633L-59.0186 91.0223C469.106 198.895 675.467 2.30264 1012.28 -60.5069C1315.12 -116.979 1804.54 -57.9603 1804.54 60.382Z" fill="url(#paint1_linear_124_1467)"/>
<path d="M1804.54 60.382L1765.45 304.635H-400L-342.222 8.76633L-59.0186 91.0223C469.106 198.895 675.467 2.30264 1012.28 -60.5069C1315.12 -116.979 1804.54 -57.9603 1804.54 60.382Z" fill="#AEC9FF"/>
<path d="M1835.09 68.2609L1796 312.514H-369.445L-311.668 16.6452L-28.4644 98.9012C499.66 206.774 706.021 10.1815 1042.84 -52.628C1345.67 -109.1 1835.09 -50.0814 1835.09 68.2609Z" fill="url(#paint2_linear_124_1467)"/>
<path d="M1835.09 68.2609L1796 312.514H-369.445L-311.668 16.6452L-28.4644 98.9012C499.66 206.774 706.021 10.1815 1042.84 -52.628C1345.67 -109.1 1835.09 -50.0814 1835.09 68.2609Z" fill="#DEE9FF"/>
</g>
<path d="M1888.59 80.1741L1849.51 324.909H-315.615L-325.945 4.69482L25.3149 110.875C553.359 218.96 759.689 21.9803 1096.46 -40.9531C1399.24 -97.5364 1888.59 -38.4014 1888.59 80.1741Z" fill="url(#paint3_linear_124_1467)"/>
</g>
<defs>
<linearGradient id="paint0_linear_124_1467" x1="803.033" y1="329.025" x2="802.926" y2="32.9577" gradientUnits="userSpaceOnUse">
<stop stop-color="#B1DEFF"/>
<stop offset="0.354167" stop-color="#6299C0"/>
<stop offset="0.601721" stop-color="#3B6B8E"/>
<stop offset="1" stop-color="#09213D"/>
</linearGradient>
<linearGradient id="paint1_linear_124_1467" x1="803.033" y1="336.904" x2="802.926" y2="40.8364" gradientUnits="userSpaceOnUse">
<stop stop-color="#B1DEFF"/>
<stop offset="0.354167" stop-color="#6299C0"/>
<stop offset="0.601721" stop-color="#3B6B8E"/>
<stop offset="1" stop-color="#09213D"/>
</linearGradient>
<linearGradient id="paint2_linear_124_1467" x1="833.587" y1="344.783" x2="833.48" y2="48.7153" gradientUnits="userSpaceOnUse">
<stop stop-color="#B1DEFF"/>
<stop offset="0.354167" stop-color="#6299C0"/>
<stop offset="0.601721" stop-color="#3B6B8E"/>
<stop offset="1" stop-color="#09213D"/>
</linearGradient>
<linearGradient id="paint3_linear_124_1467" x1="2267.79" y1="339.523" x2="121.486" y2="20.4736" gradientUnits="userSpaceOnUse">
<stop offset="0.106947" stop-color="#F1FAFC"/>
<stop offset="0.210416" stop-color="#39AFDD"/>
<stop offset="0.417878" stop-color="#1664AB"/>
<stop offset="0.63123" stop-color="#08367A"/>
<stop offset="1" stop-color="#142C52"/>
</linearGradient>
<clipPath id="clip0_124_1467">
<rect width="768" height="4975" fill="white" transform="translate(0 -2685)"/>
</clipPath>
</defs>
</svg>
