<svg width="1000" height="604" viewBox="0 0 1000 604" fill="none" xmlns="http://www.w3.org/2000/svg">
<g opacity="0.5">
<path d="M-259.518 372.942L-218.392 -22.4891H2059.68L1998.9 456.505L1700.97 323.337C1145.37 148.698 928.279 466.969 573.943 568.654C255.36 660.079 -259.518 564.531 -259.518 372.942Z" fill="url(#paint0_linear_117_902)"/>
<path d="M-259.518 372.942L-218.392 -22.4891H2059.68L1998.9 456.505L1700.97 323.337C1145.37 148.698 928.279 466.969 573.943 568.654C255.36 660.079 -259.518 564.531 -259.518 372.942Z" fill="#96B5F2"/>
<path d="M-259.518 360.187L-218.392 -35.2445H2059.68L1998.9 443.749L1700.97 310.582C1145.37 135.943 928.279 454.214 573.943 555.899C255.36 647.323 -259.518 551.776 -259.518 360.187Z" fill="url(#paint1_linear_117_902)"/>
<path d="M-259.518 360.187L-218.392 -35.2445H2059.68L1998.9 443.749L1700.97 310.582C1145.37 135.943 928.279 454.214 573.943 555.899C255.36 647.323 -259.518 551.776 -259.518 360.187Z" fill="#AEC9FF"/>
<path d="M-291.662 347.431L-250.536 -48H2027.54L1966.76 430.994L1668.82 297.826C1113.23 123.187 896.136 441.458 541.8 543.143C223.217 634.568 -291.662 539.02 -291.662 347.431Z" fill="url(#paint2_linear_117_902)"/>
<path d="M-291.662 347.431L-250.536 -48H2027.54L1966.76 430.994L1668.82 297.826C1113.23 123.187 896.136 441.458 541.8 543.143C223.217 634.568 -291.662 539.02 -291.662 347.431Z" fill="#DEE9FF"/>
</g>
<g opacity="0.5">
<path d="M2027.54 372.588L1986.41 -22.8433H-291.662L-230.879 456.151L67.0541 322.983C622.646 148.344 839.74 466.615 1194.08 568.3C1512.66 659.725 2027.54 564.177 2027.54 372.588Z" fill="url(#paint3_linear_117_902)"/>
<path d="M2027.54 372.588L1986.41 -22.8433H-291.662L-230.879 456.151L67.0541 322.983C622.646 148.344 839.74 466.615 1194.08 568.3C1512.66 659.725 2027.54 564.177 2027.54 372.588Z" fill="#96B5F2"/>
<path d="M2027.54 359.832L1986.41 -35.5988H-291.662L-230.879 443.395L67.0541 310.228C622.646 135.588 839.74 453.859 1194.08 555.544C1512.66 646.969 2027.54 551.422 2027.54 359.832Z" fill="url(#paint4_linear_117_902)"/>
<path d="M2027.54 359.832L1986.41 -35.5988H-291.662L-230.879 443.395L67.0541 310.228C622.646 135.588 839.74 453.859 1194.08 555.544C1512.66 646.969 2027.54 551.422 2027.54 359.832Z" fill="#AEC9FF"/>
<path d="M2059.68 347.077L2018.56 -48.3542H-259.518L-198.736 430.64L99.1976 297.472C654.79 122.833 871.884 441.104 1226.22 542.789C1544.8 634.214 2059.68 538.666 2059.68 347.077Z" fill="url(#paint5_linear_117_902)"/>
<path d="M2059.68 347.077L2018.56 -48.3542H-259.518L-198.736 430.64L99.1976 297.472C654.79 122.833 871.884 441.104 1226.22 542.789C1544.8 634.214 2059.68 538.666 2059.68 347.077Z" fill="#DEE9FF"/>
</g>
<path d="M-355 362.357L-313.874 -33.0743H1964.2L1903.42 445.92L1605.48 312.752C1049.89 138.113 832.797 456.384 478.461 558.069C159.878 649.494 -355 553.946 -355 362.357Z" fill="url(#paint6_linear_117_902)"/>
<defs>
<linearGradient id="paint0_linear_117_902" x1="794.078" y1="-74.7301" x2="794.345" y2="404.585" gradientUnits="userSpaceOnUse">
<stop stop-color="#B1DEFF"/>
<stop offset="0.354167" stop-color="#6299C0"/>
<stop offset="0.601721" stop-color="#3B6B8E"/>
<stop offset="1" stop-color="#09213D"/>
</linearGradient>
<linearGradient id="paint1_linear_117_902" x1="794.078" y1="-87.4855" x2="794.345" y2="391.83" gradientUnits="userSpaceOnUse">
<stop stop-color="#B1DEFF"/>
<stop offset="0.354167" stop-color="#6299C0"/>
<stop offset="0.601721" stop-color="#3B6B8E"/>
<stop offset="1" stop-color="#09213D"/>
</linearGradient>
<linearGradient id="paint2_linear_117_902" x1="761.934" y1="-100.241" x2="762.202" y2="379.074" gradientUnits="userSpaceOnUse">
<stop stop-color="#B1DEFF"/>
<stop offset="0.354167" stop-color="#6299C0"/>
<stop offset="0.601721" stop-color="#3B6B8E"/>
<stop offset="1" stop-color="#09213D"/>
</linearGradient>
<linearGradient id="paint3_linear_117_902" x1="973.942" y1="-75.0842" x2="973.674" y2="404.231" gradientUnits="userSpaceOnUse">
<stop stop-color="#B1DEFF"/>
<stop offset="0.354167" stop-color="#6299C0"/>
<stop offset="0.601721" stop-color="#3B6B8E"/>
<stop offset="1" stop-color="#09213D"/>
</linearGradient>
<linearGradient id="paint4_linear_117_902" x1="973.942" y1="-87.8397" x2="973.674" y2="391.475" gradientUnits="userSpaceOnUse">
<stop stop-color="#B1DEFF"/>
<stop offset="0.354167" stop-color="#6299C0"/>
<stop offset="0.601721" stop-color="#3B6B8E"/>
<stop offset="1" stop-color="#09213D"/>
</linearGradient>
<linearGradient id="paint5_linear_117_902" x1="1006.09" y1="-100.595" x2="1005.82" y2="378.72" gradientUnits="userSpaceOnUse">
<stop stop-color="#B1DEFF"/>
<stop offset="0.354167" stop-color="#6299C0"/>
<stop offset="0.601721" stop-color="#3B6B8E"/>
<stop offset="1" stop-color="#09213D"/>
</linearGradient>
<linearGradient id="paint6_linear_117_902" x1="-983.933" y1="-102.243" x2="1534.99" y2="143.956" gradientUnits="userSpaceOnUse">
<stop offset="0.106947" stop-color="#F1FAFC"/>
<stop offset="0.210416" stop-color="#39AFDD"/>
<stop offset="0.417878" stop-color="#1664AB"/>
<stop offset="0.63123" stop-color="#08367A"/>
<stop offset="1" stop-color="#142C52"/>
</linearGradient>
</defs>
</svg>
