<svg width="21" height="14" viewBox="0 0 21 14" fill="none" xmlns="http://www.w3.org/2000/svg">
<path d="M17.2079 6.14178L17.57 6.14178L17.3139 5.88572L13.3612 1.93299C13.0302 1.60197 13.0245 1.06762 13.3612 0.73091C13.6915 0.40058 14.2329 0.40058 14.5633 0.73091L20.2201 6.38776C20.5505 6.71809 20.5505 7.25952 20.2201 7.58985L14.5633 13.2467C14.2329 13.577 13.6915 13.577 13.3612 13.2467C13.0309 12.9164 13.0309 12.3749 13.3612 12.0446L17.3139 8.09189L17.57 7.83582L17.2079 7.83583H1.80707C1.33837 7.83583 0.960046 7.45751 0.960046 6.9888C0.960046 6.5201 1.33837 6.14178 1.80707 6.14178L17.2079 6.14178Z" fill="#41424F" stroke="white" stroke-width="0.3"/>
</svg>
