<svg width="21" height="14" viewBox="0 0 21 14" fill="none" xmlns="http://www.w3.org/2000/svg">
<path d="M3.93863 6.14178L3.5765 6.14178L3.83257 5.88572L7.78529 1.93299C8.11632 1.60197 8.122 1.06762 7.78529 0.73091C7.45496 0.40058 6.91354 0.40058 6.58321 0.73091L0.926358 6.38776C0.596028 6.71809 0.596028 7.25952 0.926358 7.58985L6.58321 13.2467C6.91354 13.577 7.45496 13.577 7.78529 13.2467C8.11562 12.9164 8.11562 12.3749 7.78529 12.0446L3.83257 8.09189L3.5765 7.83582L3.93863 7.83583H19.3394C19.8081 7.83583 20.1864 7.45751 20.1864 6.9888C20.1864 6.5201 19.8081 6.14178 19.3394 6.14178L3.93863 6.14178Z" fill="#41424F" stroke="white" stroke-width="0.3"/>
</svg>
