<svg width="164" height="163" viewBox="0 0 164 163" fill="none" xmlns="http://www.w3.org/2000/svg">
<path fill-rule="evenodd" clip-rule="evenodd" d="M95.5943 0.153104C89.3233 1.11709 83.0558 8.09168 80.5158 16.9325C80.241 17.8882 79.4213 20.6196 78.6935 23.0027C75.2173 34.3903 74.9132 40.751 77.5313 47.3145C78.2356 49.0799 78.6818 49.0106 78.6818 47.136C78.6818 44.3321 80.3091 41.5656 83.1726 39.5021C84.6023 38.4719 85.0187 38.3364 86.2445 38.501L87.6624 38.692L87.453 40.4782C87.2336 42.3517 87.5138 42.9015 88.8191 43.1566C89.24 43.2391 88.1988 44.0367 85.7154 45.5338C81.396 48.1381 78.8518 49.9887 78.088 51.0824C77.4238 52.0335 76.0816 58.5429 75.5687 63.3011C75.3579 65.2541 74.9695 68.4895 74.7048 70.4913C73.6366 78.5748 73.7461 81.2945 75.284 84.8766C77.3129 89.6019 77.2818 89.5561 78.472 89.5561C80.3737 89.5561 82.9469 87.9661 85.6487 85.1209L88.1853 82.4501L89.6212 83.1434C91.0066 83.8121 91.0661 83.9088 91.3025 85.8807C91.4376 87.0049 92.1557 89.8788 92.8987 92.2675C94.053 95.9781 94.2423 97.0291 94.2005 99.4909C94.1736 101.075 94.0143 102.287 93.8466 102.183C93.679 102.079 93.5418 102.181 93.5418 102.41C93.5418 102.841 90.575 112.42 89.3095 116.073C88.9134 117.217 88.0084 119.401 87.2985 120.926C85.1939 125.447 83.6409 129.413 82.8187 132.365C82.3937 133.89 81.6866 136.386 81.2474 137.911C80.3368 141.072 78.6818 152.878 78.6818 156.214C78.6818 159.351 79.0477 161.709 79.508 161.538C79.7188 161.46 79.8429 161.191 79.7835 160.941C78.7723 156.678 80.1819 145.093 82.8813 135.485C84.2322 130.676 86.7694 123.957 88.8067 119.793C89.6713 118.025 90.6583 115.491 91.0001 114.16C91.3419 112.829 91.7503 111.741 91.9076 111.741C93.1178 111.741 98.9447 116.029 100.153 117.809C100.604 118.472 101.087 119.016 101.227 119.017C101.367 119.019 101.854 119.605 102.31 120.32C103.786 122.637 108.276 127.177 109.752 127.844C111.381 128.581 111.542 129.291 110.34 130.423C109.492 131.223 107.248 136.487 105.949 140.725C104.981 143.88 102.192 150.556 100.067 154.804C99.1272 156.683 98.465 158.393 98.5953 158.605C98.7498 158.855 98.6727 158.89 98.3748 158.706C98.0548 158.508 97.9753 158.575 98.1111 158.93C98.2179 159.209 98.0946 159.819 97.8364 160.286C97.1128 161.597 97.2019 162.307 97.9854 161.473C98.6247 160.792 103.564 150.518 103.564 149.869C103.564 149.681 104.093 148.162 104.74 146.493C105.386 144.823 106.802 141.009 107.885 138.016C108.968 135.023 110.067 132.293 110.327 131.95C110.744 131.397 110.8 131.547 110.81 133.242C110.816 134.296 110.584 137.081 110.294 139.431C109.493 145.918 109.131 153.962 109.484 157.403C109.883 161.286 110.087 162.184 110.48 161.789C110.666 161.603 110.648 160.496 110.435 159.053C109.845 155.052 110.232 142.838 111.037 140.076C111.135 139.741 111.348 137.479 111.512 135.049C111.676 132.62 111.898 130.223 112.005 129.723C112.113 129.223 112.515 127.284 112.898 125.415C113.282 123.546 113.81 121.292 114.072 120.406C115.331 116.156 118.309 112.008 122.032 109.321C125.121 107.092 127.037 106.241 129.02 106.214C130.204 106.198 130.611 106.377 131.325 107.228C132.812 109.001 134.978 113.27 136.283 117C137.434 120.293 137.536 120.899 137.553 124.566C137.584 131.444 137.181 136.343 136.271 140.164C133.786 150.59 133.154 152.926 131.727 156.962C130.303 160.989 129.73 163.675 130.47 162.851C130.757 162.532 131.331 160.908 133.585 154.03C134.179 152.218 135.384 147.773 136.263 144.151C138.05 136.779 138.682 130.454 138.341 123.353C138.178 119.978 137.983 119.057 136.646 115.343C134.361 108.992 132.234 105.888 125.22 98.6632L119.36 92.6265L119.597 88.416C119.822 84.4145 120.299 81.4771 120.847 80.717C121.36 80.0046 122.571 76.3258 122.571 75.4787C122.571 74.9948 123.173 73.4526 123.909 72.0512C124.645 70.6497 125.518 68.7505 125.848 67.8309C126.476 66.0804 126.709 65.9227 131.142 64.2395C131.77 64.001 134.249 62.6557 136.651 61.2498C139.052 59.8438 141.788 58.4642 142.729 58.1838C143.671 57.9034 145.08 57.2954 145.86 56.8323C147.801 55.6815 159.456 43.5105 162.079 39.8952C164.216 36.9498 164.552 33.1362 163.177 27.4445C162.653 25.2732 162.313 22.8485 162.311 21.2696C162.308 18.2178 162.15 17.9208 158.684 14.4756C157.354 13.1525 155.398 10.9812 154.337 9.65048C153.277 8.31976 151.488 6.5405 150.363 5.69679C149.237 4.85309 147.691 3.47038 146.925 2.6239L145.533 1.0852L143.988 1.60481C143.138 1.89043 141.898 2.23741 141.232 2.37572C139.641 2.70606 136.724 3.92065 135.962 4.56989C135.63 4.85344 135.357 5.31064 135.357 5.58587C135.357 5.8611 136.55 7.74781 138.007 9.77838C139.464 11.809 141.126 14.1335 141.702 14.9435C142.277 15.7536 142.871 16.4167 143.022 16.4167C143.173 16.4167 143.523 16.9235 143.801 17.5433C144.078 18.1631 144.877 19.4168 145.576 20.3302L146.848 21.9902L145.768 22.3993C144.929 22.7168 144.688 23.0152 144.688 23.7348C144.688 24.6732 145.219 25.0825 146.436 25.0825C146.796 25.0825 147.6 25.3938 148.222 25.7744C148.845 26.155 149.554 26.467 149.799 26.4677C150.045 26.4684 150.864 27.1214 151.62 27.9187C152.677 29.0338 153.089 29.2737 153.403 28.9586C154.286 28.0729 154.618 28.5631 154.793 31.0068C154.913 32.698 155.18 33.7497 155.647 34.3775L156.326 35.2898L151.458 38.0348C148.78 39.5447 145.474 41.402 144.112 42.1625C142.75 42.9226 140.865 44.2208 139.923 45.0472C138.268 46.4999 138.113 46.5574 135.315 46.7651C132.017 47.0101 129.6 47.6077 126.372 48.9769C124.458 49.7884 123.45 49.9634 119.556 50.1589L114.985 50.3884L114.394 49.4345C114.07 48.9097 113.505 48.1405 113.14 47.7256C112.573 47.0812 112.494 46.5481 112.599 44.0714C112.713 41.3666 112.803 41.0689 113.931 39.6387L115.141 38.1055L115.24 41.4976C115.353 45.3671 115.68 45.6205 116.85 42.7486C117.92 40.1222 119.933 37.0715 121.186 36.1768C121.763 35.7644 122.489 34.9321 122.798 34.3276C123.107 33.723 123.726 32.7875 124.175 32.2485C125.238 30.9704 125.292 27.8046 124.299 24.9103C123.919 23.8024 123.309 21.6332 122.942 20.0897C120.928 11.6041 117.324 5.77548 111.927 2.27657C110.779 1.5327 109.167 0.751736 108.344 0.54133C106.54 0.0799632 97.8005 -0.185902 95.5943 0.153104ZM155.083 11.9757L157.457 14.9872L156.171 14.4482C154.391 13.7023 154.033 13.4125 151.966 11.0439C150.151 8.96415 148.835 6.81052 148.835 5.91795C148.835 5.1505 152.516 8.71942 155.083 11.9757ZM105.838 12.7438C107.615 14.876 110.177 19.2598 109.967 19.8085C109.871 20.0602 109.93 20.1805 110.098 20.0765C110.266 19.9721 110.497 20.133 110.612 20.4335C110.964 21.3531 110.851 21.6162 110.104 21.6162C109.71 21.6162 108.23 22.0062 106.814 22.4828C103.706 23.5293 103.635 23.5341 104.438 22.645C105.328 21.6585 107.24 20.5212 108.526 20.2137L109.611 19.9541L108.575 19.9267C107.366 19.8948 104.14 21.1576 102.576 22.2745C101.83 22.8072 101.487 23.3407 101.479 23.9795C101.458 25.6462 99.3801 27.4022 97.8765 27.0237C96.6753 26.7214 97.1404 25.3193 99.0902 23.3632C101.656 20.7892 103.909 15.6444 103.909 12.3577C103.909 11.7303 104.057 11.2173 104.238 11.2173C104.418 11.2173 105.139 11.9043 105.838 12.7438ZM155.133 14.6642C155.946 15.0347 157.017 15.4222 157.514 15.5255C158.011 15.6285 159.061 16.3391 159.847 17.1045C161.162 18.3842 161.277 18.6418 161.283 20.316C161.287 21.3171 161.445 23.1501 161.633 24.3893C161.821 25.6285 162.07 27.2663 162.185 28.0289C162.3 28.7915 162.493 29.4934 162.613 29.5888C162.92 29.8321 163.071 31.1261 163.101 33.7712C163.139 37.051 162.222 38.6882 157.663 43.4804C155.564 45.687 152.155 49.3107 150.088 51.533C148.02 53.7549 146.193 55.4888 146.027 55.3858C145.861 55.2829 145.725 55.373 145.725 55.5862C145.725 55.7993 145.569 55.8773 145.379 55.7595C145.189 55.6416 145.034 55.7054 145.034 55.9016C145.034 56.0974 144.775 56.1581 144.459 56.0364C144.098 55.8974 143.968 55.9525 144.111 56.1841C144.391 56.6389 143.494 57.0233 142.788 56.7515C142.502 56.6417 142.269 56.7339 142.269 56.956C142.269 57.1782 142.124 57.2704 141.947 57.1609C141.77 57.051 141.526 57.1224 141.405 57.3193C141.284 57.5162 141.058 57.5987 140.903 57.503C140.749 57.407 140.254 57.6129 139.804 57.9602C138.58 58.9048 132.092 62.5188 131.62 62.5188C131.395 62.5188 131.21 62.6841 131.21 62.8859C131.21 63.0876 131.055 63.1566 130.865 63.0387C130.675 62.9209 130.519 63.0159 130.519 63.2495C130.519 63.4831 130.422 63.5771 130.304 63.4582C130.185 63.3389 129.48 63.5528 128.737 63.9327C127.995 64.313 127.147 64.5792 126.853 64.5247C126.476 64.4544 125.984 65.2548 125.173 67.2607C123.704 70.8931 121.818 74.3362 121.367 74.209C121.174 74.1542 120.43 72.9445 119.715 71.5205C118.593 69.2864 118.437 68.694 118.577 67.1983C118.72 65.6794 118.682 65.5428 118.269 66.0926C117.618 66.9609 117.477 66.6018 116.707 62.1139C115.711 56.3054 115.243 52.0515 115.566 51.7281C115.722 51.5711 117.246 51.3392 118.952 51.213L122.052 50.9836L121.275 51.8339C120.847 52.3018 120.497 52.9594 120.497 53.2956C120.497 53.7812 120.788 53.6571 121.913 52.6914C124.123 50.7947 129.274 48.6535 131.629 48.6535C131.969 48.6535 132.247 48.5072 132.247 48.3284C132.247 48.1495 132.597 48.0306 133.025 48.0642C133.452 48.0982 135.001 47.9928 136.466 47.8303C138.705 47.5821 139.216 47.4042 139.664 46.7179C140.451 45.513 146.4 41.6429 146.427 42.3185C146.432 42.4665 146.596 42.3143 146.789 41.9808C146.983 41.6474 147.328 41.3767 147.557 41.3794C147.81 41.3829 147.77 41.5153 147.453 41.7209C147.136 41.9264 147.096 42.0588 147.349 42.0623C147.577 42.0651 147.923 41.7944 148.116 41.4609C148.31 41.1274 148.473 41.0013 148.479 41.1805C148.485 41.36 148.734 41.204 149.034 40.8338C149.333 40.464 149.477 40.395 149.354 40.681C149.23 40.9669 149.374 40.898 149.674 40.5281C149.973 40.1579 150.22 40.0019 150.223 40.1815C150.226 40.3676 150.337 40.3586 150.482 40.161C150.775 39.761 151.453 39.3194 153.81 37.9932C154.741 37.4698 155.95 36.6514 156.499 36.1748L157.496 35.3082L156.57 34.0135C155.824 32.9712 155.612 32.2197 155.48 30.1607C155.294 27.257 155.747 26.4847 156.84 27.839C157.31 28.4216 157.475 28.4854 157.475 28.0851C157.475 27.7876 156.914 27.1152 156.229 26.5907C155.156 25.7699 154.638 25.6313 152.504 25.5935C151.141 25.5696 149.719 25.3716 149.344 25.1536C148.969 24.9352 148.782 24.7522 148.928 24.7463C149.074 24.7408 150.692 24.4101 152.525 24.0118C155.641 23.3345 155.948 23.3234 157.254 23.8381C159.106 24.5678 159.706 23.999 158.126 23.0111C156.758 22.1559 155.866 22.1934 150.648 23.323C145.611 24.4135 144.869 24.1685 148.301 22.5476C149.812 21.8339 151.315 21.0086 151.639 20.7139C152.048 20.343 152.851 20.1947 154.247 20.2325C157.205 20.3118 159.104 20.202 158.512 19.9857C158.226 19.8817 157.604 19.4508 157.129 19.0283C156.654 18.6061 155.676 17.9069 154.955 17.475C153.725 16.7374 153.414 16.7044 149.855 16.9377C146.646 17.1481 145.933 17.0993 145.204 16.6202C143.983 15.8178 144.136 15.3782 145.639 15.3678C146.352 15.3626 148.023 15.06 149.354 14.6954C152.456 13.8447 153.325 13.8402 155.133 14.6642ZM114.391 33.2443C114.449 36.2198 112.297 39.1808 107.295 43.01C106.022 43.9854 104.689 44.8756 104.334 44.9886C103.675 45.1983 102.707 44.8946 99.5198 43.48C97.8817 42.7531 97.7383 42.5989 97.908 41.7486C98.1789 40.3895 97.3184 39.7728 95.8023 40.2394C94.7258 40.5708 94.5558 40.5143 93.622 39.5132C91.9802 37.753 90.8097 35.7255 91.7846 36.3297C91.9584 36.4375 92.1526 36.4015 92.2165 36.25C92.2801 36.0982 93.3238 35.7013 94.5357 35.3678C95.7477 35.034 97.2638 34.5411 97.9052 34.2724C98.9762 33.8236 99.0712 33.6606 99.0712 32.2755C99.0712 29.5881 100.473 29.1582 102.181 31.3219C103.455 32.9344 103.636 32.9559 107.766 31.9836C110.351 31.3746 111.05 31.0553 112.129 29.9905L113.413 28.7222L113.885 30.1087C114.145 30.8713 114.372 32.2824 114.391 33.2443ZM157.821 33.4679C157.821 34.4645 159.742 38.6012 160.205 38.6012C160.814 38.6012 160.935 37.9963 160.413 37.562C160.132 37.3284 159.567 36.2139 159.157 35.0856C158.344 32.8474 157.82 32.2141 157.821 33.4679ZM99.4762 34.5283C99.1662 35.6715 99.7271 36.868 100.573 36.868C100.77 36.868 100.646 36.659 100.298 36.4035C99.7938 36.0337 99.7129 35.6805 99.902 34.6704C100.196 33.0991 99.8919 32.9975 99.4762 34.5283ZM100.771 38.8248L99.5343 39.7943L100.891 40.9309C102.688 42.4377 103.668 42.3916 105.332 40.7219C106.764 39.2854 107.055 38.3166 106.069 38.2677C105.737 38.2511 104.687 38.1516 103.737 38.0466C102.214 37.8781 101.861 37.9707 100.771 38.8248ZM91.4683 39.4074C91.4683 40.0023 89.934 41.4526 89.6285 41.1462C89.2587 40.7756 89.3561 39.8186 89.8095 39.3638C90.3663 38.8054 91.4683 38.8341 91.4683 39.4074ZM111.915 44.1067C111.822 47.1197 111.915 48.1058 112.375 48.9991C112.693 49.6144 113.017 50.9195 113.095 51.899C113.845 61.2907 114.003 62.3458 115.145 65.5487C116.426 69.1454 116.556 68.9738 113.872 67.2326C113.363 66.9033 111.915 66.487 110.652 66.3075C108.435 65.9927 107.221 66.1491 103.564 67.2212L102.7 67.4742L103.536 66.5578C103.996 66.0538 104.278 65.5459 104.162 65.4291C104.045 65.3127 103.358 65.8544 102.634 66.6333C100.693 68.7211 99.1261 69.1506 94.4331 68.8819C91.6501 68.7225 90.3445 68.7804 89.7688 69.0896C89.3292 69.3256 89.0261 69.3866 89.0956 69.2251C89.8469 67.4801 94.4179 58.6753 94.9104 58.0251C95.4909 57.2587 95.7767 57.1796 97.7027 57.2559C98.8828 57.3027 100.13 57.4926 100.475 57.6777C100.905 57.9082 101.18 57.8885 101.349 57.6143C101.734 56.9907 100.466 56.2818 98.9188 56.2552C96.124 56.2066 96.124 56.059 98.9129 52.5368C101.4 49.396 102.137 47.7668 101.747 46.2711C101.595 45.6891 101.702 45.6614 102.914 45.9702C104.146 46.2836 104.429 46.2018 106.585 44.9095C107.869 44.1393 109.614 42.7947 110.461 41.9216C111.308 41.0488 112.008 40.334 112.016 40.334C112.024 40.3336 111.978 42.0315 111.915 44.1067ZM93.1569 41.3989C92.6022 41.7424 92.3499 41.56 92.6672 41.0449C92.7943 40.8387 93.0598 40.7697 93.2571 40.8921C93.4893 41.0359 93.4537 41.2144 93.1569 41.3989ZM96.9932 41.4609C96.9908 41.6994 95.8244 42.654 94.4013 43.5826C92.9782 44.5113 91.8139 45.4111 91.8139 45.5824C91.8139 45.7536 91.3861 45.8118 90.8636 45.7117C90.3411 45.6115 90.1465 45.6316 90.4316 45.7564C90.7167 45.8808 91.3218 46.3508 91.7766 46.8004L92.6032 47.6178L91.1179 47.0919C90.301 46.8028 89.56 46.6392 89.4709 46.7283C89.0697 47.1311 89.7902 47.9162 90.7568 48.1291C92.0786 48.4202 92.3275 48.8833 92.9561 52.2217C93.3494 54.3112 93.3653 54.8929 93.0293 54.8929C92.7494 54.8929 92.5369 54.1074 92.4194 52.6398C92.1965 49.8532 91.4918 48.6535 90.0781 48.6535C89.3938 48.6535 89.0493 48.8279 89.0493 49.1735C89.0493 49.4951 89.3745 49.6934 89.9011 49.6934C90.9683 49.6934 91.3902 50.4657 91.6816 52.95C91.9048 54.8551 91.7462 55.1692 90.8501 54.5989C90.5104 54.3827 90.4924 54.0842 90.7748 53.3393C91.1141 52.4439 91.0965 52.4034 90.5598 52.8481C90.029 53.288 89.992 53.2408 90.1627 52.341C90.3455 51.3749 90.3186 51.3541 89.1332 51.5472C88.4635 51.656 87.3542 52.1334 86.6682 52.6072C85.9819 53.0814 84.7364 53.9456 83.9001 54.5275C83.0634 55.1099 82.0139 55.5862 81.5674 55.5862C81.076 55.5862 80.7553 55.7914 80.7553 56.1061C80.7553 56.3921 80.9636 56.6261 81.2183 56.6261C81.7498 56.6261 82.3256 59.6657 82.6629 64.252C82.7818 65.8725 83.1692 68.7117 83.523 70.5617C84.5708 76.0343 84.7537 80.1163 84.0469 82.2508C83.4691 83.9958 83.5351 84.827 84.199 84.1601C84.5743 83.7829 85.5934 80.0241 85.5934 79.0164C85.5934 78.6188 85.9784 79.1024 86.5037 80.1599L87.414 81.9922L85.035 84.4149C82.6826 86.8101 80.0478 88.5162 78.7011 88.5162C77.7777 88.5162 77.2282 87.5737 75.9499 83.7954C74.6992 80.0996 74.5496 76.7501 75.379 71.0113C75.6544 69.1048 76.056 65.9071 76.2713 63.9053C76.7496 59.4556 78.1672 52.5784 78.7626 51.82C79.0031 51.5136 79.5112 50.9881 79.8913 50.6525C81.0538 49.6258 88.7773 44.799 88.9618 44.9837C89.0569 45.079 89.6209 44.7917 90.2149 44.3452C91.8215 43.1379 95.7532 41.1541 96.7385 41.0539C96.8812 41.0394 96.9956 41.2228 96.9932 41.4609ZM100.918 46.216C101.372 48.4937 99.6214 50.4231 96.2606 51.3489L95.0047 51.6949L94.8181 50.2986C94.7154 49.5305 94.1701 48.2636 93.6068 47.4836L92.5825 46.0649L94.6854 44.6482L96.7883 43.2311L98.7519 44.2152C100.319 45.0007 100.756 45.4045 100.918 46.216ZM93.8874 49.7392C93.8874 49.8823 93.7492 50.0848 93.5806 50.1894C93.4119 50.2941 93.2018 49.8893 93.1144 49.2896C92.9703 48.3051 92.9996 48.2615 93.4212 48.8397C93.6777 49.1915 93.8874 49.5964 93.8874 49.7392ZM94.233 51.2737C94.233 51.7614 94.092 52.0734 93.9199 51.9666C93.7478 51.8599 93.688 51.4605 93.7876 51.0796C94.036 50.1257 94.233 50.2116 94.233 51.2737ZM87.735 54.7549C86.4242 56.1186 85.7565 57.2722 84.633 60.1125L83.2009 63.732L83.1792 61.8255C83.1674 60.777 82.9957 59.2171 82.798 58.3592C82.4901 57.0233 82.5215 56.7495 83.0168 56.4527C83.335 56.2621 84.3407 55.52 85.2516 54.8038C86.9968 53.4315 89.1592 52.3479 89.3136 52.768C89.3637 52.905 88.6536 53.7989 87.735 54.7549ZM95.945 53.1895C95.7329 53.5871 95.475 53.8277 95.3717 53.7244C95.087 53.4388 95.5431 52.4665 95.9623 52.4665C96.2177 52.4665 96.2125 52.688 95.945 53.1895ZM108.264 54.1348C105.955 55.3723 104.902 56.3501 105.37 56.8205C105.495 56.946 106.034 56.7391 106.568 56.3612C107.102 55.983 108.516 55.1809 109.711 54.5785C110.906 53.976 111.791 53.3324 111.678 53.1479C111.35 52.6159 110.803 52.7739 108.264 54.1348ZM94.5786 53.5064C94.5786 53.697 94.5102 53.853 94.4262 53.853C94.3422 53.853 94.1777 53.697 94.0602 53.5064C93.9427 53.3157 94.0115 53.1597 94.2126 53.1597C94.4138 53.1597 94.5786 53.3157 94.5786 53.5064ZM90.086 55.2395C90.5007 55.6555 91.2378 55.9328 91.929 55.9328C92.5628 55.9328 93.1714 56.0233 93.282 56.1342C93.3922 56.2448 92.7173 57.8438 91.7814 59.6872C90.4893 62.2335 90.0459 63.5143 89.9367 65.0184C89.8576 66.1071 89.6198 67.199 89.4083 67.4448C88.365 68.6576 86.1184 72.5368 85.7431 73.7736C85.2344 75.4499 85.1708 75.3012 84.2588 70.3045C83.457 65.9106 83.5362 65.2548 85.4448 60.4719C86.4529 57.9457 88.6353 54.5463 89.249 54.5463C89.3292 54.5463 89.7059 54.8582 90.086 55.2395ZM122.549 58.2698C121.157 59.666 120.501 60.5967 120.509 61.1635L120.521 61.9988L121.214 61.1323C121.595 60.6557 122.684 59.4594 123.633 58.4736C124.696 57.3699 125.214 56.5914 124.98 56.4468C124.77 56.3162 123.689 57.1266 122.549 58.2698ZM102.613 56.8555C102.028 57.0926 102.063 58.0126 102.658 58.0126C103.244 58.0126 103.987 57.1664 103.676 56.8541C103.423 56.6001 103.244 56.6004 102.613 56.8555ZM119.649 81.1468C119.403 81.7912 118.749 87.6039 118.625 90.2494C118.576 91.2979 118.726 92.6238 118.958 93.1957C119.19 93.7677 121.418 96.2634 123.91 98.7418C126.401 101.22 128.441 103.365 128.443 103.508C128.444 103.651 128.065 103.768 127.6 103.768C126.186 103.768 121.601 105.366 115.223 108.08C104.556 112.621 102.928 112.859 98.0047 110.606C96.5629 109.945 94.8136 109.217 94.1169 108.986C92.5666 108.473 92.5096 107.882 93.7699 105.403C94.4525 104.061 94.7562 102.799 94.9491 100.508C95.2238 97.2402 95.1557 96.851 93.0985 89.8875C92.6171 88.2586 92.117 86.2152 91.9871 85.3462L91.7507 83.7663L93.6832 83.5386C94.7462 83.4131 96.6625 82.9153 97.9422 82.4321C100.151 81.5981 100.495 81.5659 104.773 81.7884C108.433 81.9787 109.762 81.9101 111.863 81.4227C114.586 80.7915 119.091 80.2369 119.571 80.474C119.726 80.5509 119.762 80.8535 119.649 81.1468ZM99.0712 88.1779C99.0712 89.2784 100.309 93.942 101.308 96.6028C101.814 97.9526 102.181 99.6559 102.181 100.656C102.181 102.025 102.299 102.381 102.749 102.381C103.236 102.381 103.286 102.088 103.101 100.31C102.982 99.1706 102.502 97.2926 102.033 96.1362C101.565 94.9798 100.843 92.6338 100.43 90.9229C99.7046 87.9203 99.0712 86.6406 99.0712 88.1779Z" fill="url(#paint0_linear_101_5)"/>
<path fill-rule="evenodd" clip-rule="evenodd" d="M42.4744 4.23154C43.4224 4.61179 44.5699 5.6215 44.8654 6.33496C45.0234 6.71615 45.187 7.02807 45.2291 7.02807C45.2712 7.02807 45.5897 6.76482 45.9369 6.44307C47.1972 5.27494 49.5115 6.06516 49.5342 7.67157C49.5398 8.06703 49.6793 8.19807 50.0951 8.19807C50.8848 8.19807 51.8817 9.05592 51.8817 9.73522C51.8817 10.1117 52.2863 10.6925 53.084 11.4614C54.2095 12.5463 54.2786 12.6787 54.1644 13.5312C54.0483 14.3956 54.0827 14.4564 54.8399 14.7302C55.7029 15.0423 56.3027 15.7647 56.3146 16.5069C56.3188 16.7632 56.3878 17.3709 56.4683 17.8571C56.5977 18.6406 56.5247 18.8336 55.8276 19.5513C55.3947 19.9966 54.8827 20.3637 54.6897 20.3672C53.796 20.3827 53.7359 20.7395 54.4594 21.738C55.493 23.1647 56.5008 25.2522 56.6785 26.3331C56.7629 26.8479 57.0079 27.6152 57.2227 28.0382C57.5887 28.7585 57.588 28.8514 57.2124 29.5061C56.8855 30.0754 56.8607 30.323 57.0784 30.843C57.2253 31.194 57.3533 32.692 57.3631 34.1721C57.3769 36.2968 57.2962 37.0173 56.9796 37.5957C56.1314 39.1448 54.1419 40.1723 53.1294 39.5836C52.7505 39.3634 52.7756 39.3334 53.3442 39.3271C55.003 39.3088 55.3758 37.3615 54.323 34.2133C53.9926 33.2253 53.6503 32.345 53.5625 32.257C53.4745 32.169 53.3805 32.6429 53.3531 33.31C53.3257 33.9772 53.0954 35.1022 52.8411 35.8101C51.1584 40.495 51.1467 40.5385 51.3112 41.5143C51.424 42.1833 51.7235 42.7149 52.2888 43.2485C53.025 43.9434 53.1315 43.9802 53.3889 43.6285C53.6346 43.2925 53.7518 43.2815 54.2402 43.5477C54.5519 43.7176 55.4184 43.9308 56.1658 44.0214C57.7186 44.2097 58.4337 44.721 58.4337 45.6427C58.4337 46.3784 57.6283 47.5101 57.1046 47.5101C56.8493 47.5101 56.7983 47.6282 56.9279 47.9196C57.028 48.1447 57.1385 48.9953 57.1729 49.8094C57.2075 50.6234 57.3479 51.4247 57.4851 51.5899C57.6222 51.7551 57.7565 52.7737 57.7839 53.8536C57.8251 55.4876 57.7469 55.9813 57.3177 56.7961C57.0341 57.3346 56.5762 57.9334 56.3001 58.1267C56.0078 58.3314 55.8541 58.6237 55.932 58.8268C56.155 59.408 55.6453 60.7987 55.0327 61.2805C54.4239 61.7595 54.2697 62.2521 54.7288 62.2521C54.8788 62.2521 54.9342 62.3195 54.8518 62.4021C54.7692 62.4844 55.1479 62.8347 55.6931 63.1806C56.8657 63.9242 58.5301 65.8435 59.0208 67.0182C59.5096 68.188 59.4551 70.1133 58.8797 71.997C58.4639 73.3577 58.18 73.8065 57.0077 74.955C55.8599 76.0794 55.6257 76.443 55.6257 77.101C55.6257 77.5367 56.3548 80.139 57.2459 82.8841C58.1372 85.6292 59.2487 89.1387 59.716 90.6831C60.1835 92.2275 60.6597 93.7017 60.7746 93.9591C60.8893 94.2165 61.0961 95.0062 61.2342 95.7141C61.5716 97.4443 62.3979 99.1637 63.3762 100.171C64.1281 100.944 64.3787 101.037 67.0994 101.542C72.4105 102.527 80.0927 105.498 83.3547 107.828C86.8787 110.345 88.3913 112.925 88.3805 116.401C88.3695 119.928 86.6992 121.6 81.9231 122.862C79.3418 123.544 74.0059 125.021 73.9392 125.072C73.9086 125.095 74.2079 125.555 74.604 126.094C75.0004 126.633 75.5782 127.773 75.8882 128.627C76.7959 131.13 76.6197 133.394 75.2562 136.757C74.7098 138.105 74.6496 138.162 72.7077 139.169C69.3708 140.899 68.1299 141.293 64.0497 141.916C61.9261 142.24 59.1883 142.663 57.9657 142.856C55.913 143.18 51.9027 143.577 44.8271 144.155C43.278 144.281 41.925 144.438 41.8202 144.503C41.7151 144.568 40.5402 144.732 39.209 144.869C34.3546 145.366 26.6064 147.048 23.4507 148.29C20.6041 149.41 17.2453 151.086 15.2607 152.376C14.3598 152.962 12.3621 154.166 10.8215 155.051C6.83437 157.342 4.5992 159.064 3.48723 160.702C2.69139 161.874 1.36813 163.334 1.89159 162.463C1.99969 162.283 1.93768 162.17 1.73035 162.17C1.54503 162.17 1.09108 161.775 0.722061 161.293C0.059845 160.427 0.0502396 160.37 0.0118637 157.035C-0.0260468 153.733 -0.0110703 153.623 0.651848 152.31C1.46336 150.702 3.05386 148.942 3.46523 149.196C3.63676 149.302 3.68964 149.275 3.59814 149.127C3.46547 148.912 3.81436 148.625 4.14571 148.676C4.21005 148.686 4.47331 148.521 4.73071 148.309C7.86935 145.729 8.20678 145.379 8.847 144.035C10.335 140.911 12.6874 138.785 14.2994 139.105C15.4336 139.331 15.6988 139.396 16.1382 139.557C16.3633 139.639 16.7321 139.77 16.9572 139.847C17.7507 140.12 21.14 140.173 23.6847 139.953C26.1464 139.74 28.0439 139.258 30.9717 138.102C31.6332 137.841 32.2388 137.691 32.3172 137.77C32.3956 137.848 32.4597 137.789 32.4597 137.639C32.4597 137.489 32.562 137.366 32.6867 137.366C33.025 137.366 35.5314 136.197 36.2037 135.726C36.5254 135.5 38.2629 134.72 40.0647 133.991C41.8665 133.263 43.8478 132.355 44.4676 131.974C45.0875 131.594 45.6868 131.282 45.7993 131.282C45.9119 131.282 46.0633 131.186 46.1358 131.069C46.2538 130.878 44.1606 129.404 43.5747 129.264C43.446 129.234 43.014 129.079 42.6148 128.92C41.9498 128.656 41.6692 128.724 39.2761 129.728C37.8394 130.33 35.8515 130.979 34.8591 131.169C33.8665 131.359 32.5257 131.662 31.8796 131.842C31.2333 132.022 29.9676 132.297 29.0667 132.453C27.9625 132.644 26.7805 133.083 25.4397 133.8C23.04 135.083 22.1335 135.33 21.4872 134.877C21.23 134.697 20.8959 134.578 20.7452 134.612C20.361 134.7 20.2742 133.908 20.5468 132.803C20.6738 132.288 20.8056 131.74 20.8393 131.586C20.8732 131.431 21.067 131.115 21.2701 130.884C21.4732 130.652 21.8223 130.095 22.046 129.644C22.7941 128.138 23.5153 127.375 24.433 127.118C26.0891 126.655 27.0828 126.217 26.9043 126.029C26.8067 125.926 26.9637 125.915 27.2532 126.004C27.5485 126.095 27.7797 126.066 27.7797 125.939C27.7797 125.814 28.0956 125.602 28.4817 125.467C29.0206 125.279 29.1837 125.08 29.1837 124.61C29.1837 124.273 29.2843 123.809 29.4074 123.579C29.6145 123.192 29.4228 123.149 26.8322 123.003C24.6411 122.879 23.5934 122.695 22.0097 122.157C19.677 121.363 18.639 120.708 17.4364 119.269C13.399 114.439 12.3401 108.366 14.4483 102.13C15.1067 100.181 16.9846 97.1181 17.5204 97.1181C17.6562 97.1181 17.9683 96.8628 18.2138 96.5506C18.81 95.7927 21.7991 93.339 24.3376 91.5236C26.5961 89.9085 28.0114 88.2242 28.8762 86.1222C29.7343 84.0365 29.5862 82.903 28.0015 79.4242C27.7509 78.874 27.5457 78.366 27.5457 78.2951C27.5457 78.0972 25.7254 74.1924 24.0245 70.7416C22.8313 68.3209 22.43 67.6954 22.211 67.9144C21.7193 68.406 21.8789 69.6107 22.5147 70.2081C23.1406 70.7961 23.2885 71.7976 22.8189 72.2673C22.6645 72.4217 21.9877 72.5481 21.315 72.5481C20.339 72.5481 20.0748 72.6307 20.0062 72.9576C19.9309 73.3158 19.885 73.3032 19.6388 72.8574C19.2198 72.0988 19.5296 71.6264 20.6408 71.3292L21.6353 71.0631L20.4993 70.1653C19.8745 69.6713 19.1921 69.0058 18.9827 68.6864C18.6074 68.1133 18.6121 67.0519 18.9942 66.1716C19.1463 65.8206 19.0393 65.7621 18.247 65.7621C17.3164 65.7621 16.7768 66.1353 16.4745 66.9887C16.3359 67.3793 17.3251 68.5701 17.7879 68.5701C17.8934 68.5701 17.9473 68.9648 17.9072 69.4476C17.8452 70.1971 17.7455 70.3354 17.223 70.396C16.8554 70.4388 16.5133 70.6826 16.3654 71.0072C16.1635 71.4504 16.2091 71.6376 16.6195 72.0478L17.1196 72.5481H16.6317C16.024 72.5481 14.9097 71.4654 14.9097 70.875C14.9097 70.6335 15.0312 70.2413 15.1795 70.0038C15.531 69.4408 14.8531 68.4613 13.8668 68.1072C13.4863 67.9706 12.9333 67.6317 12.6383 67.3547L12.1017 66.8504V67.5852C12.1017 68.3356 12.6376 68.8422 13.2134 68.6358C13.4034 68.5677 13.4545 68.6653 13.359 68.9141C13.1009 69.5868 11.8448 69.273 11.2499 68.3873C10.9268 67.906 10.6736 67.7178 10.5714 67.8831C10.4817 68.0281 10.0523 68.1053 9.6171 68.0543C8.90645 67.9715 8.82571 68.0211 8.82571 68.5401C8.82571 68.8581 9.00005 69.3107 9.21298 69.5461C9.86935 70.2715 9.09363 70.044 8.33968 69.2901C7.8546 68.805 7.65571 68.377 7.65571 67.8185C7.65571 67.3853 7.4416 66.6138 7.17976 66.104C6.84139 65.4448 6.71269 64.7716 6.73422 63.7731C6.75739 62.7056 6.6254 62.088 6.18361 61.1965C5.1367 59.084 4.81425 57.1361 5.29957 55.8592C5.4636 55.4282 5.40112 55.0505 5.04802 54.3368C4.78968 53.8145 4.43189 52.6878 4.25311 51.8328C3.97887 50.5226 3.97746 50.1339 4.24329 49.3622C4.52736 48.5378 4.52011 48.4461 4.17052 48.4461C3.53544 48.4461 2.74171 47.7555 2.74288 47.2042C2.74452 46.465 3.71936 45.3545 4.64062 45.0423C5.61733 44.7112 7.09551 45.1415 7.96342 46.0094C8.50372 46.55 8.60388 46.5675 9.7919 46.3281C11.754 45.9331 11.8401 45.8749 10.9949 45.5169C10.0959 45.1359 9.29511 43.9247 9.29605 42.9471C9.29675 42.2027 10.0406 40.8469 10.3039 41.1102C10.3895 41.1958 10.3434 41.4059 10.2016 41.577C9.67419 42.2123 10.6523 44.0001 11.5272 44.0001C11.7261 44.0001 12.1473 43.7415 12.4632 43.4256C13.2411 42.648 13.2282 41.0255 12.4183 37.7387C11.6686 34.696 11.5485 31.0725 12.1518 29.6933C12.6827 28.4793 14.1167 26.9756 15.362 26.3268C16.2278 25.8756 16.3249 25.7677 15.8736 25.7591C15.3705 25.7492 15.3293 25.6699 15.4474 24.9412C15.5773 24.141 16.4976 22.5488 16.8461 22.5214C17.4603 22.4732 17.5345 22.2989 17.1741 21.7492C16.9645 21.4291 16.7932 20.8554 16.7939 20.4742C16.7946 20.093 16.7302 19.3526 16.6509 18.8289C16.5276 18.0146 16.5999 17.7661 17.1505 17.1116C17.6613 16.5044 17.9318 16.3663 18.4581 16.4435C18.9776 16.5198 19.1217 16.4494 19.1217 16.119C19.1217 15.5766 20.108 14.9281 20.8053 15.0122C21.5614 15.1034 22.3205 14.6427 23.7498 13.2251C24.4291 12.5514 25.4821 11.7502 26.0898 11.4446C26.6975 11.139 27.23 10.8095 27.2731 10.7122C27.3164 10.6148 27.436 10.5872 27.5389 10.6509C27.8078 10.817 29.1933 10.3022 29.9302 9.76213C31.1299 8.88299 34.0401 7.98186 35.7357 7.96454C36.3148 7.95869 37.2478 7.74552 37.8087 7.49092C38.3698 7.23633 39.2235 7.02807 39.7057 7.02807H40.5828L40.3235 5.87749C40.181 5.24452 39.9854 4.64782 39.889 4.55142C39.4912 4.15362 39.7745 3.98677 40.8252 4.00081C41.4366 4.009 42.1786 4.1129 42.4744 4.23154ZM37.0927 19.1151C35.5513 19.2197 32.159 20.0628 31.8859 20.4094C31.7383 20.5968 30.5877 23.1635 30.5877 23.3056C30.5877 23.3938 30.1581 24.1094 29.633 24.8956C29.1079 25.6818 28.6848 26.4849 28.6928 26.6801C28.7728 28.6508 29.0084 30.8715 29.3201 32.5926C29.4477 33.2969 29.4074 33.4701 29.1168 33.4701C28.9176 33.4701 28.7197 33.3776 28.6766 33.2646C28.5224 32.8584 26.7669 31.8321 26.2259 31.8321C25.5909 31.8321 24.7377 32.5879 24.7377 33.1507C24.7377 33.4294 24.8692 33.3659 25.2228 32.9167C25.4893 32.5776 25.9187 32.3001 26.1768 32.3001C26.9212 32.3001 28.0137 33.5489 28.0137 34.3998C28.0137 35.3453 28.6434 36.5792 29.0183 36.3684C29.2186 36.2556 29.2151 36.3017 29.0056 36.527C28.5294 37.0397 27.782 36.097 27.5878 34.7393C27.4703 33.9191 27.308 33.5702 27.0173 33.5143C26.3614 33.3879 26.0715 34.4873 26.4943 35.4989C26.9186 36.5146 26.9235 36.5877 26.5512 36.364C26.3525 36.2446 26.3617 36.315 26.5798 36.5841C26.7564 36.802 27.1776 36.9848 27.5158 36.9906C27.8541 36.9965 28.4466 37.1457 28.8327 37.3226L29.5347 37.6442L28.8599 37.6631C27.7701 37.6938 26.3787 37.1745 25.8918 36.5556C25.4271 35.965 25.2679 35.2082 25.659 35.4499C25.7809 35.5253 25.8342 35.3423 25.7792 35.039C25.7247 34.7383 25.878 34.1044 26.1197 33.6301C26.5489 32.7882 26.5491 32.7681 26.1213 32.7681C25.8445 32.7681 25.5043 33.1188 25.1975 33.72C24.7756 34.5469 24.748 34.7849 24.9867 35.5335C25.5221 37.2136 28.3567 39.4853 29.5864 39.2199C30.1492 39.0985 30.451 39.2822 31.8277 40.5837C34.2458 42.8699 37.5726 44.4019 42.3324 45.4212C44.4868 45.8826 44.7187 45.7022 47.6589 41.2836C49.0573 39.1818 50.382 36.9185 50.6026 36.254C51.0947 34.7728 51.1015 31.9559 50.6157 30.7936C50.2535 29.9261 49.8728 29.628 50.1192 30.4047C50.4297 31.3833 48.2182 32.3862 46.0317 32.2584L44.7447 32.1831L44.6761 31.1301C44.6275 30.3806 44.7688 29.7591 45.1666 28.974C45.4738 28.3675 45.6259 27.9327 45.5043 28.0078C45.1528 28.225 45.7053 27.3081 46.1903 26.8692C46.4302 26.6522 46.8696 26.3848 47.1673 26.2746C47.6893 26.0815 47.6706 26.0455 46.623 25.2293C45.4841 24.342 45.059 24.3144 43.7043 25.0393C43.4179 25.1926 43.1175 25.2518 43.0365 25.1708C42.8179 24.9522 43.3129 24.2645 43.9049 23.9641C44.1899 23.8194 44.4178 23.6339 44.411 23.5517C44.4042 23.4694 43.6868 22.7835 42.8168 22.0275C41.9465 21.2717 40.8135 20.2343 40.2987 19.7226C39.7839 19.2106 39.2857 18.8352 39.1914 18.8881C39.0971 18.9412 38.1527 19.0433 37.0927 19.1151ZM38.6888 25.6198C38.9586 26.323 38.5238 26.5126 36.9331 26.3848C35.165 26.243 33.7511 26.6176 32.4597 27.5705C31.7116 28.1222 31.6812 28.1281 32.1085 27.639C33.519 26.0242 38.283 24.5624 38.6888 25.6198ZM48.298 28.66C48.5126 29.9821 48.196 31.0809 47.4839 31.4867L46.8507 31.8473L47.6697 31.7003C48.7716 31.5024 49.4907 30.7449 49.6723 29.5908C49.8377 28.5402 49.4156 27.8541 48.6036 27.8541C48.2367 27.8541 48.188 27.9828 48.298 28.66ZM46.3272 28.524C46.1667 28.3635 46.1272 28.4817 46.2051 28.8893C46.2685 29.2209 46.4194 29.4921 46.5409 29.4921C46.6621 29.4921 46.6843 29.3606 46.5902 29.1996C46.4962 29.0388 46.6298 29.0915 46.8874 29.3166C47.1448 29.5417 47.5052 29.7345 47.6882 29.7446C47.9264 29.7579 47.9379 29.7965 47.7282 29.881C47.5672 29.946 47.4357 30.137 47.4357 30.3055C47.4357 30.6768 46.8572 30.9288 46.4038 30.7547C46.0235 30.6087 45.7163 29.6044 45.925 29.1888C46.0027 29.0339 45.9007 29.1116 45.698 29.3613C45.2368 29.9301 45.2361 30.1903 45.694 30.8439C46.4332 31.8995 47.8176 31.2452 47.9907 29.7586C48.056 29.1991 47.9538 28.9218 47.5878 28.6654C47.3182 28.4765 47.2326 28.3221 47.3976 28.3221C47.5658 28.3221 47.6236 28.2027 47.5293 28.0502C47.413 27.862 47.2382 27.9299 46.963 28.2699C46.6937 28.6024 46.488 28.6848 46.3272 28.524ZM37.0768 28.9522C36.8491 29.0117 36.5332 29.0077 36.3748 28.9436C36.2163 28.8795 36.4026 28.831 36.7887 28.8357C37.1748 28.8404 37.3044 28.8928 37.0768 28.9522ZM35.3115 29.1839C35.1427 29.2515 34.9408 29.2431 34.8631 29.1654C34.7854 29.0877 34.9235 29.0325 35.1701 29.0426C35.4427 29.0538 35.4982 29.1093 35.3115 29.1839ZM37.6077 29.8218C38.6431 30.1938 39.7046 31.6662 39.8801 32.974C39.9526 33.5162 39.9187 33.9362 39.8045 33.9074C39.6903 33.8789 38.8229 34.0979 37.877 34.3946C36.0921 34.9541 34.7295 34.9602 33.299 34.4147C32.7857 34.2189 32.6839 34.0883 32.8865 33.8857C33.2902 33.482 32.5372 32.7681 31.7076 32.7681C31.3058 32.7681 31.0882 32.6707 31.1755 32.5296C31.2565 32.3986 30.9841 32.1489 30.5699 31.9748L29.8174 31.6584L31.0234 31.2578C31.6866 31.0374 32.1716 30.7639 32.101 30.6494C32.0303 30.5352 32.2664 30.3771 32.6256 30.298C32.9848 30.2189 33.6758 30.0052 34.1609 29.8232C35.2242 29.4242 36.4995 29.4237 37.6077 29.8218ZM37.3702 31.6566C37.3674 32.0677 37.3194 32.1087 37.1516 31.8433C37.0332 31.6563 36.9759 31.4397 37.0241 31.3617C37.0723 31.2838 36.6796 31.1944 36.1513 31.1633C35.3072 31.1135 35.2275 31.1507 35.4919 31.4694C35.6575 31.6687 35.9454 31.8321 36.1316 31.8321C36.6303 31.8321 36.4134 32.8626 35.8939 32.9616C35.358 33.0638 34.5657 32.3682 34.5657 31.7958C34.5657 31.278 34.2601 31.2372 33.8731 31.7038C33.4977 32.1559 33.7537 32.8816 34.4941 33.464C35.1301 33.9643 35.0557 34.0916 34.3483 33.713C34.1171 33.5892 33.7984 33.175 33.64 32.7926C33.4568 32.3509 33.2321 32.1435 33.0229 32.2238C32.5657 32.3993 32.6095 32.6441 33.2256 33.3603C34.061 34.3314 36.317 34.3445 38.6001 33.3914C39.0861 33.1886 39.2092 33.0096 39.1076 32.6534C38.963 32.1454 37.9547 31.1301 37.5946 31.1301C37.4731 31.1301 37.3721 31.3669 37.3702 31.6566ZM37.3552 32.798C37.3653 33.0075 37.1893 33.3234 36.9642 33.5C36.6083 33.779 36.5889 33.775 36.8158 33.4701C36.9593 33.277 37.1352 32.9611 37.2069 32.7681C37.3154 32.4744 37.3398 32.4793 37.3552 32.798ZM44.8411 33.8695C45 34.2179 45.3327 34.645 45.5808 34.8189C46.1765 35.2361 46.1536 36.097 45.5316 36.6513L45.0316 37.0971L45.4128 36.352C45.7792 35.6353 45.7729 35.5822 45.2426 34.948C44.7386 34.3452 44.2299 33.2361 44.4573 33.2361C44.5098 33.2361 44.6824 33.5211 44.8411 33.8695ZM45.5637 38.6146C45.8555 38.8001 45.8644 38.919 45.6168 39.3184C45.391 39.6828 45.3826 39.9179 45.5824 40.2912C46.1906 41.4275 45.0264 42.33 43.3112 42.0516C42.4101 41.9053 40.0125 39.9956 40.7693 40.027C40.835 40.0298 41.6053 39.6612 42.481 39.208C44.0967 38.3719 44.93 38.2114 45.5637 38.6146ZM31.7565 44.4096C31.6393 50.9854 31.8022 52.3644 33.1589 56.2851C33.9376 58.535 37.2244 65.347 37.7364 65.7717C37.9053 65.9121 38.7318 66.1243 39.5728 66.2434C42.3052 66.6305 44.6357 67.8105 47.1432 70.077C47.8187 70.6878 48.3717 71.1441 48.3717 71.0912C48.3717 71.0383 48.2091 70.4477 48.0104 69.7785C47.4209 67.7937 46.3197 66.1304 43.8445 63.4874C43.0901 62.6815 42.7491 62.1386 42.8434 61.8929C43.0115 61.4551 43.4577 61.653 43.4577 62.1655C43.4577 62.36 44.1157 63.2515 44.9202 64.1463C46.6174 66.0347 48.0322 68.2577 48.4515 69.6954C48.6132 70.2497 48.8193 70.6974 48.9097 70.6899C49 70.6822 49.2705 70.6761 49.5113 70.6761C49.862 70.6761 50.0048 70.3857 50.2304 69.2136C50.6874 66.8401 51.4785 64.7666 52.2734 63.8578C52.5704 63.5185 52.4978 63.3264 51.6397 62.1791C51.1067 61.4663 50.2619 60.6 49.7624 60.2539C48.9431 59.686 48.6207 59.2077 48.4646 58.3279C48.3811 57.8578 45.8134 55.0601 42.8175 52.1749L40.0647 49.5239L39.9404 50.4475C39.844 51.1645 39.7799 51.2662 39.6543 50.9031C39.4284 50.2502 39.3912 47.6063 39.5899 46.3183L39.7558 45.2435L38.3893 44.8596C36.6637 44.3747 34.0282 43.0999 32.8107 42.1608C32.2959 41.764 31.8602 41.4361 31.8422 41.4326C31.8244 41.4291 31.7858 42.7688 31.7565 44.4096ZM43.7041 48.8102L42.1033 49.1743L45.881 52.9873C47.9587 55.0844 50.5533 57.8608 51.6465 59.157C52.7398 60.4531 53.6683 61.4796 53.7097 61.438C53.8283 61.3196 52.6064 55.4825 52.1903 54.1791C50.6008 49.1993 48.3247 47.7593 43.7041 48.8102ZM28.9179 50.9197C28.5386 51.1158 27.2892 51.4768 26.1417 51.7221C23.7703 52.2289 23.007 52.5703 22.1354 53.5148C20.9701 54.7772 20.7206 55.3919 20.5882 57.324C20.3179 61.2674 21.125 63.9182 24.9034 71.4951C26.1869 74.0691 27.7912 77.544 28.4684 79.2171C29.1456 80.8902 29.8586 82.6157 30.0528 83.0514C30.247 83.4873 30.8619 85.237 31.4196 86.9398C32.484 90.191 33.3606 92.191 34.3757 93.6846C34.7103 94.1769 36.5748 96.2052 38.5189 98.1917C40.463 100.178 42.0537 101.856 42.0537 101.921C42.0537 102.306 43.9423 103.612 46.3469 104.889C47.8716 105.699 49.3578 106.572 49.6498 106.829C49.9416 107.086 50.3254 107.332 50.5025 107.374C50.6794 107.417 50.8778 107.528 50.9436 107.621C51.0091 107.715 51.9577 108.301 53.0517 108.925C54.1456 109.549 55.6711 110.491 56.4414 111.018C58.6277 112.515 59.19 112.842 59.0051 112.512C58.9129 112.346 59.5625 112.908 60.4489 113.76C61.3355 114.611 62.6925 115.766 63.4647 116.326C64.2369 116.885 65.6058 117.98 66.5067 118.759C67.4076 119.538 68.6185 120.537 69.1977 120.979C69.7768 121.422 70.9492 122.394 71.803 123.14C73.2379 124.394 73.8618 124.804 73.5403 124.284C73.468 124.167 73.6362 124.131 73.914 124.204C74.2884 124.302 74.3703 124.257 74.2306 124.031C74.088 123.801 74.1948 123.755 74.6674 123.846C75.0114 123.912 75.3435 123.883 75.4055 123.783C75.4675 123.683 75.9652 123.528 76.5114 123.438C78.4877 123.114 83.6125 121.654 84.7847 121.08C86.3094 120.334 86.9258 119.755 87.4712 118.554C88.6084 116.049 87.3591 112.062 84.6513 109.554C83.3294 108.33 77.3516 105.122 75.6189 104.706C75.2403 104.616 74.7924 104.432 74.6232 104.299C74.2533 104.007 72.0307 103.221 71.5377 103.208C71.3446 103.203 70.8851 103.042 70.5165 102.85C70.1477 102.657 69.5686 102.499 69.2295 102.499C68.8902 102.498 68.2441 102.403 67.7937 102.287C65.5953 101.724 65.5129 101.751 66.8556 102.598C68.6819 103.75 69.8316 104.775 70.8691 106.176C71.3655 106.846 71.7717 107.451 71.7717 107.521C71.7717 107.891 70.7816 107.551 69.7771 106.837C68.4962 105.926 68.2219 105.931 68.8736 106.855C69.1163 107.198 69.42 107.648 69.5487 107.854C69.6774 108.059 69.9671 108.48 70.1922 108.788C70.4173 109.097 70.6017 109.534 70.6017 109.759C70.6017 110.219 71.8877 110.922 72.743 110.929C73.0453 110.931 74.7142 111.14 76.4517 111.392C78.1891 111.645 79.7422 111.853 79.9032 111.856C80.0639 111.858 80.1957 112.082 80.1957 112.353C80.1957 112.708 80.0911 112.806 79.8236 112.703C79.6189 112.625 78.2764 112.402 76.8401 112.209C75.4038 112.016 73.5541 111.747 72.7292 111.612C71.5456 111.419 71.1904 111.431 71.0428 111.67C70.894 111.91 70.7091 111.886 70.1435 111.552C69.752 111.321 69.4317 111.243 69.4317 111.379C69.4317 111.515 68.999 111.626 68.4704 111.626C67.5618 111.626 67.5171 111.658 67.6559 112.211C67.7731 112.678 67.7148 112.796 67.3664 112.796C67.1266 112.796 66.7536 112.601 66.5373 112.362C66.1941 111.983 66.0202 111.96 65.1556 112.184C64.6118 112.325 64.048 112.593 63.9032 112.78C63.6966 113.046 63.6545 112.933 63.7083 112.257C63.7675 111.51 63.6619 111.299 62.9239 110.691C62.4547 110.304 61.9633 109.99 61.8318 109.993C61.7003 109.996 61.8468 110.194 62.1576 110.433C62.5706 110.75 62.7634 111.188 62.8755 112.062C62.9599 112.719 62.9482 113.387 62.85 113.546C62.6354 113.893 62.5137 113.593 62.327 112.254C62.246 111.676 61.9921 111.196 61.6049 110.892C61.0014 110.417 60.7391 109.565 61.3002 109.902C61.5108 110.029 61.5056 109.971 61.2817 109.694C60.8865 109.207 59.5117 108.71 57.1958 108.218C55.4116 107.839 52.3527 106.527 52.2729 106.106C52.2507 105.989 52.1536 105.92 52.0572 105.952C51.9605 105.984 51.9079 105.917 51.9402 105.804C51.9722 105.691 51.0852 104.741 49.9687 103.694C48.8523 102.646 47.7993 101.455 47.6287 101.048C45.9411 97.0133 42.6335 91.0596 40.6649 88.5123C38.6478 85.9025 38.3043 85.2131 37.3732 81.9081C36.331 78.2095 33.9016 70.2247 33.7373 69.9591C33.6636 69.8395 33.5581 69.5571 33.5029 69.3315C33.4476 69.1057 33.0852 67.6596 32.6972 66.118C32.3092 64.5762 31.9917 62.8907 31.9917 62.3724C31.9917 61.854 31.8937 61.0884 31.7741 60.6709C31.644 60.2177 31.6421 59.9121 31.7696 59.9121C32.0174 59.9121 32.0979 60.2298 32.5704 63.0711C32.763 64.2294 33.0536 65.7742 33.2165 66.5043L33.5127 67.8313L34.1576 67.2747L34.8027 66.718L34.0743 64.8944C32.5545 61.0903 31.2733 56.4861 30.8322 53.2431C30.3514 49.7073 30.3762 49.7944 29.969 50.2013C29.7701 50.4002 29.297 50.7234 28.9179 50.9197ZM48.0207 76.981C47.1474 77.778 45.2375 78.9286 44.1833 79.2931C42.2926 79.9467 39.4193 79.503 37.5492 78.2687C37.0665 77.9502 36.6717 77.744 36.6717 77.811C36.6717 78.1957 38.3783 83.8987 38.7484 84.7512C38.9916 85.3109 40.0717 86.9482 41.1486 88.3894C42.2254 89.8304 43.3699 91.5152 43.6917 92.1334C44.9654 94.5799 47.9056 99.7873 48.1475 100.025C48.5708 100.441 49.4219 99.2171 50.1155 97.1955C50.667 95.5882 50.7594 94.8888 50.8666 91.5021C50.9904 87.5933 51.5569 83.2264 52.2172 81.0891C52.8558 79.0217 52.6356 76.7659 51.7939 76.7519C51.5204 76.7472 51.0334 76.5916 50.7117 76.406C49.935 75.9584 48.8989 76.1798 48.0207 76.981ZM53.131 76.882C52.945 76.9377 52.8996 77.4069 52.9869 78.3695C53.0727 79.3182 52.9958 80.1414 52.7501 80.9002C52.349 82.1393 51.6477 85.4026 51.6477 86.0309C51.6477 86.25 52.5872 88.1762 53.7354 90.3113C54.8837 92.4463 56.404 95.3364 57.1142 96.7338L58.4049 99.2749L58.3609 102.116C58.3214 104.656 58.3787 105.114 58.9017 106.439C59.3835 107.66 59.6257 107.98 60.2757 108.253C60.7098 108.435 61.1193 108.584 61.1858 108.584C61.2522 108.584 61.2489 107.948 61.1785 107.171C61.0547 105.806 61.0674 105.763 61.5555 105.918C62.5231 106.223 63.5073 107.185 65.1184 109.4C66.0104 110.625 66.7756 111.522 66.8188 111.392C66.8621 111.262 66.4042 110.1 65.8012 108.811C64.9012 106.885 64.7571 106.403 64.9955 106.115C65.2436 105.817 65.5943 106.085 67.3748 107.935C69.4375 110.078 69.2529 109.521 67.0332 106.906C65.7204 105.359 65.8807 104.945 67.3168 106.174L68.3115 107.025L67.8363 106.094C67.095 104.641 67.486 104.477 69.0903 105.568L70.4847 106.517L69.1626 105.269C68.4353 104.583 66.8352 103.401 65.6063 102.642C62.2895 100.595 61.6079 99.6036 60.5352 95.2664C59.4909 91.0437 55.9385 79.8844 55.4436 79.2721C55.3152 79.1132 55.1364 78.4348 55.0463 77.7646C54.8832 76.5509 54.8795 76.5464 54.1426 76.6733C53.7357 76.7432 53.2805 76.8373 53.131 76.882ZM49.2054 78.5113C49.4172 79.6404 49.2525 80.9229 48.2428 86.0031C47.6084 89.1951 47.4092 90.7722 47.4202 92.516C47.4315 94.2563 47.3639 94.7933 47.143 94.7203C46.7316 94.5843 46.5495 92.6293 46.8025 91.0657C46.9197 90.3405 47.3896 87.8517 47.8466 85.5351C48.3036 83.2185 48.6955 80.5605 48.7178 79.6282C48.7639 77.704 48.9668 77.2393 49.2054 78.5113ZM29.3208 86.5881C29.1137 87.1672 28.305 88.5284 27.5242 89.6128C25.9543 91.7927 25.9505 91.8393 27.2197 93.503C27.7189 94.1573 27.8887 94.246 28.2327 94.0312C28.5577 93.828 28.8573 93.8917 29.6353 94.329C30.5112 94.8214 30.6097 94.9601 30.4939 95.5395C30.3757 96.1306 30.4913 96.2759 31.6915 97.0437C33.5476 98.231 37.0442 99.8367 38.3649 100.108L39.4729 100.336L38.7931 99.4876C38.4192 99.021 37.1308 97.6387 35.9299 96.4158C33.3903 93.8299 32.3825 92.0103 30.9392 87.4071C30.2737 85.2838 30.0149 84.7133 29.8782 85.0671C29.779 85.3245 29.5281 86.0089 29.3208 86.5881ZM51.3463 91.6301C51.2698 95.449 51.2078 95.9748 50.6649 97.4106L50.0677 98.9901L50.5652 99.0074C50.8387 99.017 52.5633 99.1501 54.3972 99.3032C56.231 99.4564 57.7293 99.5276 57.7263 99.4613C57.7235 99.3951 57.3549 98.6616 56.9073 97.8308C56.4599 97.0004 56.0937 96.1634 56.0937 95.971C56.0937 95.7787 55.2869 94.1416 54.301 92.3332C53.3149 90.5247 52.2959 88.6515 52.0361 88.1704C51.7764 87.6895 51.534 87.3259 51.4972 87.3626C51.4605 87.3994 51.3926 89.3198 51.3463 91.6301ZM20.4424 95.7302C17.8604 97.076 16.0252 99.3406 14.9184 102.547C12.9694 108.192 13.7598 113.275 17.3215 118.003C18.6137 119.718 19.7324 120.614 21.2216 121.127C22.6223 121.61 25.8391 122.102 29.3007 122.364C31.1296 122.502 32.9958 122.794 33.9807 123.097C36.2645 123.798 39.9454 125.781 43.8525 128.415L47.1722 130.653L49.3515 129.819C53.6919 128.158 57.1769 127.607 60.8516 128.003C65.3847 128.49 66.8911 128.757 67.0213 129.096C67.0917 129.28 67.1102 129.468 67.0622 129.514C67.014 129.56 66.2376 129.463 65.3367 129.298C64.4358 129.132 62.2362 128.929 60.4484 128.845C57.5049 128.707 56.9087 128.751 54.1304 129.31C51.0161 129.938 46.4737 131.551 44.8617 132.603C44.4112 132.897 42.4105 133.81 40.4157 134.632C38.4208 135.455 36.1337 136.551 35.3332 137.07C34.3219 137.725 32.7157 138.384 30.0682 139.232C27.973 139.902 26.1007 140.505 25.9077 140.572C25.3154 140.775 16.5477 140.848 16.5477 140.65C16.5477 140.419 14.7 139.94 13.8073 139.94C12.3785 139.94 10.339 142.108 9.07327 144.971C8.53764 146.183 8.36567 146.345 4.12957 149.625C2.89803 150.579 1.70953 151.635 1.4884 151.973C0.950439 152.794 0.175674 155.934 0.171227 157.311C0.167717 158.402 0.525726 160.313 0.862686 161C1.25581 161.803 2.97571 161.289 2.97571 160.369C2.97571 160.19 3.18257 159.822 3.43552 159.551C3.68848 159.279 3.83028 158.952 3.75048 158.822C3.67068 158.693 3.71983 158.658 3.85952 158.745C3.99921 158.831 4.26201 158.69 4.44312 158.431C4.62447 158.173 4.83974 158.028 4.92165 158.11C5.00355 158.192 5.13717 158.086 5.21813 157.875C5.29933 157.663 5.48724 157.49 5.63559 157.49C5.78394 157.49 6.16771 157.25 6.48805 156.957C6.80863 156.664 8.49226 155.595 10.2297 154.581C11.9672 153.568 14.5997 151.991 16.0797 151.078C17.5598 150.164 19.0866 149.296 19.4727 149.149C19.8588 149.001 21.3536 148.401 22.7946 147.816C25.3845 146.763 26.8694 146.284 28.0114 146.131C28.3345 146.088 29.4411 145.851 30.4707 145.603C33.1491 144.959 42.4031 143.589 45.7977 143.334C51.6231 142.895 53.7797 142.689 57.0199 142.259C59.0093 141.995 60.6997 141.741 60.7765 141.693C60.8532 141.646 62.4444 141.393 64.3127 141.13C68.0143 140.61 68.4063 140.487 71.9315 138.731C74.2547 137.573 74.3263 137.514 74.7968 136.343C75.3772 134.901 75.7506 133.013 75.7469 131.543C75.7441 130.399 75.1972 128.024 74.8834 127.793C74.7807 127.717 74.5387 127.451 74.3457 127.201C74.0338 126.797 74.0338 126.77 74.3457 126.958C74.5387 127.074 74.3457 126.726 73.9165 126.184C73.2007 125.279 72.6936 124.842 73.0732 125.455C73.1806 125.629 73.0655 125.623 72.7177 125.437C72.421 125.279 72.257 125.022 72.33 124.832C72.4007 124.648 72.3309 124.526 72.1728 124.557C72.0164 124.588 71.9104 124.495 71.9369 124.352C71.9633 124.208 71.7008 123.839 71.3535 123.533L70.722 122.975L71.1787 123.56C71.4298 123.882 71.1132 123.643 70.4751 123.03C68.9162 121.532 66.3441 119.371 63.5866 117.242C62.3363 116.277 60.9232 115.143 60.4463 114.723C58.8989 113.359 54.0923 110.272 51.0199 108.669C49.3704 107.807 47.5468 106.767 46.9677 106.357C45.322 105.191 42.7632 103.78 41.3517 103.259C39.0817 102.422 35.0386 101.564 33.3664 101.564C32.883 101.564 32.4223 101.459 32.3427 101.33C32.2624 101.2 32.4384 101.094 32.7384 101.093C33.2279 101.09 33.1905 101.013 32.3427 100.277C31.8279 99.8306 30.902 99.1338 30.2851 98.7287C29.2239 98.0321 29.1467 98.0152 28.854 98.4156C28.5821 98.7874 28.4574 98.8027 27.8279 98.542C27.4338 98.3789 26.9382 98.0538 26.7267 97.8201C26.3766 97.4333 26.3743 97.3315 26.7026 96.6969C27.1079 95.9132 27.2534 96.0253 24.9717 95.3647C23.5628 94.9569 21.6262 95.1132 20.4424 95.7302ZM49.3454 100.756C49.1958 101.084 49.0728 101.479 49.0718 101.634C49.069 102.056 53.2714 105.986 54.2804 106.505C54.7634 106.753 55.8164 107.119 56.6204 107.318C57.4247 107.517 58.2488 107.727 58.4519 107.784C58.7618 107.871 58.729 107.615 58.2484 106.189C57.7539 104.722 57.6931 104.21 57.8045 102.456C57.917 100.681 57.8833 100.409 57.54 100.318C57.3238 100.261 55.4525 100.202 53.3819 100.187L49.6168 100.16L49.3454 100.756ZM47.4357 105.87C47.4357 105.998 49.0599 106.948 49.2625 106.939C49.4034 106.933 47.6493 105.781 47.4942 105.777C47.4621 105.777 47.4357 105.818 47.4357 105.87ZM61.8173 108.995C61.8929 109.192 62.0193 109.288 62.0984 109.21C62.1772 109.13 62.8191 109.652 63.5246 110.369C64.564 111.425 64.893 111.635 65.2583 111.472C65.6715 111.287 65.5948 111.114 64.3396 109.401C63.5864 108.372 62.7128 107.359 62.3983 107.15L61.8267 106.768L61.7534 107.703C61.7132 108.217 61.742 108.799 61.8173 108.995ZM66.5125 108.964C66.9597 109.946 67.3257 110.788 67.3257 110.836C67.3257 110.885 67.7609 110.924 68.2928 110.924H69.2602L67.5323 109.073C66.5823 108.055 65.781 107.212 65.752 107.201C65.7233 107.189 66.0654 107.983 66.5125 108.964ZM69.1085 108.584C69.4492 109.099 69.7729 109.52 69.8276 109.52C69.946 109.52 69.7492 109.167 69.1434 108.292C68.4463 107.285 68.4161 107.538 69.1085 108.584ZM61.0353 112.066C61.702 112.733 61.9437 113.169 61.9437 113.704C61.9437 114.106 61.9437 114.487 61.9437 114.551C61.9437 114.615 61.869 114.694 61.7778 114.727C61.6865 114.759 61.54 114.434 61.4525 114.006C61.3648 113.577 60.9981 112.918 60.6375 112.542C60.0424 111.921 59.6926 111.158 60.0029 111.158C60.071 111.158 60.5355 111.567 61.0353 112.066ZM30.1604 123.502C30.0448 123.727 29.8801 124.205 29.7942 124.564L29.6379 125.217L30.3469 124.851C31.015 124.505 31.0557 124.509 31.0557 124.926C31.0557 125.419 28.7049 126.519 26.3193 127.142C24.1366 127.712 23.5698 128.171 22.3523 130.359C20.6954 133.336 20.6427 133.55 21.4622 133.973C22.5231 134.522 23.213 134.397 24.6813 133.389C26.0979 132.417 26.6181 132.258 32.6937 130.938C34.3024 130.588 36.4716 129.996 37.5141 129.622C38.5566 129.248 39.5403 128.942 39.7004 128.942C39.8602 128.942 40.2587 128.731 40.5858 128.474C40.9132 128.217 41.0613 128.006 40.9153 128.006C40.7693 128.006 40.6497 127.892 40.6497 127.752C40.6497 127.612 41.1395 127.772 41.7383 128.106C42.3371 128.441 42.8591 128.683 42.8987 128.643C43.0054 128.536 40.9972 127.261 39.1287 126.248C38.2278 125.76 37.2113 125.166 36.8697 124.928C36.528 124.691 36.1279 124.496 35.9805 124.496C35.833 124.496 35.3756 124.32 34.9635 124.105C34.3125 123.765 31.9772 123.219 30.7714 123.124C30.5507 123.106 30.2758 123.276 30.1604 123.502Z" fill="url(#paint1_linear_101_5)"/>
<defs>
<linearGradient id="paint0_linear_101_5" x1="119" y1="0" x2="119" y2="163" gradientUnits="userSpaceOnUse">
<stop stop-color="#035F9A"/>
<stop offset="1" stop-color="#0AC0E7"/>
</linearGradient>
<linearGradient id="paint1_linear_101_5" x1="44.1903" y1="4" x2="44.1903" y2="162.727" gradientUnits="userSpaceOnUse">
<stop stop-color="#04639D"/>
<stop offset="1" stop-color="#09ABD6"/>
</linearGradient>
</defs>
</svg>
