<svg width="190" height="144" viewBox="0 0 190 144" fill="none" xmlns="http://www.w3.org/2000/svg">
<g filter="url(#filter0_d_1_86)">
<path fill-rule="evenodd" clip-rule="evenodd" d="M70.7835 115.492L6 115.492C4.89543 115.492 4 116.387 4 117.492V128.929C4 130.034 4.89543 130.929 6 130.929H173.211C174.315 130.929 175.211 130.034 175.211 128.929V117.492C175.211 116.387 174.315 115.492 173.211 115.492L108.427 115.492C103.758 120.237 97.0542 123.211 89.6054 123.211C82.1567 123.211 75.4526 120.237 70.7835 115.492ZM4 134.381C4 133.487 4.72487 132.762 5.61905 132.762H174C174.894 132.762 175.619 133.487 175.619 134.381C175.619 135.275 174.894 136 174 136H5.61905C4.72488 136 4 135.275 4 134.381Z" fill="url(#paint0_linear_1_86)"/>
<path fill-rule="evenodd" clip-rule="evenodd" d="M159.171 21.5766C162.545 18.9884 164.445 14.7671 163.778 10.3351C162.785 3.73305 156.475 -0.836546 149.685 0.128666C146.202 0.623716 143.269 2.4786 141.372 5.05895L95.6911 52.4284C94.9083 53.2401 94.951 54.5381 95.7854 55.2966L110.778 68.9253C111.579 69.6529 112.813 69.6123 113.563 68.8337L158.928 21.7922C159.003 21.7142 159.085 21.6426 159.171 21.5766ZM105.335 66.8943L91.2699 54.0745C90.4536 53.3304 89.1702 53.3717 88.4035 54.1668L85.4708 57.2079C84.7041 58.003 84.7443 59.2508 85.5606 59.9949L106.974 79.5126C107.79 80.2567 109.073 80.2153 109.84 79.4202L112.773 76.3791C113.54 75.584 113.499 74.3363 112.683 73.5922L110.322 71.4399C110.3 71.4123 110.276 71.3861 110.249 71.3618L105.335 66.8943Z" fill="url(#paint1_linear_1_86)"/>
<path fill-rule="evenodd" clip-rule="evenodd" d="M92.2851 85.6521C91.2557 83.2007 87.7823 83.2007 86.7529 85.6521L79.4961 102.935C79.3728 103.229 79.2998 103.527 79.272 103.822C78.7587 105.096 78.4762 106.488 78.4762 107.946C78.4762 114.045 83.4202 118.989 89.519 118.989C95.6178 118.989 100.562 114.045 100.562 107.946C100.562 106.488 100.279 105.096 99.766 103.822C99.7382 103.527 99.6652 103.229 99.5419 102.935L92.2851 85.6521Z" fill="url(#paint2_linear_1_86)"/>
<path d="M49.6445 36.416C48.4727 37.4238 47.1602 38.1973 45.707 38.7363C44.2539 39.2754 42.748 39.5449 41.1895 39.5449C39.9941 39.5449 38.8398 39.3867 37.7266 39.0703C36.625 38.7656 35.5879 38.332 34.6152 37.7695C33.6543 37.1953 32.7754 36.5098 31.9785 35.7129C31.1816 34.916 30.4961 34.0371 29.9219 33.0762C29.3594 32.1035 28.9199 31.0664 28.6035 29.9648C28.2988 28.8516 28.1465 27.6973 28.1465 26.502C28.1465 25.3066 28.2988 24.1523 28.6035 23.0391C28.9199 21.9258 29.3594 20.8887 29.9219 19.9277C30.4961 18.9551 31.1816 18.0703 31.9785 17.2734C32.7754 16.4766 33.6543 15.7969 34.6152 15.2344C35.5879 14.6602 36.625 14.2207 37.7266 13.916C38.8398 13.5996 39.9941 13.4414 41.1895 13.4414C42.748 13.4414 44.2539 13.7109 45.707 14.25C47.1602 14.7773 48.4727 15.5508 49.6445 16.5703L46.9727 20.9648C46.2344 20.168 45.3613 19.5586 44.3535 19.1367C43.3457 18.7031 42.291 18.4863 41.1895 18.4863C40.0762 18.4863 39.0332 18.6973 38.0605 19.1191C37.0879 19.541 36.2383 20.1152 35.5117 20.8418C34.7852 21.5566 34.2109 22.4062 33.7891 23.3906C33.3672 24.3633 33.1562 25.4004 33.1562 26.502C33.1562 27.6035 33.3672 28.6406 33.7891 29.6133C34.2109 30.5742 34.7852 31.418 35.5117 32.1445C36.2383 32.8711 37.0879 33.4453 38.0605 33.8672C39.0332 34.2891 40.0762 34.5 41.1895 34.5C42.291 34.5 43.3457 34.2891 44.3535 33.8672C45.3613 33.4336 46.2344 32.8184 46.9727 32.0215L49.6445 36.416ZM56.9043 39H52.0703V12.6855H56.9043V39ZM29.5 84H24.1035L14.3828 67.4062V84H9.33789V58.793H14.7344L24.4551 75.4043V58.793H29.5V84ZM51.6309 84H50.4707L48.6074 81.416C48.1504 81.8262 47.6641 82.2129 47.1484 82.5762C46.6445 82.9277 46.1113 83.2383 45.5488 83.5078C44.9863 83.7656 44.4062 83.9707 43.8086 84.123C43.2227 84.2754 42.625 84.3516 42.0156 84.3516C40.6914 84.3516 39.4434 84.1289 38.2715 83.6836C37.1113 83.2383 36.0918 82.5938 35.2129 81.75C34.3457 80.8945 33.6602 79.8516 33.1562 78.6211C32.6523 77.3906 32.4004 75.9902 32.4004 74.4199C32.4004 72.9551 32.6523 71.6133 33.1562 70.3945C33.6602 69.1641 34.3457 68.1094 35.2129 67.2305C36.0918 66.3516 37.1113 65.6719 38.2715 65.1914C39.4434 64.6992 40.6914 64.4531 42.0156 64.4531C42.625 64.4531 43.2285 64.5293 43.8262 64.6816C44.4238 64.834 45.0039 65.0449 45.5664 65.3145C46.1289 65.584 46.6621 65.9004 47.166 66.2637C47.6816 66.627 48.1621 67.0195 48.6074 67.4414L50.4707 65.209H51.6309V84ZM46.7969 74.4199C46.7969 73.7637 46.668 73.1309 46.4102 72.5215C46.1641 71.9004 45.8242 71.3555 45.3906 70.8867C44.957 70.4062 44.4473 70.0254 43.8613 69.7441C43.2871 69.4512 42.6719 69.3047 42.0156 69.3047C41.3594 69.3047 40.7383 69.416 40.1523 69.6387C39.5781 69.8613 39.0742 70.1895 38.6406 70.623C38.2188 71.0566 37.8848 71.5957 37.6387 72.2402C37.3926 72.873 37.2695 73.5996 37.2695 74.4199C37.2695 75.2402 37.3926 75.9727 37.6387 76.6172C37.8848 77.25 38.2188 77.7832 38.6406 78.2168C39.0742 78.6504 39.5781 78.9785 40.1523 79.2012C40.7383 79.4238 41.3594 79.5352 42.0156 79.5352C42.6719 79.5352 43.2871 79.3945 43.8613 79.1133C44.4473 78.8203 44.957 78.4395 45.3906 77.9707C45.8242 77.4902 46.1641 76.9453 46.4102 76.3359C46.668 75.7148 46.7969 75.0762 46.7969 74.4199Z" fill="url(#paint3_linear_1_86)"/>
<path d="M165.465 91.416C164.293 92.4238 162.98 93.1973 161.527 93.7363C160.074 94.2754 158.568 94.5449 157.01 94.5449C155.814 94.5449 154.66 94.3867 153.547 94.0703C152.445 93.7656 151.408 93.332 150.436 92.7695C149.475 92.1953 148.596 91.5098 147.799 90.7129C147.002 89.916 146.316 89.0371 145.742 88.0762C145.18 87.1035 144.74 86.0664 144.424 84.9648C144.119 83.8516 143.967 82.6973 143.967 81.502C143.967 80.3066 144.119 79.1523 144.424 78.0391C144.74 76.9258 145.18 75.8887 145.742 74.9277C146.316 73.9551 147.002 73.0703 147.799 72.2734C148.596 71.4766 149.475 70.7969 150.436 70.2344C151.408 69.6602 152.445 69.2207 153.547 68.916C154.66 68.5996 155.814 68.4414 157.01 68.4414C158.568 68.4414 160.074 68.7109 161.527 69.25C162.98 69.7773 164.293 70.5508 165.465 71.5703L162.793 75.9648C162.055 75.168 161.182 74.5586 160.174 74.1367C159.166 73.7031 158.111 73.4863 157.01 73.4863C155.896 73.4863 154.854 73.6973 153.881 74.1191C152.908 74.541 152.059 75.1152 151.332 75.8418C150.605 76.5566 150.031 77.4062 149.609 78.3906C149.188 79.3633 148.977 80.4004 148.977 81.502C148.977 82.6035 149.188 83.6406 149.609 84.6133C150.031 85.5742 150.605 86.418 151.332 87.1445C152.059 87.8711 152.908 88.4453 153.881 88.8672C154.854 89.2891 155.896 89.5 157.01 89.5C158.111 89.5 159.166 89.2891 160.174 88.8672C161.182 88.4336 162.055 87.8184 162.793 87.0215L165.465 91.416ZM185.451 94H184.291L182.428 91.416C181.971 91.8262 181.484 92.2129 180.969 92.5762C180.465 92.9277 179.932 93.2383 179.369 93.5078C178.807 93.7656 178.227 93.9707 177.629 94.123C177.043 94.2754 176.445 94.3516 175.836 94.3516C174.512 94.3516 173.264 94.1289 172.092 93.6836C170.932 93.2383 169.912 92.5938 169.033 91.75C168.166 90.8945 167.48 89.8516 166.977 88.6211C166.473 87.3906 166.221 85.9902 166.221 84.4199C166.221 82.9551 166.473 81.6133 166.977 80.3945C167.48 79.1641 168.166 78.1094 169.033 77.2305C169.912 76.3516 170.932 75.6719 172.092 75.1914C173.264 74.6992 174.512 74.4531 175.836 74.4531C176.445 74.4531 177.049 74.5293 177.646 74.6816C178.244 74.834 178.824 75.0449 179.387 75.3145C179.949 75.584 180.482 75.9004 180.986 76.2637C181.502 76.627 181.982 77.0195 182.428 77.4414L184.291 75.209H185.451V94ZM180.617 84.4199C180.617 83.7637 180.488 83.1309 180.23 82.5215C179.984 81.9004 179.645 81.3555 179.211 80.8867C178.777 80.4062 178.268 80.0254 177.682 79.7441C177.107 79.4512 176.492 79.3047 175.836 79.3047C175.18 79.3047 174.559 79.416 173.973 79.6387C173.398 79.8613 172.895 80.1895 172.461 80.623C172.039 81.0566 171.705 81.5957 171.459 82.2402C171.213 82.873 171.09 83.5996 171.09 84.4199C171.09 85.2402 171.213 85.9727 171.459 86.6172C171.705 87.25 172.039 87.7832 172.461 88.2168C172.895 88.6504 173.398 88.9785 173.973 89.2012C174.559 89.4238 175.18 89.5352 175.836 89.5352C176.492 89.5352 177.107 89.3945 177.682 89.1133C178.268 88.8203 178.777 88.4395 179.211 87.9707C179.645 87.4902 179.984 86.9453 180.23 86.3359C180.488 85.7148 180.617 85.0762 180.617 84.4199Z" fill="url(#paint4_linear_1_86)"/>
</g>
<defs>
<filter id="filter0_d_1_86" x="0" y="0" width="189.451" height="144" filterUnits="userSpaceOnUse" color-interpolation-filters="sRGB">
<feFlood flood-opacity="0" result="BackgroundImageFix"/>
<feColorMatrix in="SourceAlpha" type="matrix" values="0 0 0 0 0 0 0 0 0 0 0 0 0 0 0 0 0 0 127 0" result="hardAlpha"/>
<feOffset dy="4"/>
<feGaussianBlur stdDeviation="2"/>
<feComposite in2="hardAlpha" operator="out"/>
<feColorMatrix type="matrix" values="0 0 0 0 0 0 0 0 0 0 0 0 0 0 0 0 0 0 0.25 0"/>
<feBlend mode="normal" in2="BackgroundImageFix" result="effect1_dropShadow_1_86"/>
<feBlend mode="normal" in="SourceGraphic" in2="effect1_dropShadow_1_86" result="shape"/>
</filter>
<linearGradient id="paint0_linear_1_86" x1="89.8095" y1="115.492" x2="89.8095" y2="136" gradientUnits="userSpaceOnUse">
<stop stop-color="#025C98"/>
<stop offset="0.9999" stop-color="#0ACBEF"/>
<stop offset="1" stop-color="#4B5691" stop-opacity="0"/>
</linearGradient>
<linearGradient id="paint1_linear_1_86" x1="127.857" y1="0" x2="127.857" y2="72.8589" gradientUnits="userSpaceOnUse">
<stop stop-color="#025C98"/>
<stop offset="1" stop-color="#0ACFF2"/>
</linearGradient>
<linearGradient id="paint2_linear_1_86" x1="89.519" y1="83.8136" x2="89.519" y2="118.989" gradientUnits="userSpaceOnUse">
<stop stop-color="#025C98"/>
<stop offset="0.9999" stop-color="#0AC4EA"/>
<stop offset="1" stop-color="#025C98" stop-opacity="0"/>
</linearGradient>
<linearGradient id="paint3_linear_1_86" x1="70" y1="3" x2="70" y2="99" gradientUnits="userSpaceOnUse">
<stop stop-color="#03609C"/>
<stop offset="1" stop-color="#0AC7EC"/>
</linearGradient>
<linearGradient id="paint4_linear_1_86" x1="165.5" y1="58" x2="165.5" y2="103" gradientUnits="userSpaceOnUse">
<stop stop-color="#035F9A"/>
<stop offset="1" stop-color="#0AC7EC"/>
</linearGradient>
</defs>
</svg>
