<svg width="115" height="143" viewBox="0 0 115 143" fill="none" xmlns="http://www.w3.org/2000/svg">
<g filter="url(#filter0_d_101_6)">
<line x1="1" y1="-1" x2="55.3338" y2="-1" transform="matrix(0.373596 -0.927592 0.919643 0.392756 27.6094 53.3282)" stroke="url(#paint0_linear_101_6)" stroke-width="2" stroke-linecap="round"/>
<line x1="46.9481" y1="5.09646" x2="71.241" y2="63.6203" stroke="url(#paint1_linear_101_6)" stroke-width="2" stroke-linecap="round"/>
<ellipse cx="46.4203" cy="3.57828" rx="3.7254" ry="3.57828" fill="url(#paint2_linear_101_6)"/>
</g>
<path fill-rule="evenodd" clip-rule="evenodd" d="M46.2426 72.2293C45.8144 70.6287 46.7594 68.9646 48.3534 68.5125L92.509 55.9859C94.1029 55.5337 95.7422 56.4646 96.1704 58.0652L113.147 121.519L63.2572 135.826L46.2426 72.2293ZM63.7742 137.758L64.1387 139.12C64.5669 140.721 66.2062 141.652 67.8001 141.2L111.956 128.673C113.55 128.221 114.495 126.557 114.066 124.956L113.664 123.451L63.7742 137.758ZM74.9328 65.7408C74.9328 67.5181 73.5336 68.9589 71.8077 68.9589C70.0817 68.9589 68.6825 67.5181 68.6825 65.7408C68.6825 63.9635 70.0817 62.5227 71.8077 62.5227C73.5336 62.5227 74.9328 63.9635 74.9328 65.7408ZM75.1903 118.309C75.3738 119.117 76.1799 119.634 76.9907 119.464C77.8015 119.294 78.31 118.502 78.1265 117.694L76.3494 109.87L86.5973 107.719C87.408 107.549 87.9163 106.756 87.7325 105.948C87.5487 105.141 86.7425 104.624 85.9317 104.794L75.6848 106.945L74.5415 101.912C75.259 101.87 75.9818 101.762 76.7021 101.582L84.9361 99.5256C91.1252 97.9798 94.7912 91.7351 93.1242 85.5775C91.4573 79.4199 85.0887 75.6813 78.8996 77.2271L70.6655 79.2836C69.8914 79.4769 69.1567 79.7438 68.467 80.0748C68.3302 80.0651 68.19 80.0739 68.0497 80.1033C67.2389 80.2732 66.7304 81.0659 66.9139 81.8737L71.1241 100.409L69.5006 100.721C68.6871 100.878 68.1648 101.662 68.334 102.473C68.5032 103.284 69.2999 103.814 70.1134 103.658L71.7889 103.335L72.7488 107.561L71.3583 107.853C70.5476 108.023 70.0393 108.816 70.2231 109.624C70.4069 110.432 71.2132 110.949 72.0239 110.778L73.4134 110.487L75.1903 118.309ZM75.9182 98.6863C75.2336 98.8573 74.546 98.941 73.8675 98.9443L70.1578 82.6128C70.5691 82.4371 71.0003 82.2915 71.4495 82.1793L79.6835 80.1228C84.2651 78.9785 88.9796 81.7461 90.2136 86.3044C91.4476 90.8627 88.7338 95.4856 84.1522 96.6298L75.9182 98.6863Z" fill="url(#paint3_linear_101_6)"/>
<path fill-rule="evenodd" clip-rule="evenodd" d="M23.418 45.9334C24.5824 44.7074 26.5287 44.6843 27.7203 45.8824L48.345 66.6204C48.6442 66.9212 48.9812 67.1805 49.3178 67.4396C49.386 67.492 49.4541 67.5445 49.522 67.5973C50.0185 67.9836 50.4529 68.4467 50.8071 68.9692C50.8374 69.0138 50.8678 69.0584 50.8983 69.1029C51.0479 69.322 51.1979 69.5416 51.3288 69.7721C51.4782 70.035 51.5815 70.3109 51.6422 70.5911C51.7 70.8582 51.7337 71.1305 51.7673 71.4021L51.7673 71.4022C51.774 71.4562 51.7806 71.5102 51.7875 71.5641C51.814 71.7725 51.8299 71.9843 51.8346 72.1991L53.1909 134.837L1.40822 135.673L0.0595461 73.3878C0.0547867 73.168 0.0428563 72.9474 0.030916 72.7266C0.0119823 72.3765 -0.00697609 72.0259 0.00259316 71.6774C0.0214666 70.9901 0.280402 70.2938 0.833157 69.7118L23.418 45.9334ZM1.51947 137.671C2.01858 140.544 4.55528 142.697 7.56022 142.628L47.3384 141.715C50.2201 141.648 52.5832 139.561 53.1022 136.838L1.51947 137.671ZM26.27 57.9254C27.996 57.9254 29.3951 56.4846 29.3951 54.7073C29.3951 52.93 27.996 51.4892 26.27 51.4892C24.5441 51.4892 23.1449 52.93 23.1449 54.7073C23.1449 56.4846 24.5441 57.9254 26.27 57.9254ZM42.0081 105.426C42.3482 104.828 42.661 104.211 42.943 103.574C46.3619 95.8621 43.9704 88.3716 37.6015 86.8438C34.0202 85.9848 29.9437 87.1941 26.4535 89.7886C22.8281 87.3042 18.7275 86.2226 15.2699 87.1938C9.1318 88.918 7.34505 96.4591 11.2791 104.037C12.2426 105.893 13.4598 107.579 14.8389 109.042L26.6629 124.466C27.0702 124.997 27.8744 124.986 28.2668 124.444L39.4039 109.047C40.3597 107.977 41.2235 106.79 41.9613 105.508C41.9784 105.481 41.994 105.453 42.0081 105.426Z" fill="url(#paint4_linear_101_6)"/>
<defs>
<filter id="filter0_d_101_6" x="22.0705" y="0" width="54.1708" height="72.6206" filterUnits="userSpaceOnUse" color-interpolation-filters="sRGB">
<feFlood flood-opacity="0" result="BackgroundImageFix"/>
<feColorMatrix in="SourceAlpha" type="matrix" values="0 0 0 0 0 0 0 0 0 0 0 0 0 0 0 0 0 0 127 0" result="hardAlpha"/>
<feOffset dy="4"/>
<feGaussianBlur stdDeviation="2"/>
<feComposite in2="hardAlpha" operator="out"/>
<feColorMatrix type="matrix" values="0 0 0 0 0 0 0 0 0 0 0 0 0 0 0 0 0 0 0.25 0"/>
<feBlend mode="normal" in2="BackgroundImageFix" result="effect1_dropShadow_101_6"/>
<feBlend mode="normal" in="SourceGraphic" in2="effect1_dropShadow_101_6" result="shape"/>
</filter>
<linearGradient id="paint0_linear_101_6" x1="28.1669" y1="0" x2="28.1669" y2="1" gradientUnits="userSpaceOnUse">
<stop stop-color="#03629D"/>
<stop offset="1" stop-color="#0AC5EA"/>
</linearGradient>
<linearGradient id="paint1_linear_101_6" x1="58.171" y1="34.7418" x2="57.2474" y2="35.1252" gradientUnits="userSpaceOnUse">
<stop stop-color="#03629D"/>
<stop offset="1" stop-color="#0AC5EA"/>
</linearGradient>
<linearGradient id="paint2_linear_101_6" x1="46.4203" y1="0" x2="46.4203" y2="7.15656" gradientUnits="userSpaceOnUse">
<stop stop-color="#03639E"/>
<stop offset="0.9999" stop-color="#0AC6EC"/>
</linearGradient>
<linearGradient id="paint3_linear_101_6" x1="80.1545" y1="55.8716" x2="80.1545" y2="141.314" gradientUnits="userSpaceOnUse">
<stop stop-color="#03629D"/>
<stop offset="1" stop-color="#0ABFE6"/>
</linearGradient>
<linearGradient id="paint4_linear_101_6" x1="26.6042" y1="44.9987" x2="26.6042" y2="142.629" gradientUnits="userSpaceOnUse">
<stop stop-color="#03649F"/>
<stop offset="1" stop-color="#0AC0E7"/>
</linearGradient>
</defs>
</svg>
