<svg width="26" height="26" viewBox="0 0 26 26" fill="none" xmlns="http://www.w3.org/2000/svg">
<g id="material-symbols:add-call-sharp" clip-path="url(#clip0_622_6797)">
<path id="Vector" d="M18.7778 11.5235V7.20219H14.4444V4.32131H18.7778V0H21.6667V4.32131H26V7.20219H21.6667V11.5235H18.7778ZM24.4833 25.9999C21.3778 25.9999 18.3502 25.3157 15.4007 23.9473C12.4511 22.5789 9.83908 20.7543 7.56456 18.4736C5.29004 16.1929 3.46041 13.5819 2.07567 10.6405C0.690927 7.69914 -0.000961959 4.68046 1.00378e-06 1.58448V0.828252C1.00378e-06 0.564171 0.024075 0.312095 0.0722232 0.0720218H8.52222L9.85833 7.31022L5.74167 11.4515C6.75278 13.18 8.02293 14.8005 9.55211 16.313C11.0813 17.8254 12.7602 19.1338 14.5889 20.2381L18.7778 16.0609L26 17.5013V25.9279C25.7593 25.9519 25.5065 25.9701 25.2417 25.9826C24.9769 25.9951 24.7241 26.0009 24.4833 25.9999Z" fill="#0D336D"/>
</g>
<defs>
<clipPath id="clip0_622_6797">
<rect width="26" height="26" fill="white"/>
</clipPath>
</defs>
</svg>
