<svg width="26" height="26" viewBox="0 0 26 26" fill="none" xmlns="http://www.w3.org/2000/svg">
<g id="foundation:pricetag-multiple" clip-path="url(#clip0_622_6566)">
<path id="Vector" d="M25.9034 18.8325C25.8958 18.8201 25.8854 18.8099 25.8771 18.7981L25.8778 18.7978L16.5854 3.51344L16.5802 3.51606C16.5035 3.39985 16.3917 3.30829 16.2593 3.25334L16.2725 3.24612L13.5143 1.7334L16.5781 6.77307L23.5472 18.2362L23.5465 18.2366C23.5548 18.2484 23.5651 18.2585 23.5727 18.271C23.6684 18.4285 23.6943 18.6156 23.6447 18.7912C23.5952 18.9667 23.4742 19.1165 23.3085 19.2074L23.3134 19.2156L13 24.8703L13.4466 25.6047C13.4556 25.6227 13.4618 25.6414 13.4725 25.6591C13.5656 25.8117 13.7172 25.9242 13.8956 25.9732C14.074 26.0221 14.2654 26.0038 14.4299 25.9219L14.4316 25.9245L25.6443 19.7768L25.6395 19.7686C25.8051 19.6777 25.926 19.528 25.9754 19.3525C26.0249 19.1769 25.999 18.9899 25.9034 18.8325Z" fill="#0D336D"/>
<path id="Vector_2" d="M21.3102 18.8472C21.4739 18.7554 21.5934 18.6044 21.6424 18.4272C21.6913 18.2501 21.6657 18.0614 21.5712 17.9025C21.5637 17.89 21.5535 17.8797 21.5453 17.8678L21.546 17.8675L12.3644 2.44888L12.3593 2.45153C12.2835 2.33429 12.173 2.24193 12.0423 2.1865L12.0553 2.17922L8.29802 0.0758267V0.0903852C8.20292 0.0378334 8.09659 0.00729567 7.98732 0.00115443C7.87804 -0.00498682 7.76878 0.0134344 7.66806 0.0549812L7.66396 0.0480328L7.59366 0.0874074C7.5923 0.0884 7.59059 0.0883999 7.58923 0.0893925C7.58786 0.0903851 7.58684 0.0913779 7.58513 0.0920397L0.356273 4.13867C0.250362 4.19809 0.162111 4.28307 0.1001 4.38535C0.0380881 4.48762 0.00442688 4.60372 0.00238879 4.72234L0 4.72102V8.9278L0.00716638 8.92383C-0.00887273 9.06511 0.017404 9.21235 0.0962345 9.34504C0.101012 9.35298 0.107155 9.35893 0.112274 9.36654L9.2631 24.7345C9.27197 24.7527 9.27811 24.7715 9.28869 24.7894C9.3807 24.9433 9.53048 25.0568 9.70675 25.1062C9.88302 25.1556 10.0722 25.1371 10.2347 25.0544L10.2364 25.0571L21.3153 18.8555L21.3102 18.8472ZM6.18052 5.73748C5.95459 5.86395 5.69506 5.92263 5.43474 5.90608C5.17442 5.88954 4.92501 5.79851 4.71805 5.64453C4.51108 5.49054 4.35587 5.2805 4.27202 5.04097C4.18818 4.80145 4.17948 4.5432 4.24703 4.29888C4.31457 4.05456 4.45532 3.83515 4.65148 3.6684C4.84763 3.50164 5.09039 3.39503 5.34904 3.36205C5.60769 3.32907 5.87062 3.3712 6.10457 3.48311C6.33853 3.59503 6.533 3.77169 6.6634 3.99077C6.75009 4.13618 6.80638 4.29672 6.82903 4.46323C6.85168 4.62975 6.84026 4.79895 6.79541 4.96118C6.75056 5.12341 6.67317 5.27547 6.56766 5.40868C6.46215 5.54188 6.3306 5.65361 6.18052 5.73748Z" fill="#0D336D"/>
</g>
<defs>
<clipPath id="clip0_622_6566">
<rect width="26" height="26" fill="white"/>
</clipPath>
</defs>
</svg>
