<svg width="21" height="14" viewBox="0 0 21 14" fill="none" xmlns="http://www.w3.org/2000/svg">
<path id="Vector" d="M16.8114 6.47143L17.1735 6.47143L16.9174 6.21537L12.9647 2.26264C12.6337 1.93162 12.628 1.39727 12.9647 1.06056C13.295 0.730231 13.8365 0.730231 14.1668 1.06056L19.8236 6.71741C20.154 7.04774 20.154 7.58917 19.8236 7.9195L14.1668 13.5764C13.8365 13.9067 13.295 13.9067 12.9647 13.5764C12.6344 13.246 12.6344 12.7046 12.9647 12.3743L16.9174 8.42154L17.1735 8.16548L16.8114 8.16548H1.41058C0.941882 8.16548 0.563562 7.78716 0.563562 7.31846C0.563562 6.84975 0.941882 6.47143 1.41058 6.47143L16.8114 6.47143Z" fill="#0D0F22" stroke="white" stroke-width="0.3"/>
</svg>
