<svg viewBox="0 0 22 22" fill="none" xmlns="http://www.w3.org/2000/svg">
<path d="M17.2079 10.1418L17.57 10.1418L17.3139 9.88572L13.3612 5.93299C13.0302 5.60197 13.0245 5.06762 13.3612 4.73091C13.6915 4.40058 14.2329 4.40058 14.5633 4.73091L20.2201 10.3878C20.5505 10.7181 20.5505 11.2595 20.2201 11.5898L14.5633 17.2467C14.2329 17.577 13.6915 17.577 13.3612 17.2467C13.0309 16.9164 13.0309 16.3749 13.3612 16.0446L17.3139 12.0919L17.57 11.8358L17.2079 11.8358H1.80707C1.33837 11.8358 0.960046 11.4575 0.960046 10.9888C0.960046 10.5201 1.33837 10.1418 1.80707 10.1418L17.2079 10.1418Z" fill="#41424F" stroke="white" stroke-width="0.3"/>
</svg>
