<svg  viewBox="0 0 26 26" fill="none" xmlns="http://www.w3.org/2000/svg">
<g clip-path="url(#clip0_617_5793)">
<path d="M1.08301 22.7497V3.24967C1.08301 2.67504 1.31128 2.12394 1.71761 1.71761C2.12394 1.31128 2.67504 1.08301 3.24967 1.08301H22.7497C23.3243 1.08301 23.8754 1.31128 24.2817 1.71761C24.6881 2.12394 24.9163 2.67504 24.9163 3.24967V22.7497C24.9163 23.3243 24.6881 23.8754 24.2817 24.2817C23.8754 24.6881 23.3243 24.9163 22.7497 24.9163H3.24967C2.67504 24.9163 2.12394 24.6881 1.71761 24.2817C1.31128 23.8754 1.08301 23.3243 1.08301 22.7497Z" stroke="#0D336D" stroke-width="1.5"/>
<path d="M16.2493 7.58268H20.5827M16.2493 16.791H20.5827M16.2493 20.041H20.5827M5.41602 7.58268H7.58268M7.58268 7.58268H9.74935M7.58268 7.58268V5.41602M7.58268 7.58268V9.74935M6.05085 19.9478L7.58268 18.416M7.58268 18.416L9.1156 16.8842M7.58268 18.416L6.05085 16.8842M7.58268 18.416L9.1156 19.9478" stroke="#0D336D" stroke-width="1.5" stroke-linecap="round" stroke-linejoin="round"/>
</g>
<defs>
<clipPath id="clip0_617_5793">
<rect width="26" height="26" fill="white"/>
</clipPath>
</defs>
</svg>
