<svg width="14" height="25" viewBox="0 0 14 25" fill="none" xmlns="http://www.w3.org/2000/svg">
<path d="M3.75838 13.6389C3.66771 13.6389 1.67284 13.6389 0.766079 13.6389C0.282474 13.6389 0.131348 13.4576 0.131348 13.0042C0.131348 11.7952 0.131348 10.556 0.131348 9.34694C0.131348 8.86334 0.3127 8.71221 0.766079 8.71221H3.75838C3.75838 8.62154 3.75838 6.86847 3.75838 6.05238C3.75838 4.84337 3.96996 3.69481 4.57447 2.63693C5.2092 1.54881 6.11596 0.823407 7.26452 0.400253C8.02015 0.128225 8.77578 0.00732422 9.59187 0.00732422H12.5539C12.9771 0.00732422 13.1585 0.188676 13.1585 0.61183V4.05751C13.1585 4.48067 12.9771 4.66202 12.5539 4.66202C11.7379 4.66202 10.9218 4.66202 10.1057 4.69225C9.28961 4.69225 8.86646 5.08518 8.86646 5.93148C8.83623 6.83824 8.86646 7.71478 8.86646 8.65176H12.3726C12.8562 8.65176 13.0375 8.83311 13.0375 9.31672V12.974C13.0375 13.4576 12.8864 13.6087 12.3726 13.6087C11.2845 13.6087 8.95714 13.6087 8.86646 13.6087V23.4622C8.86646 23.976 8.71533 24.1573 8.17128 24.1573C6.90182 24.1573 5.66258 24.1573 4.39312 24.1573C3.93974 24.1573 3.75838 23.976 3.75838 23.5226C3.75838 20.349 3.75838 13.7296 3.75838 13.6389Z" fill="currentColor"/>
</svg>
