<svg  viewBox="0 0 1000 384" fill="none" xmlns="http://www.w3.org/2000/svg">
<g clip-path="url(#clip0_134_1539)">
<!-- <rect width="1000" height="3991" fill="white"/> -->
<g opacity="0.5">
<path d="M-435.644 218.518L-394.572 -65.1217H1880.5L1819.8 278.457L1522.26 182.937C967.396 57.6694 750.589 285.963 396.72 358.9C78.5562 424.479 -435.644 355.943 -435.644 218.518Z" fill="url(#paint0_linear_134_1539)"/>
<path d="M-435.644 218.518L-394.572 -65.1217H1880.5L1819.8 278.457L1522.26 182.937C967.396 57.6694 750.589 285.963 396.72 358.9C78.5562 424.479 -435.644 355.943 -435.644 218.518Z" fill="#96B5F2"/>
<path d="M-435.644 209.369L-394.572 -74.271H1880.5L1819.8 269.307L1522.26 173.787C967.396 48.5201 750.589 276.813 396.72 349.751C78.5562 415.329 -435.644 346.794 -435.644 209.369Z" fill="url(#paint1_linear_134_1539)"/>
<path d="M-435.644 209.369L-394.572 -74.271H1880.5L1819.8 269.307L1522.26 173.787C967.396 48.5201 750.589 276.813 396.72 349.751C78.5562 415.329 -435.644 346.794 -435.644 209.369Z" fill="#AEC9FF"/>
<path d="M-467.745 200.219L-426.674 -83.4204H1848.4L1787.7 260.158L1490.16 164.638C935.295 39.3707 718.487 267.664 364.618 340.602C46.4547 406.18 -467.745 337.644 -467.745 200.219Z" fill="url(#paint2_linear_134_1539)"/>
<path d="M-467.745 200.219L-426.674 -83.4204H1848.4L1787.7 260.158L1490.16 164.638C935.295 39.3707 718.487 267.664 364.618 340.602C46.4547 406.18 -467.745 337.644 -467.745 200.219Z" fill="#DEE9FF"/>
</g>
<g opacity="0.5">
<path d="M1848.4 218.518L1807.33 -65.1216H-467.746L-407.044 278.457L-109.503 182.937C445.357 57.6695 662.165 285.963 1016.03 358.901C1334.2 424.479 1848.4 355.943 1848.4 218.518Z" fill="url(#paint3_linear_134_1539)"/>
<path d="M1848.4 218.518L1807.33 -65.1216H-467.746L-407.044 278.457L-109.503 182.937C445.357 57.6695 662.165 285.963 1016.03 358.901C1334.2 424.479 1848.4 355.943 1848.4 218.518Z" fill="#96B5F2"/>
<path d="M1848.4 209.369L1807.33 -74.271H-467.746L-407.044 269.307L-109.503 173.787C445.357 48.5201 662.165 276.813 1016.03 349.751C1334.2 415.329 1848.4 346.794 1848.4 209.369Z" fill="url(#paint4_linear_134_1539)"/>
<path d="M1848.4 209.369L1807.33 -74.271H-467.746L-407.044 269.307L-109.503 173.787C445.357 48.5201 662.165 276.813 1016.03 349.751C1334.2 415.329 1848.4 346.794 1848.4 209.369Z" fill="#AEC9FF"/>
<path d="M1880.5 200.219L1839.43 -83.4204H-435.645L-374.942 260.158L-77.4014 164.638C477.459 39.3707 694.267 267.664 1048.14 340.602C1366.3 406.18 1880.5 337.644 1880.5 200.219Z" fill="url(#paint5_linear_134_1539)"/>
<path d="M1880.5 200.219L1839.43 -83.4204H-435.645L-374.942 260.158L-77.4014 164.638C477.459 39.3707 694.267 267.664 1048.14 340.602C1366.3 406.18 1880.5 337.644 1880.5 200.219Z" fill="#DEE9FF"/>
</g>
<path d="M-531 184.64L-489.928 -99H1785.14L1724.44 244.578L1426.9 149.058C872.04 23.7911 655.232 252.084 301.363 325.022C-16.8002 390.6 -531 322.065 -531 184.64Z" fill="url(#paint6_linear_134_1539)"/>
</g>
<defs>
<linearGradient id="paint0_linear_134_1539" x1="616.564" y1="-102.594" x2="616.702" y2="241.215" gradientUnits="userSpaceOnUse">
<stop stop-color="#B1DEFF"/>
<stop offset="0.354167" stop-color="#6299C0"/>
<stop offset="0.601721" stop-color="#3B6B8E"/>
<stop offset="1" stop-color="#09213D"/>
</linearGradient>
<linearGradient id="paint1_linear_134_1539" x1="616.564" y1="-111.743" x2="616.702" y2="232.066" gradientUnits="userSpaceOnUse">
<stop stop-color="#B1DEFF"/>
<stop offset="0.354167" stop-color="#6299C0"/>
<stop offset="0.601721" stop-color="#3B6B8E"/>
<stop offset="1" stop-color="#09213D"/>
</linearGradient>
<linearGradient id="paint2_linear_134_1539" x1="584.463" y1="-120.892" x2="584.6" y2="222.916" gradientUnits="userSpaceOnUse">
<stop stop-color="#B1DEFF"/>
<stop offset="0.354167" stop-color="#6299C0"/>
<stop offset="0.601721" stop-color="#3B6B8E"/>
<stop offset="1" stop-color="#09213D"/>
</linearGradient>
<linearGradient id="paint3_linear_134_1539" x1="796.19" y1="-102.594" x2="796.052" y2="241.215" gradientUnits="userSpaceOnUse">
<stop stop-color="#B1DEFF"/>
<stop offset="0.354167" stop-color="#6299C0"/>
<stop offset="0.601721" stop-color="#3B6B8E"/>
<stop offset="1" stop-color="#09213D"/>
</linearGradient>
<linearGradient id="paint4_linear_134_1539" x1="796.19" y1="-111.743" x2="796.052" y2="232.066" gradientUnits="userSpaceOnUse">
<stop stop-color="#B1DEFF"/>
<stop offset="0.354167" stop-color="#6299C0"/>
<stop offset="0.601721" stop-color="#3B6B8E"/>
<stop offset="1" stop-color="#09213D"/>
</linearGradient>
<linearGradient id="paint5_linear_134_1539" x1="828.291" y1="-120.892" x2="828.153" y2="222.916" gradientUnits="userSpaceOnUse">
<stop stop-color="#B1DEFF"/>
<stop offset="0.354167" stop-color="#6299C0"/>
<stop offset="0.601721" stop-color="#3B6B8E"/>
<stop offset="1" stop-color="#09213D"/>
</linearGradient>
<linearGradient id="paint6_linear_134_1539" x1="-929.455" y1="-115.937" x2="1334.56" y2="189.194" gradientUnits="userSpaceOnUse">
<stop offset="0.106947" stop-color="#F1FAFC"/>
<stop offset="0.210416" stop-color="#39AFDD"/>
<stop offset="0.417878" stop-color="#1664AB"/>
<stop offset="0.63123" stop-color="#08367A"/>
<stop offset="1" stop-color="#142C52"/>
</linearGradient>
<clipPath id="clip0_134_1539">
<rect width="1000" height="3991" fill="white"/>
</clipPath>
</defs>
</svg>
