<svg  viewBox="0 0 768 387" fill="none" xmlns="http://www.w3.org/2000/svg">
<g clip-path="url(#clip0_134_2515)">
<!-- <rect width="768" height="3853" fill="white"/> -->
<g opacity="0.5">
<path d="M-383.661 245.843L-348.627 3.89832H1592.01L1540.23 296.971L1286.43 215.493C813.135 108.639 628.198 303.374 326.346 365.59C54.9524 421.528 -383.661 363.067 -383.661 245.843Z" fill="url(#paint0_linear_134_2515)"/>
<path d="M-383.661 245.843L-348.627 3.89832H1592.01L1540.23 296.971L1286.43 215.493C813.135 108.639 628.198 303.374 326.346 365.59C54.9524 421.528 -383.661 363.067 -383.661 245.843Z" fill="#96B5F2"/>
<path d="M-383.661 238.039L-348.627 -3.90613H1592.01L1540.23 289.167L1286.43 207.688C813.135 100.835 628.198 295.57 326.346 357.786C54.9524 413.724 -383.661 355.263 -383.661 238.039Z" fill="url(#paint1_linear_134_2515)"/>
<path d="M-383.661 238.039L-348.627 -3.90613H1592.01L1540.23 289.167L1286.43 207.688C813.135 100.835 628.198 295.57 326.346 357.786C54.9524 413.724 -383.661 355.263 -383.661 238.039Z" fill="#AEC9FF"/>
<path d="M-411.044 230.235L-376.01 -11.7106H1564.63L1512.85 281.362L1259.05 199.884C785.752 93.0305 600.815 287.765 298.964 349.981C27.5695 405.92 -411.044 347.459 -411.044 230.235Z" fill="url(#paint2_linear_134_2515)"/>
<path d="M-411.044 230.235L-376.01 -11.7106H1564.63L1512.85 281.362L1259.05 199.884C785.752 93.0305 600.815 287.765 298.964 349.981C27.5695 405.92 -411.044 347.459 -411.044 230.235Z" fill="#DEE9FF"/>
</g>
<g opacity="0.5">
<path d="M1564.63 245.843L1529.6 3.89832H-411.045L-359.265 296.971L-105.462 215.493C367.835 108.639 552.772 303.374 854.623 365.59C1126.02 421.528 1564.63 363.067 1564.63 245.843Z" fill="url(#paint3_linear_134_2515)"/>
<path d="M1564.63 245.843L1529.6 3.89832H-411.045L-359.265 296.971L-105.462 215.493C367.835 108.639 552.772 303.374 854.623 365.59C1126.02 421.528 1564.63 363.067 1564.63 245.843Z" fill="#96B5F2"/>
<path d="M1564.63 238.039L1529.6 -3.90613H-411.045L-359.265 289.167L-105.462 207.688C367.835 100.835 552.772 295.57 854.623 357.786C1126.02 413.724 1564.63 355.263 1564.63 238.039Z" fill="url(#paint4_linear_134_2515)"/>
<path d="M1564.63 238.039L1529.6 -3.90613H-411.045L-359.265 289.167L-105.462 207.688C367.835 100.835 552.772 295.57 854.623 357.786C1126.02 413.724 1564.63 355.263 1564.63 238.039Z" fill="#AEC9FF"/>
<path d="M1592.01 230.235L1556.98 -11.7106H-383.662L-331.882 281.362L-78.0796 199.884C395.218 93.0305 580.155 287.765 882.006 349.981C1153.4 405.92 1592.01 347.459 1592.01 230.235Z" fill="url(#paint5_linear_134_2515)"/>
<path d="M1592.01 230.235L1556.98 -11.7106H-383.662L-331.882 281.362L-78.0796 199.884C395.218 93.0305 580.155 287.765 882.006 349.981C1153.4 405.92 1592.01 347.459 1592.01 230.235Z" fill="#DEE9FF"/>
</g>
<path d="M-465 216.945L-429.966 -25H1510.68L1458.9 268.073L1205.09 186.594C731.796 79.7411 546.859 274.476 245.008 336.692C-26.3865 392.63 -465 334.169 -465 216.945Z" fill="url(#paint6_linear_134_2515)"/>
</g>
<defs>
<linearGradient id="paint0_linear_134_2515" x1="513.874" y1="-28.0654" x2="513.992" y2="265.204" gradientUnits="userSpaceOnUse">
<stop stop-color="#B1DEFF"/>
<stop offset="0.354167" stop-color="#6299C0"/>
<stop offset="0.601721" stop-color="#3B6B8E"/>
<stop offset="1" stop-color="#09213D"/>
</linearGradient>
<linearGradient id="paint1_linear_134_2515" x1="513.874" y1="-35.8698" x2="513.992" y2="257.4" gradientUnits="userSpaceOnUse">
<stop stop-color="#B1DEFF"/>
<stop offset="0.354167" stop-color="#6299C0"/>
<stop offset="0.601721" stop-color="#3B6B8E"/>
<stop offset="1" stop-color="#09213D"/>
</linearGradient>
<linearGradient id="paint2_linear_134_2515" x1="486.492" y1="-43.6743" x2="486.609" y2="249.595" gradientUnits="userSpaceOnUse">
<stop stop-color="#B1DEFF"/>
<stop offset="0.354167" stop-color="#6299C0"/>
<stop offset="0.601721" stop-color="#3B6B8E"/>
<stop offset="1" stop-color="#09213D"/>
</linearGradient>
<linearGradient id="paint3_linear_134_2515" x1="667.095" y1="-28.0654" x2="666.978" y2="265.204" gradientUnits="userSpaceOnUse">
<stop stop-color="#B1DEFF"/>
<stop offset="0.354167" stop-color="#6299C0"/>
<stop offset="0.601721" stop-color="#3B6B8E"/>
<stop offset="1" stop-color="#09213D"/>
</linearGradient>
<linearGradient id="paint4_linear_134_2515" x1="667.095" y1="-35.8698" x2="666.978" y2="257.4" gradientUnits="userSpaceOnUse">
<stop stop-color="#B1DEFF"/>
<stop offset="0.354167" stop-color="#6299C0"/>
<stop offset="0.601721" stop-color="#3B6B8E"/>
<stop offset="1" stop-color="#09213D"/>
</linearGradient>
<linearGradient id="paint5_linear_134_2515" x1="694.478" y1="-43.6743" x2="694.361" y2="249.595" gradientUnits="userSpaceOnUse">
<stop stop-color="#B1DEFF"/>
<stop offset="0.354167" stop-color="#6299C0"/>
<stop offset="0.601721" stop-color="#3B6B8E"/>
<stop offset="1" stop-color="#09213D"/>
</linearGradient>
<linearGradient id="paint6_linear_134_2515" x1="-804.883" y1="-39.4474" x2="1126.32" y2="220.83" gradientUnits="userSpaceOnUse">
<stop offset="0.106947" stop-color="#F1FAFC"/>
<stop offset="0.210416" stop-color="#39AFDD"/>
<stop offset="0.417878" stop-color="#1664AB"/>
<stop offset="0.63123" stop-color="#08367A"/>
<stop offset="1" stop-color="#142C52"/>
</linearGradient>
<clipPath id="clip0_134_2515">
<rect width="768" height="3853" fill="white"/>
</clipPath>
</defs>
</svg>
