<svg  viewBox="0 0 480 278" fill="none" xmlns="http://www.w3.org/2000/svg">
<g clip-path="url(#clip0_134_3199)">
<!-- <rect width="480" height="6467" fill="white"/> -->
<g opacity="0.5">
<path d="M-284.201 182.754L-260.562 19.4994H1048.9L1013.96 217.253L842.706 162.274C523.346 90.1742 398.558 221.573 194.882 263.553C11.7564 301.298 -284.201 261.851 -284.201 182.754Z" fill="url(#paint0_linear_134_3199)"/>
<path d="M-284.201 182.754L-260.562 19.4994H1048.9L1013.96 217.253L842.706 162.274C523.346 90.1742 398.558 221.573 194.882 263.553C11.7564 301.298 -284.201 261.851 -284.201 182.754Z" fill="#96B5F2"/>
<path d="M-284.201 177.487L-260.562 14.2332H1048.9L1013.96 211.986L842.706 157.008C523.346 84.9079 398.558 216.307 194.882 258.287C11.7564 296.032 -284.201 256.585 -284.201 177.487Z" fill="url(#paint1_linear_134_3199)"/>
<path d="M-284.201 177.487L-260.562 14.2332H1048.9L1013.96 211.986L842.706 157.008C523.346 84.9079 398.558 216.307 194.882 258.287C11.7564 296.032 -284.201 256.585 -284.201 177.487Z" fill="#AEC9FF"/>
<path d="M-302.679 172.221L-279.039 8.96716H1030.42L995.484 206.72L824.229 151.742C504.868 79.642 380.08 211.041 176.404 253.021C-6.7211 290.766 -302.679 251.319 -302.679 172.221Z" fill="url(#paint2_linear_134_3199)"/>
<path d="M-302.679 172.221L-279.039 8.96716H1030.42L995.484 206.72L824.229 151.742C504.868 79.642 380.08 211.041 176.404 253.021C-6.7211 290.766 -302.679 251.319 -302.679 172.221Z" fill="#DEE9FF"/>
</g>
<g opacity="0.5">
<path d="M1030.42 182.754L1006.78 19.4994H-302.681L-267.743 217.253L-96.4875 162.274C222.873 90.1742 347.661 221.573 551.337 263.553C734.462 301.298 1030.42 261.851 1030.42 182.754Z" fill="url(#paint3_linear_134_3199)"/>
<path d="M1030.42 182.754L1006.78 19.4994H-302.681L-267.743 217.253L-96.4875 162.274C222.873 90.1742 347.661 221.573 551.337 263.553C734.462 301.298 1030.42 261.851 1030.42 182.754Z" fill="#96B5F2"/>
<path d="M1030.42 177.487L1006.78 14.2333H-302.681L-267.743 211.986L-96.4875 157.008C222.873 84.9081 347.661 216.307 551.337 258.287C734.462 296.032 1030.42 256.585 1030.42 177.487Z" fill="url(#paint4_linear_134_3199)"/>
<path d="M1030.42 177.487L1006.78 14.2333H-302.681L-267.743 211.986L-96.4875 157.008C222.873 84.9081 347.661 216.307 551.337 258.287C734.462 296.032 1030.42 256.585 1030.42 177.487Z" fill="#AEC9FF"/>
<path d="M1048.9 172.221L1025.26 8.96716H-284.204L-249.265 206.72L-78.01 151.742C241.351 79.642 366.139 211.041 569.815 253.021C752.94 290.766 1048.9 251.319 1048.9 172.221Z" fill="url(#paint5_linear_134_3199)"/>
<path d="M1048.9 172.221L1025.26 8.96716H-284.204L-249.265 206.72L-78.01 151.742C241.351 79.642 366.139 211.041 569.815 253.021C752.94 290.766 1048.9 251.319 1048.9 172.221Z" fill="#DEE9FF"/>
</g>
<path d="M-339.087 163.254L-315.447 0H994.014L959.076 197.753L787.821 142.775C468.46 70.6748 343.672 202.073 139.996 244.054C-43.1293 281.799 -339.087 242.352 -339.087 163.254Z" fill="url(#paint6_linear_134_3199)"/>
</g>
<defs>
<linearGradient id="paint0_linear_134_3199" x1="321.417" y1="-2.06835" x2="321.497" y2="195.817" gradientUnits="userSpaceOnUse">
<stop stop-color="#B1DEFF"/>
<stop offset="0.354167" stop-color="#6299C0"/>
<stop offset="0.601721" stop-color="#3B6B8E"/>
<stop offset="1" stop-color="#09213D"/>
</linearGradient>
<linearGradient id="paint1_linear_134_3199" x1="321.417" y1="-7.33459" x2="321.497" y2="190.551" gradientUnits="userSpaceOnUse">
<stop stop-color="#B1DEFF"/>
<stop offset="0.354167" stop-color="#6299C0"/>
<stop offset="0.601721" stop-color="#3B6B8E"/>
<stop offset="1" stop-color="#09213D"/>
</linearGradient>
<linearGradient id="paint2_linear_134_3199" x1="302.94" y1="-12.6006" x2="303.019" y2="185.285" gradientUnits="userSpaceOnUse">
<stop stop-color="#B1DEFF"/>
<stop offset="0.354167" stop-color="#6299C0"/>
<stop offset="0.601721" stop-color="#3B6B8E"/>
<stop offset="1" stop-color="#09213D"/>
</linearGradient>
<linearGradient id="paint3_linear_134_3199" x1="424.801" y1="-2.06835" x2="424.722" y2="195.817" gradientUnits="userSpaceOnUse">
<stop stop-color="#B1DEFF"/>
<stop offset="0.354167" stop-color="#6299C0"/>
<stop offset="0.601721" stop-color="#3B6B8E"/>
<stop offset="1" stop-color="#09213D"/>
</linearGradient>
<linearGradient id="paint4_linear_134_3199" x1="424.801" y1="-7.33447" x2="424.722" y2="190.551" gradientUnits="userSpaceOnUse">
<stop stop-color="#B1DEFF"/>
<stop offset="0.354167" stop-color="#6299C0"/>
<stop offset="0.601721" stop-color="#3B6B8E"/>
<stop offset="1" stop-color="#09213D"/>
</linearGradient>
<linearGradient id="paint5_linear_134_3199" x1="443.279" y1="-12.6006" x2="443.2" y2="185.285" gradientUnits="userSpaceOnUse">
<stop stop-color="#B1DEFF"/>
<stop offset="0.354167" stop-color="#6299C0"/>
<stop offset="0.601721" stop-color="#3B6B8E"/>
<stop offset="1" stop-color="#09213D"/>
</linearGradient>
<linearGradient id="paint6_linear_134_3199" x1="-568.426" y1="-9.74851" x2="734.671" y2="165.876" gradientUnits="userSpaceOnUse">
<stop offset="0.106947" stop-color="#F1FAFC"/>
<stop offset="0.210416" stop-color="#39AFDD"/>
<stop offset="0.417878" stop-color="#1664AB"/>
<stop offset="0.63123" stop-color="#08367A"/>
<stop offset="1" stop-color="#142C52"/>
</linearGradient>
<clipPath id="clip0_134_3199">
<rect width="480" height="6467" fill="white"/>
</clipPath>
</defs>
</svg>
