<svg width="1920" height="429" viewBox="0 0 1920 429" fill="none" xmlns="http://www.w3.org/2000/svg">
<g opacity="0.5">
<path d="M-141.778 248.038L-96.8883 -61.9719H2389.7L2323.35 313.549L1998.15 209.149C1391.7 72.2352 1154.74 321.753 767.97 401.472C420.227 473.147 -141.778 398.24 -141.778 248.038Z" fill="url(#paint0_linear_108_1941)"/>
<path d="M-141.778 248.038L-96.8883 -61.9719H2389.7L2323.35 313.549L1998.15 209.149C1391.7 72.2352 1154.74 321.753 767.97 401.472C420.227 473.147 -141.778 398.24 -141.778 248.038Z" fill="#96B5F2"/>
<path d="M-141.778 238.038L-96.8883 -71.9719H2389.7L2323.35 303.549L1998.15 199.149C1391.7 62.2352 1154.74 311.753 767.97 391.472C420.227 463.147 -141.778 388.24 -141.778 238.038Z" fill="url(#paint1_linear_108_1941)"/>
<path d="M-141.778 238.038L-96.8883 -71.9719H2389.7L2323.35 303.549L1998.15 199.149C1391.7 62.2352 1154.74 311.753 767.97 391.472C420.227 463.147 -141.778 388.24 -141.778 238.038Z" fill="#AEC9FF"/>
<path d="M-176.864 228.038L-131.974 -81.9719H2354.61L2288.27 293.549L1963.06 189.149C1356.62 52.2352 1119.65 301.753 732.885 381.472C385.141 453.147 -176.864 378.24 -176.864 228.038Z" fill="url(#paint2_linear_108_1941)"/>
<path d="M-176.864 228.038L-131.974 -81.9719H2354.61L2288.27 293.549L1963.06 189.149C1356.62 52.2352 1119.65 301.753 732.885 381.472C385.141 453.147 -176.864 378.24 -176.864 228.038Z" fill="#DEE9FF"/>
</g>
<g opacity="0.5">
<path d="M2354.61 248.038L2309.72 -61.9719H-176.865L-110.519 313.549L214.685 209.149C821.131 72.2352 1058.1 321.753 1444.86 401.472C1792.61 473.147 2354.61 398.24 2354.61 248.038Z" fill="url(#paint3_linear_108_1941)"/>
<path d="M2354.61 248.038L2309.72 -61.9719H-176.865L-110.519 313.549L214.685 209.149C821.131 72.2352 1058.1 321.753 1444.86 401.472C1792.61 473.147 2354.61 398.24 2354.61 248.038Z" fill="#96B5F2"/>
<path d="M2354.61 238.038L2309.72 -71.9719H-176.865L-110.519 303.549L214.685 199.149C821.131 62.2352 1058.1 311.753 1444.86 391.472C1792.61 463.147 2354.61 388.24 2354.61 238.038Z" fill="url(#paint4_linear_108_1941)"/>
<path d="M2354.61 238.038L2309.72 -71.9719H-176.865L-110.519 303.549L214.685 199.149C821.131 62.2352 1058.1 311.753 1444.86 391.472C1792.61 463.147 2354.61 388.24 2354.61 238.038Z" fill="#AEC9FF"/>
<path d="M2389.7 228.038L2344.81 -81.9719H-141.779L-75.4326 293.549L249.771 189.149C856.217 52.2352 1093.18 301.753 1479.95 381.472C1827.69 453.147 2389.7 378.24 2389.7 228.038Z" fill="url(#paint5_linear_108_1941)"/>
<path d="M2389.7 228.038L2344.81 -81.9719H-141.779L-75.4326 293.549L249.771 189.149C856.217 52.2352 1093.18 301.753 1479.95 381.472C1827.69 453.147 2389.7 378.24 2389.7 228.038Z" fill="#DEE9FF"/>
</g>
<path d="M-246 211.01L-201.11 -99H2285.48L2219.13 276.521L1893.93 172.121C1287.48 35.2071 1050.52 284.725 663.749 364.444C316.005 436.119 -246 361.212 -246 211.01Z" fill="url(#paint6_linear_108_1941)"/>
<defs>
<linearGradient id="paint0_linear_108_1941" x1="1008.25" y1="-102.928" x2="1008.4" y2="272.845" gradientUnits="userSpaceOnUse">
<stop stop-color="#B1DEFF"/>
<stop offset="0.354167" stop-color="#6299C0"/>
<stop offset="0.601721" stop-color="#3B6B8E"/>
<stop offset="1" stop-color="#09213D"/>
</linearGradient>
<linearGradient id="paint1_linear_108_1941" x1="1008.25" y1="-112.928" x2="1008.4" y2="262.845" gradientUnits="userSpaceOnUse">
<stop stop-color="#B1DEFF"/>
<stop offset="0.354167" stop-color="#6299C0"/>
<stop offset="0.601721" stop-color="#3B6B8E"/>
<stop offset="1" stop-color="#09213D"/>
</linearGradient>
<linearGradient id="paint2_linear_108_1941" x1="973.168" y1="-122.928" x2="973.319" y2="252.845" gradientUnits="userSpaceOnUse">
<stop stop-color="#B1DEFF"/>
<stop offset="0.354167" stop-color="#6299C0"/>
<stop offset="0.601721" stop-color="#3B6B8E"/>
<stop offset="1" stop-color="#09213D"/>
</linearGradient>
<linearGradient id="paint3_linear_108_1941" x1="1204.58" y1="-102.928" x2="1204.43" y2="272.845" gradientUnits="userSpaceOnUse">
<stop stop-color="#B1DEFF"/>
<stop offset="0.354167" stop-color="#6299C0"/>
<stop offset="0.601721" stop-color="#3B6B8E"/>
<stop offset="1" stop-color="#09213D"/>
</linearGradient>
<linearGradient id="paint4_linear_108_1941" x1="1204.58" y1="-112.928" x2="1204.43" y2="262.845" gradientUnits="userSpaceOnUse">
<stop stop-color="#B1DEFF"/>
<stop offset="0.354167" stop-color="#6299C0"/>
<stop offset="0.601721" stop-color="#3B6B8E"/>
<stop offset="1" stop-color="#09213D"/>
</linearGradient>
<linearGradient id="paint5_linear_108_1941" x1="1239.67" y1="-122.928" x2="1239.52" y2="252.845" gradientUnits="userSpaceOnUse">
<stop stop-color="#B1DEFF"/>
<stop offset="0.354167" stop-color="#6299C0"/>
<stop offset="0.601721" stop-color="#3B6B8E"/>
<stop offset="1" stop-color="#09213D"/>
</linearGradient>
<linearGradient id="paint6_linear_108_1941" x1="-681.5" y1="-117.512" x2="1793" y2="215.988" gradientUnits="userSpaceOnUse">
<stop offset="0.106947" stop-color="#F1FAFC"/>
<stop offset="0.210416" stop-color="#39AFDD"/>
<stop offset="0.417878" stop-color="#1664AB"/>
<stop offset="0.63123" stop-color="#08367A"/>
<stop offset="1" stop-color="#142C52"/>
</linearGradient>
</defs>
</svg>
