<svg  viewBox="0 0 1920 296" fill="none" xmlns="http://www.w3.org/2000/svg">
<g clip-path="url(#clip0_76_1059)">
<path d="M400.437 76.7645H390.637V101.964H387.037V76.7645H377.237V73.5645H400.437V76.7645ZM408.673 102.364C407.1 102.364 405.66 102.071 404.353 101.484C403.073 100.898 401.966 100.111 401.033 99.1245C400.126 98.1378 399.42 96.9911 398.913 95.6845C398.406 94.3778 398.153 93.0045 398.153 91.5645C398.153 90.0978 398.406 88.7111 398.913 87.4045C399.446 86.0978 400.166 84.9511 401.073 83.9645C402.006 82.9778 403.113 82.1911 404.393 81.6045C405.7 81.0178 407.126 80.7245 408.673 80.7245C410.22 80.7245 411.646 81.0178 412.953 81.6045C414.26 82.1911 415.366 82.9778 416.273 83.9645C417.206 84.9511 417.926 86.0978 418.433 87.4045C418.966 88.7111 419.233 90.0978 419.233 91.5645C419.233 93.0045 418.98 94.3778 418.473 95.6845C417.966 96.9911 417.246 98.1378 416.313 99.1245C415.38 100.111 414.26 100.898 412.953 101.484C411.673 102.071 410.246 102.364 408.673 102.364ZM401.753 91.6045C401.753 92.6978 401.926 93.7111 402.273 94.6445C402.646 95.5778 403.14 96.3911 403.753 97.0845C404.393 97.7778 405.126 98.3245 405.953 98.7245C406.806 99.1245 407.713 99.3245 408.673 99.3245C409.633 99.3245 410.526 99.1245 411.353 98.7245C412.206 98.3245 412.953 97.7778 413.593 97.0845C414.233 96.3645 414.726 95.5378 415.073 94.6045C415.446 93.6445 415.633 92.6178 415.633 91.5245C415.633 90.4578 415.446 89.4578 415.073 88.5245C414.726 87.5645 414.233 86.7378 413.593 86.0445C412.953 85.3245 412.206 84.7645 411.353 84.3645C410.526 83.9645 409.633 83.7645 408.673 83.7645C407.713 83.7645 406.806 83.9778 405.953 84.4045C405.126 84.8045 404.393 85.3645 403.753 86.0845C403.14 86.7778 402.646 87.6045 402.273 88.5645C401.926 89.4978 401.753 90.5111 401.753 91.6045ZM434.178 81.0845C434.925 81.0845 435.618 81.2178 436.258 81.4845C436.898 81.7245 437.458 82.0711 437.938 82.5245C438.418 82.9778 438.792 83.5245 439.058 84.1645C439.325 84.7778 439.458 85.4578 439.458 86.2045C439.458 86.6578 439.405 87.1245 439.298 87.6045C439.192 88.0578 439.018 88.5111 438.778 88.9645C438.565 89.3911 438.272 89.7911 437.898 90.1645C437.525 90.5378 437.072 90.8311 436.538 91.0445C437.685 91.3645 438.592 91.9645 439.258 92.8445C439.925 93.6978 440.258 94.7778 440.258 96.0845C440.258 96.9645 440.098 97.7778 439.778 98.5245C439.458 99.2445 439.005 99.8578 438.418 100.364C437.858 100.871 437.178 101.271 436.378 101.564C435.605 101.831 434.738 101.964 433.778 101.964H423.658V81.0845H434.178ZM432.778 90.0045C433.792 90.0045 434.578 89.7245 435.138 89.1645C435.725 88.5778 436.018 87.7778 436.018 86.7645C436.018 85.9111 435.792 85.1911 435.338 84.6045C434.885 83.9911 434.125 83.6845 433.058 83.6845H427.098V90.0045H432.778ZM433.378 99.3645C434.445 99.3645 435.285 99.0311 435.898 98.3645C436.538 97.6711 436.858 96.8578 436.858 95.9245C436.858 95.0445 436.565 94.2711 435.978 93.6045C435.392 92.9378 434.552 92.6045 433.458 92.6045H427.098V99.3645H433.378ZM449.952 102.364C448.965 102.364 448.045 102.204 447.192 101.884C446.339 101.538 445.592 101.071 444.952 100.484C444.339 99.8978 443.845 99.2178 443.472 98.4445C443.125 97.6445 442.952 96.7778 442.952 95.8445C442.952 94.8845 443.165 94.0178 443.592 93.2445C444.019 92.4445 444.619 91.7645 445.392 91.2045C446.192 90.6445 447.125 90.2045 448.192 89.8845C449.285 89.5645 450.472 89.4045 451.752 89.4045C452.765 89.4045 453.792 89.4978 454.832 89.6845C455.872 89.8711 456.792 90.1245 457.592 90.4445V88.7645C457.592 87.0578 457.112 85.7245 456.152 84.7645C455.192 83.7778 453.832 83.2845 452.072 83.2845C449.965 83.2845 447.752 84.0978 445.432 85.7245L444.272 83.4445C446.965 81.6311 449.672 80.7245 452.392 80.7245C455.139 80.7245 457.272 81.4578 458.792 82.9245C460.339 84.3911 461.112 86.4578 461.112 89.1245V97.6445C461.112 98.4711 461.485 98.8978 462.232 98.9245V101.964C461.859 102.018 461.552 102.058 461.312 102.084C461.072 102.111 460.819 102.124 460.552 102.124C459.859 102.124 459.299 101.924 458.872 101.524C458.472 101.098 458.232 100.591 458.152 100.004L458.072 98.5245C457.139 99.7778 455.952 100.738 454.512 101.404C453.099 102.044 451.579 102.364 449.952 102.364ZM450.872 99.7245C452.125 99.7245 453.285 99.4978 454.352 99.0445C455.445 98.5645 456.272 97.9378 456.832 97.1645C457.339 96.6578 457.592 96.1378 457.592 95.6045V92.5245C455.885 91.8578 454.112 91.5245 452.272 91.5245C450.512 91.5245 449.072 91.8978 447.952 92.6445C446.859 93.3911 446.312 94.3645 446.312 95.5645C446.312 96.1511 446.419 96.6978 446.632 97.2045C446.872 97.7111 447.192 98.1511 447.592 98.5245C448.019 98.8978 448.512 99.1911 449.072 99.4045C449.632 99.6178 450.232 99.7245 450.872 99.7245ZM478.099 102.364C476.366 102.364 474.833 101.938 473.499 101.084C472.193 100.231 471.153 99.1511 470.379 97.8445V110.484H466.859V81.0845H469.979V85.0045C470.806 83.7245 471.873 82.6978 473.179 81.9245C474.513 81.1245 475.979 80.7245 477.579 80.7245C479.019 80.7245 480.339 81.0178 481.539 81.6045C482.739 82.1911 483.779 82.9911 484.659 84.0045C485.539 84.9911 486.219 86.1378 486.699 87.4445C487.206 88.7511 487.459 90.1111 487.459 91.5245C487.459 93.0178 487.233 94.4311 486.779 95.7645C486.326 97.0711 485.686 98.2178 484.859 99.2045C484.033 100.164 483.046 100.938 481.899 101.524C480.753 102.084 479.486 102.364 478.099 102.364ZM477.019 99.3245C478.059 99.3245 478.993 99.1111 479.819 98.6845C480.673 98.2311 481.393 97.6445 481.979 96.9245C482.593 96.1778 483.059 95.3378 483.379 94.4045C483.699 93.4711 483.859 92.5111 483.859 91.5245C483.859 90.4845 483.673 89.4978 483.299 88.5645C482.926 87.6045 482.419 86.7778 481.779 86.0845C481.139 85.3645 480.379 84.8045 479.499 84.4045C478.646 83.9778 477.713 83.7645 476.699 83.7645C476.059 83.7645 475.393 83.8978 474.699 84.1645C474.033 84.4045 473.393 84.7378 472.779 85.1645C472.193 85.5645 471.673 86.0578 471.219 86.6445C470.793 87.2045 470.513 87.8045 470.379 88.4445V94.4045C470.673 95.0978 471.046 95.7511 471.499 96.3645C471.953 96.9511 472.473 97.4711 473.059 97.9245C473.646 98.3511 474.273 98.6978 474.939 98.9645C475.606 99.2045 476.299 99.3245 477.019 99.3245ZM491.859 81.0845H495.299V88.2845H499.259C500.166 88.2845 501.046 88.4311 501.899 88.7245C502.779 88.9911 503.553 89.4178 504.219 90.0045C504.913 90.5645 505.473 91.2845 505.899 92.1645C506.326 93.0178 506.539 94.0311 506.539 95.2045C506.539 96.3778 506.326 97.3911 505.899 98.2445C505.473 99.0978 504.913 99.8045 504.219 100.364C503.553 100.898 502.779 101.298 501.899 101.564C501.019 101.831 500.126 101.964 499.219 101.964H491.859V81.0845ZM508.579 81.0845H512.019V101.964H508.579V81.0845ZM499.219 99.0045C500.366 99.0045 501.286 98.6978 501.979 98.0845C502.699 97.4445 503.059 96.4845 503.059 95.2045C503.059 93.8978 502.673 92.9111 501.899 92.2445C501.153 91.5778 500.273 91.2445 499.259 91.2445H495.299V99.0045H499.219Z" fill="white"/>
<g opacity="0.5">
<path d="M-141.777 115.038L-96.8874 -194.972H2389.7L2323.35 180.549L1998.15 76.1487C1391.7 -60.7648 1154.74 188.753 767.971 268.472C420.228 340.147 -141.777 265.24 -141.777 115.038Z" fill="url(#paint0_linear_76_1059)"/>
<path d="M-141.777 115.038L-96.8874 -194.972H2389.7L2323.35 180.549L1998.15 76.1487C1391.7 -60.7648 1154.74 188.753 767.971 268.472C420.228 340.147 -141.777 265.24 -141.777 115.038Z" fill="#96B5F2"/>
<path d="M-141.777 105.038L-96.8874 -204.972H2389.7L2323.35 170.549L1998.15 66.1487C1391.7 -70.7648 1154.74 178.753 767.971 258.472C420.228 330.147 -141.777 255.24 -141.777 105.038Z" fill="url(#paint1_linear_76_1059)"/>
<path d="M-141.777 105.038L-96.8874 -204.972H2389.7L2323.35 170.549L1998.15 66.1487C1391.7 -70.7648 1154.74 178.753 767.971 258.472C420.228 330.147 -141.777 255.24 -141.777 105.038Z" fill="#AEC9FF"/>
<path d="M-176.863 95.0379L-131.973 -214.972H2354.61L2288.27 160.549L1963.07 56.1487C1356.62 -80.7648 1119.65 168.753 732.885 248.472C385.142 320.147 -176.863 245.24 -176.863 95.0379Z" fill="url(#paint2_linear_76_1059)"/>
<path d="M-176.863 95.0379L-131.973 -214.972H2354.61L2288.27 160.549L1963.07 56.1487C1356.62 -80.7648 1119.65 168.753 732.885 248.472C385.142 320.147 -176.863 245.24 -176.863 95.0379Z" fill="#DEE9FF"/>
</g>
<g opacity="0.5">
<path d="M2354.61 115.038L2309.72 -194.972H-176.865L-110.519 180.549L214.685 76.1487C821.131 -60.7648 1058.1 188.753 1444.86 268.472C1792.61 340.147 2354.61 265.24 2354.61 115.038Z" fill="url(#paint3_linear_76_1059)"/>
<path d="M2354.61 115.038L2309.72 -194.972H-176.865L-110.519 180.549L214.685 76.1487C821.131 -60.7648 1058.1 188.753 1444.86 268.472C1792.61 340.147 2354.61 265.24 2354.61 115.038Z" fill="#96B5F2"/>
<path d="M2354.61 105.038L2309.72 -204.972H-176.865L-110.519 170.549L214.685 66.1487C821.131 -70.7648 1058.1 178.753 1444.86 258.472C1792.61 330.147 2354.61 255.24 2354.61 105.038Z" fill="url(#paint4_linear_76_1059)"/>
<path d="M2354.61 105.038L2309.72 -204.972H-176.865L-110.519 170.549L214.685 66.1487C821.131 -70.7648 1058.1 178.753 1444.86 258.472C1792.61 330.147 2354.61 255.24 2354.61 105.038Z" fill="#AEC9FF"/>
<path d="M2389.7 95.0379L2344.81 -214.972H-141.779L-75.4326 160.549L249.771 56.1487C856.217 -80.7648 1093.18 168.753 1479.95 248.472C1827.69 320.147 2389.7 245.24 2389.7 95.0379Z" fill="url(#paint5_linear_76_1059)"/>
<path d="M2389.7 95.0379L2344.81 -214.972H-141.779L-75.4326 160.549L249.771 56.1487C856.217 -80.7648 1093.18 168.753 1479.95 248.472C1827.69 320.147 2389.7 245.24 2389.7 95.0379Z" fill="#DEE9FF"/>
</g>
<path d="M-246 78.0098L-201.11 -232H2285.48L2219.13 143.521L1893.93 39.1207C1287.48 -97.7929 1050.52 151.725 663.749 231.444C316.005 303.119 -246 228.212 -246 78.0098Z" fill="url(#paint6_linear_76_1059)"/>
</g>
<defs>
<linearGradient id="paint0_linear_76_1059" x1="1008.26" y1="-235.928" x2="1008.41" y2="139.845" gradientUnits="userSpaceOnUse">
<stop stop-color="#B1DEFF"/>
<stop offset="0.354167" stop-color="#6299C0"/>
<stop offset="0.601721" stop-color="#3B6B8E"/>
<stop offset="1" stop-color="#09213D"/>
</linearGradient>
<linearGradient id="paint1_linear_76_1059" x1="1008.26" y1="-245.928" x2="1008.41" y2="129.845" gradientUnits="userSpaceOnUse">
<stop stop-color="#B1DEFF"/>
<stop offset="0.354167" stop-color="#6299C0"/>
<stop offset="0.601721" stop-color="#3B6B8E"/>
<stop offset="1" stop-color="#09213D"/>
</linearGradient>
<linearGradient id="paint2_linear_76_1059" x1="973.169" y1="-255.928" x2="973.32" y2="119.845" gradientUnits="userSpaceOnUse">
<stop stop-color="#B1DEFF"/>
<stop offset="0.354167" stop-color="#6299C0"/>
<stop offset="0.601721" stop-color="#3B6B8E"/>
<stop offset="1" stop-color="#09213D"/>
</linearGradient>
<linearGradient id="paint3_linear_76_1059" x1="1204.58" y1="-235.928" x2="1204.43" y2="139.845" gradientUnits="userSpaceOnUse">
<stop stop-color="#B1DEFF"/>
<stop offset="0.354167" stop-color="#6299C0"/>
<stop offset="0.601721" stop-color="#3B6B8E"/>
<stop offset="1" stop-color="#09213D"/>
</linearGradient>
<linearGradient id="paint4_linear_76_1059" x1="1204.58" y1="-245.928" x2="1204.43" y2="129.845" gradientUnits="userSpaceOnUse">
<stop stop-color="#B1DEFF"/>
<stop offset="0.354167" stop-color="#6299C0"/>
<stop offset="0.601721" stop-color="#3B6B8E"/>
<stop offset="1" stop-color="#09213D"/>
</linearGradient>
<linearGradient id="paint5_linear_76_1059" x1="1239.67" y1="-255.928" x2="1239.52" y2="119.845" gradientUnits="userSpaceOnUse">
<stop stop-color="#B1DEFF"/>
<stop offset="0.354167" stop-color="#6299C0"/>
<stop offset="0.601721" stop-color="#3B6B8E"/>
<stop offset="1" stop-color="#09213D"/>
</linearGradient>
<linearGradient id="paint6_linear_76_1059" x1="-681.5" y1="-250.512" x2="1793" y2="82.9879" gradientUnits="userSpaceOnUse">
<stop offset="0.106947" stop-color="#F1FAFC"/>
<stop offset="0.210416" stop-color="#39AFDD"/>
<stop offset="0.417878" stop-color="#1664AB"/>
<stop offset="0.63123" stop-color="#08367A"/>
<stop offset="1" stop-color="#142C52"/>
</linearGradient>
<clipPath id="clip0_76_1059">
<rect width="1920" height="2567" fill="white" transform="translate(0 -133)"/>
</clipPath>
</defs>
</svg>
