<svg width="108" height="166" viewBox="0 0 108 166" fill="none" xmlns="http://www.w3.org/2000/svg">
<g filter="url(#filter0_d_25_786)">
<path fill-rule="evenodd" clip-rule="evenodd" d="M36.6455 78.5281C35.6135 78.1342 34.4398 78.6444 34.0239 79.6676L13.274 130.715C13.1556 131.006 13.1114 131.308 13.1325 131.599L26.5887 120.814L28.7648 137.506C28.9644 137.315 29.1276 137.08 29.2377 136.809L49.9876 85.7616C50.4035 84.7384 49.9042 83.5895 48.8722 83.1956L36.6455 78.5281Z" fill="url(#paint0_linear_25_786)"/>
<path fill-rule="evenodd" clip-rule="evenodd" d="M72.7832 78.4313C73.8265 78.0685 74.9831 78.6141 75.3667 79.6499L94.488 131.288C94.5238 131.385 94.5517 131.483 94.5718 131.58L80.6216 120.4L78.44 137.133C78.402 137.06 78.3681 136.984 78.3387 136.904L59.2174 85.2659C58.8338 84.2301 59.3686 83.0963 60.4119 82.7335L72.7832 78.4313Z" fill="url(#paint1_linear_25_786)"/>
<rect width="18.3078" height="17.4764" transform="matrix(0.998886 0.047194 -0.0502456 0.998737 12.1674 119.586)" fill="#0567A1"/>
<rect width="18.3078" height="17.4764" transform="matrix(-0.998886 0.047194 0.0502456 0.998737 94.9952 118.393)" fill="#0567A1"/>
<path fill-rule="evenodd" clip-rule="evenodd" d="M4.11843 155.346L14.899 143.211C15.3836 142.665 16.267 142.796 16.5616 143.457L22.9196 157.721C23.2407 157.419 23.4731 157.021 23.5589 156.57L30.4577 120.331C30.6644 119.245 29.9424 118.264 28.8452 118.139L13.3043 116.367C12.207 116.242 11.15 117.021 10.9434 118.107L4.04457 154.346C3.97739 154.699 4.00835 155.041 4.11843 155.346Z" fill="url(#paint2_linear_25_786)"/>
<path fill-rule="evenodd" clip-rule="evenodd" d="M103.089 153.002L92.2711 140.824C91.7865 140.278 90.903 140.409 90.6085 141.07L83.9013 156.117C83.7582 155.895 83.655 155.645 83.6038 155.377L76.705 119.137C76.4984 118.052 77.2203 117.07 78.3176 116.945L93.8585 115.174C94.9557 115.049 96.0127 115.828 96.2194 116.913L103.089 153.002Z" fill="url(#paint3_linear_25_786)"/>
<path fill-rule="evenodd" clip-rule="evenodd" d="M61.6713 6.28707C59.2318 -0.988748 48.9407 -0.988758 46.5013 6.28705L43.6089 14.9135L36.0754 9.55432C29.7456 5.05145 21.1187 11.1262 23.5162 18.3981L26.1876 26.5009C25.7321 27.0525 25.2937 27.6178 24.873 28.1962H16.0968C8.28629 28.1962 5.10483 38.241 11.4912 42.7375L18.3758 47.5848C18.3731 47.76 18.3718 47.9356 18.3718 48.1114C18.3718 48.1645 18.3719 48.2176 18.3722 48.2707L11.6561 52.9507C5.24737 57.4165 8.38027 67.1919 16.2323 67.2292L24.3366 67.2678C24.7137 67.8167 25.1066 68.3546 25.5145 68.8808L22.7511 77.1228C20.2946 84.4493 28.6234 90.6559 34.9417 86.2072L42.5249 80.8681C43.1061 81.0607 43.694 81.2391 44.2883 81.4031L46.7798 88.9602C49.1695 96.2086 59.732 96.1758 62.2081 88.9124L64.8653 81.1175C65.1274 81.0372 65.3882 80.954 65.6477 80.8681L73.2308 86.2072C79.5492 90.6559 87.8779 84.4493 85.4214 77.1228L82.7186 69.0615C76.1893 77.2875 65.93 82.5887 54.393 82.5887C34.6685 82.5887 18.6786 67.0931 18.6786 47.9784C18.6786 28.8636 34.6685 13.368 54.393 13.368C57.91 13.368 61.3083 13.8606 64.5184 14.7786L61.6713 6.28707ZM65.8493 15.187C72.8416 17.4804 78.8628 21.8153 83.1572 27.4596L86.2369 18.4256C88.708 11.1769 80.2444 5.15602 73.8486 9.6128L65.8493 15.187ZM83.7025 28.1962C87.6282 33.6482 89.9754 40.2468 90.1021 47.3698L96.6814 42.7375C103.068 38.241 99.8863 28.1962 92.0758 28.1962H83.7025ZM90.1075 47.9917C90.1047 55.2509 87.7957 61.9876 83.8521 67.5511L92.6705 67.5931C100.548 67.6306 103.943 57.8342 97.6135 53.3313L90.1075 47.9917ZM88.1075 47.9784C88.1075 65.9298 73.0727 80.5887 54.393 80.5887C35.7134 80.5887 20.6786 65.9298 20.6786 47.9784C20.6786 30.0269 35.7134 15.368 54.393 15.368C73.0727 15.368 88.1075 30.0269 88.1075 47.9784ZM54.393 16.9484L56.3285 22.721H62.5918L57.5247 26.2887L59.4601 32.0613L54.393 28.4936L49.3259 32.0613L51.2613 26.2887L46.1942 22.721H52.4575L54.393 16.9484ZM39.087 31.0752L37.1516 25.3026L35.2161 31.0752H28.9527L34.0199 34.6429L32.0844 40.4155L37.1516 36.8479L42.2187 40.4155L40.2832 34.6429L45.3504 31.0752H39.087ZM72.866 25.3026L74.8015 31.0752H81.0648L75.9977 34.6429L77.9332 40.4155L72.866 36.8479L67.7989 40.4155L69.7344 34.6429L64.6672 31.0752H70.9306L72.866 25.3026ZM67.0781 68.0012C67.6094 66.7825 67.875 65.4778 67.875 64.0872C67.875 62.8528 67.6484 61.6575 67.1953 60.5012C66.7422 59.3294 66.1016 58.2825 65.2734 57.3606C66.1016 56.4387 66.7422 55.3997 67.1953 54.2434C67.6484 53.0716 67.875 51.8684 67.875 50.6341C67.875 49.2434 67.6094 47.9387 67.0781 46.72C66.5469 45.5012 65.8203 44.4387 64.8984 43.5325C63.9922 42.6106 62.9297 41.8841 61.7109 41.3528C60.4922 40.8216 59.1875 40.5559 57.7969 40.5559H44.3437V47.2825H57.7969C58.2656 47.2825 58.7031 47.3684 59.1094 47.5403C59.5156 47.7122 59.8672 47.9544 60.1641 48.2669C60.4766 48.5637 60.7187 48.9153 60.8906 49.3216C61.0625 49.7278 61.1484 50.1653 61.1484 50.6341C61.1484 51.1028 61.0625 51.5481 60.8906 51.97C60.7187 52.3762 60.4766 52.7356 60.1641 53.0481C59.8672 53.345 59.5156 53.5794 59.1094 53.7512C58.7031 53.9231 58.2656 54.0091 57.7969 54.0091H48.6328V60.7356H57.7969C58.2656 60.7356 58.7031 60.8216 59.1094 60.9934C59.5156 61.1653 59.8672 61.4075 60.1641 61.72C60.4766 62.0169 60.7187 62.3684 60.8906 62.7747C61.0625 63.1809 61.1484 63.6184 61.1484 64.0872C61.1484 64.5559 61.0625 64.9934 60.8906 65.3997C60.7187 65.8059 60.4766 66.1653 60.1641 66.4778C59.8672 66.7747 59.5156 67.009 59.1094 67.1809C58.7031 67.3528 58.2656 67.4387 57.7969 67.4387H44.3437V74.1653H57.7969C59.1875 74.1653 60.4922 73.8997 61.7109 73.3684C62.9297 72.8372 63.9922 72.1184 64.8984 71.2122C65.8203 70.2903 66.5469 69.22 67.0781 68.0012Z" fill="url(#paint4_linear_25_786)"/>
</g>
<defs>
<filter id="filter0_d_25_786" x="0.00927734" y="0.8302" width="107.08" height="164.891" filterUnits="userSpaceOnUse" color-interpolation-filters="sRGB">
<feFlood flood-opacity="0" result="BackgroundImageFix"/>
<feColorMatrix in="SourceAlpha" type="matrix" values="0 0 0 0 0 0 0 0 0 0 0 0 0 0 0 0 0 0 127 0" result="hardAlpha"/>
<feOffset dy="4"/>
<feGaussianBlur stdDeviation="2"/>
<feComposite in2="hardAlpha" operator="out"/>
<feColorMatrix type="matrix" values="0 0 0 0 0 0 0 0 0 0 0 0 0 0 0 0 0 0 0.25 0"/>
<feBlend mode="normal" in2="BackgroundImageFix" result="effect1_dropShadow_25_786"/>
<feBlend mode="normal" in="SourceGraphic" in2="effect1_dropShadow_25_786" result="shape"/>
</filter>
<linearGradient id="paint0_linear_25_786" x1="31.6308" y1="78.3951" x2="31.6308" y2="137.506" gradientUnits="userSpaceOnUse">
<stop stop-color="#04619C"/>
<stop offset="1" stop-color="#0AB5DE"/>
</linearGradient>
<linearGradient id="paint1_linear_25_786" x1="76.8325" y1="78.3191" x2="76.8325" y2="137.133" gradientUnits="userSpaceOnUse">
<stop stop-color="#035F9A"/>
<stop offset="1" stop-color="#0AC3E9"/>
</linearGradient>
<linearGradient id="paint2_linear_25_786" x1="43.3478" y1="158.143" x2="45.5951" y2="117.342" gradientUnits="userSpaceOnUse">
<stop stop-color="#04619C"/>
<stop offset="1" stop-color="#0AB5DE"/>
</linearGradient>
<linearGradient id="paint3_linear_25_786" x1="63.841" y1="156.932" x2="61.5911" y2="116.149" gradientUnits="userSpaceOnUse">
<stop stop-color="#04619C"/>
<stop offset="1" stop-color="#0AB5DE"/>
</linearGradient>
<linearGradient id="paint4_linear_25_786" x1="54.4974" y1="0.8302" x2="54.4974" y2="94.3783" gradientUnits="userSpaceOnUse">
<stop stop-color="#03629D"/>
<stop offset="1" stop-color="#0AB5DE"/>
</linearGradient>
</defs>
</svg>
