<svg width="237" height="118" viewBox="0 0 237 118" fill="none" xmlns="http://www.w3.org/2000/svg">
<g filter="url(#filter0_d_105_2)">
<path fill-rule="evenodd" clip-rule="evenodd" d="M210.371 95.4738L177.264 64.1957C176.493 63.4674 175.288 63.4674 174.517 64.1957L141.41 95.4741L174.729 71.6924C175.424 71.1962 176.357 71.1962 177.053 71.6923L210.371 95.4738Z" fill="url(#paint0_linear_105_2)"/>
<path d="M160.167 33.148V34.588H154.533V46H152.913V33.148H160.167ZM174.115 39.556C174.115 40.552 173.989 41.458 173.737 42.274C173.485 43.078 173.107 43.774 172.603 44.362C172.111 44.95 171.493 45.4 170.749 45.712C170.017 46.024 169.165 46.18 168.193 46.18C167.185 46.18 166.309 46.024 165.565 45.712C164.821 45.388 164.203 44.938 163.711 44.362C163.219 43.774 162.853 43.072 162.613 42.256C162.373 41.44 162.253 40.534 162.253 39.538C162.253 38.218 162.469 37.066 162.901 36.082C163.333 35.098 163.987 34.33 164.863 33.778C165.751 33.226 166.867 32.95 168.211 32.95C169.495 32.95 170.575 33.226 171.451 33.778C172.327 34.318 172.987 35.086 173.431 36.082C173.887 37.066 174.115 38.224 174.115 39.556ZM163.963 39.556C163.963 40.636 164.113 41.566 164.413 42.346C164.713 43.126 165.175 43.726 165.799 44.146C166.435 44.566 167.233 44.776 168.193 44.776C169.165 44.776 169.957 44.566 170.569 44.146C171.193 43.726 171.655 43.126 171.955 42.346C172.255 41.566 172.405 40.636 172.405 39.556C172.405 37.936 172.069 36.67 171.397 35.758C170.725 34.834 169.663 34.372 168.211 34.372C167.239 34.372 166.435 34.582 165.799 35.002C165.175 35.41 164.713 36.004 164.413 36.784C164.113 37.552 163.963 38.476 163.963 39.556ZM183.372 34.39C182.688 34.39 182.07 34.51 181.518 34.75C180.966 34.978 180.498 35.32 180.114 35.776C179.73 36.22 179.436 36.766 179.232 37.414C179.028 38.05 178.926 38.77 178.926 39.574C178.926 40.63 179.088 41.548 179.412 42.328C179.748 43.108 180.24 43.708 180.888 44.128C181.548 44.548 182.37 44.758 183.354 44.758C183.918 44.758 184.452 44.71 184.956 44.614C185.46 44.518 185.952 44.398 186.432 44.254V45.658C185.952 45.838 185.454 45.97 184.938 46.054C184.434 46.138 183.828 46.18 183.12 46.18C181.812 46.18 180.72 45.91 179.844 45.37C178.968 44.83 178.308 44.062 177.864 43.066C177.432 42.07 177.216 40.9 177.216 39.556C177.216 38.584 177.348 37.696 177.612 36.892C177.888 36.088 178.284 35.392 178.8 34.804C179.328 34.216 179.976 33.766 180.744 33.454C181.512 33.13 182.394 32.968 183.39 32.968C184.05 32.968 184.686 33.034 185.298 33.166C185.91 33.298 186.456 33.484 186.936 33.724L186.288 35.092C185.892 34.912 185.448 34.75 184.956 34.606C184.476 34.462 183.948 34.39 183.372 34.39ZM194.205 46H192.585V34.57H188.571V33.148H198.201V34.57H194.205V46Z" fill="url(#paint1_linear_105_2)"/>
<path d="M160.167 33.148H160.667V32.648H160.167V33.148ZM160.167 34.588V35.088H160.667V34.588H160.167ZM154.533 34.588V34.088H154.033V34.588H154.533ZM154.533 46V46.5H155.033V46H154.533ZM152.913 46H152.413V46.5H152.913V46ZM152.913 33.148V32.648H152.413V33.148H152.913ZM159.667 33.148V34.588H160.667V33.148H159.667ZM160.167 34.088H154.533V35.088H160.167V34.088ZM154.033 34.588V46H155.033V34.588H154.033ZM154.533 45.5H152.913V46.5H154.533V45.5ZM153.413 46V33.148H152.413V46H153.413ZM152.913 33.648H160.167V32.648H152.913V33.648ZM173.737 42.274L174.214 42.4235L174.215 42.4215L173.737 42.274ZM172.603 44.362L172.223 44.0366L172.22 44.0411L172.603 44.362ZM170.749 45.712L170.556 45.2509L170.553 45.252L170.749 45.712ZM165.565 45.712L165.365 46.1705L165.372 46.1731L165.565 45.712ZM163.711 44.362L163.328 44.6829L163.331 44.6867L163.711 44.362ZM162.613 42.256L162.133 42.3971L162.613 42.256ZM162.901 36.082L163.359 36.283L162.901 36.082ZM164.863 33.778L164.599 33.3533L164.597 33.355L164.863 33.778ZM171.451 33.778L171.185 34.201L171.189 34.2036L171.451 33.778ZM173.431 36.082L172.974 36.2856L172.977 36.2922L173.431 36.082ZM165.799 44.146L165.52 44.5608L165.524 44.5632L165.799 44.146ZM170.569 44.146L170.29 43.7312L170.286 43.7337L170.569 44.146ZM171.397 35.758L170.993 36.0521L170.995 36.0546L171.397 35.758ZM165.799 35.002L166.073 35.4205L166.075 35.4192L165.799 35.002ZM164.413 36.784L164.879 36.9659L164.88 36.9635L164.413 36.784ZM173.615 39.556C173.615 40.5101 173.494 41.3654 173.259 42.1265L174.215 42.4215C174.484 41.5506 174.615 40.5939 174.615 39.556H173.615ZM173.26 42.1245C173.026 42.8696 172.68 43.5044 172.223 44.0366L172.983 44.6874C173.535 44.0436 173.944 43.2864 174.214 42.4235L173.26 42.1245ZM172.22 44.0411C171.782 44.5647 171.23 44.9681 170.556 45.2509L170.942 46.1731C171.756 45.8319 172.441 45.3353 172.987 44.6829L172.22 44.0411ZM170.553 45.252C169.895 45.5325 169.112 45.68 168.193 45.68V46.68C169.218 46.68 170.139 46.5155 170.945 46.172L170.553 45.252ZM168.193 45.68C167.235 45.68 166.428 45.5317 165.758 45.2509L165.372 46.1731C166.19 46.5163 167.135 46.68 168.193 46.68V45.68ZM165.765 45.2536C165.085 44.9577 164.531 44.5515 164.091 44.0373L163.331 44.6867C163.876 45.3245 164.557 45.8183 165.365 46.1704L165.765 45.2536ZM164.095 44.0411C163.651 43.5113 163.316 42.8723 163.093 42.1149L162.133 42.3971C162.391 43.2717 162.787 44.0367 163.328 44.6829L164.095 44.0411ZM163.093 42.1149C162.868 41.3518 162.753 40.4942 162.753 39.538H161.753C161.753 40.5738 161.878 41.5282 162.133 42.3971L163.093 42.1149ZM162.753 39.538C162.753 38.2718 162.96 37.1909 163.359 36.283L162.443 35.881C161.978 36.9411 161.753 38.1642 161.753 39.538H162.753ZM163.359 36.283C163.752 35.3868 164.341 34.6977 165.13 34.201L164.597 33.355C163.633 33.9623 162.914 34.8092 162.443 35.881L163.359 36.283ZM165.127 34.2026C165.916 33.7121 166.934 33.45 168.211 33.45V32.45C166.8 32.45 165.586 32.7399 164.599 33.3534L165.127 34.2026ZM168.211 33.45C169.423 33.45 170.406 33.7101 171.185 34.201L171.718 33.355C170.745 32.7419 169.567 32.45 168.211 32.45V33.45ZM171.189 34.2036C171.974 34.6876 172.569 35.3757 172.974 36.2856L173.888 35.8784C173.405 34.7963 172.68 33.9484 171.713 33.3524L171.189 34.2036ZM172.977 36.2922C173.397 37.1971 173.615 38.2804 173.615 39.556H174.615C174.615 38.1676 174.377 36.9349 173.885 35.8718L172.977 36.2922ZM163.463 39.556C163.463 40.6803 163.619 41.6742 163.946 42.5255L164.88 42.1665C164.607 41.4578 164.463 40.5917 164.463 39.556H163.463ZM163.946 42.5255C164.279 43.3902 164.801 44.0772 165.52 44.5608L166.078 43.7312C165.549 43.3748 165.147 42.8618 164.88 42.1665L163.946 42.5255ZM165.524 44.5632C166.26 45.0497 167.161 45.276 168.193 45.276V44.276C167.306 44.276 166.61 44.0823 166.075 43.7288L165.524 44.5632ZM168.193 45.276C169.235 45.276 170.134 45.0507 170.852 44.5583L170.286 43.7337C169.78 44.0813 169.095 44.276 168.193 44.276V45.276ZM170.848 44.5608C171.567 44.0772 172.089 43.3902 172.422 42.5255L171.488 42.1665C171.221 42.8618 170.819 43.3748 170.29 43.7312L170.848 44.5608ZM172.422 42.5255C172.749 41.6742 172.905 40.6803 172.905 39.556H171.905C171.905 40.5917 171.761 41.4578 171.488 42.1665L172.422 42.5255ZM172.905 39.556C172.905 37.8736 172.557 36.4892 171.8 35.4614L170.995 36.0546C171.581 36.8508 171.905 37.9984 171.905 39.556H172.905ZM171.801 35.4639C171.01 34.376 169.775 33.872 168.211 33.872V34.872C169.551 34.872 170.44 35.292 170.993 36.0521L171.801 35.4639ZM168.211 33.872C167.168 33.872 166.261 34.0977 165.524 34.5848L166.075 35.4192C166.609 35.0663 167.31 34.872 168.211 34.872V33.872ZM165.525 34.5835C164.803 35.0558 164.279 35.7389 163.946 36.6045L164.88 36.9635C165.147 36.2691 165.547 35.7642 166.073 35.4205L165.525 34.5835ZM163.947 36.6021C163.619 37.4429 163.463 38.432 163.463 39.556H164.463C164.463 38.52 164.607 37.6611 164.879 36.9659L163.947 36.6021ZM181.518 34.75L181.709 35.2122L181.717 35.2085L181.518 34.75ZM180.114 35.776L180.492 36.1031L180.496 36.0981L180.114 35.776ZM179.232 37.414L179.708 37.5667L179.709 37.5641L179.232 37.414ZM179.412 42.328L178.95 42.5198L178.952 42.5258L179.412 42.328ZM180.888 44.128L180.616 44.5476L180.619 44.5498L180.888 44.128ZM184.956 44.614L184.862 44.1228L184.956 44.614ZM186.432 44.254H186.932V43.582L186.288 43.7751L186.432 44.254ZM186.432 45.658L186.607 46.1262L186.932 46.0045V45.658H186.432ZM184.938 46.054L184.857 45.5605L184.855 45.5608L184.938 46.054ZM179.844 45.37L180.106 44.9444L179.844 45.37ZM177.864 43.066L177.405 43.265L177.407 43.2696L177.864 43.066ZM177.612 36.892L177.139 36.7296L177.137 36.736L177.612 36.892ZM178.8 34.804L178.428 34.4699L178.424 34.4742L178.8 34.804ZM180.744 33.454L180.932 33.9173L180.938 33.9147L180.744 33.454ZM185.298 33.166L185.403 32.6772L185.298 33.166ZM186.936 33.724L187.387 33.938L187.597 33.4957L187.159 33.2768L186.936 33.724ZM186.288 35.092L186.081 35.5472L186.529 35.7509L186.739 35.306L186.288 35.092ZM184.956 34.606L184.812 35.0849L184.815 35.0859L184.956 34.606ZM183.372 33.89C182.628 33.89 181.941 34.0206 181.318 34.2915L181.717 35.2085C182.198 34.9994 182.747 34.89 183.372 34.89V33.89ZM181.327 34.2879C180.701 34.5464 180.167 34.9364 179.731 35.4539L180.496 36.0981C180.828 35.7036 181.231 35.4096 181.708 35.2121L181.327 34.2879ZM179.735 35.4489C179.3 35.952 178.976 36.5609 178.755 37.2639L179.709 37.5641C179.895 36.9711 180.159 36.488 180.492 36.1031L179.735 35.4489ZM178.755 37.2613C178.533 37.9555 178.426 38.7284 178.426 39.574H179.426C179.426 38.8116 179.522 38.1445 179.708 37.5667L178.755 37.2613ZM178.426 39.574C178.426 40.6799 178.595 41.6659 178.95 42.5198L179.873 42.1362C179.58 41.4301 179.426 40.5801 179.426 39.574H178.426ZM178.952 42.5258C179.323 43.3872 179.876 44.0685 180.616 44.5476L181.16 43.7084C180.603 43.3475 180.172 42.8288 179.871 42.1302L178.952 42.5258ZM180.619 44.5498C181.378 45.0326 182.299 45.258 183.354 45.258V44.258C182.44 44.258 181.717 44.0634 181.156 43.7062L180.619 44.5498ZM183.354 45.258C183.946 45.258 184.511 45.2076 185.049 45.1052L184.862 44.1228C184.392 44.2124 183.889 44.258 183.354 44.258V45.258ZM185.049 45.1052C185.57 45.006 186.078 44.882 186.575 44.7329L186.288 43.7751C185.825 43.914 185.35 44.03 184.862 44.1228L185.049 45.1052ZM185.932 44.254V45.658H186.932V44.254H185.932ZM186.256 45.1898C185.807 45.358 185.341 45.4817 184.857 45.5605L185.018 46.5475C185.566 46.4583 186.096 46.318 186.607 46.1262L186.256 45.1898ZM184.855 45.5608C184.387 45.6389 183.81 45.68 183.12 45.68V46.68C183.845 46.68 184.481 46.6371 185.02 46.5472L184.855 45.5608ZM183.12 45.68C181.879 45.68 180.884 45.4242 180.106 44.9444L179.581 45.7956C180.555 46.3958 181.744 46.68 183.12 46.68V45.68ZM180.106 44.9444C179.321 44.4604 178.726 43.7723 178.32 42.8624L177.407 43.2696C177.889 44.3517 178.614 45.1996 179.581 45.7956L180.106 44.9444ZM178.322 42.867C177.923 41.9469 177.716 40.8474 177.716 39.556H176.716C176.716 40.9526 176.94 42.1931 177.405 43.265L178.322 42.867ZM177.716 39.556C177.716 38.6293 177.841 37.7948 178.087 37.048L177.137 36.736C176.854 37.5972 176.716 38.5387 176.716 39.556H177.716ZM178.085 37.0543C178.341 36.3066 178.706 35.6687 179.175 35.1338L178.424 34.4742C177.861 35.1153 177.434 35.8694 177.139 36.7297L178.085 37.0543ZM179.172 35.1381C179.646 34.6093 180.231 34.2021 180.932 33.9172L180.555 32.9908C179.721 33.3299 179.009 33.8227 178.428 34.4699L179.172 35.1381ZM180.938 33.9147C181.634 33.6212 182.448 33.468 183.39 33.468V32.468C182.34 32.468 181.39 32.6388 180.549 32.9933L180.938 33.9147ZM183.39 33.468C184.016 33.468 184.617 33.5306 185.192 33.6548L185.403 32.6772C184.755 32.5374 184.083 32.468 183.39 32.468V33.468ZM185.192 33.6548C185.77 33.7793 186.275 33.9528 186.712 34.1712L187.159 33.2768C186.636 33.0152 186.049 32.8166 185.403 32.6772L185.192 33.6548ZM186.484 33.51L185.836 34.878L186.739 35.306L187.387 33.938L186.484 33.51ZM186.494 34.6368C186.074 34.4455 185.607 34.2756 185.096 34.1261L184.815 35.0859C185.288 35.2244 185.71 35.3785 186.081 35.5472L186.494 34.6368ZM185.099 34.1271C184.566 33.9672 183.989 33.89 183.372 33.89V34.89C183.906 34.89 184.385 34.9568 184.812 35.0849L185.099 34.1271ZM194.205 46V46.5H194.705V46H194.205ZM192.585 46H192.085V46.5H192.585V46ZM192.585 34.57H193.085V34.07H192.585V34.57ZM188.571 34.57H188.071V35.07H188.571V34.57ZM188.571 33.148V32.648H188.071V33.148H188.571ZM198.201 33.148H198.701V32.648H198.201V33.148ZM198.201 34.57V35.07H198.701V34.57H198.201ZM194.205 34.57V34.07H193.705V34.57H194.205ZM194.205 45.5H192.585V46.5H194.205V45.5ZM193.085 46V34.57H192.085V46H193.085ZM192.585 34.07H188.571V35.07H192.585V34.07ZM189.071 34.57V33.148H188.071V34.57H189.071ZM188.571 33.648H198.201V32.648H188.571V33.648ZM197.701 33.148V34.57H198.701V33.148H197.701ZM198.201 34.07H194.205V35.07H198.201V34.07ZM193.705 34.57V46H194.705V34.57H193.705Z" fill="url(#paint2_linear_105_2)"/>
<path fill-rule="evenodd" clip-rule="evenodd" d="M129 42.7321L175.787 55.4802C176.131 55.574 176.494 55.574 176.838 55.4802L223.624 42.7321L177.045 61.0587C176.574 61.2438 176.051 61.2438 175.58 61.0587L129 42.7321Z" fill="url(#paint3_linear_105_2)"/>
</g>
<g filter="url(#filter1_d_105_2)">
<path d="M147.701 20.0498L176 2.35865L204.299 20.0498L229.869 41.4969L221.789 73.8777L209.293 104.824L176 107.145L142.707 104.824L130.211 73.8777L122.131 41.4969L147.701 20.0498Z" stroke="url(#paint4_linear_105_2)" stroke-width="4" shape-rendering="crispEdges"/>
</g>
<g filter="url(#filter2_d_105_2)">
<path fill-rule="evenodd" clip-rule="evenodd" d="M25.7056 9.30596C21.1661 10.2748 17.7632 13.7203 16.7193 18.4056C16.4612 19.5633 15.7007 20.1231 13.7553 20.5872C11.1628 21.2057 9.20977 22.2139 7.62705 23.751C6.12133 25.2131 5.3426 26.4185 4.65764 28.3473C3.65638 31.1666 3.77354 32.4708 5.63054 39.1783C8.5097 49.578 9.40974 56.9336 8.63825 63.7603C8.13524 68.2106 7.36189 72.5144 6.43867 76.0003C5.23579 80.543 4.61769 82.8086 4.24819 84.0302C3.88015 85.2472 3.93293 88.7299 4.33037 89.4645C4.45188 89.6887 4.85677 90.5143 5.2302 91.2989C5.72886 92.3468 6.32482 93.1326 7.47553 94.2603C9.3317 96.079 10.8989 96.9087 13.6628 97.5358C15.8967 98.0427 16.1822 98.3195 16.823 100.598C17.4519 102.835 18.1592 104.01 19.8843 105.682C22.8604 108.568 26.2647 109.576 30.9315 108.953C31.9852 108.812 34.5238 108.288 36.5731 107.788C48.014 104.997 57.3321 104.193 66.0706 105.242C71.1082 105.847 76.1873 106.743 80.004 107.7C87.7499 109.642 91.224 109.577 94.9548 107.423C97.3789 106.023 99.6725 102.902 100.233 100.241C100.572 98.6335 101.17 98.0941 103.125 97.6321C105.148 97.1539 107.302 96.168 108.67 95.0943C109.785 94.2197 111.497 92.1249 111.854 91.1983C111.962 90.9178 112.239 90.3158 112.468 89.8607C113.084 88.6401 112.925 84.2964 112.173 81.8143C110.164 75.1792 109.159 70.6626 108.482 65.225C107.72 59.0962 108.162 52.9673 109.951 44.8464C110.377 42.9156 112.009 36.7823 112.552 35.071C112.747 34.4577 112.853 33.2352 112.853 31.5919V29.0585L111.888 27.1429C110.157 23.7043 107.463 21.6129 103.49 20.6235C100.979 19.9982 100.829 19.857 100.13 17.4629C99.0529 13.7715 96.1908 10.8015 92.5434 9.59055C91.3443 9.19254 90.8955 9.1599 87.7025 9.23885C84.4742 9.31861 83.9521 9.38654 81.3886 10.0587C73.191 12.2085 62.4653 13.6642 56.8591 13.388C50.0565 13.0526 43.8421 12.1026 35.9724 10.1948C33.0272 9.48079 29.3896 8.95835 27.6721 9.00262C27.3306 9.01159 26.4456 9.14786 25.7056 9.30596ZM32.5207 13.9916C33.5935 14.1632 35.9223 14.6626 37.6957 15.1018C44.708 16.8378 52.342 17.8436 58.4116 17.8309C64.6481 17.8179 73.0333 16.6816 80.0197 14.9027C85.8275 13.4239 88.7143 13.3082 91.2004 14.4547C93.7405 15.6263 95.405 17.6457 96.1496 20.4595C96.7996 22.9168 98.0115 24.049 100.584 24.6031C103.809 25.2973 106.082 26.8883 107.282 29.2894C108.487 31.7027 108.373 33.4218 106.604 39.4843C104.391 47.069 103.138 56.1038 103.536 61.5995C103.981 67.7316 105.022 73.6006 106.66 79.2002C107.83 83.2039 108.233 85.9765 107.857 87.4463C107.145 90.2346 104.189 92.8011 100.95 93.4439C97.9751 94.0341 96.7288 95.1596 96.068 97.852C95.2551 101.164 92.543 103.662 89.0683 104.299C87.2676 104.629 84.5027 104.289 79.8361 103.164C73.5514 101.648 69.0317 100.943 61.9306 100.367C55.5633 99.8514 46.5455 100.906 36.3661 103.356C32.2062 104.358 29.3784 104.656 27.6032 104.281C24.2067 103.563 21.7306 101.162 20.8442 97.7263C20.2089 95.2648 18.7094 93.8854 16.1836 93.4395C15.4436 93.3089 14.3258 92.9643 13.6996 92.6738C12.2881 92.019 10.2268 90.0208 9.54718 88.6483C9.10172 87.7487 9.04542 87.3753 9.07005 85.4863C9.09365 83.6774 9.21784 82.9318 9.86803 80.6923C11.8823 73.7555 12.571 70.2667 13.2984 63.3144C13.9664 56.929 12.9103 48.0707 10.4942 39.7903C9.13836 35.144 8.89452 33.8339 9.05142 32.0383C9.22716 30.0277 9.87797 28.6378 11.3005 27.2361C12.5727 25.9821 14.3875 25.0331 16.1701 24.6894C19.0491 24.1341 20.33 22.9583 21.0307 20.2277C21.6567 17.7877 22.9419 16.0867 25.1026 14.8389C27.0733 13.7007 29.1888 13.4592 32.5207 13.9916ZM30.515 29.2333C30.0545 30.3832 29.072 32.8849 28.332 34.7923C27.592 36.6997 26.4287 39.6832 25.7468 41.4223C24.8385 43.7395 24.5657 44.6549 24.7259 44.8489C24.8666 45.0192 25.3191 45.0918 25.9977 45.0529C26.9934 44.9956 27.0726 44.9488 27.4423 44.2024C27.6576 43.7681 28.0584 42.7583 28.3326 41.9584C29.1967 39.4404 28.9274 39.5863 32.7088 39.5863C35.0181 39.5863 36.0682 39.6612 36.2893 39.8413C36.4615 39.9816 36.867 40.7848 37.1908 41.6263C38.3181 44.5578 38.4862 44.8693 39.0101 44.9988C39.9224 45.2247 41.1174 45.0253 41.1923 44.6349C41.2302 44.4382 40.6574 42.8317 39.9197 41.0649C39.1819 39.298 37.6267 35.5573 36.4638 32.7523C35.3007 29.9473 34.2559 27.5376 34.1419 27.3973C34.0162 27.2425 33.4282 27.1423 32.6438 27.1423H31.3526L30.515 29.2333ZM34.1479 33.684C34.8633 35.5932 35.3934 37.2431 35.3259 37.3507C35.1701 37.5989 30.3238 37.6097 30.1685 37.3621C30.105 37.2607 30.4664 36.1236 30.9717 34.8349C31.477 33.5465 32.0425 31.9769 32.2282 31.3471C32.4141 30.7176 32.6291 30.2047 32.7066 30.2076C32.7838 30.2107 33.4325 31.7749 34.1479 33.684ZM46.9117 41.4117C43.8935 41.8744 42.0739 43.6996 42.0632 46.2755C42.0555 48.0868 43.1013 49.5674 44.9566 50.3728C45.4689 50.5952 46.9908 51.0584 48.3386 51.4026C52.1658 52.3795 53.1238 52.9958 53.1238 54.4809C53.1238 56.148 51.444 57.3343 49.0836 57.3343C47.5576 57.3343 46.6658 57.0922 45.5619 56.3779C44.8268 55.9024 43.9216 54.5993 43.9216 54.0164C43.9216 53.4601 43.4215 53.2553 42.4569 53.4165C41.6568 53.5501 41.5328 53.6405 41.4749 54.1325C41.3736 54.9956 41.9924 56.5728 42.7953 57.4971C44.5683 59.5383 48.5418 60.3058 51.9735 59.2699C53.3786 58.8457 55.1555 57.1897 55.4939 55.9889C55.8295 54.7978 55.7595 53.2543 55.3281 52.3363C54.5241 50.6251 53.3128 49.9526 49.0912 48.8744C45.3213 47.9117 44.3753 47.2624 44.6432 45.8218C44.8877 44.5074 46.3735 43.6753 48.4756 43.6753C50.6419 43.6753 51.9549 44.4478 52.5115 46.0498C52.7675 46.7871 52.8332 46.8316 53.7498 46.8911C54.2822 46.9256 54.8462 46.8489 55.0033 46.7204C55.6128 46.222 54.6579 43.806 53.4697 42.8401C52.0039 41.6487 49.2616 41.0512 46.9117 41.4117ZM57.1007 56.8584C57.0247 56.933 56.9626 60.9165 56.9626 65.7105C56.9626 75.4022 56.8457 74.6743 58.4031 74.6743C58.8353 74.6743 59.2994 74.5431 59.4344 74.3828C59.6155 74.1678 59.6627 72.3542 59.6149 67.4568C59.5793 63.8076 59.6095 60.8866 59.682 60.9653C59.7546 61.0438 60.8134 64.0459 62.0353 67.6363C63.2571 71.2267 64.403 74.2792 64.5821 74.4193C65.0395 74.7775 66.3913 74.7373 66.7804 74.3538C66.9593 74.1774 67.1056 74.0025 67.1056 73.9652C67.1056 73.9279 67.809 71.8919 68.6689 69.4409C69.5285 66.9896 70.53 64.1122 70.8941 63.0463L71.5561 61.1083L71.6107 67.619C71.6476 72.0078 71.7403 74.2184 71.895 74.402C72.1955 74.759 73.8184 74.7545 74.1206 74.3956C74.2891 74.1955 74.3398 71.6843 74.3011 65.4706L74.2471 56.8243L72.5646 56.7655C71.1086 56.7145 70.8618 56.7558 70.7323 57.0715C70.4791 57.6886 66.4614 69.2169 66.1973 70.0843C66.0607 70.5331 65.8737 70.8805 65.7818 70.8562C65.6901 70.832 64.5854 67.7567 63.3272 64.0222C62.0691 60.2878 60.9492 57.1176 60.8389 56.9773C60.6261 56.7072 57.3594 56.6032 57.1007 56.8584ZM76.5164 72.0704C76.4612 72.2122 76.4403 76.1839 76.4701 80.8963L76.5241 89.4643H83.1481H89.7721V88.4443V87.4243L84.3901 87.3223L79.0081 87.2203L78.9506 84.5471C78.9063 82.4906 78.9578 81.8208 79.1739 81.644C79.359 81.4926 81.0379 81.3955 84.096 81.3594L88.7371 81.3043V80.3863V79.4683L84.096 79.4132C81.033 79.3769 79.3592 79.28 79.1733 79.1282C78.9593 78.953 78.9058 78.3326 78.9501 76.5311L79.0081 74.1643L84.2456 74.1098L89.4829 74.0552L89.4206 72.9878L89.3581 71.9203L82.9875 71.8665C78.0019 71.8242 76.5951 71.8685 76.5164 72.0704ZM79.2151 106.906C79.7425 107.13 79.1983 107.13 78.4906 106.906C78.0745 106.775 78.0543 106.742 78.3871 106.737C78.6148 106.734 78.9874 106.81 79.2151 106.906ZM80.7676 107.314C81.1837 107.446 81.204 107.479 80.8711 107.484C80.6434 107.487 80.2708 107.411 80.0431 107.314C79.5157 107.091 80.0599 107.091 80.7676 107.314ZM81.9535 107.642C81.8848 107.709 81.7061 107.717 81.5569 107.658C81.3917 107.593 81.4408 107.544 81.6819 107.534C81.9001 107.526 82.0222 107.574 81.9535 107.642ZM83.1481 107.926C83.2994 108.168 83.0968 108.168 82.5271 107.926C82.128 107.757 82.1295 107.75 82.5666 107.737C82.8161 107.729 83.0777 107.814 83.1481 107.926Z" fill="url(#paint5_linear_105_2)"/>
</g>
<defs>
<filter id="filter0_d_105_2" x="125" y="32.95" width="102.624" height="70.5241" filterUnits="userSpaceOnUse" color-interpolation-filters="sRGB">
<feFlood flood-opacity="0" result="BackgroundImageFix"/>
<feColorMatrix in="SourceAlpha" type="matrix" values="0 0 0 0 0 0 0 0 0 0 0 0 0 0 0 0 0 0 127 0" result="hardAlpha"/>
<feOffset dy="4"/>
<feGaussianBlur stdDeviation="2"/>
<feComposite in2="hardAlpha" operator="out"/>
<feColorMatrix type="matrix" values="0 0 0 0 0 0 0 0 0 0 0 0 0 0 0 0 0 0 0.25 0"/>
<feBlend mode="normal" in2="BackgroundImageFix" result="effect1_dropShadow_105_2"/>
<feBlend mode="normal" in="SourceGraphic" in2="effect1_dropShadow_105_2" result="shape"/>
</filter>
<filter id="filter1_d_105_2" x="115.888" y="0" width="120.225" height="117.15" filterUnits="userSpaceOnUse" color-interpolation-filters="sRGB">
<feFlood flood-opacity="0" result="BackgroundImageFix"/>
<feColorMatrix in="SourceAlpha" type="matrix" values="0 0 0 0 0 0 0 0 0 0 0 0 0 0 0 0 0 0 127 0" result="hardAlpha"/>
<feOffset dy="4"/>
<feGaussianBlur stdDeviation="2"/>
<feComposite in2="hardAlpha" operator="out"/>
<feColorMatrix type="matrix" values="0 0 0 0 0 0 0 0 0 0 0 0 0 0 0 0 0 0 0.25 0"/>
<feBlend mode="normal" in2="BackgroundImageFix" result="effect1_dropShadow_105_2"/>
<feBlend mode="normal" in="SourceGraphic" in2="effect1_dropShadow_105_2" result="shape"/>
</filter>
<filter id="filter2_d_105_2" x="0" y="9" width="116.853" height="108.13" filterUnits="userSpaceOnUse" color-interpolation-filters="sRGB">
<feFlood flood-opacity="0" result="BackgroundImageFix"/>
<feColorMatrix in="SourceAlpha" type="matrix" values="0 0 0 0 0 0 0 0 0 0 0 0 0 0 0 0 0 0 127 0" result="hardAlpha"/>
<feOffset dy="4"/>
<feGaussianBlur stdDeviation="2"/>
<feComposite in2="hardAlpha" operator="out"/>
<feColorMatrix type="matrix" values="0 0 0 0 0 0 0 0 0 0 0 0 0 0 0 0 0 0 0.25 0"/>
<feBlend mode="normal" in2="BackgroundImageFix" result="effect1_dropShadow_105_2"/>
<feBlend mode="normal" in="SourceGraphic" in2="effect1_dropShadow_105_2" result="shape"/>
</filter>
<linearGradient id="paint0_linear_105_2" x1="175.89" y1="63.6495" x2="175.89" y2="95.4741" gradientUnits="userSpaceOnUse">
<stop stop-color="#025C98"/>
<stop offset="1" stop-color="#09CEF1"/>
</linearGradient>
<linearGradient id="paint1_linear_105_2" x1="178.314" y1="28" x2="178.314" y2="49.7172" gradientUnits="userSpaceOnUse">
<stop stop-color="#025C98"/>
<stop offset="0.9999" stop-color="#09CEF1"/>
<stop offset="1" stop-opacity="0"/>
</linearGradient>
<linearGradient id="paint2_linear_105_2" x1="178.314" y1="28" x2="178.314" y2="49.7172" gradientUnits="userSpaceOnUse">
<stop stop-color="#0566A1"/>
<stop offset="1" stop-color="#0AADD9"/>
</linearGradient>
<linearGradient id="paint3_linear_105_2" x1="176.312" y1="42.7321" x2="176.312" y2="61.1975" gradientUnits="userSpaceOnUse">
<stop stop-color="#025C98"/>
<stop offset="1" stop-color="#09CEF1"/>
</linearGradient>
<linearGradient id="paint4_linear_105_2" x1="176" y1="0" x2="176" y2="118" gradientUnits="userSpaceOnUse">
<stop stop-color="#04649F"/>
<stop offset="1" stop-color="#0AB4DE"/>
</linearGradient>
<linearGradient id="paint5_linear_105_2" x1="58.4263" y1="9" x2="58.4263" y2="109.13" gradientUnits="userSpaceOnUse">
<stop stop-color="#0566A1"/>
<stop offset="1" stop-color="#09C2E8"/>
</linearGradient>
</defs>
</svg>
