<svg width="207" height="148" viewBox="0 0 207 148" fill="none" xmlns="http://www.w3.org/2000/svg">
<g filter="url(#filter0_d_12_216)">
<rect x="4" y="112.969" width="199" height="9" rx="2" fill="url(#paint0_linear_12_216)"/>
<rect x="4" y="124.969" width="199" height="15" rx="2" fill="url(#paint1_linear_12_216)"/>
<path fill-rule="evenodd" clip-rule="evenodd" d="M43.9403 3.41201C45.0525 1.849 43.8885 -0.467058 42.0506 0.0825906C30.9967 3.38851 23 13.0065 23 24.3563C23 25.0269 23.0279 25.6914 23.0827 26.3489L22.9196 64.9604C22.9149 66.0683 23.8117 66.9688 24.9196 66.9688L25 66.9688L32.3694 66.9688C32.3713 66.9688 32.3731 66.9688 32.3749 66.9688H38C39.1046 66.9688 40 66.0734 40 64.9688V61.4345L50.6005 52.9688H131C132.105 52.9688 133 52.0734 133 50.9688V45.9688C133 44.8643 132.105 43.9688 131 43.9688H56.3786C46.1993 40.0107 39 30.259 39 18.8563C39 13.1129 40.8265 7.78835 43.9403 3.41201ZM18 70.9688C18 69.8643 18.8954 68.9688 20 68.9688L24.8745 68.9688L42 68.9688C43.1046 68.9688 44 69.8643 44 70.9688V78.9688C44 80.0734 43.1046 80.9688 42 80.9688H20C18.8954 80.9688 18 80.0734 18 78.9688V70.9688Z" fill="url(#paint2_linear_12_216)"/>
<path fill-rule="evenodd" clip-rule="evenodd" d="M197 42.9688C197 41.8643 196.105 40.9688 195 40.9688H137C135.895 40.9688 135 41.8643 135 42.9688V52.9688C135 54.0734 135.895 54.9688 137 54.9688H195C196.105 54.9688 197 54.0734 197 52.9688V42.9688ZM199 52.9688C199 54.0734 199.895 54.9688 201 54.9688C202.105 54.9688 203 54.0734 203 52.9688V42.9688C203 41.8643 202.105 40.9688 201 40.9688C199.895 40.9688 199 41.8643 199 42.9688V52.9688Z" fill="url(#paint3_linear_12_216)"/>
<rect x="5" y="100.172" width="2" height="11.3853" rx="1" transform="rotate(-37.0003 5 100.172)" fill="url(#paint4_linear_12_216)"/>
<rect x="14" y="101.172" width="2" height="11.3853" rx="1" transform="rotate(-37.0003 14 101.172)" fill="url(#paint5_linear_12_216)"/>
<rect width="2" height="11.3853" rx="1" transform="matrix(-0.798633 -0.601819 -0.601819 0.798633 43.4492 101.172)" fill="url(#paint6_linear_12_216)"/>
<rect width="2" height="11.3853" rx="1" transform="matrix(-0.798633 -0.601819 -0.601819 0.798633 51.4492 100.172)" fill="url(#paint7_linear_12_216)"/>
</g>
<defs>
<filter id="filter0_d_12_216" x="0" y="0" width="207" height="147.969" filterUnits="userSpaceOnUse" color-interpolation-filters="sRGB">
<feFlood flood-opacity="0" result="BackgroundImageFix"/>
<feColorMatrix in="SourceAlpha" type="matrix" values="0 0 0 0 0 0 0 0 0 0 0 0 0 0 0 0 0 0 127 0" result="hardAlpha"/>
<feOffset dy="4"/>
<feGaussianBlur stdDeviation="2"/>
<feComposite in2="hardAlpha" operator="out"/>
<feColorMatrix type="matrix" values="0 0 0 0 0 0 0 0 0 0 0 0 0 0 0 0 0 0 0.25 0"/>
<feBlend mode="normal" in2="BackgroundImageFix" result="effect1_dropShadow_12_216"/>
<feBlend mode="normal" in="SourceGraphic" in2="effect1_dropShadow_12_216" result="shape"/>
</filter>
<linearGradient id="paint0_linear_12_216" x1="103.5" y1="112.969" x2="103.5" y2="121.969" gradientUnits="userSpaceOnUse">
<stop stop-color="#004E8D"/>
<stop offset="0.9999" stop-color="#00E0FF" stop-opacity="0.96037"/>
<stop offset="1" stop-color="#00E0FF" stop-opacity="0"/>
</linearGradient>
<linearGradient id="paint1_linear_12_216" x1="103.5" y1="124.969" x2="103.5" y2="139.969" gradientUnits="userSpaceOnUse">
<stop stop-color="#004E8D"/>
<stop offset="0.9999" stop-color="#00E0FF" stop-opacity="0.96037"/>
<stop offset="1" stop-color="#00E0FF" stop-opacity="0"/>
</linearGradient>
<linearGradient id="paint2_linear_12_216" x1="75.5" y1="0" x2="75.5" y2="80.9688" gradientUnits="userSpaceOnUse">
<stop stop-color="#004E8D"/>
<stop offset="0.9999" stop-color="#00E0FF" stop-opacity="0.96037"/>
<stop offset="1" stop-color="#00E0FF" stop-opacity="0"/>
</linearGradient>
<linearGradient id="paint3_linear_12_216" x1="169" y1="40.9688" x2="169" y2="54.9688" gradientUnits="userSpaceOnUse">
<stop stop-color="#004E8D"/>
<stop offset="0.9999" stop-color="#00E0FF" stop-opacity="0.96037"/>
<stop offset="1" stop-color="#00E0FF" stop-opacity="0"/>
</linearGradient>
<linearGradient id="paint4_linear_12_216" x1="6" y1="100.172" x2="6" y2="111.558" gradientUnits="userSpaceOnUse">
<stop stop-color="#004E8D"/>
<stop offset="0.9999" stop-color="#00E0FF" stop-opacity="0.96037"/>
<stop offset="1" stop-color="#00E0FF" stop-opacity="0"/>
</linearGradient>
<linearGradient id="paint5_linear_12_216" x1="15" y1="101.172" x2="15" y2="112.558" gradientUnits="userSpaceOnUse">
<stop stop-color="#004E8D"/>
<stop offset="0.9999" stop-color="#00E0FF" stop-opacity="0.96037"/>
<stop offset="1" stop-color="#00E0FF" stop-opacity="0"/>
</linearGradient>
<linearGradient id="paint6_linear_12_216" x1="1" y1="0" x2="1" y2="11.3853" gradientUnits="userSpaceOnUse">
<stop stop-color="#004E8D"/>
<stop offset="0.9999" stop-color="#00E0FF" stop-opacity="0.96037"/>
<stop offset="1" stop-color="#00E0FF" stop-opacity="0"/>
</linearGradient>
<linearGradient id="paint7_linear_12_216" x1="1" y1="0" x2="1" y2="11.3853" gradientUnits="userSpaceOnUse">
<stop stop-color="#004E8D"/>
<stop offset="0.9999" stop-color="#00E0FF" stop-opacity="0.96037"/>
<stop offset="1" stop-color="#00E0FF" stop-opacity="0"/>
</linearGradient>
</defs>
</svg>
