<svg width="1920" height="1676" viewBox="0 0 1920 1676" fill="none" xmlns="http://www.w3.org/2000/svg">
<g opacity="0.5">
<path d="M55.0862 1494.24L99.9762 1184.23H2586.56L2520.22 1559.75L2195.01 1455.35C1588.57 1318.43 1351.6 1567.95 964.835 1647.67C617.092 1719.35 55.0862 1644.44 55.0862 1494.24Z" fill="url(#paint0_linear_2165_8070)"/>
<path d="M55.0862 1494.24L99.9762 1184.23H2586.56L2520.22 1559.75L2195.01 1455.35C1588.57 1318.43 1351.6 1567.95 964.835 1647.67C617.092 1719.35 55.0862 1644.44 55.0862 1494.24Z" fill="#96B5F2"/>
<path d="M55.0862 1484.24L99.9762 1174.23H2586.56L2520.22 1549.75L2195.01 1445.35C1588.57 1308.43 1351.6 1557.95 964.835 1637.67C617.092 1709.35 55.0862 1634.44 55.0862 1484.24Z" fill="url(#paint1_linear_2165_8070)"/>
<path d="M55.0862 1484.24L99.9762 1174.23H2586.56L2520.22 1549.75L2195.01 1445.35C1588.57 1308.43 1351.6 1557.95 964.835 1637.67C617.092 1709.35 55.0862 1634.44 55.0862 1484.24Z" fill="#AEC9FF"/>
<path d="M20 1474.24L64.89 1164.23H2551.48L2485.13 1539.75L2159.93 1435.35C1553.48 1298.43 1316.52 1547.95 929.749 1627.67C582.005 1699.35 20 1624.44 20 1474.24Z" fill="url(#paint2_linear_2165_8070)"/>
<path d="M20 1474.24L64.89 1164.23H2551.48L2485.13 1539.75L2159.93 1435.35C1553.48 1298.43 1316.52 1547.95 929.749 1627.67C582.005 1699.35 20 1624.44 20 1474.24Z" fill="#DEE9FF"/>
</g>
<path d="M-69.1355 1467.05L-24.2455 1157.04H2462.34L2396 1532.57L2070.79 1428.17C1464.35 1291.25 1227.38 1540.77 840.613 1620.49C492.87 1692.16 -69.1355 1617.26 -69.1355 1467.05Z" fill="url(#paint3_linear_2165_8070)"/>
<g opacity="0.5">
<path d="M2365.4 180.867L2320.51 490.877H-166.074L-99.7285 115.356L225.475 219.756C831.921 356.67 1068.89 107.152 1455.65 27.4331C1803.4 -44.2421 2365.4 30.6653 2365.4 180.867Z" fill="url(#paint4_linear_2165_8070)"/>
<path d="M2365.4 180.867L2320.51 490.877H-166.074L-99.7285 115.356L225.475 219.756C831.921 356.67 1068.89 107.152 1455.65 27.4331C1803.4 -44.2421 2365.4 30.6653 2365.4 180.867Z" fill="#96B5F2"/>
<path d="M2365.4 190.867L2320.51 500.877H-166.074L-99.7285 125.356L225.475 229.756C831.921 366.67 1068.89 117.152 1455.65 37.4331C1803.4 -34.2421 2365.4 40.6653 2365.4 190.867Z" fill="url(#paint5_linear_2165_8070)"/>
<path d="M2365.4 190.867L2320.51 500.877H-166.074L-99.7285 125.356L225.475 229.756C831.921 366.67 1068.89 117.152 1455.65 37.4331C1803.4 -34.2421 2365.4 40.6653 2365.4 190.867Z" fill="#AEC9FF"/>
<path d="M2400.49 200.867L2355.6 510.877H-130.989L-64.6426 135.356L260.561 239.756C867.007 376.67 1103.97 127.152 1490.74 47.4331C1838.48 -24.2421 2400.49 50.6653 2400.49 200.867Z" fill="url(#paint6_linear_2165_8070)"/>
<path d="M2400.49 200.867L2355.6 510.877H-130.989L-64.6426 135.356L260.561 239.756C867.007 376.67 1103.97 127.152 1490.74 47.4331C1838.48 -24.2421 2400.49 50.6653 2400.49 200.867Z" fill="#DEE9FF"/>
</g>
<path d="M2462.34 216.155L2417.45 526.165H-69.1355L-81 120.544L322.414 255.045C928.86 391.958 1165.82 142.44 1552.59 62.7214C1900.34 -8.95374 2462.34 65.9537 2462.34 216.155Z" fill="url(#paint7_linear_2165_8070)"/>
<path d="M1921 309.044H0.999969V1344.04H1921V309.044Z" fill="url(#paint8_linear_2165_8070)"/>
<defs>
<linearGradient id="paint0_linear_2165_8070" x1="1205.12" y1="1143.27" x2="1205.27" y2="1519.04" gradientUnits="userSpaceOnUse">
<stop stop-color="#B1DEFF"/>
<stop offset="0.354167" stop-color="#6299C0"/>
<stop offset="0.601721" stop-color="#3B6B8E"/>
<stop offset="1" stop-color="#09213D"/>
</linearGradient>
<linearGradient id="paint1_linear_2165_8070" x1="1205.12" y1="1133.27" x2="1205.27" y2="1509.04" gradientUnits="userSpaceOnUse">
<stop stop-color="#B1DEFF"/>
<stop offset="0.354167" stop-color="#6299C0"/>
<stop offset="0.601721" stop-color="#3B6B8E"/>
<stop offset="1" stop-color="#09213D"/>
</linearGradient>
<linearGradient id="paint2_linear_2165_8070" x1="1170.03" y1="1123.27" x2="1170.18" y2="1499.04" gradientUnits="userSpaceOnUse">
<stop stop-color="#B1DEFF"/>
<stop offset="0.354167" stop-color="#6299C0"/>
<stop offset="0.601721" stop-color="#3B6B8E"/>
<stop offset="1" stop-color="#09213D"/>
</linearGradient>
<linearGradient id="paint3_linear_2165_8070" x1="2952.5" y1="1446.54" x2="-29.5" y2="1310.04" gradientUnits="userSpaceOnUse">
<stop offset="0.106947" stop-color="#F1FAFC"/>
<stop offset="0.210416" stop-color="#39AFDD"/>
<stop offset="0.417878" stop-color="#1664AB"/>
<stop offset="0.577447" stop-color="#08367A"/>
<stop offset="0.877611" stop-color="#142C53"/>
<stop offset="1" stop-color="#142C52"/>
</linearGradient>
<linearGradient id="paint4_linear_2165_8070" x1="1215.37" y1="531.833" x2="1215.22" y2="156.06" gradientUnits="userSpaceOnUse">
<stop stop-color="#B1DEFF"/>
<stop offset="0.354167" stop-color="#6299C0"/>
<stop offset="0.601721" stop-color="#3B6B8E"/>
<stop offset="1" stop-color="#09213D"/>
</linearGradient>
<linearGradient id="paint5_linear_2165_8070" x1="1215.37" y1="541.833" x2="1215.22" y2="166.06" gradientUnits="userSpaceOnUse">
<stop stop-color="#B1DEFF"/>
<stop offset="0.354167" stop-color="#6299C0"/>
<stop offset="0.601721" stop-color="#3B6B8E"/>
<stop offset="1" stop-color="#09213D"/>
</linearGradient>
<linearGradient id="paint6_linear_2165_8070" x1="1250.46" y1="551.833" x2="1250.31" y2="176.06" gradientUnits="userSpaceOnUse">
<stop stop-color="#B1DEFF"/>
<stop offset="0.354167" stop-color="#6299C0"/>
<stop offset="0.601721" stop-color="#3B6B8E"/>
<stop offset="1" stop-color="#09213D"/>
</linearGradient>
<linearGradient id="paint7_linear_2165_8070" x1="2897.84" y1="544.677" x2="423.342" y2="211.177" gradientUnits="userSpaceOnUse">
<stop offset="0.106947" stop-color="#F1FAFC"/>
<stop offset="0.210416" stop-color="#39AFDD"/>
<stop offset="0.417878" stop-color="#1664AB"/>
<stop offset="0.63123" stop-color="#08367A"/>
<stop offset="1" stop-color="#142C52"/>
</linearGradient>
<linearGradient id="paint8_linear_2165_8070" x1="2837.4" y1="394.326" x2="474.836" y2="117.389" gradientUnits="userSpaceOnUse">
<stop offset="0.106947" stop-color="#F1FAFC"/>
<stop offset="0.210416" stop-color="#39AFDD"/>
<stop offset="0.417878" stop-color="#1664AB"/>
<stop offset="0.63123" stop-color="#08367A"/>
<stop offset="1" stop-color="#142C52"/>
</linearGradient>
</defs>
</svg>
