<svg  viewBox="0 0 572 123" fill="none" xmlns="http://www.w3.org/2000/svg">
<g clip-path="url(#clip0_159_18280)">
<g clip-path="url(#clip1_159_18280)">
<rect y="-171" width="572" height="877" rx="10" fill="white"/>
<g opacity="0.5">
<path d="M-10.0415 43.5104L3.97936 -91.3027H780.636L759.914 71.9992L658.34 26.5988C468.924 -32.9404 394.911 75.5668 274.108 110.234C165.494 141.403 -10.0415 108.828 -10.0415 43.5104Z" fill="url(#paint0_linear_159_18280)"/>
<path d="M-10.0415 43.5104L3.97936 -91.3027H780.636L759.914 71.9992L658.34 26.5988C468.924 -32.9404 394.911 75.5668 274.108 110.234C165.494 141.403 -10.0415 108.828 -10.0415 43.5104Z" fill="#96B5F2"/>
<path d="M-10.0415 39.1618L3.97936 -95.6514H780.636L759.914 67.6506L658.34 22.2502C468.924 -37.2891 394.911 71.2181 274.108 105.885C165.494 137.054 -10.0415 104.48 -10.0415 39.1618Z" fill="url(#paint1_linear_159_18280)"/>
<path d="M-10.0415 39.1618L3.97936 -95.6514H780.636L759.914 67.6506L658.34 22.2502C468.924 -37.2891 394.911 71.2181 274.108 105.885C165.494 137.054 -10.0415 104.48 -10.0415 39.1618Z" fill="#AEC9FF"/>
</g>
<path d="M-21 34.8132L-6.97914 -180H769.678L748.955 63.3019L647.382 17.9015C457.965 -41.6377 383.952 66.8695 263.149 101.537C154.536 132.706 -21 100.131 -21 34.8132Z" fill="url(#paint2_linear_159_18280)"/>
</g>
</g>
<defs>
<linearGradient id="paint0_linear_159_18280" x1="349.158" y1="-109.113" x2="349.249" y2="54.2984" gradientUnits="userSpaceOnUse">
<stop stop-color="#B1DEFF"/>
<stop offset="0.354167" stop-color="#6299C0"/>
<stop offset="0.601721" stop-color="#3B6B8E"/>
<stop offset="1" stop-color="#09213D"/>
</linearGradient>
<linearGradient id="paint1_linear_159_18280" x1="349.158" y1="-113.462" x2="349.249" y2="49.9497" gradientUnits="userSpaceOnUse">
<stop stop-color="#B1DEFF"/>
<stop offset="0.354167" stop-color="#6299C0"/>
<stop offset="0.601721" stop-color="#3B6B8E"/>
<stop offset="1" stop-color="#09213D"/>
</linearGradient>
<linearGradient id="paint2_linear_159_18280" x1="-235.42" y1="-201.314" x2="626.879" y2="-137.846" gradientUnits="userSpaceOnUse">
<stop offset="0.106947" stop-color="#F1FAFC"/>
<stop offset="0.210416" stop-color="#39AFDD"/>
<stop offset="0.417878" stop-color="#1664AB"/>
<stop offset="0.63123" stop-color="#08367A"/>
<stop offset="1" stop-color="#142C52"/>
</linearGradient>
<clipPath id="clip0_159_18280">
<rect width="1920" height="1028" fill="white" transform="translate(-674 -226)"/>
</clipPath>
<clipPath id="clip1_159_18280">
<rect y="-171" width="572" height="877" rx="10" fill="white"/>
</clipPath>
</defs>
</svg>
