<svg  viewBox="0 0 572 128" fill="none" xmlns="http://www.w3.org/2000/svg">
<g clip-path="url(#clip0_159_18280)">
<g clip-path="url(#clip1_159_18280)">
<rect y="-643" width="572" height="877" rx="10" fill="white"/>
<g opacity="0.5">
<path d="M-320.867 82.1674L-300.225 224.718H843.171L812.663 52.0437L663.126 100.05C384.267 163.006 275.305 48.2713 97.4587 11.6146C-62.4424 -21.3434 -320.867 13.1009 -320.867 82.1674Z" fill="url(#paint0_linear_159_18280)"/>
<path d="M-320.867 82.1674L-300.225 224.718H843.171L812.663 52.0437L663.126 100.05C384.267 163.006 275.305 48.2713 97.4587 11.6146C-62.4424 -21.3434 -320.867 13.1009 -320.867 82.1674Z" fill="#96B5F2"/>
<path d="M-320.867 86.7656L-300.225 229.316H843.171L812.663 56.6418L663.126 104.648C384.267 167.604 275.305 52.8695 97.4587 16.2128C-62.4424 -16.7453 -320.867 17.699 -320.867 86.7656Z" fill="url(#paint1_linear_159_18280)"/>
<path d="M-320.867 86.7656L-300.225 229.316H843.171L812.663 56.6418L663.126 104.648C384.267 167.604 275.305 52.8695 97.4587 16.2128C-62.4424 -16.7453 -320.867 17.699 -320.867 86.7656Z" fill="#AEC9FF"/>
<path d="M-337 91.3637L-316.358 233.914H827.037L796.53 61.2399L646.993 109.246C368.134 172.202 259.171 57.4676 81.3254 20.8109C-78.5757 -12.1471 -337 22.2972 -337 91.3637Z" fill="url(#paint2_linear_159_18280)"/>
<path d="M-337 91.3637L-316.358 233.914H827.037L796.53 61.2399L646.993 109.246C368.134 172.202 259.171 57.4676 81.3254 20.8109C-78.5757 -12.1471 -337 22.2972 -337 91.3637Z" fill="#DEE9FF"/>
</g>
</g>
</g>
<defs>
<linearGradient id="paint0_linear_159_18280" x1="207.947" y1="243.55" x2="208.017" y2="70.7603" gradientUnits="userSpaceOnUse">
<stop stop-color="#B1DEFF"/>
<stop offset="0.354167" stop-color="#6299C0"/>
<stop offset="0.601721" stop-color="#3B6B8E"/>
<stop offset="1" stop-color="#09213D"/>
</linearGradient>
<linearGradient id="paint1_linear_159_18280" x1="207.947" y1="248.148" x2="208.017" y2="75.3585" gradientUnits="userSpaceOnUse">
<stop stop-color="#B1DEFF"/>
<stop offset="0.354167" stop-color="#6299C0"/>
<stop offset="0.601721" stop-color="#3B6B8E"/>
<stop offset="1" stop-color="#09213D"/>
</linearGradient>
<linearGradient id="paint2_linear_159_18280" x1="191.814" y1="252.747" x2="191.883" y2="79.9566" gradientUnits="userSpaceOnUse">
<stop stop-color="#B1DEFF"/>
<stop offset="0.354167" stop-color="#6299C0"/>
<stop offset="0.601721" stop-color="#3B6B8E"/>
<stop offset="1" stop-color="#09213D"/>
</linearGradient>
<clipPath id="clip0_159_18280">
<rect width="1920" height="1028" fill="white" transform="translate(-674 -698)"/>
</clipPath>
<clipPath id="clip1_159_18280">
<rect y="-643" width="572" height="877" rx="10" fill="white"/>
</clipPath>
</defs>
</svg>
