<svg width="208" height="93" viewBox="0 0 208 93" fill="none" xmlns="http://www.w3.org/2000/svg">
<path fill-rule="evenodd" clip-rule="evenodd" d="M0 90.4444C0 91.549 0.895429 92.4444 2 92.4444H17.5617C18.6619 92.4444 19.5555 91.5558 19.5616 90.4556L19.7471 57.0686C19.7532 55.9796 18.8761 55.1082 17.817 54.8544C13.7154 53.8716 10.6667 50.1807 10.6667 45.7778C10.6667 41.3386 13.7658 37.6234 17.9184 36.6774C18.9801 36.4356 19.8665 35.5741 19.8726 34.4852L20.053 2.01111C20.0592 0.902217 19.1619 0 18.053 0H2C0.895431 0 0 0.895433 0 2V90.4444ZM81.7778 90.4444C81.7778 91.549 80.8823 92.4444 79.7778 92.4444H61.5556C60.451 92.4444 59.5556 91.549 59.5556 90.4444V64C59.5556 63.5091 59.1576 63.1111 58.6667 63.1111C58.1757 63.1111 57.7778 63.5091 57.7778 64V90.4444C57.7778 91.549 56.8823 92.4444 55.7778 92.4444H37.5556C36.451 92.4444 35.5556 91.549 35.5556 90.4444V72C35.5556 71.5091 35.1576 71.1111 34.6667 71.1111C34.1757 71.1111 33.7778 71.5091 33.7778 72V90.4444C33.7778 91.549 32.8824 92.4444 31.7778 92.4444H23.5618C22.4528 92.4444 21.5556 91.5422 21.5618 90.4333L21.7518 56.2305C21.758 55.1227 20.8535 54.2416 19.7669 54.0257C15.5788 53.1937 12.4444 49.8169 12.4444 45.7778C12.4444 41.114 16.6231 37.3333 21.7778 37.3333C21.8214 37.3335 21.857 37.2983 21.8572 37.2546L21.9643 17.9889C21.9704 16.8887 22.864 16 23.9642 16H206C207.105 16 208 16.8954 208 18V90.4444C208 91.549 207.105 92.4444 206 92.4444H202.889C201.784 92.4444 200.889 91.549 200.889 90.4444V64C200.889 63.5091 200.491 63.1111 200 63.1111C199.509 63.1111 199.111 63.5091 199.111 64V90.4444C199.111 91.549 198.216 92.4444 197.111 92.4444H180.667C179.562 92.4444 178.667 91.549 178.667 90.4444V72C178.667 71.5091 178.269 71.1111 177.778 71.1111C177.287 71.1111 176.889 71.5091 176.889 72V90.4444C176.889 91.549 175.993 92.4444 174.889 92.4444H156.667C155.562 92.4444 154.667 91.549 154.667 90.4444V64C154.667 63.5091 154.269 63.1111 153.778 63.1111C153.287 63.1111 152.889 63.5091 152.889 64V90.4444C152.889 91.549 151.993 92.4444 150.889 92.4444H133.556C132.451 92.4444 131.556 91.549 131.556 90.4444V72C131.556 71.5091 131.158 71.1111 130.667 71.1111C130.176 71.1111 129.778 71.5091 129.778 72V90.4444C129.778 91.549 128.882 92.4444 127.778 92.4444H109.556C108.451 92.4444 107.556 91.549 107.556 90.4444V65.7778C107.556 65.2869 107.158 64.8889 106.667 64.8889C106.176 64.8889 105.778 65.2869 105.778 65.7778V90.4444C105.778 91.549 104.882 92.4444 103.778 92.4444H85.5556C84.451 92.4444 83.5556 91.549 83.5556 90.4444V72C83.5556 71.5091 83.1576 71.1111 82.6667 71.1111C82.1758 71.1111 81.7778 71.5091 81.7778 72V90.4444ZM24.0531 0C22.9529 0 22.0593 0.888673 22.0531 1.98889L21.9964 12.2111C21.9902 13.32 22.8874 14.2222 23.9963 14.2222H206C207.105 14.2222 208 13.3268 208 12.2222V2C208 0.895431 207.105 0 206 0H24.0531ZM7.11111 12.4444C6.62019 12.4444 6.22222 12.8424 6.22222 13.3333V24C6.22222 24.4909 6.62019 24.8889 7.11111 24.8889C7.60203 24.8889 8 24.4909 8 24V13.3333C8 12.8424 7.60203 12.4444 7.11111 12.4444ZM7.11111 80.8889C6.62019 80.8889 6.22222 80.4909 6.22222 80V69.3333C6.22222 68.8424 6.62019 68.4444 7.11111 68.4444C7.60203 68.4444 8 68.8424 8 69.3333V80C8 80.4909 7.60203 80.8889 7.11111 80.8889ZM57.2181 60.6667C57.2181 61.7712 58.1135 62.6667 59.2181 62.6667H60.263C61.3676 62.6667 62.263 61.7712 62.263 60.6667V39.4596C62.263 38.3551 61.3676 37.4596 60.263 37.4596H56.7044C55.5999 37.4596 54.7044 38.3551 54.7044 39.4596V41.2477C54.7044 41.9418 55.2671 42.5046 55.9613 42.5046C56.6554 42.5046 57.2181 43.0673 57.2181 43.7614V60.6667ZM116.973 45.0182C116.973 46.0612 116.774 47.0456 116.375 47.9714C115.977 48.8854 115.432 49.6881 114.741 50.3796C114.061 51.0592 113.264 51.5983 112.35 51.9967C111.436 52.3952 110.457 52.5944 109.414 52.5944H106.883C106.532 52.5944 106.204 52.6589 105.899 52.7878C105.594 52.9167 105.325 53.0983 105.09 53.3327C104.868 53.5553 104.692 53.819 104.563 54.1237C104.434 54.4284 104.37 54.7565 104.37 55.1081V55.6217C104.37 56.7263 105.265 57.6217 106.37 57.6217H114.288C115.392 57.6217 116.288 58.5172 116.288 59.6217V60.6667C116.288 61.7712 115.392 62.6667 114.288 62.6667H101.325C100.22 62.6667 99.3247 61.7712 99.3247 60.6667V55.1081C99.3247 54.0651 99.5239 53.0866 99.9223 52.1725C100.321 51.2467 100.86 50.444 101.539 49.7643C102.231 49.0729 103.034 48.5339 103.948 48.1471C104.862 47.7487 105.84 47.5495 106.883 47.5495H109.414C109.766 47.5495 110.094 47.485 110.399 47.3561C110.704 47.2272 110.967 47.0514 111.19 46.8288C111.424 46.5944 111.606 46.3249 111.735 46.0202C111.864 45.7038 111.928 45.3698 111.928 45.0182C111.928 44.6667 111.864 44.3385 111.735 44.0339C111.606 43.7292 111.424 43.4655 111.19 43.2428C110.967 43.0085 110.704 42.8268 110.399 42.6979C110.094 42.569 109.766 42.5046 109.414 42.5046H102.414C101.31 42.5046 100.414 41.6091 100.414 40.5046V39.4596C100.414 38.3551 101.31 37.4596 102.414 37.4596H109.414C110.457 37.4596 111.436 37.6589 112.35 38.0573C113.264 38.4557 114.061 39.0006 114.741 39.6921C115.432 40.3717 115.977 41.1686 116.375 42.0827C116.774 42.9967 116.973 43.9753 116.973 45.0182ZM175.938 60.375C176.938 59.5508 178.55 59.3485 179.56 60.1607C179.571 60.1697 179.583 60.1786 179.594 60.1875C180.323 60.7708 181.094 61.2812 181.906 61.7188C182.74 62.1562 183.594 62.5104 184.469 62.7812C185.344 63.0312 186.208 63.1562 187.062 63.1562C188.812 63.1562 190.448 62.8021 191.969 62.0938C193.51 61.3646 194.854 60.3646 196 59.0938C197.146 57.8021 198.052 56.2812 198.719 54.5312C199.385 52.7812 199.719 50.875 199.719 48.8125C199.719 46.7708 199.385 44.875 198.719 43.125C198.052 41.375 197.146 39.8646 196 38.5938C194.854 37.3229 193.51 36.3333 191.969 35.625C190.448 34.8958 188.812 34.5312 187.062 34.5312C186.208 34.5312 185.344 34.6354 184.469 34.8438C183.594 35.0521 182.75 35.3646 181.938 35.7812C181.125 36.1771 180.354 36.6667 179.625 37.25C179.585 37.2833 179.544 37.317 179.504 37.3509C178.506 38.2014 176.929 38.3145 175.926 37.4697C175.888 37.4381 175.85 37.4065 175.812 37.375C175.083 36.7708 174.302 36.25 173.469 35.8125C172.656 35.3542 171.812 35 170.938 34.75C170.062 34.4792 169.208 34.3438 168.375 34.3438C166.625 34.3438 164.979 34.7083 163.438 35.4375C161.896 36.1458 160.552 37.1458 159.406 38.4375C158.26 39.7083 157.354 41.2188 156.688 42.9688C156.021 44.7188 155.688 46.625 155.688 48.6875C155.688 50.7292 156.021 52.625 156.688 54.375C157.354 56.125 158.26 57.6354 159.406 58.9062C160.552 60.1771 161.896 61.1771 163.438 61.9062C164.979 62.6146 166.625 62.9688 168.375 62.9688C169.208 62.9688 170.073 62.875 170.969 62.6875C171.885 62.5 172.76 62.2188 173.594 61.8438C174.448 61.4479 175.229 60.9583 175.938 60.375ZM188.938 53.875C188.396 54.2083 187.771 54.375 187.062 54.375C186.333 54.375 185.635 54.1562 184.969 53.7188C184.302 53.2812 183.708 52.7292 183.188 52.0625C182.688 51.375 182.281 50.6354 181.969 49.8438C181.677 49.0521 181.531 48.3021 181.531 47.5938C181.531 46.3021 181.927 45.2812 182.719 44.5312C183.531 43.7604 184.656 43.375 186.094 43.375C186.802 43.375 187.479 43.5104 188.125 43.7812C188.771 44.0312 189.323 44.3958 189.781 44.875C190.26 45.3333 190.635 45.9062 190.906 46.5938C191.198 47.2812 191.344 48.0417 191.344 48.875C191.344 49.5208 191.25 50.1667 191.062 50.8125C190.896 51.4583 190.635 52.0521 190.281 52.5938C189.927 53.1146 189.479 53.5417 188.938 53.875ZM166.406 43.5C166.844 43.25 167.281 43.125 167.719 43.125C168.427 43.125 169.146 43.3229 169.875 43.7188C170.625 44.0938 171.292 44.625 171.875 45.3125C172.458 45.9792 172.938 46.7604 173.312 47.6562C173.688 48.5521 173.875 49.5104 173.875 50.5312C173.875 50.9896 173.802 51.4375 173.656 51.875C173.51 52.2917 173.26 52.6667 172.906 53C172.573 53.3333 172.104 53.6042 171.5 53.8125C170.917 54.0208 170.188 54.125 169.312 54.125C168.583 54.125 167.896 54 167.25 53.75C166.625 53.5 166.073 53.1354 165.594 52.6562C165.135 52.1771 164.76 51.6042 164.469 50.9375C164.198 50.25 164.062 49.4792 164.062 48.625C164.062 47.7708 164.167 47.0104 164.375 46.3438C164.604 45.6562 164.885 45.0729 165.219 44.5938C165.573 44.1146 165.969 43.75 166.406 43.5Z" fill="url(#paint0_linear_13_240)"/>
<defs>
<linearGradient id="paint0_linear_13_240" x1="104" y1="0" x2="104" y2="92.4444" gradientUnits="userSpaceOnUse">
<stop offset="0.138542" stop-color="#015B97"/>
<stop offset="0.9999" stop-color="#09D0F2"/>
</linearGradient>
</defs>
</svg>
