<svg width="201" height="167" viewBox="0 0 201 167" fill="none" xmlns="http://www.w3.org/2000/svg">
<g filter="url(#filter0_d_16_397)">
<ellipse cx="24.1058" cy="59.7054" rx="20.1058" ry="20.2882" fill="url(#paint0_linear_16_397)" shape-rendering="crispEdges"/>
</g>
<g filter="url(#filter1_d_16_397)">
<rect width="1.88974" height="40.0564" rx="0.944872" transform="matrix(0.933528 -0.358504 0.371126 0.928582 28.8366 80.6711)" fill="url(#paint1_linear_16_397)" shape-rendering="crispEdges"/>
</g>
<g filter="url(#filter2_d_16_397)">
<rect width="2.01626" height="62.9768" rx="1" transform="matrix(0.669376 -0.742924 0.756033 0.654534 40.2802 73.8359)" fill="url(#paint2_linear_16_397)" shape-rendering="crispEdges"/>
</g>
<g filter="url(#filter3_d_16_397)">
<rect width="1.99981" height="48.9392" rx="0.999906" transform="matrix(0.182431 -0.983219 0.984476 0.175517 45.0329 66.4853)" fill="url(#paint3_linear_16_397)" shape-rendering="crispEdges"/>
</g>
<g filter="url(#filter4_d_16_397)">
<rect width="2.03821" height="35.9838" rx="1" transform="matrix(0.992981 -0.118277 -0.123022 -0.992404 13.1576 38.2703)" fill="url(#paint4_linear_16_397)" shape-rendering="crispEdges"/>
</g>
<g filter="url(#filter5_d_16_397)">
<rect width="1.88974" height="40.0564" rx="0.944872" transform="matrix(0.933528 0.358504 0.371126 -0.928582 28.8366 37.1957)" fill="url(#paint5_linear_16_397)" shape-rendering="crispEdges"/>
</g>
<g filter="url(#filter6_d_16_397)">
<rect width="2.01924" height="38.3723" rx="1" transform="matrix(0.722547 0.691321 0.705598 -0.708613 40.6636 43.4217)" fill="url(#paint6_linear_16_397)" shape-rendering="crispEdges"/>
</g>
<g filter="url(#filter7_d_16_397)">
<rect x="4" y="158.828" width="4.63731" height="192.779" rx="2" transform="rotate(-90 4 158.828)" fill="url(#paint7_linear_16_397)"/>
</g>
<g filter="url(#filter8_d_16_397)">
<rect x="4" y="151.872" width="15.0712" height="192.779" rx="2" transform="rotate(-90 4 151.872)" fill="url(#paint8_linear_16_397)"/>
</g>
<g filter="url(#filter9_d_16_397)">
<rect width="2.00492" height="45.9894" rx="1" transform="matrix(0.404106 0.914712 0.920497 -0.39075 45.3944 52.7502)" fill="url(#paint9_linear_16_397)" shape-rendering="crispEdges"/>
</g>
<g filter="url(#filter10_d_16_397)">
<rect width="2.03821" height="35.9838" rx="1" transform="matrix(0.992981 0.118277 -0.123022 0.992404 15.523 79.9936)" fill="url(#paint10_linear_16_397)" shape-rendering="crispEdges"/>
</g>
<g filter="url(#filter11_d_16_397)">
<path fill-rule="evenodd" clip-rule="evenodd" d="M166.35 9.77463C166.35 9.49849 166.126 9.27463 165.85 9.27463H164.064C163.788 9.27463 163.564 9.49848 163.564 9.77463V11.5059C163.564 11.7821 163.34 12.0059 163.064 12.0059H159.884C159.608 12.0059 159.384 12.2298 159.384 12.5059V14.2372C159.384 14.5134 159.608 14.7372 159.884 14.7372H163.547C163.556 14.7372 163.564 14.7449 163.564 14.7544C163.564 14.7643 163.572 14.7721 163.582 14.7716C164.037 14.7488 164.496 14.7372 164.957 14.7372C165.418 14.7372 165.877 14.7488 166.332 14.7716C166.342 14.7721 166.35 14.7643 166.35 14.7544C166.35 14.7449 166.358 14.7372 166.367 14.7372H170.03C170.306 14.7372 170.53 14.5134 170.53 14.2372V12.5059C170.53 12.2298 170.306 12.0059 170.03 12.0059H166.85C166.574 12.0059 166.35 11.7821 166.35 11.5059V9.77463ZM166.35 16.2482C166.35 15.9823 166.142 15.7624 165.876 15.7532C165.571 15.7426 165.265 15.7372 164.957 15.7372C164.649 15.7372 164.343 15.7426 164.038 15.7532C163.772 15.7624 163.564 15.9823 163.564 16.2482V21.4125C163.564 21.9374 162.858 22.1077 162.619 21.6405L160.705 17.9064C160.581 17.6634 160.284 17.5652 160.04 17.6859L158.447 18.47C158.196 18.5934 158.095 18.8981 158.223 19.1466L163.509 29.4622C163.545 29.5328 163.564 29.6109 163.564 29.6902V33.3836C163.564 33.6989 163.852 33.9346 164.166 33.8998C164.425 33.8711 164.689 33.8563 164.957 33.8563C165.224 33.8563 165.488 33.8711 165.748 33.8999C166.062 33.9346 166.35 33.6989 166.35 33.3836V28.9838C166.35 28.9045 166.369 28.8263 166.405 28.7557L171.26 19.2822C171.387 19.0336 171.286 18.7289 171.036 18.6056L169.443 17.8214C169.198 17.7008 168.902 17.799 168.777 18.0419L167.295 20.934C167.056 21.4012 166.35 21.2309 166.35 20.706V16.2482ZM146.996 21.624C147.133 21.5003 147.138 21.2868 147.007 21.1578C146.88 21.0334 146.88 20.8289 147.007 20.7045L149.367 18.3912C149.567 18.1952 149.567 17.8732 149.367 17.6771L148.111 16.446C147.916 16.2554 147.605 16.2554 147.411 16.446L145.155 18.6567C144.961 18.8473 144.65 18.8473 144.455 18.6567L143.593 17.8116C143.399 17.621 143.088 17.621 142.893 17.8116L141.637 19.0428C141.437 19.2388 141.437 19.5609 141.637 19.7569L142.471 20.5741C142.671 20.7701 142.671 21.0922 142.471 21.2882L140.244 23.4711C140.044 23.6671 140.044 23.9892 140.244 24.1852L141.5 25.4164C141.694 25.6069 142.006 25.6069 142.2 25.4164L144.574 23.0891C144.703 22.9632 144.908 22.9632 145.037 23.0891C145.17 23.2197 145.385 23.214 145.513 23.0782C145.987 22.5746 146.482 22.0894 146.996 21.624ZM146.34 24.3668C146.148 24.1781 146.139 23.8704 146.325 23.6752C146.741 23.2377 147.173 22.8149 147.621 22.4076C147.814 22.2315 148.111 22.24 148.298 22.4231L151.27 25.337C151.635 25.6942 152.237 25.3403 152.103 24.8481L151.158 21.3939C151.085 21.1256 151.245 20.8491 151.514 20.7784L153.238 20.3256C153.503 20.2559 153.775 20.4128 153.847 20.6773L156.495 30.3626C156.518 30.448 156.564 30.5258 156.627 30.5878L160.67 34.5509C160.898 34.7749 160.86 35.1527 160.608 35.3502C160.199 35.6708 159.828 36.0356 159.502 36.4371C159.306 36.6796 158.94 36.7175 158.717 36.4989L154.495 32.3601C154.431 32.298 154.352 32.2538 154.266 32.2322L144.549 29.7969C144.279 29.7294 144.116 29.4548 144.187 29.1858L144.624 27.5072C144.694 27.2419 144.964 27.0818 145.23 27.1484L148.746 28.0297C149.241 28.1537 149.582 27.5446 149.218 27.1876L146.34 24.3668ZM138.522 39.3373C138.522 39.3273 138.514 39.3189 138.504 39.3189C138.494 39.3189 138.487 39.311 138.487 39.3013V35.7219C138.487 35.4458 138.263 35.2219 137.987 35.2219H136.2C135.924 35.2219 135.7 35.4458 135.7 35.7219V38.8189C135.7 39.095 135.476 39.3189 135.2 39.3189H133.414C133.138 39.3189 132.914 39.5427 132.914 39.8189V41.5502C132.914 41.8263 133.138 42.0502 133.414 42.0502H135.2C135.476 42.0502 135.7 42.274 135.7 42.5502V45.6471C135.7 45.9233 135.924 46.1471 136.2 46.1471H137.987C138.263 46.1471 138.487 45.9233 138.487 45.6471V42.0677C138.487 42.058 138.494 42.0502 138.504 42.0502C138.514 42.0502 138.522 42.0417 138.522 42.0317C138.498 41.5855 138.487 41.1364 138.487 40.6845C138.487 40.2327 138.498 39.7835 138.522 39.3373ZM139.997 42.0502C139.732 42.0502 139.512 41.8428 139.503 41.5775C139.492 41.2811 139.487 40.9834 139.487 40.6845C139.487 40.3856 139.492 40.088 139.503 39.7916C139.512 39.5263 139.732 39.3189 139.997 39.3189H141.134C141.671 39.3189 141.83 38.5861 141.34 38.3637L140.342 37.91C140.088 37.7945 139.977 37.4934 140.097 37.241L140.841 35.6671C140.958 35.4202 141.251 35.3126 141.5 35.4256L149.97 39.2741C150.035 39.3036 150.106 39.3189 150.177 39.3189L150.512 39.3189L157.516 39.3189C157.833 39.3189 158.069 39.6102 158.034 39.9251C158.006 40.1745 157.991 40.4278 157.991 40.6845C157.991 40.9412 158.006 41.1946 158.034 41.4439C158.069 41.7588 157.833 42.0502 157.516 42.0502H151.235C151.164 42.0502 151.093 42.0654 151.028 42.095L150.704 42.2423C150.658 42.2629 150.622 42.2988 150.601 42.3438L150.584 42.3801C150.544 42.4637 150.445 42.5001 150.361 42.4618C150.316 42.4416 150.265 42.4416 150.221 42.4618L141.5 46.424C141.251 46.537 140.958 46.4295 140.841 46.1825L140.097 44.6086C139.977 44.3563 140.088 44.0551 140.342 43.9397L142.398 43.0054C142.888 42.7829 142.729 42.0502 142.191 42.0502H139.997ZM145.086 57.8274C144.939 57.6639 144.685 57.6537 144.528 57.8076C144.38 57.9532 144.142 57.9532 143.993 57.8076L142.2 56.0497C142.006 55.8592 141.694 55.8592 141.5 56.0497L140.244 57.2809C140.044 57.4769 140.044 57.799 140.244 57.995L141.926 59.644C142.126 59.8401 142.126 60.1621 141.926 60.3581L141.247 61.0239C141.047 61.2199 141.047 61.5419 141.247 61.738L142.893 63.3516C143.088 63.5421 143.399 63.5421 143.593 63.3516L144.301 62.6579C144.495 62.4673 144.806 62.4673 145.001 62.6579L147.411 65.0201C147.605 65.2107 147.916 65.2107 148.111 65.0201L149.367 63.789C149.567 63.5929 149.567 63.2709 149.367 63.0749L146.875 60.632C146.735 60.4956 146.735 60.2714 146.875 60.135C147.018 59.9941 147.013 59.7611 146.865 59.625C146.243 59.0541 145.649 58.4542 145.086 57.8274ZM148.189 58.8465C148.002 59.0304 147.703 59.0381 147.51 58.8601C146.928 58.3242 146.373 57.7618 145.844 57.1749C145.668 56.9785 145.68 56.6783 145.869 56.4933L149.406 53.0263C149.75 52.6886 149.464 52.107 148.986 52.1741L144.943 52.7417C144.671 52.78 144.419 52.591 144.379 52.3189L144.128 50.6047C144.088 50.3304 144.279 50.0758 144.554 50.0373L153.613 48.7653C153.719 48.7505 153.817 48.7021 153.894 48.6272L158.3 44.3075C158.539 44.0738 158.935 44.1353 159.12 44.4131C159.501 44.9851 159.968 45.4976 160.501 45.9334C160.746 46.1331 160.78 46.5046 160.554 46.7255L156.319 50.8775C156.255 50.9395 156.21 51.0173 156.186 51.1027L153.847 59.6607C153.775 59.9252 153.503 60.0821 153.238 60.0125L151.514 59.5596C151.245 59.489 151.085 59.2124 151.158 58.9442L151.794 56.6172C151.929 56.125 151.326 55.7711 150.962 56.1283L148.189 58.8465ZM163.582 66.5974C163.572 66.5969 163.564 66.6048 163.564 66.6146C163.564 66.6241 163.556 66.6318 163.547 66.6318H159.884C159.608 66.6318 159.384 66.8557 159.384 67.1318V68.8631C159.384 69.1393 159.608 69.3631 159.884 69.3631H163.064C163.34 69.3631 163.564 69.587 163.564 69.8631V71.5944C163.564 71.8706 163.788 72.0944 164.064 72.0944H165.85C166.126 72.0944 166.35 71.8706 166.35 71.5944V69.8631C166.35 69.587 166.574 69.3631 166.85 69.3631H170.03C170.306 69.3631 170.53 69.1393 170.53 68.8631V67.1318C170.53 66.8557 170.306 66.6318 170.03 66.6318H166.367C166.358 66.6318 166.35 66.6241 166.35 66.6146C166.35 66.6048 166.342 66.5969 166.332 66.5974C165.877 66.6203 165.418 66.6318 164.957 66.6318C164.496 66.6318 164.037 66.6203 163.582 66.5974ZM166.35 65.1209C166.35 65.3868 166.142 65.6067 165.876 65.6159C165.571 65.6265 165.265 65.6318 164.957 65.6318C164.649 65.6318 164.343 65.6265 164.038 65.6159C163.772 65.6067 163.564 65.3868 163.564 65.1209V59.012C163.564 58.5133 162.914 58.3219 162.644 58.7411L160.613 61.8921C160.465 62.1212 160.161 62.1898 159.929 62.0463L158.424 61.1141C158.186 60.9668 158.115 60.6532 158.267 60.4181L163.484 52.3232C163.536 52.2424 163.564 52.1484 163.564 52.0523V47.9855C163.564 47.6701 163.852 47.4345 164.166 47.4692C164.425 47.498 164.689 47.5128 164.957 47.5128C165.224 47.5128 165.488 47.498 165.748 47.4692C166.062 47.4345 166.35 47.6701 166.35 47.9855V52.1309C166.35 52.227 166.378 52.321 166.43 52.4018L171.596 60.4181C171.748 60.6532 171.677 60.9668 171.439 61.1141L169.934 62.0463C169.702 62.1898 169.398 62.1212 169.251 61.8921L167.27 58.8197C167 58.4005 166.35 58.5919 166.35 59.0906V65.1209ZM182.97 59.6972C182.806 59.8472 182.799 60.1051 182.958 60.261C183.111 60.4114 183.111 60.6585 182.958 60.8089L180.646 63.0749C180.446 63.2709 180.446 63.5929 180.646 63.789L181.902 65.0201C182.097 65.2107 182.408 65.2107 182.602 65.0201L184.858 62.8094C185.052 62.6188 185.363 62.6188 185.558 62.8094L186.111 63.3516C186.305 63.5421 186.616 63.5421 186.811 63.3516L188.067 62.1204C188.267 61.9244 188.267 61.6023 188.067 61.4063L187.542 60.892C187.342 60.696 187.342 60.3739 187.542 60.1779L189.769 57.995C189.969 57.799 189.969 57.4769 189.769 57.2809L188.513 56.0497C188.318 55.8592 188.007 55.8592 187.813 56.0497L185.487 58.3297C185.332 58.4819 185.083 58.4819 184.928 58.3297C184.767 58.1719 184.508 58.1789 184.352 58.3426C183.909 58.8105 183.448 59.2624 182.97 59.6972ZM183.574 57.0022C183.766 57.1909 183.775 57.4986 183.589 57.6939C183.173 58.1314 182.74 58.5542 182.293 58.9615C182.1 59.1376 181.803 59.1291 181.616 58.9459L177.607 55.0159C177.243 54.6587 176.64 55.0126 176.775 55.5048L177.709 58.9239C177.783 59.1921 177.623 59.4686 177.354 59.5393L175.63 59.9921C175.365 60.0618 175.093 59.9049 175.02 59.6404L172.383 49.9903C172.359 49.9048 172.314 49.8271 172.25 49.7651L169.244 46.8182C169.015 46.5941 169.054 46.2164 169.306 46.0188C169.715 45.6983 170.086 45.3335 170.412 44.9319C170.608 44.6895 170.974 44.6515 171.197 44.8701L173.736 47.3585C173.797 47.4183 173.872 47.4615 173.954 47.4839L184.313 50.3004C184.582 50.3734 184.739 50.6514 184.663 50.919L184.191 52.5887C184.116 52.8525 183.843 53.007 183.578 52.935L179.681 51.8754C179.184 51.7403 178.832 52.3544 179.2 52.715L183.574 57.0022ZM191.392 42.0317C191.392 42.0418 191.4 42.0502 191.41 42.0502C191.419 42.0502 191.427 42.058 191.427 42.0677V45.6471C191.427 45.9233 191.651 46.1471 191.927 46.1471H193.714C193.99 46.1471 194.214 45.9233 194.214 45.6471V42.5502C194.214 42.274 194.437 42.0502 194.714 42.0502H196.5C196.776 42.0502 197 41.8263 197 41.5502V39.8189C197 39.5427 196.776 39.3189 196.5 39.3189H194.714C194.437 39.3189 194.214 39.095 194.214 38.8189V35.7219C194.214 35.4458 193.99 35.2219 193.714 35.2219H191.927C191.651 35.2219 191.427 35.4458 191.427 35.7219V39.3013C191.427 39.311 191.419 39.3189 191.41 39.3189C191.4 39.3189 191.392 39.3273 191.392 39.3373C191.416 39.7835 191.427 40.2327 191.427 40.6845C191.427 41.1364 191.416 41.5855 191.392 42.0317ZM189.917 39.3189C190.182 39.3189 190.402 39.5263 190.411 39.7916C190.422 40.088 190.427 40.3856 190.427 40.6845C190.427 40.9834 190.422 41.2811 190.411 41.5775C190.402 41.8428 190.182 42.0502 189.917 42.0502H186.988C186.45 42.0502 186.292 42.783 186.781 43.0054L188.838 43.9397C189.092 44.0551 189.202 44.3563 189.083 44.6086L188.339 46.1825C188.222 46.4295 187.928 46.537 187.68 46.424L178.151 42.095C178.087 42.0654 178.016 42.0502 177.945 42.0502H172.398C172.081 42.0502 171.845 41.7588 171.88 41.4439C171.908 41.1946 171.923 40.9412 171.923 40.6845C171.923 40.4278 171.908 40.1745 171.88 39.9251C171.845 39.6102 172.081 39.3189 172.398 39.3189H177.598C177.62 39.3189 177.634 39.2963 177.625 39.2767C177.618 39.2618 177.624 39.244 177.639 39.2371L187.796 34.6225C188.045 34.5095 188.338 34.617 188.455 34.8639L189.199 36.4379C189.319 36.6902 189.208 36.9914 188.954 37.1068L186.188 38.3637C185.698 38.5861 185.857 39.3189 186.395 39.3189H189.917ZM183.485 23.5669C183.673 23.7619 183.665 24.0712 183.472 24.2606L181.011 26.6728C180.661 27.0163 180.964 27.6065 181.447 27.5224L184.378 27.0127C184.649 26.9656 184.907 27.1458 184.956 27.4162L185.264 29.1215C185.314 29.3946 185.132 29.6556 184.858 29.7032L176.577 31.1434C176.477 31.1608 176.385 31.208 176.312 31.279L171.103 36.3855C170.883 36.6009 170.523 36.5675 170.325 36.3324C169.991 35.9372 169.613 35.5795 169.197 35.2667C168.938 35.0715 168.895 34.6874 169.126 34.4602L173.368 30.3021C173.432 30.24 173.477 30.1623 173.501 30.0768L176.07 20.6773C176.142 20.4128 176.414 20.2559 176.679 20.3256L178.404 20.7784C178.673 20.8491 178.832 21.1256 178.759 21.3939L177.893 24.5624C177.758 25.0546 178.361 25.4084 178.725 25.0513L181.507 22.3243C181.693 22.142 181.988 22.1326 182.182 22.3068C182.632 22.7115 183.066 23.1319 183.485 23.5669ZM184.8 22.9595C184.654 23.1022 184.42 23.0965 184.279 22.9492C183.817 22.466 183.337 22.0001 182.839 21.5526C182.685 21.4149 182.678 21.1762 182.825 21.032C182.967 20.8935 182.967 20.6659 182.825 20.5274L180.646 18.3913C180.446 18.1952 180.446 17.8732 180.646 17.6771L181.902 16.446C182.097 16.2554 182.408 16.2554 182.602 16.446L184.703 18.5053C184.897 18.6959 185.209 18.6959 185.403 18.5053L186.111 17.8116C186.305 17.621 186.616 17.621 186.811 17.8116L188.067 19.0428C188.267 19.2388 188.267 19.5609 188.067 19.7569L187.388 20.4227C187.188 20.6187 187.188 20.9407 187.388 21.1368L189.769 23.4711C189.969 23.6671 189.969 23.9892 189.769 24.1852L188.513 25.4164C188.318 25.6069 188.007 25.6069 187.813 25.4164L185.307 22.9595C185.166 22.8215 184.94 22.8215 184.8 22.9595ZM161.946 45.3331C161.954 45.3408 161.954 45.3535 161.946 45.3612L161.826 45.4795C161.764 45.5397 161.669 45.55 161.598 45.5023C160.713 44.9123 160.001 44.0963 159.546 43.1419C159.536 43.1191 159.541 43.0919 159.559 43.0742C159.582 43.0515 159.619 43.0515 159.642 43.0742L159.663 43.095C159.741 43.1716 159.922 43.031 159.876 42.9316C159.56 42.2463 159.384 41.4855 159.384 40.6845C159.384 37.6676 161.879 35.2219 164.957 35.2219C165.958 35.2219 166.897 35.4805 167.708 35.9332C167.755 35.9592 167.814 35.8849 167.775 35.8474C167.758 35.8302 167.758 35.8019 167.775 35.7847L167.852 35.7094C167.9 35.663 167.972 35.6532 168.029 35.6869C168.76 36.1167 169.388 36.695 169.87 37.3778C169.922 37.4522 169.911 37.5534 169.846 37.6172L169.728 37.7337C169.72 37.7413 169.707 37.7413 169.7 37.7337C169.682 37.7167 169.653 37.7415 169.666 37.7619C170.213 38.607 170.53 39.6095 170.53 40.6845C170.53 41.6281 170.286 42.5158 169.856 43.2903C169.8 43.3905 169.816 43.5161 169.898 43.5963C169.981 43.6778 169.996 43.8065 169.931 43.9028C169.485 44.5601 168.905 45.1247 168.23 45.559C168.133 45.621 168.007 45.6055 167.925 45.5252C167.844 45.4458 167.72 45.4307 167.62 45.4842C166.831 45.9059 165.926 46.146 164.964 46.1471H166.235C166.299 46.1471 166.35 46.1986 166.35 46.2621C166.35 46.3156 166.313 46.3621 166.261 46.3734C165.842 46.4646 165.405 46.5128 164.957 46.5128C164.508 46.5128 164.072 46.4646 163.653 46.3735C163.601 46.3621 163.564 46.3156 163.564 46.2621C163.564 46.1986 163.615 46.1471 163.679 46.1471H164.95C163.855 46.1459 162.834 45.835 161.973 45.2991C161.953 45.2864 161.929 45.3163 161.946 45.3331ZM159.384 41.9223C159.384 41.9929 159.327 42.0502 159.256 42.0502C159.198 42.0502 159.146 42.0101 159.133 41.9527C159.04 41.544 158.991 41.1195 158.991 40.6845C158.991 40.2495 159.04 39.8251 159.133 39.4164C159.146 39.359 159.198 39.3189 159.256 39.3189C159.327 39.3189 159.384 39.3761 159.384 39.4467V41.9223ZM160.054 37.6847C160.019 37.7195 159.962 37.7195 159.926 37.6847C159.896 37.6546 159.89 37.6072 159.913 37.5711C160.391 36.8335 161.034 36.2068 161.793 35.7421C161.826 35.7215 161.869 35.7267 161.898 35.7542C161.932 35.7882 161.932 35.8439 161.898 35.8778L160.054 37.6847ZM164.957 34.8563C165.405 34.8563 165.842 34.9044 166.261 34.9956C166.313 35.007 166.35 35.0535 166.35 35.1069C166.35 35.1704 166.299 35.2219 166.235 35.2219H163.679C163.615 35.2219 163.564 35.1704 163.564 35.1069C163.564 35.0535 163.601 35.007 163.653 34.9956C164.072 34.9044 164.508 34.8563 164.957 34.8563ZM170.53 39.4467C170.53 39.3761 170.587 39.3189 170.658 39.3189C170.716 39.3189 170.768 39.359 170.781 39.4164C170.874 39.8251 170.923 40.2495 170.923 40.6845C170.923 41.1195 170.874 41.544 170.781 41.9527C170.768 42.0101 170.716 42.0502 170.658 42.0502C170.587 42.0502 170.53 41.9929 170.53 41.9223V39.4467ZM164.957 45.1471C167.501 45.1471 169.53 43.1304 169.53 40.6845C169.53 38.2386 167.501 36.2219 164.957 36.2219C162.413 36.2219 160.384 38.2386 160.384 40.6845C160.384 43.1304 162.413 45.1471 164.957 45.1471Z" fill="url(#paint11_linear_16_397)"/>
</g>
<g filter="url(#filter12_d_16_397)">
<path fill-rule="evenodd" clip-rule="evenodd" d="M134.045 74.6969C134.045 74.4208 133.821 74.1969 133.545 74.1969H132.283C132.006 74.1969 131.783 74.4208 131.783 74.6969V75.9148C131.783 76.1909 131.559 76.4148 131.283 76.4148H128.889C128.613 76.4148 128.389 76.6387 128.389 76.9148V78.1326C128.389 78.4088 128.613 78.6326 128.889 78.6326H131.769C131.776 78.6326 131.783 78.6389 131.783 78.6466C131.783 78.6546 131.789 78.661 131.797 78.6606C132.167 78.642 132.539 78.6326 132.914 78.6326C133.288 78.6326 133.661 78.642 134.031 78.6606C134.038 78.661 134.045 78.6546 134.045 78.6466C134.045 78.6389 134.051 78.6326 134.059 78.6326H136.939C137.215 78.6326 137.439 78.4088 137.439 78.1326V76.9148C137.439 76.6387 137.215 76.4148 136.939 76.4148H134.545C134.269 76.4148 134.045 76.1909 134.045 75.9148V74.6969ZM134.045 80.1367C134.045 79.8709 133.837 79.6509 133.572 79.6427C133.353 79.636 133.134 79.6326 132.914 79.6326C132.694 79.6326 132.475 79.636 132.256 79.6427C131.991 79.6509 131.783 79.8709 131.783 80.1367V83.6635C131.783 84.1884 131.077 84.3587 130.838 83.8915L129.504 81.2884C129.379 81.0454 129.083 80.9472 128.838 81.0678L127.713 81.6215C127.463 81.7449 127.362 82.0496 127.489 82.2981L131.728 90.5693C131.764 90.6399 131.783 90.7181 131.783 90.7974V93.6592C131.783 93.9745 132.071 94.2099 132.385 94.1814C132.559 94.1656 132.736 94.1575 132.914 94.1575C133.092 94.1575 133.268 94.1656 133.442 94.1814C133.756 94.2099 134.045 93.9745 134.045 93.6592V90.2237C134.045 90.1444 134.064 90.0662 134.1 89.9956L137.988 82.4082C138.116 82.1596 138.015 81.855 137.764 81.7316L136.64 81.1779C136.395 81.0573 136.098 81.1555 135.974 81.3984L134.99 83.3178C134.751 83.785 134.045 83.6147 134.045 83.0898V80.1367ZM118.33 84.2248C118.44 84.1243 118.445 83.951 118.338 83.8462C118.235 83.7452 118.235 83.5792 118.338 83.4782L120.186 81.6669C120.386 81.4708 120.386 81.1488 120.186 80.9527L119.3 80.0846C119.106 79.8941 118.795 79.8941 118.6 80.0846L116.901 81.7508C116.706 81.9414 116.395 81.9414 116.201 81.7508L115.632 81.1936C115.438 81.003 115.126 81.003 114.932 81.1936L114.046 82.0617C113.846 82.2577 113.846 82.5798 114.046 82.7758L114.586 83.3051C114.786 83.5012 114.786 83.8232 114.586 84.0193L112.915 85.6575C112.715 85.8535 112.715 86.1756 112.915 86.3716L113.801 87.2397C113.995 87.4303 114.306 87.4303 114.501 87.2397L116.363 85.4145C116.467 85.3122 116.634 85.3122 116.738 85.4145C116.847 85.5205 117.021 85.5159 117.125 85.4056C117.51 84.9967 117.912 84.6027 118.33 84.2248ZM117.996 86.6472C117.803 86.4585 117.795 86.1508 117.981 85.9564C118.28 85.6453 118.589 85.3435 118.907 85.0515C119.1 84.8747 119.396 84.8834 119.583 85.0665L121.552 86.9966C121.916 87.3538 122.519 86.9999 122.384 86.5077L121.734 84.1295C121.661 83.8612 121.821 83.5847 122.09 83.514L123.308 83.1941C123.573 83.1244 123.845 83.2813 123.917 83.5458L126.036 91.2961C126.059 91.3815 126.105 91.4593 126.168 91.5213L129.349 94.6395C129.578 94.8635 129.539 95.2413 129.291 95.444C129.024 95.6622 128.778 95.9041 128.557 96.1664C128.355 96.4048 127.989 96.443 127.766 96.2245L124.436 92.9605C124.373 92.8983 124.294 92.8542 124.208 92.8326L116.434 90.8844C116.165 90.8168 116.002 90.5422 116.072 90.2732L116.38 89.0921C116.449 88.8267 116.719 88.6667 116.986 88.7333L119.415 89.3421C119.909 89.466 120.25 88.8569 119.886 88.5L117.996 86.6472ZM112.609 97.3049C112.584 97.2936 112.569 97.2675 112.572 97.2404C112.573 97.2338 112.575 97.2274 112.578 97.2214L113.292 95.7116C113.409 95.4647 113.702 95.3572 113.951 95.4702L120.726 98.5484C120.791 98.5779 120.861 98.5932 120.933 98.5932H126.757C127.073 98.5932 127.309 98.8848 127.28 99.2004C127.265 99.3656 127.258 99.533 127.258 99.7021C127.258 99.8713 127.265 100.039 127.28 100.204C127.309 100.52 127.073 100.811 126.757 100.811H121.792C121.721 100.811 121.65 100.826 121.585 100.856L121.34 100.967C121.303 100.984 121.274 101.013 121.256 101.049L121.243 101.079C121.21 101.147 121.13 101.176 121.061 101.145C121.025 101.129 120.984 101.129 120.948 101.145L113.951 104.324C113.702 104.437 113.409 104.33 113.292 104.083L112.668 102.764C112.657 102.74 112.649 102.715 112.645 102.689C112.627 102.569 112.691 102.452 112.802 102.402L114.201 101.766C114.69 101.544 114.532 100.811 113.994 100.811H112.923C112.658 100.811 112.438 100.604 112.43 100.339C112.423 100.127 112.42 99.9151 112.42 99.7021C112.42 99.4892 112.423 99.277 112.43 99.0657C112.438 98.8005 112.658 98.5932 112.923 98.5932H113.135C113.673 98.5932 113.831 97.8604 113.342 97.638L112.609 97.3049ZM111.448 98.6082C111.449 98.6001 111.442 98.5932 111.434 98.5932C111.426 98.5932 111.42 98.5868 111.42 98.579V95.7664C111.42 95.4903 111.196 95.2664 110.92 95.2664H109.657C109.381 95.2664 109.157 95.4903 109.157 95.7664V98.0932C109.157 98.3694 108.933 98.5932 108.657 98.5932H107.395C107.118 98.5932 106.895 98.8171 106.895 99.0932V100.311C106.895 100.587 107.118 100.811 107.395 100.811H108.657C108.933 100.811 109.157 101.035 109.157 101.311V103.638C109.157 103.914 109.381 104.138 109.657 104.138H110.92C111.196 104.138 111.42 103.914 111.42 103.638V100.825C111.42 100.817 111.426 100.811 111.434 100.811C111.442 100.811 111.449 100.804 111.448 100.796C111.429 100.434 111.42 100.069 111.42 99.7021C111.42 99.3352 111.429 98.9705 111.448 98.6082ZM116.779 113.622C116.659 113.49 116.453 113.481 116.326 113.606C116.205 113.725 116.012 113.725 115.891 113.606L114.501 112.243C114.306 112.053 113.995 112.053 113.801 112.243L112.915 113.111C112.715 113.307 112.715 113.63 112.915 113.826L114.144 115.03C114.344 115.226 114.344 115.548 114.144 115.744L113.73 116.151C113.53 116.347 113.53 116.669 113.73 116.865L114.932 118.044C115.127 118.234 115.438 118.234 115.632 118.044L116.075 117.609C116.27 117.419 116.581 117.419 116.775 117.609L118.6 119.398C118.795 119.589 119.106 119.589 119.3 119.398L120.186 118.53C120.386 118.334 120.386 118.012 120.186 117.816L118.231 115.9C118.118 115.789 118.118 115.607 118.231 115.496C118.348 115.382 118.343 115.193 118.223 115.082C117.718 114.618 117.236 114.131 116.779 113.622ZM131.797 120.744C131.789 120.743 131.783 120.75 131.783 120.758C131.783 120.765 131.776 120.772 131.769 120.772H128.889C128.613 120.772 128.389 120.996 128.389 121.272V122.489C128.389 122.766 128.613 122.989 128.889 122.989H131.283C131.559 122.989 131.783 123.213 131.783 123.489V124.707C131.783 124.983 132.006 125.207 132.283 125.207H133.545C133.821 125.207 134.045 124.983 134.045 124.707V123.489C134.045 123.213 134.269 122.989 134.545 122.989H136.939C137.215 122.989 137.439 122.766 137.439 122.489V121.272C137.439 120.996 137.215 120.772 136.939 120.772H134.059C134.051 120.772 134.045 120.765 134.045 120.758C134.045 120.75 134.038 120.743 134.03 120.744C133.661 120.762 133.288 120.772 132.914 120.772C132.539 120.772 132.167 120.762 131.797 120.744ZM134.045 119.268C134.045 119.533 133.837 119.753 133.572 119.762C133.353 119.768 133.134 119.772 132.914 119.772C132.694 119.772 132.475 119.768 132.256 119.762C131.991 119.753 131.783 119.533 131.783 119.268V114.904C131.783 114.405 131.133 114.214 130.862 114.633L129.436 116.845C129.289 117.074 128.985 117.143 128.753 117L127.69 116.342C127.453 116.194 127.382 115.881 127.533 115.646L131.703 109.176C131.755 109.095 131.783 109.001 131.783 108.905V105.745C131.783 105.43 132.071 105.194 132.385 105.223C132.559 105.239 132.736 105.247 132.914 105.247C133.092 105.247 133.268 105.239 133.442 105.223C133.756 105.194 134.045 105.43 134.045 105.745V108.969C134.045 109.065 134.073 109.159 134.125 109.24L138.253 115.646C138.405 115.881 138.334 116.194 138.096 116.342L137.034 117C136.802 117.143 136.498 117.074 136.35 116.845L134.965 114.697C134.695 114.277 134.045 114.469 134.045 114.967V119.268ZM147.541 115.141C147.407 115.262 147.402 115.472 147.531 115.598C147.655 115.721 147.655 115.921 147.531 116.043L145.722 117.816C145.522 118.012 145.522 118.334 145.722 118.53L146.608 119.398C146.802 119.589 147.113 119.589 147.308 119.398L149.008 117.732C149.202 117.542 149.513 117.542 149.708 117.732L150.025 118.044C150.22 118.234 150.531 118.234 150.725 118.044L151.611 117.175C151.811 116.979 151.811 116.657 151.611 116.461L151.322 116.178C151.122 115.982 151.122 115.66 151.322 115.464L152.993 113.826C153.193 113.63 153.193 113.307 152.993 113.111L152.107 112.243C151.913 112.053 151.602 112.053 151.407 112.243L149.584 114.03C149.458 114.154 149.257 114.154 149.131 114.03C149 113.902 148.789 113.908 148.663 114.041C148.303 114.421 147.929 114.788 147.541 115.141ZM147.832 112.757C148.024 112.946 148.033 113.253 147.847 113.448C147.548 113.759 147.239 114.061 146.921 114.353C146.728 114.53 146.431 114.521 146.245 114.338L143.434 111.583C143.07 111.225 142.467 111.579 142.602 112.071L143.244 114.421C143.317 114.689 143.158 114.966 142.889 115.037L141.67 115.357C141.405 115.426 141.133 115.269 141.061 115.005L138.95 107.283C138.927 107.198 138.881 107.12 138.818 107.058L136.479 104.765C136.25 104.541 136.289 104.163 136.537 103.96C136.804 103.742 137.049 103.5 137.271 103.238C137.473 102.999 137.839 102.961 138.062 103.18L140.025 105.104C140.086 105.164 140.161 105.207 140.244 105.23L148.54 107.485C148.808 107.558 148.965 107.836 148.89 108.104L148.557 109.279C148.483 109.543 148.209 109.697 147.945 109.625L145.218 108.884C144.721 108.749 144.369 109.363 144.737 109.723L147.832 112.757ZM154.38 100.796C154.379 100.804 154.386 100.811 154.394 100.811C154.402 100.811 154.408 100.817 154.408 100.825V103.638C154.408 103.914 154.632 104.138 154.908 104.138H156.171C156.447 104.138 156.671 103.914 156.671 103.638V101.311C156.671 101.035 156.895 100.811 157.171 100.811H158.433C158.709 100.811 158.933 100.587 158.933 100.311V99.0932C158.933 98.8171 158.709 98.5932 158.433 98.5932H157.171C156.895 98.5932 156.671 98.3694 156.671 98.0932V95.7664C156.671 95.4903 156.447 95.2664 156.171 95.2664H154.908C154.632 95.2664 154.408 95.4903 154.408 95.7664V98.579C154.408 98.5868 154.402 98.5932 154.394 98.5932C154.386 98.5932 154.379 98.6001 154.38 98.6082C154.399 98.9705 154.408 99.3352 154.408 99.7021C154.408 100.069 154.399 100.434 154.38 100.796ZM152.904 98.5932C153.17 98.5932 153.39 98.8005 153.398 99.0657C153.405 99.277 153.408 99.4892 153.408 99.7021C153.408 99.9151 153.405 100.127 153.398 100.339C153.39 100.604 153.17 100.811 152.904 100.811H151.238C150.7 100.811 150.541 101.544 151.031 101.766L152.218 102.306C152.473 102.421 152.583 102.722 152.464 102.975L151.94 104.083C151.823 104.33 151.53 104.437 151.281 104.324L143.646 100.856C143.582 100.826 143.511 100.811 143.44 100.811H139.071C138.754 100.811 138.519 100.52 138.547 100.204C138.563 100.039 138.57 99.8713 138.57 99.7021C138.57 99.533 138.563 99.3656 138.547 99.2004C138.519 98.8848 138.754 98.5932 139.071 98.5932H143.179C143.196 98.5932 143.208 98.5749 143.2 98.5589C143.195 98.5468 143.2 98.5324 143.212 98.5268L151.375 94.818C151.624 94.705 151.918 94.8125 152.034 95.0594L152.558 96.1675C152.678 96.4198 152.567 96.721 152.313 96.8365L150.549 97.638C150.059 97.8604 150.218 98.5932 150.756 98.5932H152.904ZM147.762 85.8685C147.95 86.0626 147.942 86.3719 147.749 86.5613L146.166 88.1129C145.816 88.4565 146.118 89.0467 146.602 88.9626L148.592 88.6165C148.863 88.5694 149.121 88.7496 149.17 89.02L149.387 90.2197C149.436 90.4928 149.254 90.7538 148.981 90.8014L142.378 91.9496C142.278 91.967 142.186 92.0143 142.114 92.0852L137.983 96.134C137.763 96.3495 137.404 96.3158 137.201 96.0846C136.974 95.8266 136.723 95.5893 136.452 95.376C136.197 95.1753 136.153 94.7912 136.385 94.564L139.726 91.2893C139.789 91.2272 139.835 91.1495 139.858 91.064L141.913 83.5458C141.986 83.2813 142.257 83.1244 142.523 83.1941L143.741 83.514C144.01 83.5847 144.17 83.8612 144.096 84.1295L143.51 86.2757C143.375 86.7679 143.977 87.1218 144.342 86.7646L146.156 84.9859C146.342 84.8036 146.637 84.7941 146.83 84.9689C147.15 85.2591 147.461 85.5591 147.762 85.8685ZM149.026 85.3092C148.908 85.4251 148.718 85.4205 148.603 85.3008C148.228 84.9084 147.838 84.5301 147.434 84.1668C147.31 84.055 147.304 83.8612 147.423 83.7441C147.538 83.6316 147.538 83.4468 147.423 83.3343L145.722 81.6669C145.522 81.4708 145.522 81.1488 145.722 80.9527L146.608 80.0846C146.802 79.8941 147.113 79.8941 147.308 80.0846L148.882 81.6279C149.077 81.8184 149.388 81.8184 149.582 81.6279L150.025 81.1936C150.22 81.003 150.531 81.003 150.725 81.1936L151.611 82.0617C151.811 82.2577 151.811 82.5798 151.611 82.7758L151.196 83.1821C150.996 83.3782 150.996 83.7002 151.196 83.8963L152.993 85.6575C153.193 85.8535 153.193 86.1756 152.993 86.3716L152.107 87.2397C151.913 87.4303 151.602 87.4303 151.407 87.2397L149.438 85.3092C149.324 85.1972 149.141 85.1972 149.026 85.3092ZM119.495 114.257C119.308 114.441 119.009 114.449 118.817 114.27C118.389 113.873 117.979 113.458 117.588 113.026C117.41 112.831 117.423 112.53 117.612 112.345L120.082 109.924C120.427 109.586 120.141 109.004 119.663 109.071L116.755 109.48C116.483 109.518 116.231 109.329 116.191 109.057L116.015 107.851C115.974 107.577 116.165 107.322 116.44 107.284L123.672 106.268C123.778 106.253 123.876 106.205 123.952 106.13L127.419 102.732C127.657 102.498 128.054 102.56 128.245 102.834C128.519 103.225 128.843 103.581 129.208 103.891C129.448 104.095 129.483 104.467 129.257 104.688L125.918 107.961C125.854 108.023 125.809 108.101 125.785 108.186L123.917 115.021C123.845 115.286 123.573 115.443 123.308 115.373L122.09 115.053C121.821 114.982 121.661 114.706 121.734 114.438L122.134 112.975C122.269 112.483 121.666 112.129 121.302 112.486L119.495 114.257ZM130.469 103.477C130.476 103.483 130.476 103.493 130.469 103.5L130.449 103.52C130.434 103.534 130.412 103.536 130.395 103.526C129.789 103.144 129.281 102.63 128.912 102.026C128.895 101.997 128.931 101.969 128.955 101.993C128.981 102.018 129.029 101.979 129.011 101.948C128.616 101.289 128.389 100.522 128.389 99.7021C128.389 97.2551 130.41 95.2709 132.905 95.2665C132.775 95.2665 132.767 95.158 132.898 95.1576C132.903 95.1575 132.908 95.1575 132.914 95.1575C132.919 95.1575 132.925 95.1575 132.93 95.1576C133.06 95.158 133.053 95.2665 132.922 95.2665C133.732 95.2679 134.491 95.4777 135.148 95.8439C135.186 95.8651 135.233 95.8048 135.202 95.7743L135.184 95.7565C135.18 95.7523 135.18 95.7455 135.184 95.7413C135.188 95.738 135.193 95.7373 135.197 95.7396C135.852 96.1003 136.408 96.6114 136.817 97.2233C136.829 97.2424 136.827 97.2679 136.81 97.284L136.788 97.306C136.781 97.3122 136.771 97.3122 136.765 97.306C136.751 97.2923 136.727 97.3124 136.738 97.3289C137.179 98.0106 137.436 98.8184 137.439 99.6847C137.439 99.5318 137.569 99.5212 137.57 99.674C137.57 99.6834 137.57 99.6928 137.57 99.7021C137.57 99.7115 137.57 99.7209 137.57 99.7303C137.569 99.8831 137.439 99.8724 137.439 99.7196C137.436 100.513 137.22 101.257 136.845 101.901C136.826 101.933 136.831 101.974 136.858 102C136.885 102.026 136.89 102.068 136.87 102.099C136.488 102.699 135.967 103.206 135.35 103.577C135.319 103.595 135.28 103.59 135.255 103.565C135.23 103.541 135.192 103.536 135.161 103.553C134.499 103.925 133.732 104.138 132.914 104.138C132.023 104.138 131.192 103.885 130.491 103.449C130.475 103.439 130.455 103.463 130.469 103.477ZM128.258 99.7021C128.258 99.5468 128.389 99.5468 128.389 99.7021C128.389 99.8575 128.258 99.8575 128.258 99.7021ZM129.614 96.496C129.678 96.4334 129.731 96.4842 129.667 96.5469C129.603 96.6095 129.55 96.5587 129.614 96.496ZM132.914 104.247C132.783 104.247 132.783 104.138 132.914 104.138C133.045 104.138 133.045 104.247 132.914 104.247ZM132.914 103.138C134.88 103.138 136.439 101.581 136.439 99.7021C136.439 97.8234 134.88 96.2664 132.914 96.2664C130.948 96.2664 129.389 97.8234 129.389 99.7021C129.389 101.581 130.948 103.138 132.914 103.138Z" fill="url(#paint12_linear_16_397)"/>
</g>
<defs>
<filter id="filter0_d_16_397" x="0" y="39.4171" width="48.2117" height="48.5764" filterUnits="userSpaceOnUse" color-interpolation-filters="sRGB">
<feFlood flood-opacity="0" result="BackgroundImageFix"/>
<feColorMatrix in="SourceAlpha" type="matrix" values="0 0 0 0 0 0 0 0 0 0 0 0 0 0 0 0 0 0 127 0" result="hardAlpha"/>
<feOffset dy="4"/>
<feGaussianBlur stdDeviation="2"/>
<feComposite in2="hardAlpha" operator="out"/>
<feColorMatrix type="matrix" values="0 0 0 0 0 0 0 0 0 0 0 0 0 0 0 0 0 0 0.25 0"/>
<feBlend mode="normal" in2="BackgroundImageFix" result="effect1_dropShadow_16_397"/>
<feBlend mode="normal" in="SourceGraphic" in2="effect1_dropShadow_16_397" result="shape"/>
</filter>
<filter id="filter1_d_16_397" x="25.1199" y="80.269" width="24.0636" height="45.3224" filterUnits="userSpaceOnUse" color-interpolation-filters="sRGB">
<feFlood flood-opacity="0" result="BackgroundImageFix"/>
<feColorMatrix in="SourceAlpha" type="matrix" values="0 0 0 0 0 0 0 0 0 0 0 0 0 0 0 0 0 0 127 0" result="hardAlpha"/>
<feOffset dy="4"/>
<feGaussianBlur stdDeviation="2"/>
<feComposite in2="hardAlpha" operator="out"/>
<feColorMatrix type="matrix" values="0 0 0 0 0 0 0 0 0 0 0 0 0 0 0 0 0 0 0.25 0"/>
<feBlend mode="normal" in2="BackgroundImageFix" result="effect1_dropShadow_16_397"/>
<feBlend mode="normal" in="SourceGraphic" in2="effect1_dropShadow_16_397" result="shape"/>
</filter>
<filter id="filter2_d_16_397" x="36.6988" y="72.7479" width="56.1248" height="49.8984" filterUnits="userSpaceOnUse" color-interpolation-filters="sRGB">
<feFlood flood-opacity="0" result="BackgroundImageFix"/>
<feColorMatrix in="SourceAlpha" type="matrix" values="0 0 0 0 0 0 0 0 0 0 0 0 0 0 0 0 0 0 127 0" result="hardAlpha"/>
<feOffset dy="4"/>
<feGaussianBlur stdDeviation="2"/>
<feComposite in2="hardAlpha" operator="out"/>
<feColorMatrix type="matrix" values="0 0 0 0 0 0 0 0 0 0 0 0 0 0 0 0 0 0 0.25 0"/>
<feBlend mode="normal" in2="BackgroundImageFix" result="effect1_dropShadow_16_397"/>
<feBlend mode="normal" in="SourceGraphic" in2="effect1_dropShadow_16_397" result="shape"/>
</filter>
<filter id="filter3_d_16_397" x="41.1984" y="64.6789" width="56.2134" height="18.2364" filterUnits="userSpaceOnUse" color-interpolation-filters="sRGB">
<feFlood flood-opacity="0" result="BackgroundImageFix"/>
<feColorMatrix in="SourceAlpha" type="matrix" values="0 0 0 0 0 0 0 0 0 0 0 0 0 0 0 0 0 0 127 0" result="hardAlpha"/>
<feOffset dy="4"/>
<feGaussianBlur stdDeviation="2"/>
<feComposite in2="hardAlpha" operator="out"/>
<feColorMatrix type="matrix" values="0 0 0 0 0 0 0 0 0 0 0 0 0 0 0 0 0 0 0.25 0"/>
<feBlend mode="normal" in2="BackgroundImageFix" result="effect1_dropShadow_16_397"/>
<feBlend mode="normal" in="SourceGraphic" in2="effect1_dropShadow_16_397" result="shape"/>
</filter>
<filter id="filter4_d_16_397" x="4.8461" y="2.42986" width="14.2201" height="43.7292" filterUnits="userSpaceOnUse" color-interpolation-filters="sRGB">
<feFlood flood-opacity="0" result="BackgroundImageFix"/>
<feColorMatrix in="SourceAlpha" type="matrix" values="0 0 0 0 0 0 0 0 0 0 0 0 0 0 0 0 0 0 127 0" result="hardAlpha"/>
<feOffset dy="4"/>
<feGaussianBlur stdDeviation="2"/>
<feComposite in2="hardAlpha" operator="out"/>
<feColorMatrix type="matrix" values="0 0 0 0 0 0 0 0 0 0 0 0 0 0 0 0 0 0 0.25 0"/>
<feBlend mode="normal" in2="BackgroundImageFix" result="effect1_dropShadow_16_397"/>
<feBlend mode="normal" in="SourceGraphic" in2="effect1_dropShadow_16_397" result="shape"/>
</filter>
<filter id="filter5_d_16_397" x="25.1199" y="0.275368" width="24.0636" height="45.3224" filterUnits="userSpaceOnUse" color-interpolation-filters="sRGB">
<feFlood flood-opacity="0" result="BackgroundImageFix"/>
<feColorMatrix in="SourceAlpha" type="matrix" values="0 0 0 0 0 0 0 0 0 0 0 0 0 0 0 0 0 0 127 0" result="hardAlpha"/>
<feOffset dy="4"/>
<feGaussianBlur stdDeviation="2"/>
<feComposite in2="hardAlpha" operator="out"/>
<feColorMatrix type="matrix" values="0 0 0 0 0 0 0 0 0 0 0 0 0 0 0 0 0 0 0.25 0"/>
<feBlend mode="normal" in2="BackgroundImageFix" result="effect1_dropShadow_16_397"/>
<feBlend mode="normal" in="SourceGraphic" in2="effect1_dropShadow_16_397" result="shape"/>
</filter>
<filter id="filter6_d_16_397" x="37.0852" y="16.644" width="35.6912" height="35.7604" filterUnits="userSpaceOnUse" color-interpolation-filters="sRGB">
<feFlood flood-opacity="0" result="BackgroundImageFix"/>
<feColorMatrix in="SourceAlpha" type="matrix" values="0 0 0 0 0 0 0 0 0 0 0 0 0 0 0 0 0 0 127 0" result="hardAlpha"/>
<feOffset dy="4"/>
<feGaussianBlur stdDeviation="2"/>
<feComposite in2="hardAlpha" operator="out"/>
<feColorMatrix type="matrix" values="0 0 0 0 0 0 0 0 0 0 0 0 0 0 0 0 0 0 0.25 0"/>
<feBlend mode="normal" in2="BackgroundImageFix" result="effect1_dropShadow_16_397"/>
<feBlend mode="normal" in="SourceGraphic" in2="effect1_dropShadow_16_397" result="shape"/>
</filter>
<filter id="filter7_d_16_397" x="0" y="154.19" width="200.779" height="12.6373" filterUnits="userSpaceOnUse" color-interpolation-filters="sRGB">
<feFlood flood-opacity="0" result="BackgroundImageFix"/>
<feColorMatrix in="SourceAlpha" type="matrix" values="0 0 0 0 0 0 0 0 0 0 0 0 0 0 0 0 0 0 127 0" result="hardAlpha"/>
<feOffset dy="4"/>
<feGaussianBlur stdDeviation="2"/>
<feComposite in2="hardAlpha" operator="out"/>
<feColorMatrix type="matrix" values="0 0 0 0 0 0 0 0 0 0 0 0 0 0 0 0 0 0 0.25 0"/>
<feBlend mode="normal" in2="BackgroundImageFix" result="effect1_dropShadow_16_397"/>
<feBlend mode="normal" in="SourceGraphic" in2="effect1_dropShadow_16_397" result="shape"/>
</filter>
<filter id="filter8_d_16_397" x="0" y="136.801" width="200.779" height="23.0712" filterUnits="userSpaceOnUse" color-interpolation-filters="sRGB">
<feFlood flood-opacity="0" result="BackgroundImageFix"/>
<feColorMatrix in="SourceAlpha" type="matrix" values="0 0 0 0 0 0 0 0 0 0 0 0 0 0 0 0 0 0 127 0" result="hardAlpha"/>
<feOffset dy="4"/>
<feGaussianBlur stdDeviation="2"/>
<feComposite in2="hardAlpha" operator="out"/>
<feColorMatrix type="matrix" values="0 0 0 0 0 0 0 0 0 0 0 0 0 0 0 0 0 0 0.25 0"/>
<feBlend mode="normal" in2="BackgroundImageFix" result="effect1_dropShadow_16_397"/>
<feBlend mode="normal" in="SourceGraphic" in2="effect1_dropShadow_16_397" result="shape"/>
</filter>
<filter id="filter9_d_16_397" x="41.7143" y="35.0907" width="50.5035" height="27.1825" filterUnits="userSpaceOnUse" color-interpolation-filters="sRGB">
<feFlood flood-opacity="0" result="BackgroundImageFix"/>
<feColorMatrix in="SourceAlpha" type="matrix" values="0 0 0 0 0 0 0 0 0 0 0 0 0 0 0 0 0 0 127 0" result="hardAlpha"/>
<feOffset dy="4"/>
<feGaussianBlur stdDeviation="2"/>
<feComposite in2="hardAlpha" operator="out"/>
<feColorMatrix type="matrix" values="0 0 0 0 0 0 0 0 0 0 0 0 0 0 0 0 0 0 0.25 0"/>
<feBlend mode="normal" in2="BackgroundImageFix" result="effect1_dropShadow_16_397"/>
<feBlend mode="normal" in="SourceGraphic" in2="effect1_dropShadow_16_397" result="shape"/>
</filter>
<filter id="filter10_d_16_397" x="7.21149" y="80.1047" width="14.2201" height="43.7292" filterUnits="userSpaceOnUse" color-interpolation-filters="sRGB">
<feFlood flood-opacity="0" result="BackgroundImageFix"/>
<feColorMatrix in="SourceAlpha" type="matrix" values="0 0 0 0 0 0 0 0 0 0 0 0 0 0 0 0 0 0 127 0" result="hardAlpha"/>
<feOffset dy="4"/>
<feGaussianBlur stdDeviation="2"/>
<feComposite in2="hardAlpha" operator="out"/>
<feColorMatrix type="matrix" values="0 0 0 0 0 0 0 0 0 0 0 0 0 0 0 0 0 0 0.25 0"/>
<feBlend mode="normal" in2="BackgroundImageFix" result="effect1_dropShadow_16_397"/>
<feBlend mode="normal" in="SourceGraphic" in2="effect1_dropShadow_16_397" result="shape"/>
</filter>
<filter id="filter11_d_16_397" x="128.914" y="9.27463" width="72.0861" height="70.8198" filterUnits="userSpaceOnUse" color-interpolation-filters="sRGB">
<feFlood flood-opacity="0" result="BackgroundImageFix"/>
<feColorMatrix in="SourceAlpha" type="matrix" values="0 0 0 0 0 0 0 0 0 0 0 0 0 0 0 0 0 0 127 0" result="hardAlpha"/>
<feOffset dy="4"/>
<feGaussianBlur stdDeviation="2"/>
<feComposite in2="hardAlpha" operator="out"/>
<feColorMatrix type="matrix" values="0 0 0 0 0 0 0 0 0 0 0 0 0 0 0 0 0 0 0.25 0"/>
<feBlend mode="normal" in2="BackgroundImageFix" result="effect1_dropShadow_16_397"/>
<feBlend mode="normal" in="SourceGraphic" in2="effect1_dropShadow_16_397" result="shape"/>
</filter>
<filter id="filter12_d_16_397" x="102.895" y="74.1969" width="60.0386" height="59.0104" filterUnits="userSpaceOnUse" color-interpolation-filters="sRGB">
<feFlood flood-opacity="0" result="BackgroundImageFix"/>
<feColorMatrix in="SourceAlpha" type="matrix" values="0 0 0 0 0 0 0 0 0 0 0 0 0 0 0 0 0 0 127 0" result="hardAlpha"/>
<feOffset dy="4"/>
<feGaussianBlur stdDeviation="2"/>
<feComposite in2="hardAlpha" operator="out"/>
<feColorMatrix type="matrix" values="0 0 0 0 0 0 0 0 0 0 0 0 0 0 0 0 0 0 0.25 0"/>
<feBlend mode="normal" in2="BackgroundImageFix" result="effect1_dropShadow_16_397"/>
<feBlend mode="normal" in="SourceGraphic" in2="effect1_dropShadow_16_397" result="shape"/>
</filter>
<linearGradient id="paint0_linear_16_397" x1="24.1058" y1="39.4171" x2="24.1058" y2="79.9936" gradientUnits="userSpaceOnUse">
<stop stop-color="#03609B"/>
<stop offset="0.9999" stop-color="#0AC1E7"/>
<stop offset="1" stop-color="#C4C4C4" stop-opacity="0"/>
</linearGradient>
<linearGradient id="paint1_linear_16_397" x1="0.944872" y1="0" x2="0.944872" y2="40.0564" gradientUnits="userSpaceOnUse">
<stop stop-color="#03609B"/>
<stop offset="0.9999" stop-color="#0AC1E7"/>
<stop offset="1" stop-color="#C4C4C4" stop-opacity="0"/>
</linearGradient>
<linearGradient id="paint2_linear_16_397" x1="1.00813" y1="0" x2="1.00813" y2="62.9768" gradientUnits="userSpaceOnUse">
<stop stop-color="#03609B"/>
<stop offset="0.9999" stop-color="#0AC1E7"/>
<stop offset="1" stop-color="#C4C4C4" stop-opacity="0"/>
</linearGradient>
<linearGradient id="paint3_linear_16_397" x1="0.999906" y1="0" x2="0.999906" y2="48.9392" gradientUnits="userSpaceOnUse">
<stop stop-color="#03609B"/>
<stop offset="0.9999" stop-color="#0AC1E7"/>
<stop offset="1" stop-color="#C4C4C4" stop-opacity="0"/>
</linearGradient>
<linearGradient id="paint4_linear_16_397" x1="1.01911" y1="0" x2="1.01911" y2="35.9838" gradientUnits="userSpaceOnUse">
<stop stop-color="#03609B"/>
<stop offset="0.9999" stop-color="#0AC1E7"/>
<stop offset="1" stop-color="#C4C4C4" stop-opacity="0"/>
</linearGradient>
<linearGradient id="paint5_linear_16_397" x1="0.944872" y1="0" x2="0.944872" y2="40.0564" gradientUnits="userSpaceOnUse">
<stop stop-color="#03609B"/>
<stop offset="0.9999" stop-color="#0AC1E7"/>
<stop offset="1" stop-color="#C4C4C4" stop-opacity="0"/>
</linearGradient>
<linearGradient id="paint6_linear_16_397" x1="1.00962" y1="0" x2="1.00962" y2="38.3723" gradientUnits="userSpaceOnUse">
<stop stop-color="#03609B"/>
<stop offset="0.9999" stop-color="#0AC1E7"/>
<stop offset="1" stop-color="#C4C4C4" stop-opacity="0"/>
</linearGradient>
<linearGradient id="paint7_linear_16_397" x1="6.31865" y1="158.828" x2="6.31865" y2="351.607" gradientUnits="userSpaceOnUse">
<stop stop-color="#0078C6"/>
<stop offset="0.0001" stop-color="#09C3EA"/>
<stop offset="1" stop-color="#0AC8EC"/>
</linearGradient>
<linearGradient id="paint8_linear_16_397" x1="11.5356" y1="151.872" x2="11.5356" y2="344.651" gradientUnits="userSpaceOnUse">
<stop stop-color="#035F9B"/>
<stop offset="1" stop-color="#0AC8EC"/>
</linearGradient>
<linearGradient id="paint9_linear_16_397" x1="1.00246" y1="0" x2="1.00246" y2="45.9894" gradientUnits="userSpaceOnUse">
<stop stop-color="#03609B"/>
<stop offset="0.9999" stop-color="#0AC1E7"/>
<stop offset="1" stop-color="#C4C4C4" stop-opacity="0"/>
</linearGradient>
<linearGradient id="paint10_linear_16_397" x1="1.01911" y1="0" x2="1.01911" y2="35.9838" gradientUnits="userSpaceOnUse">
<stop stop-color="#03609B"/>
<stop offset="0.9999" stop-color="#0AC1E7"/>
<stop offset="1" stop-color="#C4C4C4" stop-opacity="0"/>
</linearGradient>
<linearGradient id="paint11_linear_16_397" x1="164.957" y1="9.27463" x2="164.957" y2="72.0944" gradientUnits="userSpaceOnUse">
<stop stop-color="#035E9A"/>
<stop offset="0.9999" stop-color="#0AC4EA"/>
</linearGradient>
<linearGradient id="paint12_linear_16_397" x1="132.914" y1="74.1969" x2="132.914" y2="125.207" gradientUnits="userSpaceOnUse">
<stop stop-color="#035E9A"/>
<stop offset="0.9999" stop-color="#0AC4EA"/>
</linearGradient>
</defs>
</svg>
