<svg  viewBox="0 0 26 26" fill="none" xmlns="http://www.w3.org/2000/svg">
<g clip-path="url(#clip0_617_5928)">
<path d="M13.003 17.55C11.7624 17.55 10.5726 17.0706 9.69536 16.2173C8.81813 15.364 8.32531 14.2067 8.32531 13C8.32531 11.7933 8.81813 10.636 9.69536 9.78267C10.5726 8.92938 11.7624 8.45 13.003 8.45C14.2435 8.45 15.4333 8.92938 16.3105 9.78267C17.1878 10.636 17.6806 11.7933 17.6806 13C17.6806 14.2067 17.1878 15.364 16.3105 16.2173C15.4333 17.0706 14.2435 17.55 13.003 17.55ZM22.9329 14.261C22.9864 13.845 23.0265 13.429 23.0265 13C23.0265 12.571 22.9864 12.142 22.9329 11.7L25.7529 9.581C26.0068 9.386 26.0736 9.035 25.9132 8.749L23.2403 4.251C23.0799 3.965 22.7191 3.848 22.4251 3.965L19.0973 5.265C18.4023 4.758 17.6806 4.316 16.8386 3.991L16.3441 0.546002C16.317 0.392885 16.235 0.254057 16.1127 0.154119C15.9904 0.0541812 15.8356 -0.000415707 15.6759 2.38351e-06H10.33C9.9959 2.38351e-06 9.71524 0.234002 9.66178 0.546002L9.16728 3.991C8.32531 4.316 7.60362 4.758 6.90865 5.265L3.58084 3.965C3.28682 3.848 2.92597 3.965 2.7656 4.251L0.0926595 8.749C-0.0810815 9.035 -0.000893165 9.386 0.253036 9.581L3.07299 11.7C3.01953 12.142 2.97943 12.571 2.97943 13C2.97943 13.429 3.01953 13.845 3.07299 14.261L0.253036 16.419C-0.000893165 16.614 -0.0810815 16.965 0.0926595 17.251L2.7656 21.749C2.92597 22.035 3.28682 22.139 3.58084 22.035L6.90865 20.722C7.60362 21.242 8.32531 21.684 9.16728 22.009L9.66178 25.454C9.71524 25.766 9.9959 26 10.33 26H15.6759C16.01 26 16.2907 25.766 16.3441 25.454L16.8386 22.009C17.6806 21.671 18.4023 21.242 19.0973 20.722L22.4251 22.035C22.7191 22.139 23.0799 22.035 23.2403 21.749L25.9132 17.251C26.0736 16.965 26.0068 16.614 25.7529 16.419L22.9329 14.261Z" fill="#0D336D"/>
</g>
<defs>
<clipPath id="clip0_617_5928">
<rect width="26" height="26" fill="white"/>
</clipPath>
</defs>
</svg>
