<svg  viewBox="0 0 320 77" fill="none" xmlns="http://www.w3.org/2000/svg">
<g opacity="0.5">
<path d="M-181.593 30.1162L-168.847 -49.5259H537.227L518.388 46.9462L426.045 20.1255C253.843 -15.0478 186.556 49.0537 76.7324 69.5336C-22.0103 87.9471 -181.593 68.7033 -181.593 30.1162Z" fill="url(#paint0_linear_2188_8075)"/>
<path d="M-181.593 30.1162L-168.847 -49.5259H537.227L518.388 46.9462L426.045 20.1255C253.843 -15.0478 186.556 49.0537 76.7324 69.5336C-22.0103 87.9471 -181.593 68.7033 -181.593 30.1162Z" fill="#96B5F2"/>
<path d="M-181.593 27.5468L-168.847 -52.0952H537.227L518.388 44.3768L426.045 17.5561C253.843 -17.6172 186.556 46.4844 76.7324 66.9643C-22.0103 85.3778 -181.593 66.1339 -181.593 27.5468Z" fill="url(#paint1_linear_2188_8075)"/>
<path d="M-181.593 27.5468L-168.847 -52.0952H537.227L518.388 44.3768L426.045 17.5561C253.843 -17.6172 186.556 46.4844 76.7324 66.9643C-22.0103 85.3778 -181.593 66.1339 -181.593 27.5468Z" fill="#AEC9FF"/>
<path d="M-191.556 24.978L-178.809 -54.6641H527.264L508.425 41.808L416.083 14.9873C243.881 -20.186 176.594 43.9155 66.77 64.3954C-31.9727 82.8089 -191.556 63.5651 -191.556 24.978Z" fill="url(#paint2_linear_2188_8075)"/>
<path d="M-191.556 24.978L-178.809 -54.6641H527.264L508.425 41.808L416.083 14.9873C243.881 -20.186 176.594 43.9155 66.77 64.3954C-31.9727 82.8089 -191.556 63.5651 -191.556 24.978Z" fill="#DEE9FF"/>
</g>
<path d="M-209 21.0937L-196.255 -86H509.712L513.08 45.7048L398.547 11.0833C226.371 -24.1593 159.094 40.0686 49.2867 60.5889C-49.4411 79.0387 -209 59.7569 -209 21.0937Z" fill="url(#paint3_linear_2188_8075)"/>
<defs>
<linearGradient id="paint0_linear_2188_8075" x1="144.962" y1="-60.0475" x2="144.997" y2="36.4893" gradientUnits="userSpaceOnUse">
<stop stop-color="#B1DEFF"/>
<stop offset="0.354167" stop-color="#6299C0"/>
<stop offset="0.601721" stop-color="#3B6B8E"/>
<stop offset="1" stop-color="#09213D"/>
</linearGradient>
<linearGradient id="paint1_linear_2188_8075" x1="144.962" y1="-62.6168" x2="144.997" y2="33.9199" gradientUnits="userSpaceOnUse">
<stop stop-color="#B1DEFF"/>
<stop offset="0.354167" stop-color="#6299C0"/>
<stop offset="0.601721" stop-color="#3B6B8E"/>
<stop offset="1" stop-color="#09213D"/>
</linearGradient>
<linearGradient id="paint2_linear_2188_8075" x1="134.999" y1="-65.1857" x2="135.034" y2="31.3511" gradientUnits="userSpaceOnUse">
<stop stop-color="#B1DEFF"/>
<stop offset="0.354167" stop-color="#6299C0"/>
<stop offset="0.601721" stop-color="#3B6B8E"/>
<stop offset="1" stop-color="#09213D"/>
</linearGradient>
<linearGradient id="paint3_linear_2188_8075" x1="635.5" y1="-93.5001" x2="-11.045" y2="-14.8003" gradientUnits="userSpaceOnUse">
<stop offset="0.106947" stop-color="#F1FAFC"/>
<stop offset="0.210416" stop-color="#39AFDD"/>
<stop offset="0.417878" stop-color="#1664AB"/>
<stop offset="0.63123" stop-color="#08367A"/>
<stop offset="1" stop-color="#142C52"/>
</linearGradient>
</defs>
</svg>
