<svg width="320" height="543" viewBox="0 0 320 543" fill="none" xmlns="http://www.w3.org/2000/svg">
<g opacity="0.5">
<path d="M-360.444 372.686L-334.361 80.7634H1110.42L1071.87 434.375L882.918 336.066C530.555 207.14 392.871 442.1 168.147 517.168C-33.9021 584.661 -360.444 514.124 -360.444 372.686Z" fill="url(#paint0_linear_124_2836)"/>
<path d="M-360.444 372.686L-334.361 80.7634H1110.42L1071.87 434.375L882.918 336.066C530.555 207.14 392.871 442.1 168.147 517.168C-33.9021 584.661 -360.444 514.124 -360.444 372.686Z" fill="#96B5F2"/>
<path d="M-360.444 363.269L-334.361 71.3467H1110.42L1071.87 424.958L882.918 326.649C530.555 197.723 392.871 432.683 168.147 507.751C-33.9021 575.244 -360.444 504.707 -360.444 363.269Z" fill="url(#paint1_linear_124_2836)"/>
<path d="M-360.444 363.269L-334.361 71.3467H1110.42L1071.87 424.958L882.918 326.649C530.555 197.723 392.871 432.683 168.147 507.751C-33.9021 575.244 -360.444 504.707 -360.444 363.269Z" fill="#AEC9FF"/>
<path d="M-380.83 353.852L-354.747 61.9302H1090.03L1051.48 415.542L862.532 317.232C510.169 188.307 372.485 423.267 147.761 498.334C-54.2879 565.828 -380.83 495.291 -380.83 353.852Z" fill="url(#paint2_linear_124_2836)"/>
<path d="M-380.83 353.852L-354.747 61.9302H1090.03L1051.48 415.542L862.532 317.232C510.169 188.307 372.485 423.267 147.761 498.334C-54.2879 565.828 -380.83 495.291 -380.83 353.852Z" fill="#DEE9FF"/>
</g>
<g opacity="0.5">
<path d="M1090.03 342.424L1063.95 50.5018H-380.83L-342.281 404.113L-153.328 305.804C199.035 176.879 336.718 411.838 561.442 486.906C763.491 554.399 1090.03 483.862 1090.03 342.424Z" fill="url(#paint3_linear_124_2836)"/>
<path d="M1090.03 342.424L1063.95 50.5018H-380.83L-342.281 404.113L-153.328 305.804C199.035 176.879 336.718 411.838 561.442 486.906C763.491 554.399 1090.03 483.862 1090.03 342.424Z" fill="#96B5F2"/>
<path d="M1090.03 333.007L1063.95 41.0852H-380.83L-342.281 394.697L-153.328 296.387C199.035 167.462 336.718 402.422 561.442 477.489C763.491 544.983 1090.03 474.446 1090.03 333.007Z" fill="url(#paint4_linear_124_2836)"/>
<path d="M1090.03 333.007L1063.95 41.0852H-380.83L-342.281 394.697L-153.328 296.387C199.035 167.462 336.718 402.422 561.442 477.489C763.491 544.983 1090.03 474.446 1090.03 333.007Z" fill="#AEC9FF"/>
<path d="M1110.42 323.591L1084.34 31.6686H-360.444L-321.895 385.28L-132.943 286.971C219.421 158.045 357.104 393.005 581.828 468.073C783.877 535.566 1110.42 465.029 1110.42 323.591Z" fill="url(#paint5_linear_124_2836)"/>
<path d="M1110.42 323.591L1084.34 31.6686H-360.444L-321.895 385.28L-132.943 286.971C219.421 158.045 357.104 393.005 581.828 468.073C783.877 535.566 1110.42 465.029 1110.42 323.591Z" fill="#DEE9FF"/>
</g>
<path d="M-421 364.976L-394.913 -20H1050.1L1011.55 426.684L822.562 328.344C470.142 199.378 332.437 434.412 107.676 509.503C-94.4055 577.017 -421 506.458 -421 364.976Z" fill="url(#paint6_linear_124_2836)"/>
<defs>
<linearGradient id="paint0_linear_124_2836" x1="307.759" y1="42.1972" x2="307.989" y2="396.046" gradientUnits="userSpaceOnUse">
<stop stop-color="#B1DEFF"/>
<stop offset="0.354167" stop-color="#6299C0"/>
<stop offset="0.601721" stop-color="#3B6B8E"/>
<stop offset="1" stop-color="#09213D"/>
</linearGradient>
<linearGradient id="paint1_linear_124_2836" x1="307.759" y1="32.7804" x2="307.989" y2="386.629" gradientUnits="userSpaceOnUse">
<stop stop-color="#B1DEFF"/>
<stop offset="0.354167" stop-color="#6299C0"/>
<stop offset="0.601721" stop-color="#3B6B8E"/>
<stop offset="1" stop-color="#09213D"/>
</linearGradient>
<linearGradient id="paint2_linear_124_2836" x1="287.373" y1="23.3639" x2="287.603" y2="377.212" gradientUnits="userSpaceOnUse">
<stop stop-color="#B1DEFF"/>
<stop offset="0.354167" stop-color="#6299C0"/>
<stop offset="0.601721" stop-color="#3B6B8E"/>
<stop offset="1" stop-color="#09213D"/>
</linearGradient>
<linearGradient id="paint3_linear_124_2836" x1="421.83" y1="11.9356" x2="421.601" y2="365.784" gradientUnits="userSpaceOnUse">
<stop stop-color="#B1DEFF"/>
<stop offset="0.354167" stop-color="#6299C0"/>
<stop offset="0.601721" stop-color="#3B6B8E"/>
<stop offset="1" stop-color="#09213D"/>
</linearGradient>
<linearGradient id="paint4_linear_124_2836" x1="421.83" y1="2.51895" x2="421.601" y2="356.367" gradientUnits="userSpaceOnUse">
<stop stop-color="#B1DEFF"/>
<stop offset="0.354167" stop-color="#6299C0"/>
<stop offset="0.601721" stop-color="#3B6B8E"/>
<stop offset="1" stop-color="#09213D"/>
</linearGradient>
<linearGradient id="paint5_linear_124_2836" x1="442.216" y1="-6.89768" x2="441.986" y2="346.951" gradientUnits="userSpaceOnUse">
<stop stop-color="#B1DEFF"/>
<stop offset="0.354167" stop-color="#6299C0"/>
<stop offset="0.601721" stop-color="#3B6B8E"/>
<stop offset="1" stop-color="#09213D"/>
</linearGradient>
<linearGradient id="paint6_linear_124_2836" x1="-819.941" y1="21.8835" x2="781.818" y2="156.359" gradientUnits="userSpaceOnUse">
<stop offset="0.106947" stop-color="#F1FAFC"/>
<stop offset="0.210416" stop-color="#39AFDD"/>
<stop offset="0.417878" stop-color="#1664AB"/>
<stop offset="0.63123" stop-color="#08367A"/>
<stop offset="1" stop-color="#142C52"/>
</linearGradient>
</defs>
</svg>
