<svg width="1920" height="288" viewBox="0 0 1920 288" fill="none" xmlns="http://www.w3.org/2000/svg">
<g clip-path="url(#clip0_150_4260)">
<rect width="1920" height="4657" transform="translate(0 -3447)" fill="white"/>
<g opacity="0.5">
<path d="M55.0862 107.237L99.9762 -202.772H2586.56L2520.22 172.749L2195.01 68.3482C1588.57 -68.5653 1351.6 180.953 964.835 260.671C617.092 332.347 55.0862 257.439 55.0862 107.237Z" fill="url(#paint0_linear_150_4260)"/>
<path d="M55.0862 107.237L99.9762 -202.772H2586.56L2520.22 172.749L2195.01 68.3482C1588.57 -68.5653 1351.6 180.953 964.835 260.671C617.092 332.347 55.0862 257.439 55.0862 107.237Z" fill="#96B5F2"/>
<path d="M55.0862 97.2374L99.9762 -212.772H2586.56L2520.22 162.749L2195.01 58.3482C1588.57 -78.5653 1351.6 170.953 964.835 250.671C617.092 322.347 55.0862 247.439 55.0862 97.2374Z" fill="url(#paint1_linear_150_4260)"/>
<path d="M55.0862 97.2374L99.9762 -212.772H2586.56L2520.22 162.749L2195.01 58.3482C1588.57 -78.5653 1351.6 170.953 964.835 250.671C617.092 322.347 55.0862 247.439 55.0862 97.2374Z" fill="#AEC9FF"/>
<path d="M20 87.2374L64.89 -222.772H2551.48L2485.13 152.749L2159.93 48.3482C1553.48 -88.5653 1316.52 160.953 929.749 240.671C582.005 312.347 20 237.439 20 87.2374Z" fill="url(#paint2_linear_150_4260)"/>
<path d="M20 87.2374L64.89 -222.772H2551.48L2485.13 152.749L2159.93 48.3482C1553.48 -88.5653 1316.52 160.953 929.749 240.671C582.005 312.347 20 237.439 20 87.2374Z" fill="#DEE9FF"/>
</g>
<path d="M-69.1355 80.0543L-24.2455 -229.956H2462.34L2396 145.566L2070.79 41.1651C1464.35 -95.7484 1227.38 153.769 840.613 233.488C492.87 305.163 -69.1355 230.256 -69.1355 80.0543Z" fill="url(#paint3_linear_150_4260)"/>
</g>
<defs>
<linearGradient id="paint0_linear_150_4260" x1="1205.12" y1="-243.728" x2="1205.27" y2="132.045" gradientUnits="userSpaceOnUse">
<stop stop-color="#B1DEFF"/>
<stop offset="0.354167" stop-color="#6299C0"/>
<stop offset="0.601721" stop-color="#3B6B8E"/>
<stop offset="1" stop-color="#09213D"/>
</linearGradient>
<linearGradient id="paint1_linear_150_4260" x1="1205.12" y1="-253.728" x2="1205.27" y2="122.045" gradientUnits="userSpaceOnUse">
<stop stop-color="#B1DEFF"/>
<stop offset="0.354167" stop-color="#6299C0"/>
<stop offset="0.601721" stop-color="#3B6B8E"/>
<stop offset="1" stop-color="#09213D"/>
</linearGradient>
<linearGradient id="paint2_linear_150_4260" x1="1170.03" y1="-263.728" x2="1170.18" y2="112.045" gradientUnits="userSpaceOnUse">
<stop stop-color="#B1DEFF"/>
<stop offset="0.354167" stop-color="#6299C0"/>
<stop offset="0.601721" stop-color="#3B6B8E"/>
<stop offset="1" stop-color="#09213D"/>
</linearGradient>
<linearGradient id="paint3_linear_150_4260" x1="2952.5" y1="59.5448" x2="-29.5" y2="-76.9551" gradientUnits="userSpaceOnUse">
<stop offset="0.106947" stop-color="#F1FAFC"/>
<stop offset="0.210416" stop-color="#39AFDD"/>
<stop offset="0.417878" stop-color="#1664AB"/>
<stop offset="0.577447" stop-color="#08367A"/>
<stop offset="0.877611" stop-color="#142C53"/>
<stop offset="1" stop-color="#142C52"/>
</linearGradient>
<clipPath id="clip0_150_4260">
<rect width="1920" height="4657" fill="white" transform="translate(0 -3447)"/>
</clipPath>
</defs>
</svg>
