<svg width="1000" height="210" viewBox="0 0 1000 210" fill="none" xmlns="http://www.w3.org/2000/svg">
<g clip-path="url(#clip0_117_867)">
<rect width="1000" height="4814" transform="translate(0 -2346)" fill="white"/>
<g opacity="0.5">
<path d="M1804.54 119.503L1765.45 363.756H-400L-342.222 67.8875L-59.0186 150.144C469.106 258.016 675.467 61.4239 1012.28 -1.38571C1315.12 -57.8577 1804.54 1.16095 1804.54 119.503Z" fill="url(#paint0_linear_117_867)"/>
<path d="M1804.54 119.503L1765.45 363.756H-400L-342.222 67.8875L-59.0186 150.144C469.106 258.016 675.467 61.4239 1012.28 -1.38571C1315.12 -57.8577 1804.54 1.16095 1804.54 119.503Z" fill="#96B5F2"/>
<path d="M1804.54 127.382L1765.45 371.635H-400L-342.222 75.7664L-59.0186 158.022C469.106 265.895 675.467 69.3027 1012.28 6.49313C1315.12 -49.9789 1804.54 9.03979 1804.54 127.382Z" fill="url(#paint1_linear_117_867)"/>
<path d="M1804.54 127.382L1765.45 371.635H-400L-342.222 75.7664L-59.0186 158.022C469.106 265.895 675.467 69.3027 1012.28 6.49313C1315.12 -49.9789 1804.54 9.03979 1804.54 127.382Z" fill="#AEC9FF"/>
<path d="M1835.09 135.261L1796 379.514H-369.445L-311.668 83.6452L-28.4644 165.901C499.66 273.774 706.021 77.1815 1042.84 14.372C1345.67 -42.1 1835.09 16.9186 1835.09 135.261Z" fill="url(#paint2_linear_117_867)"/>
<path d="M1835.09 135.261L1796 379.514H-369.445L-311.668 83.6452L-28.4644 165.901C499.66 273.774 706.021 77.1815 1042.84 14.372C1345.67 -42.1 1835.09 16.9186 1835.09 135.261Z" fill="#DEE9FF"/>
</g>
<path d="M1888.59 147.174L1849.51 391.909H-315.615L-325.945 71.6948L25.3149 177.875C553.359 285.96 759.689 88.9803 1096.46 26.0469C1399.24 -30.5364 1888.59 28.5986 1888.59 147.174Z" fill="url(#paint3_linear_117_867)"/>
</g>
<defs>
<linearGradient id="paint0_linear_117_867" x1="803.033" y1="396.025" x2="802.926" y2="99.9577" gradientUnits="userSpaceOnUse">
<stop stop-color="#B1DEFF"/>
<stop offset="0.354167" stop-color="#6299C0"/>
<stop offset="0.601721" stop-color="#3B6B8E"/>
<stop offset="1" stop-color="#09213D"/>
</linearGradient>
<linearGradient id="paint1_linear_117_867" x1="803.033" y1="403.904" x2="802.926" y2="107.837" gradientUnits="userSpaceOnUse">
<stop stop-color="#B1DEFF"/>
<stop offset="0.354167" stop-color="#6299C0"/>
<stop offset="0.601721" stop-color="#3B6B8E"/>
<stop offset="1" stop-color="#09213D"/>
</linearGradient>
<linearGradient id="paint2_linear_117_867" x1="833.587" y1="411.783" x2="833.48" y2="115.715" gradientUnits="userSpaceOnUse">
<stop stop-color="#B1DEFF"/>
<stop offset="0.354167" stop-color="#6299C0"/>
<stop offset="0.601721" stop-color="#3B6B8E"/>
<stop offset="1" stop-color="#09213D"/>
</linearGradient>
<linearGradient id="paint3_linear_117_867" x1="2267.79" y1="406.523" x2="121.486" y2="87.4736" gradientUnits="userSpaceOnUse">
<stop offset="0.106947" stop-color="#F1FAFC"/>
<stop offset="0.210416" stop-color="#39AFDD"/>
<stop offset="0.417878" stop-color="#1664AB"/>
<stop offset="0.63123" stop-color="#08367A"/>
<stop offset="1" stop-color="#142C52"/>
</linearGradient>
<clipPath id="clip0_117_867">
<rect width="1000" height="4814" fill="white" transform="translate(0 -2346)"/>
</clipPath>
</defs>
</svg>
