<svg width="768" height="582" viewBox="0 0 768 582" fill="none" xmlns="http://www.w3.org/2000/svg">
<g opacity="0.5">
<path d="M-317.939 383.724L-282.594 43.8752H1675.27L1623.03 455.541L1366.98 341.092C889.479 191 702.9 464.535 398.37 551.926C124.567 630.5 -317.939 548.383 -317.939 383.724Z" fill="url(#paint0_linear_124_1474)"/>
<path d="M-317.939 383.724L-282.594 43.8752H1675.27L1623.03 455.541L1366.98 341.092C889.479 191 702.9 464.535 398.37 551.926C124.567 630.5 -317.939 548.383 -317.939 383.724Z" fill="#96B5F2"/>
<path d="M-317.939 372.762L-282.594 32.9127H1675.27L1623.03 444.579L1366.98 330.129C889.479 180.038 702.9 453.572 398.37 540.964C124.567 619.538 -317.939 537.421 -317.939 372.762Z" fill="url(#paint1_linear_124_1474)"/>
<path d="M-317.939 372.762L-282.594 32.9127H1675.27L1623.03 444.579L1366.98 330.129C889.479 180.038 702.9 453.572 398.37 540.964C124.567 619.538 -317.939 537.421 -317.939 372.762Z" fill="#AEC9FF"/>
<path d="M-345.564 361.799L-310.219 21.9502H1647.64L1595.41 433.616L1339.35 319.167C861.853 169.075 675.274 442.609 370.744 530.001C96.9417 608.575 -345.564 526.458 -345.564 361.799Z" fill="url(#paint2_linear_124_1474)"/>
<path d="M-345.564 361.799L-310.219 21.9502H1647.64L1595.41 433.616L1339.35 319.167C861.853 169.075 675.274 442.609 370.744 530.001C96.9417 608.575 -345.564 526.458 -345.564 361.799Z" fill="#DEE9FF"/>
</g>
<g opacity="0.5">
<path d="M1647.64 383.42L1612.3 43.5709H-345.565L-293.326 455.237L-37.2706 340.787C440.227 190.696 626.806 464.23 931.336 551.622C1205.14 630.196 1647.64 548.079 1647.64 383.42Z" fill="url(#paint3_linear_124_1474)"/>
<path d="M1647.64 383.42L1612.3 43.5709H-345.565L-293.326 455.237L-37.2706 340.787C440.227 190.696 626.806 464.23 931.336 551.622C1205.14 630.196 1647.64 548.079 1647.64 383.42Z" fill="#96B5F2"/>
<path d="M1647.64 372.457L1612.3 32.6083H-345.565L-293.326 444.274L-37.2706 329.825C440.227 179.733 626.806 453.268 931.336 540.659C1205.14 619.234 1647.64 537.116 1647.64 372.457Z" fill="url(#paint4_linear_124_1474)"/>
<path d="M1647.64 372.457L1612.3 32.6083H-345.565L-293.326 444.274L-37.2706 329.825C440.227 179.733 626.806 453.268 931.336 540.659C1205.14 619.234 1647.64 537.116 1647.64 372.457Z" fill="#AEC9FF"/>
<path d="M1675.27 361.495L1639.93 21.6458H-317.939L-265.7 433.312L-9.64514 318.862C467.852 168.771 654.431 442.305 958.961 529.697C1232.76 608.271 1675.27 526.154 1675.27 361.495Z" fill="url(#paint5_linear_124_1474)"/>
<path d="M1675.27 361.495L1639.93 21.6458H-317.939L-265.7 433.312L-9.64514 318.862C467.852 168.771 654.431 442.305 958.961 529.697C1232.76 608.271 1675.27 526.154 1675.27 361.495Z" fill="#DEE9FF"/>
</g>
<path d="M-400 374.627L-364.655 -15.2222H1593.21L1540.97 446.444L1284.92 331.994C807.418 181.903 620.839 455.437 316.309 542.829C42.5062 621.403 -400 539.286 -400 374.627Z" fill="url(#paint6_linear_124_1474)"/>
<defs>
<linearGradient id="paint0_linear_124_1474" x1="587.562" y1="-1.02266" x2="587.792" y2="410.919" gradientUnits="userSpaceOnUse">
<stop stop-color="#B1DEFF"/>
<stop offset="0.354167" stop-color="#6299C0"/>
<stop offset="0.601721" stop-color="#3B6B8E"/>
<stop offset="1" stop-color="#09213D"/>
</linearGradient>
<linearGradient id="paint1_linear_124_1474" x1="587.562" y1="-11.9852" x2="587.792" y2="399.957" gradientUnits="userSpaceOnUse">
<stop stop-color="#B1DEFF"/>
<stop offset="0.354167" stop-color="#6299C0"/>
<stop offset="0.601721" stop-color="#3B6B8E"/>
<stop offset="1" stop-color="#09213D"/>
</linearGradient>
<linearGradient id="paint2_linear_124_1474" x1="559.937" y1="-22.9477" x2="560.166" y2="388.994" gradientUnits="userSpaceOnUse">
<stop stop-color="#B1DEFF"/>
<stop offset="0.354167" stop-color="#6299C0"/>
<stop offset="0.601721" stop-color="#3B6B8E"/>
<stop offset="1" stop-color="#09213D"/>
</linearGradient>
<linearGradient id="paint3_linear_124_1474" x1="742.143" y1="-1.32698" x2="741.914" y2="410.615" gradientUnits="userSpaceOnUse">
<stop stop-color="#B1DEFF"/>
<stop offset="0.354167" stop-color="#6299C0"/>
<stop offset="0.601721" stop-color="#3B6B8E"/>
<stop offset="1" stop-color="#09213D"/>
</linearGradient>
<linearGradient id="paint4_linear_124_1474" x1="742.143" y1="-12.2896" x2="741.914" y2="399.652" gradientUnits="userSpaceOnUse">
<stop stop-color="#B1DEFF"/>
<stop offset="0.354167" stop-color="#6299C0"/>
<stop offset="0.601721" stop-color="#3B6B8E"/>
<stop offset="1" stop-color="#09213D"/>
</linearGradient>
<linearGradient id="paint5_linear_124_1474" x1="769.769" y1="-23.2522" x2="769.539" y2="388.69" gradientUnits="userSpaceOnUse">
<stop stop-color="#B1DEFF"/>
<stop offset="0.354167" stop-color="#6299C0"/>
<stop offset="0.601721" stop-color="#3B6B8E"/>
<stop offset="1" stop-color="#09213D"/>
</linearGradient>
<linearGradient id="paint6_linear_124_1474" x1="-940.529" y1="-24.6679" x2="1224.33" y2="186.925" gradientUnits="userSpaceOnUse">
<stop offset="0.106947" stop-color="#F1FAFC"/>
<stop offset="0.210416" stop-color="#39AFDD"/>
<stop offset="0.417878" stop-color="#1664AB"/>
<stop offset="0.63123" stop-color="#08367A"/>
<stop offset="1" stop-color="#142C52"/>
</linearGradient>
</defs>
</svg>
