<svg viewBox="0 0 320 74" fill="none" xmlns="http://www.w3.org/2000/svg">
<g opacity="0.5">
<path d="M546.82 44.4651L534.074 124.107H-172L-153.161 27.6351L-60.8182 54.4558C111.384 89.6291 178.671 25.5276 288.495 5.04767C387.237 -13.3658 546.82 5.87804 546.82 44.4651Z" fill="url(#paint0_linear_2188_8075)"/>
<path d="M546.82 44.4651L534.074 124.107H-172L-153.161 27.6351L-60.8182 54.4558C111.384 89.6291 178.671 25.5276 288.495 5.04767C387.237 -13.3658 546.82 5.87804 546.82 44.4651Z" fill="#96B5F2"/>
<path d="M546.82 47.0341L534.074 126.676H-172L-153.161 30.2041L-60.8182 57.0248C111.384 92.1981 178.671 28.0965 288.495 7.61664C387.237 -10.7968 546.82 8.44701 546.82 47.0341Z" fill="url(#paint1_linear_2188_8075)"/>
<path d="M546.82 47.0341L534.074 126.676H-172L-153.161 30.2041L-60.8182 57.0248C111.384 92.1981 178.671 28.0965 288.495 7.61664C387.237 -10.7968 546.82 8.44701 546.82 47.0341Z" fill="#AEC9FF"/>
<path d="M556.782 49.6031L544.036 129.245H-162.038L-143.199 32.7731L-50.8563 59.5938C121.346 94.7671 188.633 30.6655 298.457 10.1856C397.199 -8.22786 556.782 11.016 556.782 49.6031Z" fill="url(#paint2_linear_2188_8075)"/>
<path d="M556.782 49.6031L544.036 129.245H-162.038L-143.199 32.7731L-50.8563 59.5938C121.346 94.7671 188.633 30.6655 298.457 10.1856C397.199 -8.22786 556.782 11.016 556.782 49.6031Z" fill="#DEE9FF"/>
</g>
<path d="M574.227 53.4875L561.482 292.581H-144.485L-147.853 28.8764L-33.3203 63.4978C138.856 98.7405 206.132 34.5126 315.94 13.9923C414.668 -4.45746 574.227 14.8243 574.227 53.4875Z" fill="url(#paint3_linear_2188_8075)"/>
<defs>
<linearGradient id="paint0_linear_2188_8075" x1="220.265" y1="134.629" x2="220.23" y2="38.092" gradientUnits="userSpaceOnUse">
<stop stop-color="#B1DEFF"/>
<stop offset="0.354167" stop-color="#6299C0"/>
<stop offset="0.601721" stop-color="#3B6B8E"/>
<stop offset="1" stop-color="#09213D"/>
</linearGradient>
<linearGradient id="paint1_linear_2188_8075" x1="220.265" y1="137.198" x2="220.23" y2="40.661" gradientUnits="userSpaceOnUse">
<stop stop-color="#B1DEFF"/>
<stop offset="0.354167" stop-color="#6299C0"/>
<stop offset="0.601721" stop-color="#3B6B8E"/>
<stop offset="1" stop-color="#09213D"/>
</linearGradient>
<linearGradient id="paint2_linear_2188_8075" x1="230.227" y1="139.767" x2="230.192" y2="43.23" gradientUnits="userSpaceOnUse">
<stop stop-color="#B1DEFF"/>
<stop offset="0.354167" stop-color="#6299C0"/>
<stop offset="0.601721" stop-color="#3B6B8E"/>
<stop offset="1" stop-color="#09213D"/>
</linearGradient>
<linearGradient id="paint3_linear_2188_8075" x1="697.87" y1="138.051" x2="-1.96236" y2="34.0211" gradientUnits="userSpaceOnUse">
<stop offset="0.106947" stop-color="#F1FAFC"/>
<stop offset="0.210416" stop-color="#39AFDD"/>
<stop offset="0.417878" stop-color="#1664AB"/>
<stop offset="0.63123" stop-color="#08367A"/>
<stop offset="1" stop-color="#142C52"/>
</linearGradient>
</defs>
</svg>
