<svg viewBox="0 0 1920 589" fill="none" xmlns="http://www.w3.org/2000/svg">
<g clip-path="url(#clip0_150_4260)">
<g opacity="0.5">
<path d="M18.2217 337.18L63.1117 -94.4459H2549.7L2483.35 428.391L2158.15 283.034C1551.7 92.4101 1314.74 439.813 927.97 550.805C580.227 650.598 18.2217 546.305 18.2217 337.18Z" fill="url(#paint0_linear_150_4260)"/>
<path d="M18.2217 337.18L63.1117 -94.4459H2549.7L2483.35 428.391L2158.15 283.034C1551.7 92.4101 1314.74 439.813 927.97 550.805C580.227 650.598 18.2217 546.305 18.2217 337.18Z" fill="#96B5F2"/>
<path d="M18.2217 323.257L63.1117 -108.369H2549.7L2483.35 414.468L2158.15 269.111C1551.7 78.4872 1314.74 425.89 927.97 536.882C580.227 636.675 18.2217 532.382 18.2217 323.257Z" fill="url(#paint1_linear_150_4260)"/>
<path d="M18.2217 323.257L63.1117 -108.369H2549.7L2483.35 414.468L2158.15 269.111C1551.7 78.4872 1314.74 425.89 927.97 536.882C580.227 636.675 18.2217 532.382 18.2217 323.257Z" fill="#AEC9FF"/>
<path d="M-16.8643 309.334L28.0257 -122.292H2514.61L2448.27 400.545L2123.06 255.188C1516.62 64.5642 1279.65 411.967 892.885 522.959C545.141 622.752 -16.8643 518.459 -16.8643 309.334Z" fill="url(#paint2_linear_150_4260)"/>
<path d="M-16.8643 309.334L28.0257 -122.292H2514.61L2448.27 400.545L2123.06 255.188C1516.62 64.5642 1279.65 411.967 892.885 522.959C545.141 622.752 -16.8643 518.459 -16.8643 309.334Z" fill="#DEE9FF"/>
</g>
<g opacity="0.5">
<path d="M2514.61 309.471L2469.72 -122.154H-16.8645L49.4814 400.683L374.685 255.326C981.131 64.702 1218.1 412.105 1604.86 523.097C1952.61 622.89 2514.61 518.597 2514.61 309.471Z" fill="url(#paint3_linear_150_4260)"/>
<path d="M2514.61 309.471L2469.72 -122.154H-16.8645L49.4814 400.683L374.685 255.326C981.131 64.702 1218.1 412.105 1604.86 523.097C1952.61 622.89 2514.61 518.597 2514.61 309.471Z" fill="#96B5F2"/>
<path d="M2514.61 295.548L2469.72 -136.077H-16.8645L49.4814 386.76L374.685 241.403C981.131 50.779 1218.1 398.182 1604.86 509.174C1952.61 608.967 2514.61 504.674 2514.61 295.548Z" fill="url(#paint4_linear_150_4260)"/>
<path d="M2514.61 295.548L2469.72 -136.077H-16.8645L49.4814 386.76L374.685 241.403C981.131 50.779 1218.1 398.182 1604.86 509.174C1952.61 608.967 2514.61 504.674 2514.61 295.548Z" fill="#AEC9FF"/>
<path d="M2549.7 281.625L2504.81 -150H18.2214L84.5674 372.837L409.771 227.48C1016.22 36.856 1253.18 384.259 1639.95 495.251C1987.69 595.044 2549.7 490.751 2549.7 281.625Z" fill="url(#paint5_linear_150_4260)"/>
<path d="M2549.7 281.625L2504.81 -150H18.2214L84.5674 372.837L409.771 227.48C1016.22 36.856 1253.18 384.259 1639.95 495.251C1987.69 595.044 2549.7 490.751 2549.7 281.625Z" fill="#DEE9FF"/>
</g>
<path d="M-86 325.625L-41.11 -106H2445.48L2379.13 416.837L2053.93 271.48C1447.48 80.856 1210.52 428.259 823.749 539.251C476.005 639.044 -86 534.751 -86 325.625Z" fill="url(#paint6_linear_150_4260)"/>
</g>
<defs>
<linearGradient id="paint0_linear_150_4260" x1="1168.25" y1="-151.469" x2="1168.55" y2="371.719" gradientUnits="userSpaceOnUse">
<stop stop-color="#B1DEFF"/>
<stop offset="0.354167" stop-color="#6299C0"/>
<stop offset="0.601721" stop-color="#3B6B8E"/>
<stop offset="1" stop-color="#09213D"/>
</linearGradient>
<linearGradient id="paint1_linear_150_4260" x1="1168.25" y1="-165.392" x2="1168.55" y2="357.796" gradientUnits="userSpaceOnUse">
<stop stop-color="#B1DEFF"/>
<stop offset="0.354167" stop-color="#6299C0"/>
<stop offset="0.601721" stop-color="#3B6B8E"/>
<stop offset="1" stop-color="#09213D"/>
</linearGradient>
<linearGradient id="paint2_linear_150_4260" x1="1133.17" y1="-179.315" x2="1133.46" y2="343.873" gradientUnits="userSpaceOnUse">
<stop stop-color="#B1DEFF"/>
<stop offset="0.354167" stop-color="#6299C0"/>
<stop offset="0.601721" stop-color="#3B6B8E"/>
<stop offset="1" stop-color="#09213D"/>
</linearGradient>
<linearGradient id="paint3_linear_150_4260" x1="1364.58" y1="-179.177" x2="1364.29" y2="344.011" gradientUnits="userSpaceOnUse">
<stop stop-color="#B1DEFF"/>
<stop offset="0.354167" stop-color="#6299C0"/>
<stop offset="0.601721" stop-color="#3B6B8E"/>
<stop offset="1" stop-color="#09213D"/>
</linearGradient>
<linearGradient id="paint4_linear_150_4260" x1="1364.58" y1="-193.1" x2="1364.29" y2="330.088" gradientUnits="userSpaceOnUse">
<stop stop-color="#B1DEFF"/>
<stop offset="0.354167" stop-color="#6299C0"/>
<stop offset="0.601721" stop-color="#3B6B8E"/>
<stop offset="1" stop-color="#09213D"/>
</linearGradient>
<linearGradient id="paint5_linear_150_4260" x1="1399.67" y1="-207.023" x2="1399.37" y2="316.165" gradientUnits="userSpaceOnUse">
<stop stop-color="#B1DEFF"/>
<stop offset="0.354167" stop-color="#6299C0"/>
<stop offset="0.601721" stop-color="#3B6B8E"/>
<stop offset="1" stop-color="#09213D"/>
</linearGradient>
<linearGradient id="paint6_linear_150_4260" x1="-772.5" y1="-181.5" x2="1976.98" y2="87.2338" gradientUnits="userSpaceOnUse">
<stop offset="0.106947" stop-color="#F1FAFC"/>
<stop offset="0.210416" stop-color="#39AFDD"/>
<stop offset="0.417878" stop-color="#1664AB"/>
<stop offset="0.63123" stop-color="#08367A"/>
<stop offset="1" stop-color="#142C52"/>
</linearGradient>
<clipPath id="clip0_150_4260">
<rect width="1920" height="4657" fill="transparent"/>
</clipPath>
</defs>
</svg>
