<svg width="480" height="513" viewBox="0 0 480 513" fill="none" xmlns="http://www.w3.org/2000/svg">
<g opacity="0.5">
<path d="M-353.444 342.686L-327.361 50.7634H1117.42L1078.87 404.375L889.918 306.066C537.555 177.14 399.871 412.1 175.147 487.168C-26.9021 554.661 -353.444 484.124 -353.444 342.686Z" fill="url(#paint0_linear_124_2179)"/>
<path d="M-353.444 342.686L-327.361 50.7634H1117.42L1078.87 404.375L889.918 306.066C537.555 177.14 399.871 412.1 175.147 487.168C-26.9021 554.661 -353.444 484.124 -353.444 342.686Z" fill="#96B5F2"/>
<path d="M-353.444 333.269L-327.361 41.3467H1117.42L1078.87 394.958L889.918 296.649C537.555 167.723 399.871 402.683 175.147 477.751C-26.9021 545.244 -353.444 474.707 -353.444 333.269Z" fill="url(#paint1_linear_124_2179)"/>
<path d="M-353.444 333.269L-327.361 41.3467H1117.42L1078.87 394.958L889.918 296.649C537.555 167.723 399.871 402.683 175.147 477.751C-26.9021 545.244 -353.444 474.707 -353.444 333.269Z" fill="#AEC9FF"/>
<path d="M-373.83 323.852L-347.747 31.9302H1097.03L1058.48 385.542L869.532 287.232C517.169 158.307 379.485 393.267 154.761 468.334C-47.2879 535.828 -373.83 465.291 -373.83 323.852Z" fill="url(#paint2_linear_124_2179)"/>
<path d="M-373.83 323.852L-347.747 31.9302H1097.03L1058.48 385.542L869.532 287.232C517.169 158.307 379.485 393.267 154.761 468.334C-47.2879 535.828 -373.83 465.291 -373.83 323.852Z" fill="#DEE9FF"/>
</g>
<g opacity="0.5">
<path d="M1097.03 342.424L1070.95 50.5018H-373.83L-335.281 404.113L-146.328 305.804C206.035 176.879 343.718 411.838 568.442 486.906C770.491 554.399 1097.03 483.862 1097.03 342.424Z" fill="url(#paint3_linear_124_2179)"/>
<path d="M1097.03 342.424L1070.95 50.5018H-373.83L-335.281 404.113L-146.328 305.804C206.035 176.879 343.718 411.838 568.442 486.906C770.491 554.399 1097.03 483.862 1097.03 342.424Z" fill="#96B5F2"/>
<path d="M1097.03 333.007L1070.95 41.0852H-373.83L-335.281 394.697L-146.328 296.387C206.035 167.462 343.718 402.422 568.442 477.489C770.491 544.983 1097.03 474.446 1097.03 333.007Z" fill="url(#paint4_linear_124_2179)"/>
<path d="M1097.03 333.007L1070.95 41.0852H-373.83L-335.281 394.697L-146.328 296.387C206.035 167.462 343.718 402.422 568.442 477.489C770.491 544.983 1097.03 474.446 1097.03 333.007Z" fill="#AEC9FF"/>
<path d="M1117.42 323.591L1091.34 31.6686H-353.444L-314.895 385.28L-125.943 286.971C226.421 158.045 364.104 393.005 588.828 468.073C790.877 535.566 1117.42 465.029 1117.42 323.591Z" fill="url(#paint5_linear_124_2179)"/>
<path d="M1117.42 323.591L1091.34 31.6686H-353.444L-314.895 385.28L-125.943 286.971C226.421 158.045 364.104 393.005 588.828 468.073C790.877 535.566 1117.42 465.029 1117.42 323.591Z" fill="#DEE9FF"/>
</g>
<path d="M-414 334.976L-387.913 0H1057.1L1018.55 396.684L829.562 298.344C477.142 169.378 339.437 404.412 114.676 479.503C-87.4055 547.017 -414 476.458 -414 334.976Z" fill="url(#paint6_linear_124_2179)"/>
<defs>
<linearGradient id="paint0_linear_124_2179" x1="314.759" y1="12.1972" x2="314.989" y2="366.046" gradientUnits="userSpaceOnUse">
<stop stop-color="#B1DEFF"/>
<stop offset="0.354167" stop-color="#6299C0"/>
<stop offset="0.601721" stop-color="#3B6B8E"/>
<stop offset="1" stop-color="#09213D"/>
</linearGradient>
<linearGradient id="paint1_linear_124_2179" x1="314.759" y1="2.78042" x2="314.989" y2="356.629" gradientUnits="userSpaceOnUse">
<stop stop-color="#B1DEFF"/>
<stop offset="0.354167" stop-color="#6299C0"/>
<stop offset="0.601721" stop-color="#3B6B8E"/>
<stop offset="1" stop-color="#09213D"/>
</linearGradient>
<linearGradient id="paint2_linear_124_2179" x1="294.373" y1="-6.63608" x2="294.603" y2="347.212" gradientUnits="userSpaceOnUse">
<stop stop-color="#B1DEFF"/>
<stop offset="0.354167" stop-color="#6299C0"/>
<stop offset="0.601721" stop-color="#3B6B8E"/>
<stop offset="1" stop-color="#09213D"/>
</linearGradient>
<linearGradient id="paint3_linear_124_2179" x1="428.83" y1="11.9356" x2="428.601" y2="365.784" gradientUnits="userSpaceOnUse">
<stop stop-color="#B1DEFF"/>
<stop offset="0.354167" stop-color="#6299C0"/>
<stop offset="0.601721" stop-color="#3B6B8E"/>
<stop offset="1" stop-color="#09213D"/>
</linearGradient>
<linearGradient id="paint4_linear_124_2179" x1="428.83" y1="2.51895" x2="428.601" y2="356.367" gradientUnits="userSpaceOnUse">
<stop stop-color="#B1DEFF"/>
<stop offset="0.354167" stop-color="#6299C0"/>
<stop offset="0.601721" stop-color="#3B6B8E"/>
<stop offset="1" stop-color="#09213D"/>
</linearGradient>
<linearGradient id="paint5_linear_124_2179" x1="449.216" y1="-6.89768" x2="448.986" y2="346.951" gradientUnits="userSpaceOnUse">
<stop stop-color="#B1DEFF"/>
<stop offset="0.354167" stop-color="#6299C0"/>
<stop offset="0.601721" stop-color="#3B6B8E"/>
<stop offset="1" stop-color="#09213D"/>
</linearGradient>
<linearGradient id="paint6_linear_124_2179" x1="-812.941" y1="-8.11618" x2="788.818" y2="126.359" gradientUnits="userSpaceOnUse">
<stop offset="0.106947" stop-color="#F1FAFC"/>
<stop offset="0.210416" stop-color="#39AFDD"/>
<stop offset="0.417878" stop-color="#1664AB"/>
<stop offset="0.63123" stop-color="#08367A"/>
<stop offset="1" stop-color="#142C52"/>
</linearGradient>
</defs>
</svg>
