<svg  viewBox="0 0 480 101" fill="none" xmlns="http://www.w3.org/2000/svg">
<g opacity="0.5">
<path d="M981.435 51.3081L959.953 185.53H-230L-198.25 22.9443L-42.6248 68.1455C247.589 127.423 360.988 19.3924 546.076 -15.1226C712.488 -46.155 981.435 -13.7232 981.435 51.3081Z" fill="url(#paint0_linear_2188_8076)"/>
<path d="M981.435 51.3081L959.953 185.53H-230L-198.25 22.9443L-42.6248 68.1455C247.589 127.423 360.988 19.3924 546.076 -15.1226C712.488 -46.155 981.435 -13.7232 981.435 51.3081Z" fill="#96B5F2"/>
<path d="M981.435 55.6376L959.953 189.859H-230L-198.25 27.2739L-42.6248 72.4751C247.589 131.753 360.988 23.722 546.076 -10.793C712.488 -41.8255 981.435 -9.3936 981.435 55.6376Z" fill="url(#paint1_linear_2188_8076)"/>
<path d="M981.435 55.6376L959.953 189.859H-230L-198.25 27.2739L-42.6248 72.4751C247.589 131.753 360.988 23.722 546.076 -10.793C712.488 -41.8255 981.435 -9.3936 981.435 55.6376Z" fill="#AEC9FF"/>
<path d="M998.225 59.9672L976.743 194.189H-213.211L-181.461 31.6035L-25.8352 76.8047C264.379 136.083 377.778 28.0516 562.866 -6.46344C729.278 -37.4959 998.225 -5.06401 998.225 59.9672Z" fill="url(#paint2_linear_2188_8076)"/>
<path d="M998.225 59.9672L976.743 194.189H-213.211L-181.461 31.6035L-25.8352 76.8047C264.379 136.083 377.778 28.0516 562.866 -6.46344C729.278 -37.4959 998.225 -5.06401 998.225 59.9672Z" fill="#DEE9FF"/>
</g>
<path d="M1027.62 66.5139L1006.14 247H-183.629L-189.306 25.0366L3.71771 83.3845C293.888 142.779 407.27 34.5353 592.33 -0.0477448C758.717 -31.1413 1027.62 1.35445 1027.62 66.5139Z" fill="url(#paint3_linear_2188_8076)"/>
<defs>
<linearGradient id="paint0_linear_2188_8076" x1="431.088" y1="203.262" x2="431.03" y2="40.5674" gradientUnits="userSpaceOnUse">
<stop stop-color="#B1DEFF"/>
<stop offset="0.354167" stop-color="#6299C0"/>
<stop offset="0.601721" stop-color="#3B6B8E"/>
<stop offset="1" stop-color="#09213D"/>
</linearGradient>
<linearGradient id="paint1_linear_2188_8076" x1="431.088" y1="207.591" x2="431.03" y2="44.897" gradientUnits="userSpaceOnUse">
<stop stop-color="#B1DEFF"/>
<stop offset="0.354167" stop-color="#6299C0"/>
<stop offset="0.601721" stop-color="#3B6B8E"/>
<stop offset="1" stop-color="#09213D"/>
</linearGradient>
<linearGradient id="paint2_linear_2188_8076" x1="447.878" y1="211.921" x2="447.819" y2="49.2266" gradientUnits="userSpaceOnUse">
<stop stop-color="#B1DEFF"/>
<stop offset="0.354167" stop-color="#6299C0"/>
<stop offset="0.601721" stop-color="#3B6B8E"/>
<stop offset="1" stop-color="#09213D"/>
</linearGradient>
<linearGradient id="paint3_linear_2188_8076" x1="1236" y1="209.031" x2="56.5654" y2="33.7075" gradientUnits="userSpaceOnUse">
<stop offset="0.106947" stop-color="#F1FAFC"/>
<stop offset="0.210416" stop-color="#39AFDD"/>
<stop offset="0.417878" stop-color="#1664AB"/>
<stop offset="0.63123" stop-color="#08367A"/>
<stop offset="1" stop-color="#142C52"/>
</linearGradient>
</defs>
</svg>
